M48
; DRILL file {KiCad (5.1.7)-1} date 10/23/20 17:33:57
; FORMAT={-:-/ absolute / inch / decimal}
; #@! TF.CreationDate,2020-10-23T17:33:57-04:00
; #@! TF.GenerationSoftware,Kicad,Pcbnew,(5.1.7)-1
; #@! TF.FileFunction,Plated,1,2,PTH
FMAT,2
INCH
T1C0.0157
T2C0.0390
T3C0.0394
T4C0.0530
%
G90
G05
T1
X3.948Y-3.5415
X4.0925Y-2.392
X4.1535Y-3.017
X4.392Y-3.113
X4.4Y-3.19
X4.41Y-3.246
X4.4146Y-3.5294
X4.47Y-3.8
X4.47Y-3.96
X4.518Y-2.569
X4.52Y-2.65
X4.58Y-2.64
X4.5922Y-2.9742
X4.63Y-2.56
X4.6362Y-3.3748
X4.71Y-3.3685
X4.7325Y-2.6345
X4.78Y-3.46
X4.815Y-2.635
X4.899Y-3.37
X4.957Y-3.3725
X4.99Y-3.42
X5.0585Y-3.8565
X5.0939Y-2.7383
X5.133Y-3.4158
X5.142Y-3.7175
X5.1494Y-2.7715
X5.15Y-3.22
X5.17Y-3.28
X5.1752Y-2.8212
X5.22Y-2.99
X5.526Y-2.314
X5.5385Y-3.9605
X5.716Y-2.35
X5.8455Y-3.2315
T2
X4.9941Y-3.9393
X4.9941Y-4.1165
X5.25Y-3.9393
X5.25Y-4.1165
T3
X4.8232Y-3.5968
X4.8232Y-3.6968
X4.8232Y-3.7968
X4.8232Y-3.8968
X4.8232Y-3.9968
X4.8232Y-4.0968
X3.979Y-2.295
X3.979Y-2.395
X3.979Y-2.495
X3.979Y-2.595
X3.979Y-2.695
X3.9725Y-3.2415
X4.0725Y-3.2415
T4
X4.331Y-3.504
X5.025Y-3.504
T0
M30
