%TF.GenerationSoftware,KiCad,Pcbnew,(5.1.7)-1*%
%TF.CreationDate,2020-10-27T22:09:18-04:00*%
%TF.ProjectId,final_schematic,66696e61-6c5f-4736-9368-656d61746963,3*%
%TF.SameCoordinates,Original*%
%TF.FileFunction,Copper,L2,Bot*%
%TF.FilePolarity,Positive*%
%FSLAX46Y46*%
G04 Gerber Fmt 4.6, Leading zero omitted, Abs format (unit mm)*
G04 Created by KiCad (PCBNEW (5.1.7)-1) date 2020-10-27 22:09:18*
%MOMM*%
%LPD*%
G01*
G04 APERTURE LIST*
%TA.AperFunction,ComponentPad*%
%ADD10O,1.700000X1.700000*%
%TD*%
%TA.AperFunction,ComponentPad*%
%ADD11R,1.700000X1.700000*%
%TD*%
%TA.AperFunction,SMDPad,CuDef*%
%ADD12R,1.060000X0.650000*%
%TD*%
%TA.AperFunction,ComponentPad*%
%ADD13C,1.854200*%
%TD*%
%TA.AperFunction,ComponentPad*%
%ADD14R,1.854200X1.854200*%
%TD*%
%TA.AperFunction,ComponentPad*%
%ADD15C,1.498000*%
%TD*%
%TA.AperFunction,ComponentPad*%
%ADD16R,1.498000X1.498000*%
%TD*%
%TA.AperFunction,ViaPad*%
%ADD17C,0.800000*%
%TD*%
%TA.AperFunction,Conductor*%
%ADD18C,0.254000*%
%TD*%
%TA.AperFunction,Conductor*%
%ADD19C,0.406400*%
%TD*%
%TA.AperFunction,Conductor*%
%ADD20C,0.304800*%
%TD*%
%TA.AperFunction,Conductor*%
%ADD21C,0.203200*%
%TD*%
%TA.AperFunction,Conductor*%
%ADD22C,0.250000*%
%TD*%
%TA.AperFunction,Conductor*%
%ADD23C,0.609600*%
%TD*%
%TA.AperFunction,Conductor*%
%ADD24C,0.355600*%
%TD*%
%TA.AperFunction,Conductor*%
%ADD25C,0.100000*%
%TD*%
G04 APERTURE END LIST*
D10*
%TO.P,PROG,5*%
%TO.N,SWCLK*%
X101066600Y-68453000D03*
%TO.P,PROG,4*%
%TO.N,SWDIO*%
X101066600Y-65913000D03*
%TO.P,PROG,3*%
%TO.N,3V3*%
X101066600Y-63373000D03*
%TO.P,PROG,2*%
%TO.N,NRST*%
X101066600Y-60833000D03*
D11*
%TO.P,PROG,1*%
%TO.N,GND*%
X101066600Y-58293000D03*
%TD*%
D12*
%TO.P,U6,5*%
%TO.N,GPS_Vin*%
X120743800Y-71033600D03*
%TO.P,U6,4*%
%TO.N,LDO_ERR*%
X120743800Y-72933600D03*
%TO.P,U6,3*%
%TO.N,LDO_SHDN*%
X122943800Y-72933600D03*
%TO.P,U6,2*%
%TO.N,GND*%
X122943800Y-71983600D03*
%TO.P,U6,1*%
%TO.N,3V3*%
X122943800Y-71033600D03*
%TD*%
%TO.P,R13,2*%
%TO.N,I2C2_SDA*%
%TA.AperFunction,SMDPad,CuDef*%
G36*
G01*
X137865699Y-60182200D02*
X138765701Y-60182200D01*
G75*
G02*
X139015700Y-60432199I0J-249999D01*
G01*
X139015700Y-61132201D01*
G75*
G02*
X138765701Y-61382200I-249999J0D01*
G01*
X137865699Y-61382200D01*
G75*
G02*
X137615700Y-61132201I0J249999D01*
G01*
X137615700Y-60432199D01*
G75*
G02*
X137865699Y-60182200I249999J0D01*
G01*
G37*
%TD.AperFunction*%
%TO.P,R13,1*%
%TO.N,3V3*%
%TA.AperFunction,SMDPad,CuDef*%
G36*
G01*
X137865699Y-58182200D02*
X138765701Y-58182200D01*
G75*
G02*
X139015700Y-58432199I0J-249999D01*
G01*
X139015700Y-59132201D01*
G75*
G02*
X138765701Y-59382200I-249999J0D01*
G01*
X137865699Y-59382200D01*
G75*
G02*
X137615700Y-59132201I0J249999D01*
G01*
X137615700Y-58432199D01*
G75*
G02*
X137865699Y-58182200I249999J0D01*
G01*
G37*
%TD.AperFunction*%
%TD*%
%TO.P,R12,2*%
%TO.N,I2C1_SDA*%
%TA.AperFunction,SMDPad,CuDef*%
G36*
G01*
X109873201Y-79670200D02*
X108973199Y-79670200D01*
G75*
G02*
X108723200Y-79420201I0J249999D01*
G01*
X108723200Y-78720199D01*
G75*
G02*
X108973199Y-78470200I249999J0D01*
G01*
X109873201Y-78470200D01*
G75*
G02*
X110123200Y-78720199I0J-249999D01*
G01*
X110123200Y-79420201D01*
G75*
G02*
X109873201Y-79670200I-249999J0D01*
G01*
G37*
%TD.AperFunction*%
%TO.P,R12,1*%
%TO.N,3V3*%
%TA.AperFunction,SMDPad,CuDef*%
G36*
G01*
X109873201Y-81670200D02*
X108973199Y-81670200D01*
G75*
G02*
X108723200Y-81420201I0J249999D01*
G01*
X108723200Y-80720199D01*
G75*
G02*
X108973199Y-80470200I249999J0D01*
G01*
X109873201Y-80470200D01*
G75*
G02*
X110123200Y-80720199I0J-249999D01*
G01*
X110123200Y-81420201D01*
G75*
G02*
X109873201Y-81670200I-249999J0D01*
G01*
G37*
%TD.AperFunction*%
%TD*%
D10*
%TO.P,SYSOFF,2*%
%TO.N,SYSOFF*%
X100126800Y-84124800D03*
D11*
%TO.P,SYSOFF,1*%
%TO.N,GND*%
X102666800Y-84124800D03*
%TD*%
D10*
%TO.P,BB,6*%
%TO.N,BB_CE*%
X122509280Y-91358720D03*
%TO.P,BB,5*%
%TO.N,BB_GPOUT*%
X122509280Y-93898720D03*
%TO.P,BB,4*%
%TO.N,I2C3_SCL*%
X122509280Y-96438720D03*
%TO.P,BB,3*%
%TO.N,I2C3_SDA*%
X122509280Y-98978720D03*
%TO.P,BB,2*%
%TO.N,V_supply*%
X122509280Y-101518720D03*
D11*
%TO.P,BB,1*%
%TO.N,GND*%
X122509280Y-104058720D03*
%TD*%
%TO.P,C2,1*%
%TO.N,GND*%
%TA.AperFunction,SMDPad,CuDef*%
G36*
G01*
X146801602Y-104383800D02*
X145501598Y-104383800D01*
G75*
G02*
X145251600Y-104133802I0J249998D01*
G01*
X145251600Y-103308798D01*
G75*
G02*
X145501598Y-103058800I249998J0D01*
G01*
X146801602Y-103058800D01*
G75*
G02*
X147051600Y-103308798I0J-249998D01*
G01*
X147051600Y-104133802D01*
G75*
G02*
X146801602Y-104383800I-249998J0D01*
G01*
G37*
%TD.AperFunction*%
%TO.P,C2,2*%
%TO.N,Net-(C2-Pad2)*%
%TA.AperFunction,SMDPad,CuDef*%
G36*
G01*
X146801602Y-101258800D02*
X145501598Y-101258800D01*
G75*
G02*
X145251600Y-101008802I0J249998D01*
G01*
X145251600Y-100183798D01*
G75*
G02*
X145501598Y-99933800I249998J0D01*
G01*
X146801602Y-99933800D01*
G75*
G02*
X147051600Y-100183798I0J-249998D01*
G01*
X147051600Y-101008802D01*
G75*
G02*
X146801602Y-101258800I-249998J0D01*
G01*
G37*
%TD.AperFunction*%
%TD*%
%TO.P,C3,1*%
%TO.N,GND*%
%TA.AperFunction,SMDPad,CuDef*%
G36*
G01*
X132273000Y-102067598D02*
X132273000Y-103367602D01*
G75*
G02*
X132023002Y-103617600I-249998J0D01*
G01*
X131197998Y-103617600D01*
G75*
G02*
X130948000Y-103367602I0J249998D01*
G01*
X130948000Y-102067598D01*
G75*
G02*
X131197998Y-101817600I249998J0D01*
G01*
X132023002Y-101817600D01*
G75*
G02*
X132273000Y-102067598I0J-249998D01*
G01*
G37*
%TD.AperFunction*%
%TO.P,C3,2*%
%TO.N,Net-(C3-Pad2)*%
%TA.AperFunction,SMDPad,CuDef*%
G36*
G01*
X129148000Y-102067598D02*
X129148000Y-103367602D01*
G75*
G02*
X128898002Y-103617600I-249998J0D01*
G01*
X128072998Y-103617600D01*
G75*
G02*
X127823000Y-103367602I0J249998D01*
G01*
X127823000Y-102067598D01*
G75*
G02*
X128072998Y-101817600I249998J0D01*
G01*
X128898002Y-101817600D01*
G75*
G02*
X129148000Y-102067598I0J-249998D01*
G01*
G37*
%TD.AperFunction*%
%TD*%
%TO.P,C6,2*%
%TO.N,GND*%
%TA.AperFunction,SMDPad,CuDef*%
G36*
G01*
X126372600Y-72378900D02*
X127322600Y-72378900D01*
G75*
G02*
X127572600Y-72628900I0J-250000D01*
G01*
X127572600Y-73303900D01*
G75*
G02*
X127322600Y-73553900I-250000J0D01*
G01*
X126372600Y-73553900D01*
G75*
G02*
X126122600Y-73303900I0J250000D01*
G01*
X126122600Y-72628900D01*
G75*
G02*
X126372600Y-72378900I250000J0D01*
G01*
G37*
%TD.AperFunction*%
%TO.P,C6,1*%
%TO.N,3V3*%
%TA.AperFunction,SMDPad,CuDef*%
G36*
G01*
X126372600Y-70303900D02*
X127322600Y-70303900D01*
G75*
G02*
X127572600Y-70553900I0J-250000D01*
G01*
X127572600Y-71228900D01*
G75*
G02*
X127322600Y-71478900I-250000J0D01*
G01*
X126372600Y-71478900D01*
G75*
G02*
X126122600Y-71228900I0J250000D01*
G01*
X126122600Y-70553900D01*
G75*
G02*
X126372600Y-70303900I250000J0D01*
G01*
G37*
%TD.AperFunction*%
%TD*%
%TO.P,C7,1*%
%TO.N,3V3*%
%TA.AperFunction,SMDPad,CuDef*%
G36*
G01*
X117170800Y-82186800D02*
X117170800Y-81236800D01*
G75*
G02*
X117420800Y-80986800I250000J0D01*
G01*
X118095800Y-80986800D01*
G75*
G02*
X118345800Y-81236800I0J-250000D01*
G01*
X118345800Y-82186800D01*
G75*
G02*
X118095800Y-82436800I-250000J0D01*
G01*
X117420800Y-82436800D01*
G75*
G02*
X117170800Y-82186800I0J250000D01*
G01*
G37*
%TD.AperFunction*%
%TO.P,C7,2*%
%TO.N,GND*%
%TA.AperFunction,SMDPad,CuDef*%
G36*
G01*
X119245800Y-82186800D02*
X119245800Y-81236800D01*
G75*
G02*
X119495800Y-80986800I250000J0D01*
G01*
X120170800Y-80986800D01*
G75*
G02*
X120420800Y-81236800I0J-250000D01*
G01*
X120420800Y-82186800D01*
G75*
G02*
X120170800Y-82436800I-250000J0D01*
G01*
X119495800Y-82436800D01*
G75*
G02*
X119245800Y-82186800I0J250000D01*
G01*
G37*
%TD.AperFunction*%
%TD*%
%TO.P,C8,2*%
%TO.N,GND*%
%TA.AperFunction,SMDPad,CuDef*%
G36*
G01*
X123756000Y-81668600D02*
X123756000Y-82618600D01*
G75*
G02*
X123506000Y-82868600I-250000J0D01*
G01*
X122831000Y-82868600D01*
G75*
G02*
X122581000Y-82618600I0J250000D01*
G01*
X122581000Y-81668600D01*
G75*
G02*
X122831000Y-81418600I250000J0D01*
G01*
X123506000Y-81418600D01*
G75*
G02*
X123756000Y-81668600I0J-250000D01*
G01*
G37*
%TD.AperFunction*%
%TO.P,C8,1*%
%TO.N,3V3*%
%TA.AperFunction,SMDPad,CuDef*%
G36*
G01*
X125831000Y-81668600D02*
X125831000Y-82618600D01*
G75*
G02*
X125581000Y-82868600I-250000J0D01*
G01*
X124906000Y-82868600D01*
G75*
G02*
X124656000Y-82618600I0J250000D01*
G01*
X124656000Y-81668600D01*
G75*
G02*
X124906000Y-81418600I250000J0D01*
G01*
X125581000Y-81418600D01*
G75*
G02*
X125831000Y-81668600I0J-250000D01*
G01*
G37*
%TD.AperFunction*%
%TD*%
%TO.P,C9,2*%
%TO.N,GND*%
%TA.AperFunction,SMDPad,CuDef*%
G36*
G01*
X116197400Y-79360700D02*
X115247400Y-79360700D01*
G75*
G02*
X114997400Y-79110700I0J250000D01*
G01*
X114997400Y-78435700D01*
G75*
G02*
X115247400Y-78185700I250000J0D01*
G01*
X116197400Y-78185700D01*
G75*
G02*
X116447400Y-78435700I0J-250000D01*
G01*
X116447400Y-79110700D01*
G75*
G02*
X116197400Y-79360700I-250000J0D01*
G01*
G37*
%TD.AperFunction*%
%TO.P,C9,1*%
%TO.N,3V3*%
%TA.AperFunction,SMDPad,CuDef*%
G36*
G01*
X116197400Y-81435700D02*
X115247400Y-81435700D01*
G75*
G02*
X114997400Y-81185700I0J250000D01*
G01*
X114997400Y-80510700D01*
G75*
G02*
X115247400Y-80260700I250000J0D01*
G01*
X116197400Y-80260700D01*
G75*
G02*
X116447400Y-80510700I0J-250000D01*
G01*
X116447400Y-81185700D01*
G75*
G02*
X116197400Y-81435700I-250000J0D01*
G01*
G37*
%TD.AperFunction*%
%TD*%
%TO.P,C10,2*%
%TO.N,GND*%
%TA.AperFunction,SMDPad,CuDef*%
G36*
G01*
X117163000Y-71493400D02*
X117163000Y-70543400D01*
G75*
G02*
X117413000Y-70293400I250000J0D01*
G01*
X118088000Y-70293400D01*
G75*
G02*
X118338000Y-70543400I0J-250000D01*
G01*
X118338000Y-71493400D01*
G75*
G02*
X118088000Y-71743400I-250000J0D01*
G01*
X117413000Y-71743400D01*
G75*
G02*
X117163000Y-71493400I0J250000D01*
G01*
G37*
%TD.AperFunction*%
%TO.P,C10,1*%
%TO.N,3V3*%
%TA.AperFunction,SMDPad,CuDef*%
G36*
G01*
X115088000Y-71493400D02*
X115088000Y-70543400D01*
G75*
G02*
X115338000Y-70293400I250000J0D01*
G01*
X116013000Y-70293400D01*
G75*
G02*
X116263000Y-70543400I0J-250000D01*
G01*
X116263000Y-71493400D01*
G75*
G02*
X116013000Y-71743400I-250000J0D01*
G01*
X115338000Y-71743400D01*
G75*
G02*
X115088000Y-71493400I0J250000D01*
G01*
G37*
%TD.AperFunction*%
%TD*%
%TO.P,C11,1*%
%TO.N,3V3*%
%TA.AperFunction,SMDPad,CuDef*%
G36*
G01*
X127348000Y-80165700D02*
X126398000Y-80165700D01*
G75*
G02*
X126148000Y-79915700I0J250000D01*
G01*
X126148000Y-79240700D01*
G75*
G02*
X126398000Y-78990700I250000J0D01*
G01*
X127348000Y-78990700D01*
G75*
G02*
X127598000Y-79240700I0J-250000D01*
G01*
X127598000Y-79915700D01*
G75*
G02*
X127348000Y-80165700I-250000J0D01*
G01*
G37*
%TD.AperFunction*%
%TO.P,C11,2*%
%TO.N,GND*%
%TA.AperFunction,SMDPad,CuDef*%
G36*
G01*
X127348000Y-78090700D02*
X126398000Y-78090700D01*
G75*
G02*
X126148000Y-77840700I0J250000D01*
G01*
X126148000Y-77165700D01*
G75*
G02*
X126398000Y-76915700I250000J0D01*
G01*
X127348000Y-76915700D01*
G75*
G02*
X127598000Y-77165700I0J-250000D01*
G01*
X127598000Y-77840700D01*
G75*
G02*
X127348000Y-78090700I-250000J0D01*
G01*
G37*
%TD.AperFunction*%
%TD*%
%TO.P,C13,1*%
%TO.N,GPS_Vin*%
%TA.AperFunction,SMDPad,CuDef*%
G36*
G01*
X114148200Y-64013100D02*
X114148200Y-63063100D01*
G75*
G02*
X114398200Y-62813100I250000J0D01*
G01*
X115073200Y-62813100D01*
G75*
G02*
X115323200Y-63063100I0J-250000D01*
G01*
X115323200Y-64013100D01*
G75*
G02*
X115073200Y-64263100I-250000J0D01*
G01*
X114398200Y-64263100D01*
G75*
G02*
X114148200Y-64013100I0J250000D01*
G01*
G37*
%TD.AperFunction*%
%TO.P,C13,2*%
%TO.N,GND*%
%TA.AperFunction,SMDPad,CuDef*%
G36*
G01*
X116223200Y-64013100D02*
X116223200Y-63063100D01*
G75*
G02*
X116473200Y-62813100I250000J0D01*
G01*
X117148200Y-62813100D01*
G75*
G02*
X117398200Y-63063100I0J-250000D01*
G01*
X117398200Y-64013100D01*
G75*
G02*
X117148200Y-64263100I-250000J0D01*
G01*
X116473200Y-64263100D01*
G75*
G02*
X116223200Y-64013100I0J250000D01*
G01*
G37*
%TD.AperFunction*%
%TD*%
%TO.P,C14,1*%
%TO.N,GND*%
%TA.AperFunction,SMDPad,CuDef*%
G36*
G01*
X146712702Y-85867600D02*
X145412698Y-85867600D01*
G75*
G02*
X145162700Y-85617602I0J249998D01*
G01*
X145162700Y-84792598D01*
G75*
G02*
X145412698Y-84542600I249998J0D01*
G01*
X146712702Y-84542600D01*
G75*
G02*
X146962700Y-84792598I0J-249998D01*
G01*
X146962700Y-85617602D01*
G75*
G02*
X146712702Y-85867600I-249998J0D01*
G01*
G37*
%TD.AperFunction*%
%TO.P,C14,2*%
%TO.N,3V3*%
%TA.AperFunction,SMDPad,CuDef*%
G36*
G01*
X146712702Y-82742600D02*
X145412698Y-82742600D01*
G75*
G02*
X145162700Y-82492602I0J249998D01*
G01*
X145162700Y-81667598D01*
G75*
G02*
X145412698Y-81417600I249998J0D01*
G01*
X146712702Y-81417600D01*
G75*
G02*
X146962700Y-81667598I0J-249998D01*
G01*
X146962700Y-82492602D01*
G75*
G02*
X146712702Y-82742600I-249998J0D01*
G01*
G37*
%TD.AperFunction*%
%TD*%
%TO.P,C19,1*%
%TO.N,3V3*%
%TA.AperFunction,SMDPad,CuDef*%
G36*
G01*
X112918200Y-93656599D02*
X112918200Y-94506601D01*
G75*
G02*
X112668201Y-94756600I-249999J0D01*
G01*
X111593199Y-94756600D01*
G75*
G02*
X111343200Y-94506601I0J249999D01*
G01*
X111343200Y-93656599D01*
G75*
G02*
X111593199Y-93406600I249999J0D01*
G01*
X112668201Y-93406600D01*
G75*
G02*
X112918200Y-93656599I0J-249999D01*
G01*
G37*
%TD.AperFunction*%
%TO.P,C19,2*%
%TO.N,GND*%
%TA.AperFunction,SMDPad,CuDef*%
G36*
G01*
X110043200Y-93656599D02*
X110043200Y-94506601D01*
G75*
G02*
X109793201Y-94756600I-249999J0D01*
G01*
X108718199Y-94756600D01*
G75*
G02*
X108468200Y-94506601I0J249999D01*
G01*
X108468200Y-93656599D01*
G75*
G02*
X108718199Y-93406600I249999J0D01*
G01*
X109793201Y-93406600D01*
G75*
G02*
X110043200Y-93656599I0J-249999D01*
G01*
G37*
%TD.AperFunction*%
%TD*%
D13*
%TO.P,D3,2*%
%TO.N,GND*%
X127635000Y-89001600D03*
D14*
%TO.P,D3,1*%
%TO.N,3V3*%
X110007400Y-89001600D03*
%TD*%
D15*
%TO.P,SW3,3*%
%TO.N,N/C*%
X126850000Y-104558800D03*
D16*
%TO.P,SW3,1*%
%TO.N,Net-(C3-Pad2)*%
X126850000Y-100058800D03*
D15*
%TO.P,SW3,4*%
%TO.N,N/C*%
X133350000Y-104558800D03*
%TO.P,SW3,2*%
%TO.N,GND*%
X133350000Y-100058800D03*
%TD*%
D17*
%TO.N,GND*%
X124434600Y-85598000D03*
X116332000Y-67056000D03*
X132588000Y-75946000D03*
X117602000Y-65024000D03*
X111760000Y-81026000D03*
X119634000Y-85559900D03*
X131318000Y-83312000D03*
X130794760Y-70396100D03*
%TO.N,Net-(C2-Pad2)*%
X140677500Y-100596300D03*
%TO.N,Net-(C3-Pad2)*%
X128485500Y-97954700D03*
%TO.N,3V3*%
X140360400Y-58775600D03*
X148475700Y-82080100D03*
X114808000Y-67310000D03*
X130810000Y-81788000D03*
X129385060Y-69552820D03*
X112130700Y-89646900D03*
X112014000Y-82448400D03*
X117758300Y-85721100D03*
X125907800Y-85661500D03*
%TO.N,I2C1_SDA*%
X111556800Y-79070200D03*
X105498900Y-76631800D03*
%TO.N,session_btn*%
X126746000Y-86868000D03*
X100279200Y-89954100D03*
%TO.N,NRST*%
X116641880Y-75544680D03*
X130378200Y-86761320D03*
X103949500Y-60756800D03*
X130606800Y-94424500D03*
X121412000Y-87884000D03*
%TO.N,BB_Out*%
X113538000Y-100584000D03*
X113538000Y-96520000D03*
%TO.N,I2C2_SDA*%
X145186400Y-59690000D03*
X131450080Y-71658480D03*
%TO.N,GPS_Vin*%
X114757200Y-65252600D03*
%TO.N,LDO_ERR*%
X122301000Y-66929000D03*
%TO.N,LDO_SHDN*%
X120205500Y-66916300D03*
%TD*%
D18*
%TO.N,GND*%
X116832200Y-64254200D02*
X117602000Y-65024000D01*
X117750500Y-71018400D02*
X117750500Y-69236500D01*
X117750500Y-68474500D02*
X116332000Y-67056000D01*
X117750500Y-71018400D02*
X117750500Y-68474500D01*
D19*
X114012800Y-78773200D02*
X111760000Y-81026000D01*
X115722400Y-78773200D02*
X114012800Y-78773200D01*
D18*
X116810700Y-64232700D02*
X117602000Y-65024000D01*
X116810700Y-63538100D02*
X116810700Y-64232700D01*
X122943800Y-71983600D02*
X123672600Y-71983600D01*
D19*
X128362520Y-82804000D02*
X130810000Y-82804000D01*
X125744790Y-80186270D02*
X128362520Y-82804000D01*
X125744790Y-77906410D02*
X125744790Y-80186270D01*
X126148000Y-77503200D02*
X125744790Y-77906410D01*
X126873000Y-77503200D02*
X126148000Y-77503200D01*
D20*
X119833300Y-85398700D02*
X119634000Y-85598000D01*
D21*
%TO.N,Net-(C2-Pad2)*%
X146151600Y-100596300D02*
X140677500Y-100596300D01*
X140677500Y-100596300D02*
X140677500Y-100596300D01*
D22*
%TO.N,Net-(C3-Pad2)*%
X128485500Y-97954700D02*
X128485500Y-97954700D01*
D21*
X128485500Y-102717600D02*
X128485500Y-97954700D01*
D23*
%TO.N,3V3*%
X112130700Y-94081600D02*
X112130700Y-89646900D01*
X112130700Y-89646900D02*
X112130700Y-89646900D01*
D19*
X112014000Y-82448400D02*
X112014000Y-82448400D01*
X117758300Y-81711800D02*
X117758300Y-85721100D01*
X117758300Y-85721100D02*
X117758300Y-85721100D01*
X126873000Y-79578200D02*
X128524000Y-79578200D01*
D23*
X110007400Y-91958300D02*
X112130700Y-94081600D01*
X110007400Y-89001600D02*
X110007400Y-91958300D01*
D22*
X126847600Y-70891400D02*
X128143000Y-69596000D01*
D19*
X128600200Y-79578200D02*
X130810000Y-81788000D01*
X126873000Y-79578200D02*
X128600200Y-79578200D01*
X115675500Y-71018400D02*
X115675500Y-70971500D01*
X115675500Y-70971500D02*
X114300000Y-69596000D01*
X114300000Y-69596000D02*
X114300000Y-67818000D01*
X114300000Y-67818000D02*
X114808000Y-67310000D01*
X115722400Y-80848200D02*
X115722400Y-81635600D01*
X114909600Y-82448400D02*
X112014000Y-82448400D01*
X115722400Y-81635600D02*
X114909600Y-82448400D01*
D20*
X125933200Y-82833300D02*
X125243500Y-82143600D01*
D24*
X126136400Y-83163500D02*
X125882400Y-82909500D01*
X126187200Y-85382100D02*
X125907800Y-85661500D01*
X126187200Y-83087300D02*
X126187200Y-85382100D01*
D19*
X146062700Y-82080100D02*
X148475700Y-82080100D01*
X131102100Y-82080100D02*
X130810000Y-81788000D01*
X146062700Y-82080100D02*
X131102100Y-82080100D01*
D24*
X138315700Y-59094340D02*
X138315700Y-58782200D01*
X130556000Y-66854040D02*
X138315700Y-59094340D01*
X140353800Y-58782200D02*
X140360400Y-58775600D01*
X138315700Y-58782200D02*
X140353800Y-58782200D01*
D19*
X110801400Y-82448400D02*
X109423200Y-81070200D01*
X112014000Y-82448400D02*
X110801400Y-82448400D01*
X116586000Y-81711800D02*
X115722400Y-80848200D01*
X117758300Y-81711800D02*
X116586000Y-81711800D01*
X126705400Y-71033600D02*
X126847600Y-70891400D01*
X122943800Y-71033600D02*
X126705400Y-71033600D01*
X127572600Y-70891400D02*
X126847600Y-70891400D01*
X128729810Y-72048610D02*
X127572600Y-70891400D01*
X128729810Y-73185191D02*
X128729810Y-72048610D01*
X126604001Y-75311000D02*
X128729810Y-73185191D01*
X115675500Y-71018400D02*
X119968100Y-75311000D01*
X128001210Y-76895130D02*
X126417080Y-75311000D01*
X121259600Y-75311000D02*
X126604001Y-75311000D01*
X126417080Y-75311000D02*
X121259600Y-75311000D01*
X119968100Y-75311000D02*
X121259600Y-75311000D01*
X128001210Y-76895130D02*
X128001210Y-78449990D01*
X127618570Y-76512490D02*
X128001210Y-76895130D01*
X128001210Y-78449990D02*
X126873000Y-79578200D01*
X125243500Y-80590300D02*
X125243500Y-82143600D01*
X119968100Y-75314900D02*
X125243500Y-80590300D01*
X119968100Y-75311000D02*
X119968100Y-75314900D01*
X117758300Y-77524700D02*
X119968100Y-75314900D01*
X117758300Y-81711800D02*
X117758300Y-77524700D01*
X129341880Y-69596000D02*
X129385060Y-69552820D01*
X128143000Y-69596000D02*
X129341880Y-69596000D01*
X130556000Y-68381880D02*
X129385060Y-69552820D01*
X130556000Y-66854040D02*
X130556000Y-68381880D01*
D21*
%TO.N,I2C1_SDA*%
X105527600Y-76603100D02*
X105498900Y-76631800D01*
X109423200Y-79070200D02*
X111556800Y-79070200D01*
X106984800Y-76631800D02*
X109423200Y-79070200D01*
X105498900Y-76631800D02*
X106984800Y-76631800D01*
%TO.N,session_btn*%
X108305600Y-87680800D02*
X118643400Y-87680800D01*
X118643400Y-87680800D02*
X119749099Y-86575101D01*
X126453101Y-86575101D02*
X126746000Y-86868000D01*
X119749099Y-86575101D02*
X126453101Y-86575101D01*
X102552500Y-87680800D02*
X100279200Y-89954100D01*
X108305600Y-87680800D02*
X102552500Y-87680800D01*
%TO.N,NRST*%
X129552700Y-94475300D02*
X122961400Y-87884000D01*
X121412000Y-87884000D02*
X122961400Y-87884000D01*
X130556000Y-94475300D02*
X130606800Y-94424500D01*
X129552700Y-94475300D02*
X130556000Y-94475300D01*
X103949500Y-62852300D02*
X116641880Y-75544680D01*
X103949500Y-60756800D02*
X103949500Y-62852300D01*
X126768370Y-87884000D02*
X121412000Y-87884000D01*
X127891050Y-86761320D02*
X126768370Y-87884000D01*
X130378200Y-86761320D02*
X127891050Y-86761320D01*
%TO.N,BB_Out*%
X113538000Y-96520000D02*
X113538000Y-100584000D01*
%TO.N,I2C2_SDA*%
X139407900Y-59690000D02*
X138315700Y-60782200D01*
X145186400Y-59690000D02*
X139407900Y-59690000D01*
X138315700Y-60782200D02*
X132219700Y-66878200D01*
X131850079Y-67247821D02*
X132219700Y-66878200D01*
X131850079Y-71258481D02*
X131850079Y-67247821D01*
X131450080Y-71658480D02*
X131850079Y-71258481D01*
D19*
%TO.N,GPS_Vin*%
X114757200Y-65252600D02*
X114757200Y-65252600D01*
D18*
X114748400Y-65243800D02*
X114757200Y-65252600D01*
X114735700Y-65231100D02*
X114757200Y-65252600D01*
X114735700Y-63538100D02*
X114735700Y-65231100D01*
D21*
X115566970Y-65252600D02*
X114757200Y-65252600D01*
X120743800Y-70429430D02*
X115566970Y-65252600D01*
X120743800Y-71033600D02*
X120743800Y-70429430D01*
%TO.N,LDO_ERR*%
X121575401Y-72101999D02*
X121575401Y-69784801D01*
X120743800Y-72933600D02*
X121575401Y-72101999D01*
X121575401Y-69784801D02*
X118795800Y-67005200D01*
X118795800Y-67005200D02*
X118795800Y-66446400D01*
X118795800Y-66446400D02*
X119684800Y-65557400D01*
X120929400Y-65557400D02*
X122301000Y-66929000D01*
X119684800Y-65557400D02*
X120929400Y-65557400D01*
%TO.N,LDO_SHDN*%
X123375600Y-72933600D02*
X122927718Y-72933600D01*
X121575401Y-68286201D02*
X120205500Y-66916300D01*
X122495918Y-72933600D02*
X122943800Y-72933600D01*
X122112199Y-72549881D02*
X122495918Y-72933600D01*
X122112199Y-69751375D02*
X122112199Y-72549881D01*
X121575401Y-69214577D02*
X122112199Y-69751375D01*
X121575401Y-68286201D02*
X121575401Y-69214577D01*
%TD*%
D18*
%TO.N,GND*%
X151283600Y-105182769D02*
X134587934Y-105186731D01*
X134680814Y-104962498D01*
X134734000Y-104695112D01*
X134734000Y-104422488D01*
X134726305Y-104383800D01*
X144613528Y-104383800D01*
X144625788Y-104508282D01*
X144662098Y-104627980D01*
X144721063Y-104738294D01*
X144800415Y-104834985D01*
X144897106Y-104914337D01*
X145007420Y-104973302D01*
X145127118Y-105009612D01*
X145251600Y-105021872D01*
X145865850Y-105018800D01*
X146024600Y-104860050D01*
X146024600Y-103848300D01*
X146278600Y-103848300D01*
X146278600Y-104860050D01*
X146437350Y-105018800D01*
X147051600Y-105021872D01*
X147176082Y-105009612D01*
X147295780Y-104973302D01*
X147406094Y-104914337D01*
X147502785Y-104834985D01*
X147582137Y-104738294D01*
X147641102Y-104627980D01*
X147677412Y-104508282D01*
X147689672Y-104383800D01*
X147686600Y-104007050D01*
X147527850Y-103848300D01*
X146278600Y-103848300D01*
X146024600Y-103848300D01*
X144775350Y-103848300D01*
X144616600Y-104007050D01*
X144613528Y-104383800D01*
X134726305Y-104383800D01*
X134680814Y-104155102D01*
X134576485Y-103903230D01*
X134425023Y-103676551D01*
X134232249Y-103483777D01*
X134005570Y-103332315D01*
X133753698Y-103227986D01*
X133486312Y-103174800D01*
X133213688Y-103174800D01*
X132946302Y-103227986D01*
X132909200Y-103243354D01*
X132908278Y-103058800D01*
X144613528Y-103058800D01*
X144616600Y-103435550D01*
X144775350Y-103594300D01*
X146024600Y-103594300D01*
X146024600Y-102582550D01*
X146278600Y-102582550D01*
X146278600Y-103594300D01*
X147527850Y-103594300D01*
X147686600Y-103435550D01*
X147689672Y-103058800D01*
X147677412Y-102934318D01*
X147641102Y-102814620D01*
X147582137Y-102704306D01*
X147502785Y-102607615D01*
X147406094Y-102528263D01*
X147295780Y-102469298D01*
X147176082Y-102432988D01*
X147051600Y-102420728D01*
X146437350Y-102423800D01*
X146278600Y-102582550D01*
X146024600Y-102582550D01*
X145865850Y-102423800D01*
X145251600Y-102420728D01*
X145127118Y-102432988D01*
X145007420Y-102469298D01*
X144897106Y-102528263D01*
X144800415Y-102607615D01*
X144721063Y-102704306D01*
X144662098Y-102814620D01*
X144625788Y-102934318D01*
X144613528Y-103058800D01*
X132908278Y-103058800D01*
X132908000Y-103003350D01*
X132749250Y-102844600D01*
X131737500Y-102844600D01*
X131737500Y-104093850D01*
X131896250Y-104252600D01*
X131999625Y-104253443D01*
X131966000Y-104422488D01*
X131966000Y-104695112D01*
X132019186Y-104962498D01*
X132112310Y-105187318D01*
X128087295Y-105188274D01*
X128180814Y-104962498D01*
X128234000Y-104695112D01*
X128234000Y-104422488D01*
X128200818Y-104255672D01*
X128898002Y-104255672D01*
X129071256Y-104238608D01*
X129237852Y-104188072D01*
X129391387Y-104106005D01*
X129525962Y-103995562D01*
X129636405Y-103860987D01*
X129718472Y-103707452D01*
X129745728Y-103617600D01*
X130309928Y-103617600D01*
X130322188Y-103742082D01*
X130358498Y-103861780D01*
X130417463Y-103972094D01*
X130496815Y-104068785D01*
X130593506Y-104148137D01*
X130703820Y-104207102D01*
X130823518Y-104243412D01*
X130948000Y-104255672D01*
X131324750Y-104252600D01*
X131483500Y-104093850D01*
X131483500Y-102844600D01*
X130471750Y-102844600D01*
X130313000Y-103003350D01*
X130309928Y-103617600D01*
X129745728Y-103617600D01*
X129769008Y-103540856D01*
X129786072Y-103367602D01*
X129786072Y-102067598D01*
X129769008Y-101894344D01*
X129745729Y-101817600D01*
X130309928Y-101817600D01*
X130313000Y-102431850D01*
X130471750Y-102590600D01*
X131483500Y-102590600D01*
X131483500Y-101341350D01*
X131737500Y-101341350D01*
X131737500Y-102590600D01*
X132749250Y-102590600D01*
X132908000Y-102431850D01*
X132911072Y-101817600D01*
X132898812Y-101693118D01*
X132862502Y-101573420D01*
X132803537Y-101463106D01*
X132724185Y-101366415D01*
X132627494Y-101287063D01*
X132517180Y-101228098D01*
X132397482Y-101191788D01*
X132273000Y-101179528D01*
X131896250Y-101182600D01*
X131737500Y-101341350D01*
X131483500Y-101341350D01*
X131324750Y-101182600D01*
X130948000Y-101179528D01*
X130823518Y-101191788D01*
X130703820Y-101228098D01*
X130593506Y-101287063D01*
X130496815Y-101366415D01*
X130417463Y-101463106D01*
X130358498Y-101573420D01*
X130322188Y-101693118D01*
X130309928Y-101817600D01*
X129745729Y-101817600D01*
X129718472Y-101727748D01*
X129636405Y-101574213D01*
X129525962Y-101439638D01*
X129391387Y-101329195D01*
X129237852Y-101247128D01*
X129222100Y-101242350D01*
X129222100Y-101015079D01*
X132573326Y-101015079D01*
X132638729Y-101253845D01*
X132885538Y-101369645D01*
X133150195Y-101435070D01*
X133422531Y-101447605D01*
X133692081Y-101406770D01*
X133948484Y-101314132D01*
X134061271Y-101253845D01*
X134126674Y-101015079D01*
X133350000Y-100238405D01*
X132573326Y-101015079D01*
X129222100Y-101015079D01*
X129222100Y-100131331D01*
X131961195Y-100131331D01*
X132002030Y-100400881D01*
X132094668Y-100657284D01*
X132154955Y-100770071D01*
X132393721Y-100835474D01*
X133170395Y-100058800D01*
X133529605Y-100058800D01*
X134306279Y-100835474D01*
X134545045Y-100770071D01*
X134660845Y-100523262D01*
X134667989Y-100494361D01*
X139642500Y-100494361D01*
X139642500Y-100698239D01*
X139682274Y-100898198D01*
X139760295Y-101086556D01*
X139873563Y-101256074D01*
X140017726Y-101400237D01*
X140187244Y-101513505D01*
X140375602Y-101591526D01*
X140575561Y-101631300D01*
X140779439Y-101631300D01*
X140979398Y-101591526D01*
X141167756Y-101513505D01*
X141337274Y-101400237D01*
X141404611Y-101332900D01*
X144676350Y-101332900D01*
X144681128Y-101348652D01*
X144763195Y-101502187D01*
X144873638Y-101636762D01*
X145008213Y-101747205D01*
X145161748Y-101829272D01*
X145328344Y-101879808D01*
X145501598Y-101896872D01*
X146801602Y-101896872D01*
X146974856Y-101879808D01*
X147141452Y-101829272D01*
X147294987Y-101747205D01*
X147429562Y-101636762D01*
X147540005Y-101502187D01*
X147622072Y-101348652D01*
X147672608Y-101182056D01*
X147689672Y-101008802D01*
X147689672Y-100183798D01*
X147672608Y-100010544D01*
X147622072Y-99843948D01*
X147540005Y-99690413D01*
X147429562Y-99555838D01*
X147294987Y-99445395D01*
X147141452Y-99363328D01*
X146974856Y-99312792D01*
X146801602Y-99295728D01*
X145501598Y-99295728D01*
X145328344Y-99312792D01*
X145161748Y-99363328D01*
X145008213Y-99445395D01*
X144873638Y-99555838D01*
X144763195Y-99690413D01*
X144681128Y-99843948D01*
X144676350Y-99859700D01*
X141404611Y-99859700D01*
X141337274Y-99792363D01*
X141167756Y-99679095D01*
X140979398Y-99601074D01*
X140779439Y-99561300D01*
X140575561Y-99561300D01*
X140375602Y-99601074D01*
X140187244Y-99679095D01*
X140017726Y-99792363D01*
X139873563Y-99936526D01*
X139760295Y-100106044D01*
X139682274Y-100294402D01*
X139642500Y-100494361D01*
X134667989Y-100494361D01*
X134726270Y-100258605D01*
X134738805Y-99986269D01*
X134697970Y-99716719D01*
X134605332Y-99460316D01*
X134545045Y-99347529D01*
X134306279Y-99282126D01*
X133529605Y-100058800D01*
X133170395Y-100058800D01*
X132393721Y-99282126D01*
X132154955Y-99347529D01*
X132039155Y-99594338D01*
X131973730Y-99858995D01*
X131961195Y-100131331D01*
X129222100Y-100131331D01*
X129222100Y-99102521D01*
X132573326Y-99102521D01*
X133350000Y-99879195D01*
X134126674Y-99102521D01*
X134061271Y-98863755D01*
X133814462Y-98747955D01*
X133549805Y-98682530D01*
X133277469Y-98669995D01*
X133007919Y-98710830D01*
X132751516Y-98803468D01*
X132638729Y-98863755D01*
X132573326Y-99102521D01*
X129222100Y-99102521D01*
X129222100Y-98681811D01*
X129289437Y-98614474D01*
X129402705Y-98444956D01*
X129480726Y-98256598D01*
X129520500Y-98056639D01*
X129520500Y-97852761D01*
X129480726Y-97652802D01*
X129402705Y-97464444D01*
X129289437Y-97294926D01*
X129145274Y-97150763D01*
X128975756Y-97037495D01*
X128787398Y-96959474D01*
X128587439Y-96919700D01*
X128383561Y-96919700D01*
X128183602Y-96959474D01*
X127995244Y-97037495D01*
X127825726Y-97150763D01*
X127681563Y-97294926D01*
X127568295Y-97464444D01*
X127490274Y-97652802D01*
X127450500Y-97852761D01*
X127450500Y-98056639D01*
X127490274Y-98256598D01*
X127568295Y-98444956D01*
X127681563Y-98614474D01*
X127748901Y-98681812D01*
X127748901Y-98691699D01*
X127723482Y-98683988D01*
X127599000Y-98671728D01*
X126101000Y-98671728D01*
X125976518Y-98683988D01*
X125856820Y-98720298D01*
X125746506Y-98779263D01*
X125649815Y-98858615D01*
X125570463Y-98955306D01*
X125511498Y-99065620D01*
X125475188Y-99185318D01*
X125462928Y-99309800D01*
X125462928Y-100807800D01*
X125475188Y-100932282D01*
X125511498Y-101051980D01*
X125570463Y-101162294D01*
X125649815Y-101258985D01*
X125746506Y-101338337D01*
X125856820Y-101397302D01*
X125976518Y-101433612D01*
X126101000Y-101445872D01*
X127439922Y-101445872D01*
X127334595Y-101574213D01*
X127252528Y-101727748D01*
X127201992Y-101894344D01*
X127184928Y-102067598D01*
X127184928Y-103214307D01*
X126986312Y-103174800D01*
X126713688Y-103174800D01*
X126446302Y-103227986D01*
X126194430Y-103332315D01*
X125967751Y-103483777D01*
X125774977Y-103676551D01*
X125623515Y-103903230D01*
X125519186Y-104155102D01*
X125466000Y-104422488D01*
X125466000Y-104695112D01*
X125519186Y-104962498D01*
X125612949Y-105188861D01*
X123929347Y-105189260D01*
X123948782Y-105152900D01*
X123985092Y-105033202D01*
X123997352Y-104908720D01*
X123994280Y-104344470D01*
X123835530Y-104185720D01*
X122636280Y-104185720D01*
X122636280Y-104205720D01*
X122382280Y-104205720D01*
X122382280Y-104185720D01*
X121183030Y-104185720D01*
X121024280Y-104344470D01*
X121021208Y-104908720D01*
X121033468Y-105033202D01*
X121069778Y-105152900D01*
X121089573Y-105189934D01*
X99185800Y-105195132D01*
X99185800Y-103812313D01*
X99245085Y-103955440D01*
X99363825Y-104133147D01*
X99514953Y-104284275D01*
X99692660Y-104403015D01*
X99890117Y-104484804D01*
X100099737Y-104526500D01*
X100313463Y-104526500D01*
X100523083Y-104484804D01*
X100720540Y-104403015D01*
X100898247Y-104284275D01*
X101049375Y-104133147D01*
X101168115Y-103955440D01*
X101249904Y-103757983D01*
X101291600Y-103548363D01*
X101291600Y-103334637D01*
X105921600Y-103334637D01*
X105921600Y-103548363D01*
X105963296Y-103757983D01*
X106045085Y-103955440D01*
X106163825Y-104133147D01*
X106314953Y-104284275D01*
X106492660Y-104403015D01*
X106690117Y-104484804D01*
X106899737Y-104526500D01*
X107113463Y-104526500D01*
X107323083Y-104484804D01*
X107520540Y-104403015D01*
X107698247Y-104284275D01*
X107849375Y-104133147D01*
X107968115Y-103955440D01*
X108025443Y-103817037D01*
X111057900Y-103817037D01*
X111057900Y-104030763D01*
X111099596Y-104240383D01*
X111181385Y-104437840D01*
X111300125Y-104615547D01*
X111451253Y-104766675D01*
X111628960Y-104885415D01*
X111826417Y-104967204D01*
X112036037Y-105008900D01*
X112249763Y-105008900D01*
X112459383Y-104967204D01*
X112656840Y-104885415D01*
X112834547Y-104766675D01*
X112985675Y-104615547D01*
X113104415Y-104437840D01*
X113186204Y-104240383D01*
X113227900Y-104030763D01*
X113227900Y-103817037D01*
X116057900Y-103817037D01*
X116057900Y-104030763D01*
X116099596Y-104240383D01*
X116181385Y-104437840D01*
X116300125Y-104615547D01*
X116451253Y-104766675D01*
X116628960Y-104885415D01*
X116826417Y-104967204D01*
X117036037Y-105008900D01*
X117249763Y-105008900D01*
X117459383Y-104967204D01*
X117656840Y-104885415D01*
X117834547Y-104766675D01*
X117985675Y-104615547D01*
X118104415Y-104437840D01*
X118186204Y-104240383D01*
X118227900Y-104030763D01*
X118227900Y-103817037D01*
X118186204Y-103607417D01*
X118104415Y-103409960D01*
X117985675Y-103232253D01*
X117962142Y-103208720D01*
X121021208Y-103208720D01*
X121024280Y-103772970D01*
X121183030Y-103931720D01*
X122382280Y-103931720D01*
X122382280Y-103911720D01*
X122636280Y-103911720D01*
X122636280Y-103931720D01*
X123835530Y-103931720D01*
X123994280Y-103772970D01*
X123997352Y-103208720D01*
X123985092Y-103084238D01*
X123948782Y-102964540D01*
X123889817Y-102854226D01*
X123810465Y-102757535D01*
X123713774Y-102678183D01*
X123603460Y-102619218D01*
X123530900Y-102597207D01*
X123662755Y-102465352D01*
X123825270Y-102222131D01*
X123937212Y-101951878D01*
X123994280Y-101664980D01*
X123994280Y-101372460D01*
X123937212Y-101085562D01*
X123825270Y-100815309D01*
X123662755Y-100572088D01*
X123455912Y-100365245D01*
X123281520Y-100248720D01*
X123455912Y-100132195D01*
X123662755Y-99925352D01*
X123825270Y-99682131D01*
X123937212Y-99411878D01*
X123994280Y-99124980D01*
X123994280Y-98832460D01*
X123937212Y-98545562D01*
X123825270Y-98275309D01*
X123662755Y-98032088D01*
X123455912Y-97825245D01*
X123281520Y-97708720D01*
X123455912Y-97592195D01*
X123662755Y-97385352D01*
X123825270Y-97142131D01*
X123937212Y-96871878D01*
X123994280Y-96584980D01*
X123994280Y-96292460D01*
X123937212Y-96005562D01*
X123825270Y-95735309D01*
X123662755Y-95492088D01*
X123455912Y-95285245D01*
X123281520Y-95168720D01*
X123455912Y-95052195D01*
X123662755Y-94845352D01*
X123825270Y-94602131D01*
X123937212Y-94331878D01*
X123994280Y-94044980D01*
X123994280Y-93752460D01*
X123937212Y-93465562D01*
X123825270Y-93195309D01*
X123662755Y-92952088D01*
X123455912Y-92745245D01*
X123281520Y-92628720D01*
X123455912Y-92512195D01*
X123662755Y-92305352D01*
X123825270Y-92062131D01*
X123937212Y-91791878D01*
X123994280Y-91504980D01*
X123994280Y-91212460D01*
X123937212Y-90925562D01*
X123825270Y-90655309D01*
X123662755Y-90412088D01*
X123455912Y-90205245D01*
X123212691Y-90042730D01*
X122942438Y-89930788D01*
X122655540Y-89873720D01*
X122363020Y-89873720D01*
X122076122Y-89930788D01*
X121805869Y-90042730D01*
X121562648Y-90205245D01*
X121355805Y-90412088D01*
X121193290Y-90655309D01*
X121081348Y-90925562D01*
X121024280Y-91212460D01*
X121024280Y-91504980D01*
X121081348Y-91791878D01*
X121193290Y-92062131D01*
X121355805Y-92305352D01*
X121562648Y-92512195D01*
X121737040Y-92628720D01*
X121562648Y-92745245D01*
X121355805Y-92952088D01*
X121193290Y-93195309D01*
X121081348Y-93465562D01*
X121024280Y-93752460D01*
X121024280Y-94044980D01*
X121081348Y-94331878D01*
X121193290Y-94602131D01*
X121355805Y-94845352D01*
X121562648Y-95052195D01*
X121737040Y-95168720D01*
X121562648Y-95285245D01*
X121355805Y-95492088D01*
X121193290Y-95735309D01*
X121081348Y-96005562D01*
X121024280Y-96292460D01*
X121024280Y-96584980D01*
X121081348Y-96871878D01*
X121193290Y-97142131D01*
X121355805Y-97385352D01*
X121562648Y-97592195D01*
X121737040Y-97708720D01*
X121562648Y-97825245D01*
X121355805Y-98032088D01*
X121193290Y-98275309D01*
X121081348Y-98545562D01*
X121024280Y-98832460D01*
X121024280Y-99124980D01*
X121081348Y-99411878D01*
X121193290Y-99682131D01*
X121355805Y-99925352D01*
X121562648Y-100132195D01*
X121737040Y-100248720D01*
X121562648Y-100365245D01*
X121355805Y-100572088D01*
X121193290Y-100815309D01*
X121081348Y-101085562D01*
X121024280Y-101372460D01*
X121024280Y-101664980D01*
X121081348Y-101951878D01*
X121193290Y-102222131D01*
X121355805Y-102465352D01*
X121487660Y-102597207D01*
X121415100Y-102619218D01*
X121304786Y-102678183D01*
X121208095Y-102757535D01*
X121128743Y-102854226D01*
X121069778Y-102964540D01*
X121033468Y-103084238D01*
X121021208Y-103208720D01*
X117962142Y-103208720D01*
X117834547Y-103081125D01*
X117656840Y-102962385D01*
X117459383Y-102880596D01*
X117249763Y-102838900D01*
X117036037Y-102838900D01*
X116826417Y-102880596D01*
X116628960Y-102962385D01*
X116451253Y-103081125D01*
X116300125Y-103232253D01*
X116181385Y-103409960D01*
X116099596Y-103607417D01*
X116057900Y-103817037D01*
X113227900Y-103817037D01*
X113186204Y-103607417D01*
X113104415Y-103409960D01*
X112985675Y-103232253D01*
X112834547Y-103081125D01*
X112656840Y-102962385D01*
X112459383Y-102880596D01*
X112249763Y-102838900D01*
X112036037Y-102838900D01*
X111826417Y-102880596D01*
X111628960Y-102962385D01*
X111451253Y-103081125D01*
X111300125Y-103232253D01*
X111181385Y-103409960D01*
X111099596Y-103607417D01*
X111057900Y-103817037D01*
X108025443Y-103817037D01*
X108049904Y-103757983D01*
X108091600Y-103548363D01*
X108091600Y-103334637D01*
X108049904Y-103125017D01*
X107968115Y-102927560D01*
X107849375Y-102749853D01*
X107698247Y-102598725D01*
X107520540Y-102479985D01*
X107323083Y-102398196D01*
X107113463Y-102356500D01*
X106899737Y-102356500D01*
X106690117Y-102398196D01*
X106492660Y-102479985D01*
X106314953Y-102598725D01*
X106163825Y-102749853D01*
X106045085Y-102927560D01*
X105963296Y-103125017D01*
X105921600Y-103334637D01*
X101291600Y-103334637D01*
X101249904Y-103125017D01*
X101168115Y-102927560D01*
X101049375Y-102749853D01*
X100898247Y-102598725D01*
X100720540Y-102479985D01*
X100523083Y-102398196D01*
X100313463Y-102356500D01*
X100099737Y-102356500D01*
X99890117Y-102398196D01*
X99692660Y-102479985D01*
X99514953Y-102598725D01*
X99363825Y-102749853D01*
X99245085Y-102927560D01*
X99185800Y-103070687D01*
X99185800Y-96418061D01*
X112503000Y-96418061D01*
X112503000Y-96621939D01*
X112542774Y-96821898D01*
X112620795Y-97010256D01*
X112734063Y-97179774D01*
X112801400Y-97247111D01*
X112801401Y-99856888D01*
X112734063Y-99924226D01*
X112620795Y-100093744D01*
X112542774Y-100282102D01*
X112503000Y-100482061D01*
X112503000Y-100685939D01*
X112542774Y-100885898D01*
X112620795Y-101074256D01*
X112734063Y-101243774D01*
X112878226Y-101387937D01*
X113047744Y-101501205D01*
X113236102Y-101579226D01*
X113436061Y-101619000D01*
X113639939Y-101619000D01*
X113839898Y-101579226D01*
X114028256Y-101501205D01*
X114197774Y-101387937D01*
X114341937Y-101243774D01*
X114455205Y-101074256D01*
X114533226Y-100885898D01*
X114573000Y-100685939D01*
X114573000Y-100482061D01*
X114533226Y-100282102D01*
X114455205Y-100093744D01*
X114341937Y-99924226D01*
X114274600Y-99856889D01*
X114274600Y-97247111D01*
X114341937Y-97179774D01*
X114455205Y-97010256D01*
X114533226Y-96821898D01*
X114573000Y-96621939D01*
X114573000Y-96418061D01*
X114533226Y-96218102D01*
X114455205Y-96029744D01*
X114341937Y-95860226D01*
X114197774Y-95716063D01*
X114028256Y-95602795D01*
X113839898Y-95524774D01*
X113639939Y-95485000D01*
X113436061Y-95485000D01*
X113236102Y-95524774D01*
X113047744Y-95602795D01*
X112878226Y-95716063D01*
X112734063Y-95860226D01*
X112620795Y-96029744D01*
X112542774Y-96218102D01*
X112503000Y-96418061D01*
X99185800Y-96418061D01*
X99185800Y-94756600D01*
X107830128Y-94756600D01*
X107842388Y-94881082D01*
X107878698Y-95000780D01*
X107937663Y-95111094D01*
X108017015Y-95207785D01*
X108113706Y-95287137D01*
X108224020Y-95346102D01*
X108343718Y-95382412D01*
X108468200Y-95394672D01*
X108969950Y-95391600D01*
X109128700Y-95232850D01*
X109128700Y-94208600D01*
X109382700Y-94208600D01*
X109382700Y-95232850D01*
X109541450Y-95391600D01*
X110043200Y-95394672D01*
X110167682Y-95382412D01*
X110287380Y-95346102D01*
X110397694Y-95287137D01*
X110494385Y-95207785D01*
X110573737Y-95111094D01*
X110632702Y-95000780D01*
X110669012Y-94881082D01*
X110681272Y-94756600D01*
X110678200Y-94367350D01*
X110519450Y-94208600D01*
X109382700Y-94208600D01*
X109128700Y-94208600D01*
X107991950Y-94208600D01*
X107833200Y-94367350D01*
X107830128Y-94756600D01*
X99185800Y-94756600D01*
X99185800Y-93406600D01*
X107830128Y-93406600D01*
X107833200Y-93795850D01*
X107991950Y-93954600D01*
X109128700Y-93954600D01*
X109128700Y-92930350D01*
X108969950Y-92771600D01*
X108468200Y-92768528D01*
X108343718Y-92780788D01*
X108224020Y-92817098D01*
X108113706Y-92876063D01*
X108017015Y-92955415D01*
X107937663Y-93052106D01*
X107878698Y-93162420D01*
X107842388Y-93282118D01*
X107830128Y-93406600D01*
X99185800Y-93406600D01*
X99185800Y-88482045D01*
X99203611Y-88525044D01*
X99345848Y-88737918D01*
X99526882Y-88918952D01*
X99739756Y-89061189D01*
X99747676Y-89064469D01*
X99619426Y-89150163D01*
X99475263Y-89294326D01*
X99361995Y-89463844D01*
X99283974Y-89652202D01*
X99244200Y-89852161D01*
X99244200Y-90056039D01*
X99283974Y-90255998D01*
X99361995Y-90444356D01*
X99475263Y-90613874D01*
X99619426Y-90758037D01*
X99788944Y-90871305D01*
X99977302Y-90949326D01*
X100177261Y-90989100D01*
X100381139Y-90989100D01*
X100581098Y-90949326D01*
X100769456Y-90871305D01*
X100938974Y-90758037D01*
X101083137Y-90613874D01*
X101196405Y-90444356D01*
X101274426Y-90255998D01*
X101314200Y-90056039D01*
X101314200Y-89960809D01*
X102857610Y-88417400D01*
X108442228Y-88417400D01*
X108442228Y-89928700D01*
X108454488Y-90053182D01*
X108490798Y-90172880D01*
X108549763Y-90283194D01*
X108629115Y-90379885D01*
X108725806Y-90459237D01*
X108836120Y-90518202D01*
X108955818Y-90554512D01*
X109067601Y-90565521D01*
X109067601Y-91912133D01*
X109063054Y-91958300D01*
X109081199Y-92142533D01*
X109134938Y-92319686D01*
X109222204Y-92482951D01*
X109282359Y-92556248D01*
X109339647Y-92626054D01*
X109375510Y-92655486D01*
X109516537Y-92796513D01*
X109382700Y-92930350D01*
X109382700Y-93954600D01*
X110519450Y-93954600D01*
X110597036Y-93877014D01*
X110705128Y-93985105D01*
X110705128Y-94506601D01*
X110722192Y-94679855D01*
X110772728Y-94846451D01*
X110854795Y-94999987D01*
X110965238Y-95134562D01*
X111099813Y-95245005D01*
X111253349Y-95327072D01*
X111419945Y-95377608D01*
X111593199Y-95394672D01*
X112668201Y-95394672D01*
X112841455Y-95377608D01*
X113008051Y-95327072D01*
X113161587Y-95245005D01*
X113296162Y-95134562D01*
X113406605Y-94999987D01*
X113488672Y-94846451D01*
X113539208Y-94679855D01*
X113556272Y-94506601D01*
X113556272Y-93656599D01*
X113539208Y-93483345D01*
X113488672Y-93316749D01*
X113406605Y-93163213D01*
X113296162Y-93028638D01*
X113161587Y-92918195D01*
X113070500Y-92869508D01*
X113070500Y-90082607D01*
X113125926Y-89948798D01*
X113165700Y-89748839D01*
X113165700Y-89544961D01*
X113125926Y-89345002D01*
X113047905Y-89156644D01*
X112934637Y-88987126D01*
X112790474Y-88842963D01*
X112620956Y-88729695D01*
X112432598Y-88651674D01*
X112232639Y-88611900D01*
X112028761Y-88611900D01*
X111828802Y-88651674D01*
X111640444Y-88729695D01*
X111572572Y-88775045D01*
X111572572Y-88417400D01*
X118607217Y-88417400D01*
X118643400Y-88420964D01*
X118679583Y-88417400D01*
X118679586Y-88417400D01*
X118787799Y-88406742D01*
X118926649Y-88364622D01*
X119054613Y-88296224D01*
X119166775Y-88204175D01*
X119189845Y-88176064D01*
X120054209Y-87311701D01*
X120549614Y-87311701D01*
X120494795Y-87393744D01*
X120416774Y-87582102D01*
X120377000Y-87782061D01*
X120377000Y-87985939D01*
X120416774Y-88185898D01*
X120494795Y-88374256D01*
X120608063Y-88543774D01*
X120752226Y-88687937D01*
X120921744Y-88801205D01*
X121110102Y-88879226D01*
X121310061Y-88919000D01*
X121513939Y-88919000D01*
X121713898Y-88879226D01*
X121902256Y-88801205D01*
X122071774Y-88687937D01*
X122139111Y-88620600D01*
X122656291Y-88620600D01*
X129006259Y-94970569D01*
X129029325Y-94998675D01*
X129141487Y-95090724D01*
X129269451Y-95159122D01*
X129408298Y-95201241D01*
X129408301Y-95201242D01*
X129552700Y-95215464D01*
X129588886Y-95211900D01*
X129930489Y-95211900D01*
X129947026Y-95228437D01*
X130116544Y-95341705D01*
X130304902Y-95419726D01*
X130504861Y-95459500D01*
X130708739Y-95459500D01*
X130908698Y-95419726D01*
X131097056Y-95341705D01*
X131266574Y-95228437D01*
X131410737Y-95084274D01*
X131524005Y-94914756D01*
X131602026Y-94726398D01*
X131641800Y-94526439D01*
X131641800Y-94414104D01*
X139272960Y-94414104D01*
X139272960Y-94785416D01*
X139345399Y-95149594D01*
X139487494Y-95492642D01*
X139693785Y-95801378D01*
X139956342Y-96063935D01*
X140265078Y-96270226D01*
X140608126Y-96412321D01*
X140972304Y-96484760D01*
X141343616Y-96484760D01*
X141707794Y-96412321D01*
X142050842Y-96270226D01*
X142359578Y-96063935D01*
X142622135Y-95801378D01*
X142828426Y-95492642D01*
X142970521Y-95149594D01*
X143042960Y-94785416D01*
X143042960Y-94414104D01*
X142970521Y-94049926D01*
X142828426Y-93706878D01*
X142622135Y-93398142D01*
X142359578Y-93135585D01*
X142050842Y-92929294D01*
X141707794Y-92787199D01*
X141343616Y-92714760D01*
X140972304Y-92714760D01*
X140608126Y-92787199D01*
X140265078Y-92929294D01*
X139956342Y-93135585D01*
X139693785Y-93398142D01*
X139487494Y-93706878D01*
X139345399Y-94049926D01*
X139272960Y-94414104D01*
X131641800Y-94414104D01*
X131641800Y-94322561D01*
X131602026Y-94122602D01*
X131524005Y-93934244D01*
X131410737Y-93764726D01*
X131266574Y-93620563D01*
X131097056Y-93507295D01*
X130908698Y-93429274D01*
X130708739Y-93389500D01*
X130504861Y-93389500D01*
X130304902Y-93429274D01*
X130116544Y-93507295D01*
X129947026Y-93620563D01*
X129843349Y-93724240D01*
X126204125Y-90085016D01*
X126731190Y-90085016D01*
X126818148Y-90341965D01*
X127095336Y-90475571D01*
X127393263Y-90552533D01*
X127700480Y-90569892D01*
X128005180Y-90526983D01*
X128295655Y-90425455D01*
X128451852Y-90341965D01*
X128538810Y-90085016D01*
X127635000Y-89181205D01*
X126731190Y-90085016D01*
X126204125Y-90085016D01*
X124739709Y-88620600D01*
X126120042Y-88620600D01*
X126084067Y-88759863D01*
X126066708Y-89067080D01*
X126109617Y-89371780D01*
X126211145Y-89662255D01*
X126294635Y-89818452D01*
X126551584Y-89905410D01*
X127455395Y-89001600D01*
X127814605Y-89001600D01*
X128718416Y-89905410D01*
X128975365Y-89818452D01*
X129108971Y-89541264D01*
X129185933Y-89243337D01*
X129203292Y-88936120D01*
X129160383Y-88631420D01*
X129058855Y-88340945D01*
X128975365Y-88184748D01*
X128718416Y-88097790D01*
X127814605Y-89001600D01*
X127455395Y-89001600D01*
X127441252Y-88987458D01*
X127620858Y-88807853D01*
X127635000Y-88821995D01*
X128538810Y-87918184D01*
X128451852Y-87661235D01*
X128174664Y-87527629D01*
X128168137Y-87525943D01*
X128196160Y-87497920D01*
X129651089Y-87497920D01*
X129718426Y-87565257D01*
X129887944Y-87678525D01*
X130076302Y-87756546D01*
X130276261Y-87796320D01*
X130480139Y-87796320D01*
X130680098Y-87756546D01*
X130868456Y-87678525D01*
X131037974Y-87565257D01*
X131182137Y-87421094D01*
X131295405Y-87251576D01*
X131373426Y-87063218D01*
X131413200Y-86863259D01*
X131413200Y-86659381D01*
X131373426Y-86459422D01*
X131295405Y-86271064D01*
X131182137Y-86101546D01*
X131037974Y-85957383D01*
X130903604Y-85867600D01*
X144524628Y-85867600D01*
X144536888Y-85992082D01*
X144573198Y-86111780D01*
X144632163Y-86222094D01*
X144711515Y-86318785D01*
X144808206Y-86398137D01*
X144918520Y-86457102D01*
X145038218Y-86493412D01*
X145162700Y-86505672D01*
X145776950Y-86502600D01*
X145935700Y-86343850D01*
X145935700Y-85332100D01*
X146189700Y-85332100D01*
X146189700Y-86343850D01*
X146348450Y-86502600D01*
X146962700Y-86505672D01*
X147087182Y-86493412D01*
X147206880Y-86457102D01*
X147317194Y-86398137D01*
X147413885Y-86318785D01*
X147493237Y-86222094D01*
X147552202Y-86111780D01*
X147588512Y-85992082D01*
X147600772Y-85867600D01*
X147597700Y-85490850D01*
X147438950Y-85332100D01*
X146189700Y-85332100D01*
X145935700Y-85332100D01*
X144686450Y-85332100D01*
X144527700Y-85490850D01*
X144524628Y-85867600D01*
X130903604Y-85867600D01*
X130868456Y-85844115D01*
X130680098Y-85766094D01*
X130480139Y-85726320D01*
X130276261Y-85726320D01*
X130076302Y-85766094D01*
X129887944Y-85844115D01*
X129718426Y-85957383D01*
X129651089Y-86024720D01*
X127927225Y-86024720D01*
X127891049Y-86021157D01*
X127854873Y-86024720D01*
X127854864Y-86024720D01*
X127746651Y-86035378D01*
X127607801Y-86077498D01*
X127484901Y-86143190D01*
X127405774Y-86064063D01*
X127236256Y-85950795D01*
X127047898Y-85872774D01*
X126925880Y-85848503D01*
X126942800Y-85763439D01*
X126942800Y-85691228D01*
X126988239Y-85541437D01*
X127000000Y-85422023D01*
X127000000Y-85422021D01*
X127003932Y-85382101D01*
X127000000Y-85342180D01*
X127000000Y-84542600D01*
X144524628Y-84542600D01*
X144527700Y-84919350D01*
X144686450Y-85078100D01*
X145935700Y-85078100D01*
X145935700Y-84066350D01*
X146189700Y-84066350D01*
X146189700Y-85078100D01*
X147438950Y-85078100D01*
X147597700Y-84919350D01*
X147600772Y-84542600D01*
X147588512Y-84418118D01*
X147552202Y-84298420D01*
X147493237Y-84188106D01*
X147413885Y-84091415D01*
X147317194Y-84012063D01*
X147206880Y-83953098D01*
X147087182Y-83916788D01*
X146962700Y-83904528D01*
X146348450Y-83907600D01*
X146189700Y-84066350D01*
X145935700Y-84066350D01*
X145776950Y-83907600D01*
X145162700Y-83904528D01*
X145038218Y-83916788D01*
X144918520Y-83953098D01*
X144808206Y-84012063D01*
X144711515Y-84091415D01*
X144632163Y-84188106D01*
X144573198Y-84298420D01*
X144536888Y-84418118D01*
X144524628Y-84542600D01*
X127000000Y-84542600D01*
X127000000Y-83047377D01*
X126988239Y-82927963D01*
X126941762Y-82774750D01*
X126866288Y-82633548D01*
X126764717Y-82509783D01*
X126640951Y-82408212D01*
X126573259Y-82372030D01*
X126517321Y-82303869D01*
X126469072Y-82255620D01*
X126469072Y-81668600D01*
X126452008Y-81495346D01*
X126401472Y-81328750D01*
X126319405Y-81175214D01*
X126208962Y-81040638D01*
X126081700Y-80936197D01*
X126081700Y-80743316D01*
X126224746Y-80786708D01*
X126398000Y-80803772D01*
X127348000Y-80803772D01*
X127521254Y-80786708D01*
X127687850Y-80736172D01*
X127841386Y-80654105D01*
X127975962Y-80543662D01*
X128080403Y-80416400D01*
X128253007Y-80416400D01*
X129787031Y-81950425D01*
X129814774Y-82089898D01*
X129892795Y-82278256D01*
X130006063Y-82447774D01*
X130150226Y-82591937D01*
X130319744Y-82705205D01*
X130508102Y-82783226D01*
X130708061Y-82823000D01*
X130713850Y-82823000D01*
X130779783Y-82858242D01*
X130937784Y-82906171D01*
X131060930Y-82918300D01*
X131060937Y-82918300D01*
X131102100Y-82922354D01*
X131143263Y-82918300D01*
X144638115Y-82918300D01*
X144674295Y-82985987D01*
X144784738Y-83120562D01*
X144919313Y-83231005D01*
X145072848Y-83313072D01*
X145239444Y-83363608D01*
X145412698Y-83380672D01*
X146712702Y-83380672D01*
X146885956Y-83363608D01*
X147052552Y-83313072D01*
X147206087Y-83231005D01*
X147340662Y-83120562D01*
X147451105Y-82985987D01*
X147487285Y-82918300D01*
X147867204Y-82918300D01*
X147985444Y-82997305D01*
X148173802Y-83075326D01*
X148373761Y-83115100D01*
X148577639Y-83115100D01*
X148777598Y-83075326D01*
X148965956Y-82997305D01*
X149135474Y-82884037D01*
X149279637Y-82739874D01*
X149392905Y-82570356D01*
X149470926Y-82381998D01*
X149510700Y-82182039D01*
X149510700Y-81978161D01*
X149470926Y-81778202D01*
X149392905Y-81589844D01*
X149279637Y-81420326D01*
X149135474Y-81276163D01*
X148965956Y-81162895D01*
X148777598Y-81084874D01*
X148577639Y-81045100D01*
X148373761Y-81045100D01*
X148173802Y-81084874D01*
X147985444Y-81162895D01*
X147867204Y-81241900D01*
X147487285Y-81241900D01*
X147451105Y-81174213D01*
X147340662Y-81039638D01*
X147206087Y-80929195D01*
X147052552Y-80847128D01*
X146885956Y-80796592D01*
X146712702Y-80779528D01*
X145412698Y-80779528D01*
X145239444Y-80796592D01*
X145072848Y-80847128D01*
X144919313Y-80929195D01*
X144784738Y-81039638D01*
X144674295Y-81174213D01*
X144638115Y-81241900D01*
X131689891Y-81241900D01*
X131613937Y-81128226D01*
X131469774Y-80984063D01*
X131300256Y-80870795D01*
X131111898Y-80792774D01*
X130972425Y-80765031D01*
X129222011Y-79014618D01*
X129195764Y-78982636D01*
X129068132Y-78877891D01*
X128922517Y-78800058D01*
X128783707Y-78757951D01*
X128827281Y-78614306D01*
X128831945Y-78566950D01*
X128839410Y-78491160D01*
X128839410Y-78491153D01*
X128843464Y-78449990D01*
X128839410Y-78408827D01*
X128839410Y-76936293D01*
X128843464Y-76895130D01*
X128839410Y-76853967D01*
X128839410Y-76853960D01*
X128827281Y-76730814D01*
X128779352Y-76572813D01*
X128701519Y-76427198D01*
X128636975Y-76348551D01*
X128623018Y-76331544D01*
X128623016Y-76331542D01*
X128596774Y-76299566D01*
X128564799Y-76273325D01*
X127695934Y-75404460D01*
X129293399Y-73806996D01*
X129325374Y-73780755D01*
X129409390Y-73678382D01*
X129430119Y-73653123D01*
X129507952Y-73507508D01*
X129555881Y-73349507D01*
X129556343Y-73344812D01*
X129568010Y-73226361D01*
X129568010Y-73226354D01*
X129572064Y-73185191D01*
X129568010Y-73144028D01*
X129568010Y-72089772D01*
X129572064Y-72048609D01*
X129568010Y-72007446D01*
X129568010Y-72007440D01*
X129555881Y-71884294D01*
X129507952Y-71726293D01*
X129430119Y-71580678D01*
X129418946Y-71567064D01*
X129351618Y-71485024D01*
X129351616Y-71485022D01*
X129325374Y-71453046D01*
X129293397Y-71426803D01*
X128340197Y-70473604D01*
X128379602Y-70434200D01*
X128841188Y-70434200D01*
X128894804Y-70470025D01*
X129083162Y-70548046D01*
X129283121Y-70587820D01*
X129486999Y-70587820D01*
X129686958Y-70548046D01*
X129875316Y-70470025D01*
X130044834Y-70356757D01*
X130188997Y-70212594D01*
X130302265Y-70043076D01*
X130380286Y-69854718D01*
X130408029Y-69715245D01*
X131113480Y-69009794D01*
X131113479Y-70677628D01*
X130959824Y-70741275D01*
X130790306Y-70854543D01*
X130646143Y-70998706D01*
X130532875Y-71168224D01*
X130454854Y-71356582D01*
X130415080Y-71556541D01*
X130415080Y-71760419D01*
X130454854Y-71960378D01*
X130532875Y-72148736D01*
X130646143Y-72318254D01*
X130790306Y-72462417D01*
X130959824Y-72575685D01*
X131148182Y-72653706D01*
X131348141Y-72693480D01*
X131552019Y-72693480D01*
X131751978Y-72653706D01*
X131940336Y-72575685D01*
X132109854Y-72462417D01*
X132254017Y-72318254D01*
X132367285Y-72148736D01*
X132445306Y-71960378D01*
X132485080Y-71760419D01*
X132485080Y-71633068D01*
X132533901Y-71541730D01*
X132576021Y-71402880D01*
X132586679Y-71294667D01*
X132586679Y-71294665D01*
X132590243Y-71258482D01*
X132586679Y-71222298D01*
X132586679Y-70857286D01*
X132754298Y-70969286D01*
X133097346Y-71111381D01*
X133461524Y-71183820D01*
X133832836Y-71183820D01*
X134197014Y-71111381D01*
X134540062Y-70969286D01*
X134848798Y-70762995D01*
X135111355Y-70500438D01*
X135317646Y-70191702D01*
X135459741Y-69848654D01*
X135532180Y-69484476D01*
X135532180Y-69113164D01*
X135523086Y-69067444D01*
X147022500Y-69067444D01*
X147022500Y-69438756D01*
X147094939Y-69802934D01*
X147237034Y-70145982D01*
X147443325Y-70454718D01*
X147705882Y-70717275D01*
X148014618Y-70923566D01*
X148357666Y-71065661D01*
X148721844Y-71138100D01*
X149093156Y-71138100D01*
X149457334Y-71065661D01*
X149800382Y-70923566D01*
X150109118Y-70717275D01*
X150371675Y-70454718D01*
X150577966Y-70145982D01*
X150720061Y-69802934D01*
X150792500Y-69438756D01*
X150792500Y-69067444D01*
X150720061Y-68703266D01*
X150577966Y-68360218D01*
X150371675Y-68051482D01*
X150109118Y-67788925D01*
X149800382Y-67582634D01*
X149457334Y-67440539D01*
X149093156Y-67368100D01*
X148721844Y-67368100D01*
X148357666Y-67440539D01*
X148014618Y-67582634D01*
X147705882Y-67788925D01*
X147443325Y-68051482D01*
X147237034Y-68360218D01*
X147094939Y-68703266D01*
X147022500Y-69067444D01*
X135523086Y-69067444D01*
X135459741Y-68748986D01*
X135317646Y-68405938D01*
X135111355Y-68097202D01*
X134848798Y-67834645D01*
X134540062Y-67628354D01*
X134197014Y-67486259D01*
X133832836Y-67413820D01*
X133461524Y-67413820D01*
X133097346Y-67486259D01*
X132754298Y-67628354D01*
X132586679Y-67740354D01*
X132586679Y-67552930D01*
X132766142Y-67373467D01*
X138119338Y-62020272D01*
X138765701Y-62020272D01*
X138938955Y-62003208D01*
X139105551Y-61952672D01*
X139259087Y-61870605D01*
X139393662Y-61760162D01*
X139504105Y-61625587D01*
X139586172Y-61472051D01*
X139636708Y-61305455D01*
X139653772Y-61132201D01*
X139653772Y-60485838D01*
X139713010Y-60426600D01*
X144459289Y-60426600D01*
X144526626Y-60493937D01*
X144696144Y-60607205D01*
X144884502Y-60685226D01*
X145084461Y-60725000D01*
X145288339Y-60725000D01*
X145488298Y-60685226D01*
X145676656Y-60607205D01*
X145846174Y-60493937D01*
X145990337Y-60349774D01*
X146103605Y-60180256D01*
X146181626Y-59991898D01*
X146221400Y-59791939D01*
X146221400Y-59588061D01*
X146181626Y-59388102D01*
X146103605Y-59199744D01*
X145990337Y-59030226D01*
X145846174Y-58886063D01*
X145676656Y-58772795D01*
X145488298Y-58694774D01*
X145288339Y-58655000D01*
X145084461Y-58655000D01*
X144884502Y-58694774D01*
X144696144Y-58772795D01*
X144526626Y-58886063D01*
X144459289Y-58953400D01*
X141380310Y-58953400D01*
X141395400Y-58877539D01*
X141395400Y-58673661D01*
X141355626Y-58473702D01*
X141277605Y-58285344D01*
X141164337Y-58115826D01*
X141020174Y-57971663D01*
X140850656Y-57858395D01*
X140662298Y-57780374D01*
X140462339Y-57740600D01*
X140258461Y-57740600D01*
X140058502Y-57780374D01*
X139870144Y-57858395D01*
X139704013Y-57969400D01*
X139520454Y-57969400D01*
X139504105Y-57938813D01*
X139393662Y-57804238D01*
X139259087Y-57693795D01*
X139105551Y-57611728D01*
X138938955Y-57561192D01*
X138765701Y-57544128D01*
X137865699Y-57544128D01*
X137692445Y-57561192D01*
X137525849Y-57611728D01*
X137372313Y-57693795D01*
X137237738Y-57804238D01*
X137127295Y-57938813D01*
X137045228Y-58092349D01*
X136994692Y-58258945D01*
X136977628Y-58432199D01*
X136977628Y-59132201D01*
X136991143Y-59269424D01*
X130128389Y-66132179D01*
X130088068Y-66153731D01*
X129960436Y-66258476D01*
X129855691Y-66386109D01*
X129777858Y-66531724D01*
X129729929Y-66689725D01*
X129717800Y-66812871D01*
X129717801Y-68034685D01*
X129222635Y-68529851D01*
X129083162Y-68557594D01*
X128894804Y-68635615D01*
X128725286Y-68748883D01*
X128716369Y-68757800D01*
X128101830Y-68757800D01*
X127978684Y-68769929D01*
X127820683Y-68817858D01*
X127675068Y-68895691D01*
X127547436Y-69000436D01*
X127442691Y-69128068D01*
X127364858Y-69273683D01*
X127353686Y-69310512D01*
X126998370Y-69665828D01*
X126372600Y-69665828D01*
X126199346Y-69682892D01*
X126032750Y-69733428D01*
X125879214Y-69815495D01*
X125744638Y-69925938D01*
X125634195Y-70060514D01*
X125562097Y-70195400D01*
X123849419Y-70195400D01*
X123828294Y-70178063D01*
X123717980Y-70119098D01*
X123598282Y-70082788D01*
X123473800Y-70070528D01*
X122848799Y-70070528D01*
X122848799Y-69787558D01*
X122852363Y-69751374D01*
X122848799Y-69715189D01*
X122838141Y-69606976D01*
X122796021Y-69468126D01*
X122745489Y-69373587D01*
X122727623Y-69340161D01*
X122658641Y-69256107D01*
X122658636Y-69256102D01*
X122635573Y-69228000D01*
X122607472Y-69204938D01*
X122312001Y-68909468D01*
X122312001Y-68322387D01*
X122315565Y-68286201D01*
X122301343Y-68141802D01*
X122276396Y-68059564D01*
X122259223Y-68002952D01*
X122238403Y-67964000D01*
X122402939Y-67964000D01*
X122602898Y-67924226D01*
X122791256Y-67846205D01*
X122960774Y-67732937D01*
X123104937Y-67588774D01*
X123218205Y-67419256D01*
X123296226Y-67230898D01*
X123336000Y-67030939D01*
X123336000Y-66827061D01*
X123296226Y-66627102D01*
X123218205Y-66438744D01*
X123104937Y-66269226D01*
X122960774Y-66125063D01*
X122791256Y-66011795D01*
X122602898Y-65933774D01*
X122402939Y-65894000D01*
X122307709Y-65894000D01*
X121475846Y-65062137D01*
X121452775Y-65034025D01*
X121340613Y-64941976D01*
X121212649Y-64873578D01*
X121073799Y-64831458D01*
X120965586Y-64820800D01*
X120965583Y-64820800D01*
X120929400Y-64817236D01*
X120893217Y-64820800D01*
X119720986Y-64820800D01*
X119684800Y-64817236D01*
X119648614Y-64820800D01*
X119540401Y-64831458D01*
X119401551Y-64873578D01*
X119273587Y-64941976D01*
X119161425Y-65034025D01*
X119138359Y-65062131D01*
X118300532Y-65899959D01*
X118272426Y-65923025D01*
X118249360Y-65951131D01*
X118249358Y-65951133D01*
X118180376Y-66035188D01*
X118159628Y-66074005D01*
X118111978Y-66163151D01*
X118069858Y-66302001D01*
X118061213Y-66389776D01*
X118055636Y-66446400D01*
X118059200Y-66482583D01*
X118059200Y-66703121D01*
X116256908Y-64900829D01*
X116524950Y-64898100D01*
X116683700Y-64739350D01*
X116683700Y-63665100D01*
X116937700Y-63665100D01*
X116937700Y-64739350D01*
X117096450Y-64898100D01*
X117398200Y-64901172D01*
X117522682Y-64888912D01*
X117642380Y-64852602D01*
X117752694Y-64793637D01*
X117849385Y-64714285D01*
X117928737Y-64617594D01*
X117987702Y-64507280D01*
X118024012Y-64387582D01*
X118036272Y-64263100D01*
X118033200Y-63823850D01*
X117874450Y-63665100D01*
X116937700Y-63665100D01*
X116683700Y-63665100D01*
X116663700Y-63665100D01*
X116663700Y-63411100D01*
X116683700Y-63411100D01*
X116683700Y-63391100D01*
X116937700Y-63391100D01*
X116937700Y-63411100D01*
X117874450Y-63411100D01*
X118033200Y-63252350D01*
X118036272Y-62813100D01*
X118024012Y-62688618D01*
X117987702Y-62568920D01*
X117928737Y-62458606D01*
X117849385Y-62361915D01*
X117752694Y-62282563D01*
X117701876Y-62255400D01*
X118592600Y-62255400D01*
X118592600Y-63220600D01*
X118595071Y-63245529D01*
X118602327Y-63269344D01*
X118614090Y-63291287D01*
X118629907Y-63310512D01*
X118649172Y-63326283D01*
X118671143Y-63337992D01*
X118694976Y-63345190D01*
X118719755Y-63347600D01*
X129095655Y-63334900D01*
X129120276Y-63332460D01*
X129120389Y-63332426D01*
X129120506Y-63332414D01*
X129132236Y-63328832D01*
X129144101Y-63325233D01*
X129144206Y-63325177D01*
X129144317Y-63325143D01*
X129155009Y-63319402D01*
X129166057Y-63313497D01*
X129166150Y-63313421D01*
X129166252Y-63313366D01*
X129175607Y-63305660D01*
X129185303Y-63297703D01*
X129185379Y-63297610D01*
X129185468Y-63297537D01*
X129193180Y-63288104D01*
X129201097Y-63278457D01*
X129201153Y-63278353D01*
X129201227Y-63278262D01*
X129206939Y-63267528D01*
X129212833Y-63256501D01*
X129212868Y-63256385D01*
X129212922Y-63256284D01*
X129216416Y-63244688D01*
X129220060Y-63232676D01*
X129220072Y-63232558D01*
X129220105Y-63232447D01*
X129221287Y-63220219D01*
X129222500Y-63207900D01*
X129222500Y-58597800D01*
X129220060Y-58573024D01*
X129213912Y-58552755D01*
X129197100Y-49440866D01*
X129194660Y-49416324D01*
X129187433Y-49392499D01*
X129175697Y-49370543D01*
X129159903Y-49351297D01*
X129140657Y-49335503D01*
X129118701Y-49323767D01*
X129094876Y-49316540D01*
X129070100Y-49314100D01*
X113499900Y-49314100D01*
X113475124Y-49316540D01*
X113451299Y-49323767D01*
X113429343Y-49335503D01*
X113410097Y-49351297D01*
X113394303Y-49370543D01*
X113382567Y-49392499D01*
X113375340Y-49416324D01*
X113372900Y-49441100D01*
X113372900Y-62128400D01*
X113375340Y-62153176D01*
X113382567Y-62177001D01*
X113394303Y-62198957D01*
X113410097Y-62218203D01*
X113429343Y-62233997D01*
X113451299Y-62245733D01*
X113475124Y-62252960D01*
X113499900Y-62255400D01*
X114034455Y-62255400D01*
X113904814Y-62324695D01*
X113770238Y-62435138D01*
X113659795Y-62569714D01*
X113577728Y-62723250D01*
X113527192Y-62889846D01*
X113510128Y-63063100D01*
X113510128Y-64013100D01*
X113527192Y-64186354D01*
X113577728Y-64352950D01*
X113659795Y-64506486D01*
X113770238Y-64641062D01*
X113867628Y-64720988D01*
X113839995Y-64762344D01*
X113761974Y-64950702D01*
X113722200Y-65150661D01*
X113722200Y-65354539D01*
X113761974Y-65554498D01*
X113839995Y-65742856D01*
X113953263Y-65912374D01*
X114097426Y-66056537D01*
X114266944Y-66169805D01*
X114455302Y-66247826D01*
X114648989Y-66286352D01*
X114506102Y-66314774D01*
X114317744Y-66392795D01*
X114148226Y-66506063D01*
X114004063Y-66650226D01*
X113890795Y-66819744D01*
X113812774Y-67008102D01*
X113785031Y-67147576D01*
X113736413Y-67196194D01*
X113704437Y-67222436D01*
X113678195Y-67254412D01*
X113678192Y-67254415D01*
X113599691Y-67350069D01*
X113521858Y-67495684D01*
X113473929Y-67653685D01*
X113457746Y-67818000D01*
X113461801Y-67859172D01*
X113461800Y-69554837D01*
X113457746Y-69596000D01*
X113461800Y-69637163D01*
X113461800Y-69637169D01*
X113473929Y-69760315D01*
X113521858Y-69918316D01*
X113599691Y-70063931D01*
X113704436Y-70191564D01*
X113736418Y-70217811D01*
X114449928Y-70931322D01*
X114449928Y-71493400D01*
X114466992Y-71666654D01*
X114517528Y-71833250D01*
X114599595Y-71986786D01*
X114710038Y-72121362D01*
X114844614Y-72231805D01*
X114998150Y-72313872D01*
X115164746Y-72364408D01*
X115338000Y-72381472D01*
X115853179Y-72381472D01*
X118784656Y-75312950D01*
X117194713Y-76902894D01*
X117162737Y-76929136D01*
X117136495Y-76961112D01*
X117136492Y-76961115D01*
X117057991Y-77056769D01*
X116980158Y-77202384D01*
X116932229Y-77360385D01*
X116916046Y-77524700D01*
X116920101Y-77565872D01*
X116920101Y-77760732D01*
X116898585Y-77734515D01*
X116801894Y-77655163D01*
X116691580Y-77596198D01*
X116571882Y-77559888D01*
X116447400Y-77547628D01*
X116008150Y-77550700D01*
X115849400Y-77709450D01*
X115849400Y-78646200D01*
X115869400Y-78646200D01*
X115869400Y-78900200D01*
X115849400Y-78900200D01*
X115849400Y-78920200D01*
X115595400Y-78920200D01*
X115595400Y-78900200D01*
X114521150Y-78900200D01*
X114362400Y-79058950D01*
X114359328Y-79360700D01*
X114371588Y-79485182D01*
X114407898Y-79604880D01*
X114466863Y-79715194D01*
X114546215Y-79811885D01*
X114625994Y-79877358D01*
X114619438Y-79882738D01*
X114508995Y-80017314D01*
X114426928Y-80170850D01*
X114376392Y-80337446D01*
X114359328Y-80510700D01*
X114359328Y-81185700D01*
X114376392Y-81358954D01*
X114426928Y-81525550D01*
X114472175Y-81610200D01*
X112622496Y-81610200D01*
X112504256Y-81531195D01*
X112315898Y-81453174D01*
X112115939Y-81413400D01*
X111912061Y-81413400D01*
X111712102Y-81453174D01*
X111523744Y-81531195D01*
X111405504Y-81610200D01*
X111148594Y-81610200D01*
X110761272Y-81222878D01*
X110761272Y-80720199D01*
X110744208Y-80546945D01*
X110693672Y-80380349D01*
X110611605Y-80226813D01*
X110501162Y-80092238D01*
X110474309Y-80070200D01*
X110501162Y-80048162D01*
X110611605Y-79913587D01*
X110668684Y-79806800D01*
X110829689Y-79806800D01*
X110897026Y-79874137D01*
X111066544Y-79987405D01*
X111254902Y-80065426D01*
X111454861Y-80105200D01*
X111658739Y-80105200D01*
X111858698Y-80065426D01*
X112047056Y-79987405D01*
X112216574Y-79874137D01*
X112360737Y-79729974D01*
X112474005Y-79560456D01*
X112552026Y-79372098D01*
X112591800Y-79172139D01*
X112591800Y-78968261D01*
X112552026Y-78768302D01*
X112474005Y-78579944D01*
X112360737Y-78410426D01*
X112216574Y-78266263D01*
X112096003Y-78185700D01*
X114359328Y-78185700D01*
X114362400Y-78487450D01*
X114521150Y-78646200D01*
X115595400Y-78646200D01*
X115595400Y-77709450D01*
X115436650Y-77550700D01*
X114997400Y-77547628D01*
X114872918Y-77559888D01*
X114753220Y-77596198D01*
X114642906Y-77655163D01*
X114546215Y-77734515D01*
X114466863Y-77831206D01*
X114407898Y-77941520D01*
X114371588Y-78061218D01*
X114359328Y-78185700D01*
X112096003Y-78185700D01*
X112047056Y-78152995D01*
X111858698Y-78074974D01*
X111658739Y-78035200D01*
X111454861Y-78035200D01*
X111254902Y-78074974D01*
X111066544Y-78152995D01*
X110897026Y-78266263D01*
X110829689Y-78333600D01*
X110668684Y-78333600D01*
X110611605Y-78226813D01*
X110501162Y-78092238D01*
X110366587Y-77981795D01*
X110213051Y-77899728D01*
X110046455Y-77849192D01*
X109873201Y-77832128D01*
X109226837Y-77832128D01*
X107531246Y-76136537D01*
X107508175Y-76108425D01*
X107396013Y-76016376D01*
X107268049Y-75947978D01*
X107129199Y-75905858D01*
X107020986Y-75895200D01*
X107020983Y-75895200D01*
X106984800Y-75891636D01*
X106948617Y-75895200D01*
X106226011Y-75895200D01*
X106158674Y-75827863D01*
X105989156Y-75714595D01*
X105800798Y-75636574D01*
X105600839Y-75596800D01*
X105396961Y-75596800D01*
X105197002Y-75636574D01*
X105008644Y-75714595D01*
X104839126Y-75827863D01*
X104694963Y-75972026D01*
X104581695Y-76141544D01*
X104503674Y-76329902D01*
X104463900Y-76529861D01*
X104463900Y-76733739D01*
X104503674Y-76933698D01*
X104581695Y-77122056D01*
X104694963Y-77291574D01*
X104839126Y-77435737D01*
X105008644Y-77549005D01*
X105197002Y-77627026D01*
X105396961Y-77666800D01*
X105600839Y-77666800D01*
X105800798Y-77627026D01*
X105989156Y-77549005D01*
X106158674Y-77435737D01*
X106226011Y-77368400D01*
X106679691Y-77368400D01*
X108085128Y-78773837D01*
X108085128Y-79420201D01*
X108102192Y-79593455D01*
X108152728Y-79760051D01*
X108234795Y-79913587D01*
X108345238Y-80048162D01*
X108372091Y-80070200D01*
X108345238Y-80092238D01*
X108234795Y-80226813D01*
X108152728Y-80380349D01*
X108102192Y-80546945D01*
X108085128Y-80720199D01*
X108085128Y-81420201D01*
X108102192Y-81593455D01*
X108152728Y-81760051D01*
X108234795Y-81913587D01*
X108345238Y-82048162D01*
X108479813Y-82158605D01*
X108633349Y-82240672D01*
X108799945Y-82291208D01*
X108973199Y-82308272D01*
X109475879Y-82308272D01*
X110179594Y-83011987D01*
X110205836Y-83043964D01*
X110237812Y-83070206D01*
X110237814Y-83070208D01*
X110284076Y-83108174D01*
X110333468Y-83148709D01*
X110479083Y-83226542D01*
X110637084Y-83274471D01*
X110760230Y-83286600D01*
X110760236Y-83286600D01*
X110801399Y-83290654D01*
X110842562Y-83286600D01*
X111405504Y-83286600D01*
X111523744Y-83365605D01*
X111712102Y-83443626D01*
X111912061Y-83483400D01*
X112115939Y-83483400D01*
X112315898Y-83443626D01*
X112504256Y-83365605D01*
X112622496Y-83286600D01*
X114868437Y-83286600D01*
X114909600Y-83290654D01*
X114950763Y-83286600D01*
X114950770Y-83286600D01*
X115073916Y-83274471D01*
X115231917Y-83226542D01*
X115377532Y-83148709D01*
X115505164Y-83043964D01*
X115531411Y-83011982D01*
X116126681Y-82416713D01*
X116263683Y-82489942D01*
X116421684Y-82537871D01*
X116544830Y-82550000D01*
X116544837Y-82550000D01*
X116586000Y-82554054D01*
X116613527Y-82551343D01*
X116682395Y-82680186D01*
X116792838Y-82814762D01*
X116920100Y-82919203D01*
X116920101Y-85112603D01*
X116841095Y-85230844D01*
X116763074Y-85419202D01*
X116723300Y-85619161D01*
X116723300Y-85823039D01*
X116763074Y-86022998D01*
X116841095Y-86211356D01*
X116954363Y-86380874D01*
X117098526Y-86525037D01*
X117268044Y-86638305D01*
X117456402Y-86716326D01*
X117656361Y-86756100D01*
X117860239Y-86756100D01*
X118060198Y-86716326D01*
X118248556Y-86638305D01*
X118418074Y-86525037D01*
X118562237Y-86380874D01*
X118675505Y-86211356D01*
X118753526Y-86022998D01*
X118793300Y-85823039D01*
X118793300Y-85619161D01*
X118753526Y-85419202D01*
X118675505Y-85230844D01*
X118596500Y-85112604D01*
X118596500Y-82919203D01*
X118723762Y-82814762D01*
X118729142Y-82808206D01*
X118794615Y-82887985D01*
X118891306Y-82967337D01*
X119001620Y-83026302D01*
X119121318Y-83062612D01*
X119245800Y-83074872D01*
X119547550Y-83071800D01*
X119706300Y-82913050D01*
X119706300Y-81838800D01*
X119960300Y-81838800D01*
X119960300Y-82913050D01*
X120119050Y-83071800D01*
X120420800Y-83074872D01*
X120545282Y-83062612D01*
X120664980Y-83026302D01*
X120775294Y-82967337D01*
X120871985Y-82887985D01*
X120887893Y-82868600D01*
X121942928Y-82868600D01*
X121955188Y-82993082D01*
X121991498Y-83112780D01*
X122050463Y-83223094D01*
X122129815Y-83319785D01*
X122226506Y-83399137D01*
X122336820Y-83458102D01*
X122456518Y-83494412D01*
X122581000Y-83506672D01*
X122882750Y-83503600D01*
X123041500Y-83344850D01*
X123041500Y-82270600D01*
X122104750Y-82270600D01*
X121946000Y-82429350D01*
X121942928Y-82868600D01*
X120887893Y-82868600D01*
X120951337Y-82791294D01*
X121010302Y-82680980D01*
X121046612Y-82561282D01*
X121058872Y-82436800D01*
X121055800Y-81997550D01*
X120897050Y-81838800D01*
X119960300Y-81838800D01*
X119706300Y-81838800D01*
X119686300Y-81838800D01*
X119686300Y-81584800D01*
X119706300Y-81584800D01*
X119706300Y-80510550D01*
X119960300Y-80510550D01*
X119960300Y-81584800D01*
X120897050Y-81584800D01*
X121055800Y-81426050D01*
X121055852Y-81418600D01*
X121942928Y-81418600D01*
X121946000Y-81857850D01*
X122104750Y-82016600D01*
X123041500Y-82016600D01*
X123041500Y-80942350D01*
X122882750Y-80783600D01*
X122581000Y-80780528D01*
X122456518Y-80792788D01*
X122336820Y-80829098D01*
X122226506Y-80888063D01*
X122129815Y-80967415D01*
X122050463Y-81064106D01*
X121991498Y-81174420D01*
X121955188Y-81294118D01*
X121942928Y-81418600D01*
X121055852Y-81418600D01*
X121058872Y-80986800D01*
X121046612Y-80862318D01*
X121010302Y-80742620D01*
X120951337Y-80632306D01*
X120871985Y-80535615D01*
X120775294Y-80456263D01*
X120664980Y-80397298D01*
X120545282Y-80360988D01*
X120420800Y-80348728D01*
X120119050Y-80351800D01*
X119960300Y-80510550D01*
X119706300Y-80510550D01*
X119547550Y-80351800D01*
X119245800Y-80348728D01*
X119121318Y-80360988D01*
X119001620Y-80397298D01*
X118891306Y-80456263D01*
X118794615Y-80535615D01*
X118729142Y-80615394D01*
X118723762Y-80608838D01*
X118596500Y-80504397D01*
X118596500Y-77871893D01*
X119968100Y-76500293D01*
X124404588Y-80936782D01*
X124278038Y-81040638D01*
X124272658Y-81047194D01*
X124207185Y-80967415D01*
X124110494Y-80888063D01*
X124000180Y-80829098D01*
X123880482Y-80792788D01*
X123756000Y-80780528D01*
X123454250Y-80783600D01*
X123295500Y-80942350D01*
X123295500Y-82016600D01*
X123315500Y-82016600D01*
X123315500Y-82270600D01*
X123295500Y-82270600D01*
X123295500Y-83344850D01*
X123454250Y-83503600D01*
X123756000Y-83506672D01*
X123880482Y-83494412D01*
X124000180Y-83458102D01*
X124110494Y-83399137D01*
X124207185Y-83319785D01*
X124272658Y-83240006D01*
X124278038Y-83246562D01*
X124412614Y-83357005D01*
X124566150Y-83439072D01*
X124732746Y-83489608D01*
X124906000Y-83506672D01*
X125330100Y-83506672D01*
X125374400Y-83550972D01*
X125374401Y-84773122D01*
X125248026Y-84857563D01*
X125103863Y-85001726D01*
X124990595Y-85171244D01*
X124912574Y-85359602D01*
X124872800Y-85559561D01*
X124872800Y-85763439D01*
X124887731Y-85838501D01*
X119785285Y-85838501D01*
X119749099Y-85834937D01*
X119712913Y-85838501D01*
X119604700Y-85849159D01*
X119465850Y-85891279D01*
X119337886Y-85959677D01*
X119225724Y-86051726D01*
X119202658Y-86079832D01*
X118338291Y-86944200D01*
X102588686Y-86944200D01*
X102552500Y-86940636D01*
X102516314Y-86944200D01*
X102408101Y-86954858D01*
X102269251Y-86996978D01*
X102145324Y-87063218D01*
X102141287Y-87065376D01*
X102100955Y-87098476D01*
X102029125Y-87157425D01*
X102006059Y-87185531D01*
X101614478Y-87577112D01*
X101605164Y-87530288D01*
X101507189Y-87293756D01*
X101364952Y-87080882D01*
X101183918Y-86899848D01*
X100971044Y-86757611D01*
X100734512Y-86659636D01*
X100483410Y-86609689D01*
X100227390Y-86609689D01*
X99976288Y-86659636D01*
X99739756Y-86757611D01*
X99526882Y-86899848D01*
X99345848Y-87080882D01*
X99203611Y-87293756D01*
X99185800Y-87336755D01*
X99185800Y-85282038D01*
X99423389Y-85440790D01*
X99693642Y-85552732D01*
X99980540Y-85609800D01*
X100273060Y-85609800D01*
X100559958Y-85552732D01*
X100830211Y-85440790D01*
X101073432Y-85278275D01*
X101205287Y-85146420D01*
X101227298Y-85218980D01*
X101286263Y-85329294D01*
X101365615Y-85425985D01*
X101462306Y-85505337D01*
X101572620Y-85564302D01*
X101692318Y-85600612D01*
X101816800Y-85612872D01*
X102381050Y-85609800D01*
X102539800Y-85451050D01*
X102539800Y-84251800D01*
X102793800Y-84251800D01*
X102793800Y-85451050D01*
X102952550Y-85609800D01*
X103516800Y-85612872D01*
X103641282Y-85600612D01*
X103760980Y-85564302D01*
X103871294Y-85505337D01*
X103967985Y-85425985D01*
X104047337Y-85329294D01*
X104106302Y-85218980D01*
X104142612Y-85099282D01*
X104154872Y-84974800D01*
X104151800Y-84410550D01*
X103993050Y-84251800D01*
X102793800Y-84251800D01*
X102539800Y-84251800D01*
X102519800Y-84251800D01*
X102519800Y-83997800D01*
X102539800Y-83997800D01*
X102539800Y-82798550D01*
X102793800Y-82798550D01*
X102793800Y-83997800D01*
X103993050Y-83997800D01*
X104151800Y-83839050D01*
X104154872Y-83274800D01*
X104142612Y-83150318D01*
X104106302Y-83030620D01*
X104047337Y-82920306D01*
X103967985Y-82823615D01*
X103871294Y-82744263D01*
X103760980Y-82685298D01*
X103641282Y-82648988D01*
X103516800Y-82636728D01*
X102952550Y-82639800D01*
X102793800Y-82798550D01*
X102539800Y-82798550D01*
X102381050Y-82639800D01*
X101816800Y-82636728D01*
X101692318Y-82648988D01*
X101572620Y-82685298D01*
X101462306Y-82744263D01*
X101365615Y-82823615D01*
X101286263Y-82920306D01*
X101227298Y-83030620D01*
X101205287Y-83103180D01*
X101073432Y-82971325D01*
X100830211Y-82808810D01*
X100559958Y-82696868D01*
X100273060Y-82639800D01*
X99980540Y-82639800D01*
X99693642Y-82696868D01*
X99423389Y-82808810D01*
X99185800Y-82967562D01*
X99185800Y-59143000D01*
X99578528Y-59143000D01*
X99590788Y-59267482D01*
X99627098Y-59387180D01*
X99686063Y-59497494D01*
X99765415Y-59594185D01*
X99862106Y-59673537D01*
X99972420Y-59732502D01*
X100044980Y-59754513D01*
X99913125Y-59886368D01*
X99750610Y-60129589D01*
X99638668Y-60399842D01*
X99581600Y-60686740D01*
X99581600Y-60979260D01*
X99638668Y-61266158D01*
X99750610Y-61536411D01*
X99913125Y-61779632D01*
X100119968Y-61986475D01*
X100294360Y-62103000D01*
X100119968Y-62219525D01*
X99913125Y-62426368D01*
X99750610Y-62669589D01*
X99638668Y-62939842D01*
X99581600Y-63226740D01*
X99581600Y-63519260D01*
X99638668Y-63806158D01*
X99750610Y-64076411D01*
X99913125Y-64319632D01*
X100119968Y-64526475D01*
X100294360Y-64643000D01*
X100119968Y-64759525D01*
X99913125Y-64966368D01*
X99750610Y-65209589D01*
X99638668Y-65479842D01*
X99581600Y-65766740D01*
X99581600Y-66059260D01*
X99638668Y-66346158D01*
X99750610Y-66616411D01*
X99913125Y-66859632D01*
X100119968Y-67066475D01*
X100294360Y-67183000D01*
X100119968Y-67299525D01*
X99913125Y-67506368D01*
X99750610Y-67749589D01*
X99638668Y-68019842D01*
X99581600Y-68306740D01*
X99581600Y-68599260D01*
X99638668Y-68886158D01*
X99750610Y-69156411D01*
X99913125Y-69399632D01*
X100119968Y-69606475D01*
X100363189Y-69768990D01*
X100633442Y-69880932D01*
X100920340Y-69938000D01*
X101212860Y-69938000D01*
X101499758Y-69880932D01*
X101770011Y-69768990D01*
X102013232Y-69606475D01*
X102220075Y-69399632D01*
X102382590Y-69156411D01*
X102494532Y-68886158D01*
X102551600Y-68599260D01*
X102551600Y-68306740D01*
X102494532Y-68019842D01*
X102382590Y-67749589D01*
X102220075Y-67506368D01*
X102013232Y-67299525D01*
X101838840Y-67183000D01*
X102013232Y-67066475D01*
X102220075Y-66859632D01*
X102382590Y-66616411D01*
X102494532Y-66346158D01*
X102551600Y-66059260D01*
X102551600Y-65766740D01*
X102494532Y-65479842D01*
X102382590Y-65209589D01*
X102220075Y-64966368D01*
X102013232Y-64759525D01*
X101838840Y-64643000D01*
X102013232Y-64526475D01*
X102220075Y-64319632D01*
X102382590Y-64076411D01*
X102494532Y-63806158D01*
X102551600Y-63519260D01*
X102551600Y-63226740D01*
X102494532Y-62939842D01*
X102382590Y-62669589D01*
X102220075Y-62426368D01*
X102013232Y-62219525D01*
X101838840Y-62103000D01*
X102013232Y-61986475D01*
X102220075Y-61779632D01*
X102382590Y-61536411D01*
X102494532Y-61266158D01*
X102551600Y-60979260D01*
X102551600Y-60686740D01*
X102545259Y-60654861D01*
X102914500Y-60654861D01*
X102914500Y-60858739D01*
X102954274Y-61058698D01*
X103032295Y-61247056D01*
X103145563Y-61416574D01*
X103212900Y-61483911D01*
X103212901Y-62816107D01*
X103209336Y-62852300D01*
X103223559Y-62996698D01*
X103265678Y-63135547D01*
X103334076Y-63263512D01*
X103401108Y-63345190D01*
X103426126Y-63375675D01*
X103454232Y-63398741D01*
X115606880Y-75551390D01*
X115606880Y-75646619D01*
X115646654Y-75846578D01*
X115724675Y-76034936D01*
X115837943Y-76204454D01*
X115982106Y-76348617D01*
X116151624Y-76461885D01*
X116339982Y-76539906D01*
X116539941Y-76579680D01*
X116743819Y-76579680D01*
X116943778Y-76539906D01*
X117132136Y-76461885D01*
X117301654Y-76348617D01*
X117445817Y-76204454D01*
X117559085Y-76034936D01*
X117637106Y-75846578D01*
X117676880Y-75646619D01*
X117676880Y-75442741D01*
X117637106Y-75242782D01*
X117559085Y-75054424D01*
X117445817Y-74884906D01*
X117301654Y-74740743D01*
X117132136Y-74627475D01*
X116943778Y-74549454D01*
X116743819Y-74509680D01*
X116648590Y-74509680D01*
X104686100Y-62547191D01*
X104686100Y-61483911D01*
X104753437Y-61416574D01*
X104866705Y-61247056D01*
X104944726Y-61058698D01*
X104984500Y-60858739D01*
X104984500Y-60654861D01*
X104944726Y-60454902D01*
X104866705Y-60266544D01*
X104753437Y-60097026D01*
X104609274Y-59952863D01*
X104439756Y-59839595D01*
X104251398Y-59761574D01*
X104051439Y-59721800D01*
X103847561Y-59721800D01*
X103647602Y-59761574D01*
X103459244Y-59839595D01*
X103289726Y-59952863D01*
X103145563Y-60097026D01*
X103032295Y-60266544D01*
X102954274Y-60454902D01*
X102914500Y-60654861D01*
X102545259Y-60654861D01*
X102494532Y-60399842D01*
X102382590Y-60129589D01*
X102220075Y-59886368D01*
X102088220Y-59754513D01*
X102160780Y-59732502D01*
X102271094Y-59673537D01*
X102367785Y-59594185D01*
X102447137Y-59497494D01*
X102506102Y-59387180D01*
X102542412Y-59267482D01*
X102554672Y-59143000D01*
X102551600Y-58578750D01*
X102392850Y-58420000D01*
X101193600Y-58420000D01*
X101193600Y-58440000D01*
X100939600Y-58440000D01*
X100939600Y-58420000D01*
X99740350Y-58420000D01*
X99581600Y-58578750D01*
X99578528Y-59143000D01*
X99185800Y-59143000D01*
X99185800Y-57443000D01*
X99578528Y-57443000D01*
X99581600Y-58007250D01*
X99740350Y-58166000D01*
X100939600Y-58166000D01*
X100939600Y-56966750D01*
X101193600Y-56966750D01*
X101193600Y-58166000D01*
X102392850Y-58166000D01*
X102551600Y-58007250D01*
X102554672Y-57443000D01*
X102542412Y-57318518D01*
X102506102Y-57198820D01*
X102447137Y-57088506D01*
X102367785Y-56991815D01*
X102271094Y-56912463D01*
X102160780Y-56853498D01*
X102041082Y-56817188D01*
X101916600Y-56804928D01*
X101352350Y-56808000D01*
X101193600Y-56966750D01*
X100939600Y-56966750D01*
X100780850Y-56808000D01*
X100216600Y-56804928D01*
X100092118Y-56817188D01*
X99972420Y-56853498D01*
X99862106Y-56912463D01*
X99765415Y-56991815D01*
X99686063Y-57088506D01*
X99627098Y-57198820D01*
X99590788Y-57318518D01*
X99578528Y-57443000D01*
X99185800Y-57443000D01*
X99185800Y-48722044D01*
X100286500Y-48722044D01*
X100286500Y-49093356D01*
X100358939Y-49457534D01*
X100501034Y-49800582D01*
X100707325Y-50109318D01*
X100969882Y-50371875D01*
X101278618Y-50578166D01*
X101621666Y-50720261D01*
X101985844Y-50792700D01*
X102357156Y-50792700D01*
X102721334Y-50720261D01*
X103064382Y-50578166D01*
X103373118Y-50371875D01*
X103635675Y-50109318D01*
X103841966Y-49800582D01*
X103984061Y-49457534D01*
X104056500Y-49093356D01*
X104056500Y-48780464D01*
X131762180Y-48780464D01*
X131762180Y-49151776D01*
X131834619Y-49515954D01*
X131976714Y-49859002D01*
X132183005Y-50167738D01*
X132445562Y-50430295D01*
X132754298Y-50636586D01*
X133097346Y-50778681D01*
X133461524Y-50851120D01*
X133832836Y-50851120D01*
X134197014Y-50778681D01*
X134540062Y-50636586D01*
X134848798Y-50430295D01*
X135111355Y-50167738D01*
X135317646Y-49859002D01*
X135459741Y-49515954D01*
X135532180Y-49151776D01*
X135532180Y-48780464D01*
X135504859Y-48643110D01*
X142398249Y-48643110D01*
X142398249Y-48899130D01*
X142448196Y-49150232D01*
X142546171Y-49386764D01*
X142688408Y-49599638D01*
X142869442Y-49780672D01*
X143082316Y-49922909D01*
X143318848Y-50020884D01*
X143569950Y-50070831D01*
X143825970Y-50070831D01*
X144077072Y-50020884D01*
X144313604Y-49922909D01*
X144526478Y-49780672D01*
X144707512Y-49599638D01*
X144849749Y-49386764D01*
X144947724Y-49150232D01*
X144997671Y-48899130D01*
X144997671Y-48734744D01*
X147022500Y-48734744D01*
X147022500Y-49106056D01*
X147094939Y-49470234D01*
X147237034Y-49813282D01*
X147443325Y-50122018D01*
X147705882Y-50384575D01*
X148014618Y-50590866D01*
X148357666Y-50732961D01*
X148721844Y-50805400D01*
X149093156Y-50805400D01*
X149457334Y-50732961D01*
X149800382Y-50590866D01*
X150109118Y-50384575D01*
X150371675Y-50122018D01*
X150577966Y-49813282D01*
X150720061Y-49470234D01*
X150792500Y-49106056D01*
X150792500Y-48734744D01*
X150720061Y-48370566D01*
X150577966Y-48027518D01*
X150371675Y-47718782D01*
X150109118Y-47456225D01*
X149800382Y-47249934D01*
X149457334Y-47107839D01*
X149093156Y-47035400D01*
X148721844Y-47035400D01*
X148357666Y-47107839D01*
X148014618Y-47249934D01*
X147705882Y-47456225D01*
X147443325Y-47718782D01*
X147237034Y-48027518D01*
X147094939Y-48370566D01*
X147022500Y-48734744D01*
X144997671Y-48734744D01*
X144997671Y-48643110D01*
X144947724Y-48392008D01*
X144849749Y-48155476D01*
X144707512Y-47942602D01*
X144526478Y-47761568D01*
X144313604Y-47619331D01*
X144077072Y-47521356D01*
X143825970Y-47471409D01*
X143569950Y-47471409D01*
X143318848Y-47521356D01*
X143082316Y-47619331D01*
X142869442Y-47761568D01*
X142688408Y-47942602D01*
X142546171Y-48155476D01*
X142448196Y-48392008D01*
X142398249Y-48643110D01*
X135504859Y-48643110D01*
X135459741Y-48416286D01*
X135317646Y-48073238D01*
X135111355Y-47764502D01*
X134848798Y-47501945D01*
X134540062Y-47295654D01*
X134197014Y-47153559D01*
X133832836Y-47081120D01*
X133461524Y-47081120D01*
X133097346Y-47153559D01*
X132754298Y-47295654D01*
X132445562Y-47501945D01*
X132183005Y-47764502D01*
X131976714Y-48073238D01*
X131834619Y-48416286D01*
X131762180Y-48780464D01*
X104056500Y-48780464D01*
X104056500Y-48722044D01*
X103984061Y-48357866D01*
X103841966Y-48014818D01*
X103635675Y-47706082D01*
X103373118Y-47443525D01*
X103064382Y-47237234D01*
X102721334Y-47095139D01*
X102357156Y-47022700D01*
X101985844Y-47022700D01*
X101621666Y-47095139D01*
X101278618Y-47237234D01*
X100969882Y-47443525D01*
X100707325Y-47706082D01*
X100501034Y-48014818D01*
X100358939Y-48357866D01*
X100286500Y-48722044D01*
X99185800Y-48722044D01*
X99185800Y-46086594D01*
X151283601Y-46049505D01*
X151283600Y-105182769D01*
%TA.AperFunction,Conductor*%
D25*
G36*
X151283600Y-105182769D02*
G01*
X134587934Y-105186731D01*
X134680814Y-104962498D01*
X134734000Y-104695112D01*
X134734000Y-104422488D01*
X134726305Y-104383800D01*
X144613528Y-104383800D01*
X144625788Y-104508282D01*
X144662098Y-104627980D01*
X144721063Y-104738294D01*
X144800415Y-104834985D01*
X144897106Y-104914337D01*
X145007420Y-104973302D01*
X145127118Y-105009612D01*
X145251600Y-105021872D01*
X145865850Y-105018800D01*
X146024600Y-104860050D01*
X146024600Y-103848300D01*
X146278600Y-103848300D01*
X146278600Y-104860050D01*
X146437350Y-105018800D01*
X147051600Y-105021872D01*
X147176082Y-105009612D01*
X147295780Y-104973302D01*
X147406094Y-104914337D01*
X147502785Y-104834985D01*
X147582137Y-104738294D01*
X147641102Y-104627980D01*
X147677412Y-104508282D01*
X147689672Y-104383800D01*
X147686600Y-104007050D01*
X147527850Y-103848300D01*
X146278600Y-103848300D01*
X146024600Y-103848300D01*
X144775350Y-103848300D01*
X144616600Y-104007050D01*
X144613528Y-104383800D01*
X134726305Y-104383800D01*
X134680814Y-104155102D01*
X134576485Y-103903230D01*
X134425023Y-103676551D01*
X134232249Y-103483777D01*
X134005570Y-103332315D01*
X133753698Y-103227986D01*
X133486312Y-103174800D01*
X133213688Y-103174800D01*
X132946302Y-103227986D01*
X132909200Y-103243354D01*
X132908278Y-103058800D01*
X144613528Y-103058800D01*
X144616600Y-103435550D01*
X144775350Y-103594300D01*
X146024600Y-103594300D01*
X146024600Y-102582550D01*
X146278600Y-102582550D01*
X146278600Y-103594300D01*
X147527850Y-103594300D01*
X147686600Y-103435550D01*
X147689672Y-103058800D01*
X147677412Y-102934318D01*
X147641102Y-102814620D01*
X147582137Y-102704306D01*
X147502785Y-102607615D01*
X147406094Y-102528263D01*
X147295780Y-102469298D01*
X147176082Y-102432988D01*
X147051600Y-102420728D01*
X146437350Y-102423800D01*
X146278600Y-102582550D01*
X146024600Y-102582550D01*
X145865850Y-102423800D01*
X145251600Y-102420728D01*
X145127118Y-102432988D01*
X145007420Y-102469298D01*
X144897106Y-102528263D01*
X144800415Y-102607615D01*
X144721063Y-102704306D01*
X144662098Y-102814620D01*
X144625788Y-102934318D01*
X144613528Y-103058800D01*
X132908278Y-103058800D01*
X132908000Y-103003350D01*
X132749250Y-102844600D01*
X131737500Y-102844600D01*
X131737500Y-104093850D01*
X131896250Y-104252600D01*
X131999625Y-104253443D01*
X131966000Y-104422488D01*
X131966000Y-104695112D01*
X132019186Y-104962498D01*
X132112310Y-105187318D01*
X128087295Y-105188274D01*
X128180814Y-104962498D01*
X128234000Y-104695112D01*
X128234000Y-104422488D01*
X128200818Y-104255672D01*
X128898002Y-104255672D01*
X129071256Y-104238608D01*
X129237852Y-104188072D01*
X129391387Y-104106005D01*
X129525962Y-103995562D01*
X129636405Y-103860987D01*
X129718472Y-103707452D01*
X129745728Y-103617600D01*
X130309928Y-103617600D01*
X130322188Y-103742082D01*
X130358498Y-103861780D01*
X130417463Y-103972094D01*
X130496815Y-104068785D01*
X130593506Y-104148137D01*
X130703820Y-104207102D01*
X130823518Y-104243412D01*
X130948000Y-104255672D01*
X131324750Y-104252600D01*
X131483500Y-104093850D01*
X131483500Y-102844600D01*
X130471750Y-102844600D01*
X130313000Y-103003350D01*
X130309928Y-103617600D01*
X129745728Y-103617600D01*
X129769008Y-103540856D01*
X129786072Y-103367602D01*
X129786072Y-102067598D01*
X129769008Y-101894344D01*
X129745729Y-101817600D01*
X130309928Y-101817600D01*
X130313000Y-102431850D01*
X130471750Y-102590600D01*
X131483500Y-102590600D01*
X131483500Y-101341350D01*
X131737500Y-101341350D01*
X131737500Y-102590600D01*
X132749250Y-102590600D01*
X132908000Y-102431850D01*
X132911072Y-101817600D01*
X132898812Y-101693118D01*
X132862502Y-101573420D01*
X132803537Y-101463106D01*
X132724185Y-101366415D01*
X132627494Y-101287063D01*
X132517180Y-101228098D01*
X132397482Y-101191788D01*
X132273000Y-101179528D01*
X131896250Y-101182600D01*
X131737500Y-101341350D01*
X131483500Y-101341350D01*
X131324750Y-101182600D01*
X130948000Y-101179528D01*
X130823518Y-101191788D01*
X130703820Y-101228098D01*
X130593506Y-101287063D01*
X130496815Y-101366415D01*
X130417463Y-101463106D01*
X130358498Y-101573420D01*
X130322188Y-101693118D01*
X130309928Y-101817600D01*
X129745729Y-101817600D01*
X129718472Y-101727748D01*
X129636405Y-101574213D01*
X129525962Y-101439638D01*
X129391387Y-101329195D01*
X129237852Y-101247128D01*
X129222100Y-101242350D01*
X129222100Y-101015079D01*
X132573326Y-101015079D01*
X132638729Y-101253845D01*
X132885538Y-101369645D01*
X133150195Y-101435070D01*
X133422531Y-101447605D01*
X133692081Y-101406770D01*
X133948484Y-101314132D01*
X134061271Y-101253845D01*
X134126674Y-101015079D01*
X133350000Y-100238405D01*
X132573326Y-101015079D01*
X129222100Y-101015079D01*
X129222100Y-100131331D01*
X131961195Y-100131331D01*
X132002030Y-100400881D01*
X132094668Y-100657284D01*
X132154955Y-100770071D01*
X132393721Y-100835474D01*
X133170395Y-100058800D01*
X133529605Y-100058800D01*
X134306279Y-100835474D01*
X134545045Y-100770071D01*
X134660845Y-100523262D01*
X134667989Y-100494361D01*
X139642500Y-100494361D01*
X139642500Y-100698239D01*
X139682274Y-100898198D01*
X139760295Y-101086556D01*
X139873563Y-101256074D01*
X140017726Y-101400237D01*
X140187244Y-101513505D01*
X140375602Y-101591526D01*
X140575561Y-101631300D01*
X140779439Y-101631300D01*
X140979398Y-101591526D01*
X141167756Y-101513505D01*
X141337274Y-101400237D01*
X141404611Y-101332900D01*
X144676350Y-101332900D01*
X144681128Y-101348652D01*
X144763195Y-101502187D01*
X144873638Y-101636762D01*
X145008213Y-101747205D01*
X145161748Y-101829272D01*
X145328344Y-101879808D01*
X145501598Y-101896872D01*
X146801602Y-101896872D01*
X146974856Y-101879808D01*
X147141452Y-101829272D01*
X147294987Y-101747205D01*
X147429562Y-101636762D01*
X147540005Y-101502187D01*
X147622072Y-101348652D01*
X147672608Y-101182056D01*
X147689672Y-101008802D01*
X147689672Y-100183798D01*
X147672608Y-100010544D01*
X147622072Y-99843948D01*
X147540005Y-99690413D01*
X147429562Y-99555838D01*
X147294987Y-99445395D01*
X147141452Y-99363328D01*
X146974856Y-99312792D01*
X146801602Y-99295728D01*
X145501598Y-99295728D01*
X145328344Y-99312792D01*
X145161748Y-99363328D01*
X145008213Y-99445395D01*
X144873638Y-99555838D01*
X144763195Y-99690413D01*
X144681128Y-99843948D01*
X144676350Y-99859700D01*
X141404611Y-99859700D01*
X141337274Y-99792363D01*
X141167756Y-99679095D01*
X140979398Y-99601074D01*
X140779439Y-99561300D01*
X140575561Y-99561300D01*
X140375602Y-99601074D01*
X140187244Y-99679095D01*
X140017726Y-99792363D01*
X139873563Y-99936526D01*
X139760295Y-100106044D01*
X139682274Y-100294402D01*
X139642500Y-100494361D01*
X134667989Y-100494361D01*
X134726270Y-100258605D01*
X134738805Y-99986269D01*
X134697970Y-99716719D01*
X134605332Y-99460316D01*
X134545045Y-99347529D01*
X134306279Y-99282126D01*
X133529605Y-100058800D01*
X133170395Y-100058800D01*
X132393721Y-99282126D01*
X132154955Y-99347529D01*
X132039155Y-99594338D01*
X131973730Y-99858995D01*
X131961195Y-100131331D01*
X129222100Y-100131331D01*
X129222100Y-99102521D01*
X132573326Y-99102521D01*
X133350000Y-99879195D01*
X134126674Y-99102521D01*
X134061271Y-98863755D01*
X133814462Y-98747955D01*
X133549805Y-98682530D01*
X133277469Y-98669995D01*
X133007919Y-98710830D01*
X132751516Y-98803468D01*
X132638729Y-98863755D01*
X132573326Y-99102521D01*
X129222100Y-99102521D01*
X129222100Y-98681811D01*
X129289437Y-98614474D01*
X129402705Y-98444956D01*
X129480726Y-98256598D01*
X129520500Y-98056639D01*
X129520500Y-97852761D01*
X129480726Y-97652802D01*
X129402705Y-97464444D01*
X129289437Y-97294926D01*
X129145274Y-97150763D01*
X128975756Y-97037495D01*
X128787398Y-96959474D01*
X128587439Y-96919700D01*
X128383561Y-96919700D01*
X128183602Y-96959474D01*
X127995244Y-97037495D01*
X127825726Y-97150763D01*
X127681563Y-97294926D01*
X127568295Y-97464444D01*
X127490274Y-97652802D01*
X127450500Y-97852761D01*
X127450500Y-98056639D01*
X127490274Y-98256598D01*
X127568295Y-98444956D01*
X127681563Y-98614474D01*
X127748901Y-98681812D01*
X127748901Y-98691699D01*
X127723482Y-98683988D01*
X127599000Y-98671728D01*
X126101000Y-98671728D01*
X125976518Y-98683988D01*
X125856820Y-98720298D01*
X125746506Y-98779263D01*
X125649815Y-98858615D01*
X125570463Y-98955306D01*
X125511498Y-99065620D01*
X125475188Y-99185318D01*
X125462928Y-99309800D01*
X125462928Y-100807800D01*
X125475188Y-100932282D01*
X125511498Y-101051980D01*
X125570463Y-101162294D01*
X125649815Y-101258985D01*
X125746506Y-101338337D01*
X125856820Y-101397302D01*
X125976518Y-101433612D01*
X126101000Y-101445872D01*
X127439922Y-101445872D01*
X127334595Y-101574213D01*
X127252528Y-101727748D01*
X127201992Y-101894344D01*
X127184928Y-102067598D01*
X127184928Y-103214307D01*
X126986312Y-103174800D01*
X126713688Y-103174800D01*
X126446302Y-103227986D01*
X126194430Y-103332315D01*
X125967751Y-103483777D01*
X125774977Y-103676551D01*
X125623515Y-103903230D01*
X125519186Y-104155102D01*
X125466000Y-104422488D01*
X125466000Y-104695112D01*
X125519186Y-104962498D01*
X125612949Y-105188861D01*
X123929347Y-105189260D01*
X123948782Y-105152900D01*
X123985092Y-105033202D01*
X123997352Y-104908720D01*
X123994280Y-104344470D01*
X123835530Y-104185720D01*
X122636280Y-104185720D01*
X122636280Y-104205720D01*
X122382280Y-104205720D01*
X122382280Y-104185720D01*
X121183030Y-104185720D01*
X121024280Y-104344470D01*
X121021208Y-104908720D01*
X121033468Y-105033202D01*
X121069778Y-105152900D01*
X121089573Y-105189934D01*
X99185800Y-105195132D01*
X99185800Y-103812313D01*
X99245085Y-103955440D01*
X99363825Y-104133147D01*
X99514953Y-104284275D01*
X99692660Y-104403015D01*
X99890117Y-104484804D01*
X100099737Y-104526500D01*
X100313463Y-104526500D01*
X100523083Y-104484804D01*
X100720540Y-104403015D01*
X100898247Y-104284275D01*
X101049375Y-104133147D01*
X101168115Y-103955440D01*
X101249904Y-103757983D01*
X101291600Y-103548363D01*
X101291600Y-103334637D01*
X105921600Y-103334637D01*
X105921600Y-103548363D01*
X105963296Y-103757983D01*
X106045085Y-103955440D01*
X106163825Y-104133147D01*
X106314953Y-104284275D01*
X106492660Y-104403015D01*
X106690117Y-104484804D01*
X106899737Y-104526500D01*
X107113463Y-104526500D01*
X107323083Y-104484804D01*
X107520540Y-104403015D01*
X107698247Y-104284275D01*
X107849375Y-104133147D01*
X107968115Y-103955440D01*
X108025443Y-103817037D01*
X111057900Y-103817037D01*
X111057900Y-104030763D01*
X111099596Y-104240383D01*
X111181385Y-104437840D01*
X111300125Y-104615547D01*
X111451253Y-104766675D01*
X111628960Y-104885415D01*
X111826417Y-104967204D01*
X112036037Y-105008900D01*
X112249763Y-105008900D01*
X112459383Y-104967204D01*
X112656840Y-104885415D01*
X112834547Y-104766675D01*
X112985675Y-104615547D01*
X113104415Y-104437840D01*
X113186204Y-104240383D01*
X113227900Y-104030763D01*
X113227900Y-103817037D01*
X116057900Y-103817037D01*
X116057900Y-104030763D01*
X116099596Y-104240383D01*
X116181385Y-104437840D01*
X116300125Y-104615547D01*
X116451253Y-104766675D01*
X116628960Y-104885415D01*
X116826417Y-104967204D01*
X117036037Y-105008900D01*
X117249763Y-105008900D01*
X117459383Y-104967204D01*
X117656840Y-104885415D01*
X117834547Y-104766675D01*
X117985675Y-104615547D01*
X118104415Y-104437840D01*
X118186204Y-104240383D01*
X118227900Y-104030763D01*
X118227900Y-103817037D01*
X118186204Y-103607417D01*
X118104415Y-103409960D01*
X117985675Y-103232253D01*
X117962142Y-103208720D01*
X121021208Y-103208720D01*
X121024280Y-103772970D01*
X121183030Y-103931720D01*
X122382280Y-103931720D01*
X122382280Y-103911720D01*
X122636280Y-103911720D01*
X122636280Y-103931720D01*
X123835530Y-103931720D01*
X123994280Y-103772970D01*
X123997352Y-103208720D01*
X123985092Y-103084238D01*
X123948782Y-102964540D01*
X123889817Y-102854226D01*
X123810465Y-102757535D01*
X123713774Y-102678183D01*
X123603460Y-102619218D01*
X123530900Y-102597207D01*
X123662755Y-102465352D01*
X123825270Y-102222131D01*
X123937212Y-101951878D01*
X123994280Y-101664980D01*
X123994280Y-101372460D01*
X123937212Y-101085562D01*
X123825270Y-100815309D01*
X123662755Y-100572088D01*
X123455912Y-100365245D01*
X123281520Y-100248720D01*
X123455912Y-100132195D01*
X123662755Y-99925352D01*
X123825270Y-99682131D01*
X123937212Y-99411878D01*
X123994280Y-99124980D01*
X123994280Y-98832460D01*
X123937212Y-98545562D01*
X123825270Y-98275309D01*
X123662755Y-98032088D01*
X123455912Y-97825245D01*
X123281520Y-97708720D01*
X123455912Y-97592195D01*
X123662755Y-97385352D01*
X123825270Y-97142131D01*
X123937212Y-96871878D01*
X123994280Y-96584980D01*
X123994280Y-96292460D01*
X123937212Y-96005562D01*
X123825270Y-95735309D01*
X123662755Y-95492088D01*
X123455912Y-95285245D01*
X123281520Y-95168720D01*
X123455912Y-95052195D01*
X123662755Y-94845352D01*
X123825270Y-94602131D01*
X123937212Y-94331878D01*
X123994280Y-94044980D01*
X123994280Y-93752460D01*
X123937212Y-93465562D01*
X123825270Y-93195309D01*
X123662755Y-92952088D01*
X123455912Y-92745245D01*
X123281520Y-92628720D01*
X123455912Y-92512195D01*
X123662755Y-92305352D01*
X123825270Y-92062131D01*
X123937212Y-91791878D01*
X123994280Y-91504980D01*
X123994280Y-91212460D01*
X123937212Y-90925562D01*
X123825270Y-90655309D01*
X123662755Y-90412088D01*
X123455912Y-90205245D01*
X123212691Y-90042730D01*
X122942438Y-89930788D01*
X122655540Y-89873720D01*
X122363020Y-89873720D01*
X122076122Y-89930788D01*
X121805869Y-90042730D01*
X121562648Y-90205245D01*
X121355805Y-90412088D01*
X121193290Y-90655309D01*
X121081348Y-90925562D01*
X121024280Y-91212460D01*
X121024280Y-91504980D01*
X121081348Y-91791878D01*
X121193290Y-92062131D01*
X121355805Y-92305352D01*
X121562648Y-92512195D01*
X121737040Y-92628720D01*
X121562648Y-92745245D01*
X121355805Y-92952088D01*
X121193290Y-93195309D01*
X121081348Y-93465562D01*
X121024280Y-93752460D01*
X121024280Y-94044980D01*
X121081348Y-94331878D01*
X121193290Y-94602131D01*
X121355805Y-94845352D01*
X121562648Y-95052195D01*
X121737040Y-95168720D01*
X121562648Y-95285245D01*
X121355805Y-95492088D01*
X121193290Y-95735309D01*
X121081348Y-96005562D01*
X121024280Y-96292460D01*
X121024280Y-96584980D01*
X121081348Y-96871878D01*
X121193290Y-97142131D01*
X121355805Y-97385352D01*
X121562648Y-97592195D01*
X121737040Y-97708720D01*
X121562648Y-97825245D01*
X121355805Y-98032088D01*
X121193290Y-98275309D01*
X121081348Y-98545562D01*
X121024280Y-98832460D01*
X121024280Y-99124980D01*
X121081348Y-99411878D01*
X121193290Y-99682131D01*
X121355805Y-99925352D01*
X121562648Y-100132195D01*
X121737040Y-100248720D01*
X121562648Y-100365245D01*
X121355805Y-100572088D01*
X121193290Y-100815309D01*
X121081348Y-101085562D01*
X121024280Y-101372460D01*
X121024280Y-101664980D01*
X121081348Y-101951878D01*
X121193290Y-102222131D01*
X121355805Y-102465352D01*
X121487660Y-102597207D01*
X121415100Y-102619218D01*
X121304786Y-102678183D01*
X121208095Y-102757535D01*
X121128743Y-102854226D01*
X121069778Y-102964540D01*
X121033468Y-103084238D01*
X121021208Y-103208720D01*
X117962142Y-103208720D01*
X117834547Y-103081125D01*
X117656840Y-102962385D01*
X117459383Y-102880596D01*
X117249763Y-102838900D01*
X117036037Y-102838900D01*
X116826417Y-102880596D01*
X116628960Y-102962385D01*
X116451253Y-103081125D01*
X116300125Y-103232253D01*
X116181385Y-103409960D01*
X116099596Y-103607417D01*
X116057900Y-103817037D01*
X113227900Y-103817037D01*
X113186204Y-103607417D01*
X113104415Y-103409960D01*
X112985675Y-103232253D01*
X112834547Y-103081125D01*
X112656840Y-102962385D01*
X112459383Y-102880596D01*
X112249763Y-102838900D01*
X112036037Y-102838900D01*
X111826417Y-102880596D01*
X111628960Y-102962385D01*
X111451253Y-103081125D01*
X111300125Y-103232253D01*
X111181385Y-103409960D01*
X111099596Y-103607417D01*
X111057900Y-103817037D01*
X108025443Y-103817037D01*
X108049904Y-103757983D01*
X108091600Y-103548363D01*
X108091600Y-103334637D01*
X108049904Y-103125017D01*
X107968115Y-102927560D01*
X107849375Y-102749853D01*
X107698247Y-102598725D01*
X107520540Y-102479985D01*
X107323083Y-102398196D01*
X107113463Y-102356500D01*
X106899737Y-102356500D01*
X106690117Y-102398196D01*
X106492660Y-102479985D01*
X106314953Y-102598725D01*
X106163825Y-102749853D01*
X106045085Y-102927560D01*
X105963296Y-103125017D01*
X105921600Y-103334637D01*
X101291600Y-103334637D01*
X101249904Y-103125017D01*
X101168115Y-102927560D01*
X101049375Y-102749853D01*
X100898247Y-102598725D01*
X100720540Y-102479985D01*
X100523083Y-102398196D01*
X100313463Y-102356500D01*
X100099737Y-102356500D01*
X99890117Y-102398196D01*
X99692660Y-102479985D01*
X99514953Y-102598725D01*
X99363825Y-102749853D01*
X99245085Y-102927560D01*
X99185800Y-103070687D01*
X99185800Y-96418061D01*
X112503000Y-96418061D01*
X112503000Y-96621939D01*
X112542774Y-96821898D01*
X112620795Y-97010256D01*
X112734063Y-97179774D01*
X112801400Y-97247111D01*
X112801401Y-99856888D01*
X112734063Y-99924226D01*
X112620795Y-100093744D01*
X112542774Y-100282102D01*
X112503000Y-100482061D01*
X112503000Y-100685939D01*
X112542774Y-100885898D01*
X112620795Y-101074256D01*
X112734063Y-101243774D01*
X112878226Y-101387937D01*
X113047744Y-101501205D01*
X113236102Y-101579226D01*
X113436061Y-101619000D01*
X113639939Y-101619000D01*
X113839898Y-101579226D01*
X114028256Y-101501205D01*
X114197774Y-101387937D01*
X114341937Y-101243774D01*
X114455205Y-101074256D01*
X114533226Y-100885898D01*
X114573000Y-100685939D01*
X114573000Y-100482061D01*
X114533226Y-100282102D01*
X114455205Y-100093744D01*
X114341937Y-99924226D01*
X114274600Y-99856889D01*
X114274600Y-97247111D01*
X114341937Y-97179774D01*
X114455205Y-97010256D01*
X114533226Y-96821898D01*
X114573000Y-96621939D01*
X114573000Y-96418061D01*
X114533226Y-96218102D01*
X114455205Y-96029744D01*
X114341937Y-95860226D01*
X114197774Y-95716063D01*
X114028256Y-95602795D01*
X113839898Y-95524774D01*
X113639939Y-95485000D01*
X113436061Y-95485000D01*
X113236102Y-95524774D01*
X113047744Y-95602795D01*
X112878226Y-95716063D01*
X112734063Y-95860226D01*
X112620795Y-96029744D01*
X112542774Y-96218102D01*
X112503000Y-96418061D01*
X99185800Y-96418061D01*
X99185800Y-94756600D01*
X107830128Y-94756600D01*
X107842388Y-94881082D01*
X107878698Y-95000780D01*
X107937663Y-95111094D01*
X108017015Y-95207785D01*
X108113706Y-95287137D01*
X108224020Y-95346102D01*
X108343718Y-95382412D01*
X108468200Y-95394672D01*
X108969950Y-95391600D01*
X109128700Y-95232850D01*
X109128700Y-94208600D01*
X109382700Y-94208600D01*
X109382700Y-95232850D01*
X109541450Y-95391600D01*
X110043200Y-95394672D01*
X110167682Y-95382412D01*
X110287380Y-95346102D01*
X110397694Y-95287137D01*
X110494385Y-95207785D01*
X110573737Y-95111094D01*
X110632702Y-95000780D01*
X110669012Y-94881082D01*
X110681272Y-94756600D01*
X110678200Y-94367350D01*
X110519450Y-94208600D01*
X109382700Y-94208600D01*
X109128700Y-94208600D01*
X107991950Y-94208600D01*
X107833200Y-94367350D01*
X107830128Y-94756600D01*
X99185800Y-94756600D01*
X99185800Y-93406600D01*
X107830128Y-93406600D01*
X107833200Y-93795850D01*
X107991950Y-93954600D01*
X109128700Y-93954600D01*
X109128700Y-92930350D01*
X108969950Y-92771600D01*
X108468200Y-92768528D01*
X108343718Y-92780788D01*
X108224020Y-92817098D01*
X108113706Y-92876063D01*
X108017015Y-92955415D01*
X107937663Y-93052106D01*
X107878698Y-93162420D01*
X107842388Y-93282118D01*
X107830128Y-93406600D01*
X99185800Y-93406600D01*
X99185800Y-88482045D01*
X99203611Y-88525044D01*
X99345848Y-88737918D01*
X99526882Y-88918952D01*
X99739756Y-89061189D01*
X99747676Y-89064469D01*
X99619426Y-89150163D01*
X99475263Y-89294326D01*
X99361995Y-89463844D01*
X99283974Y-89652202D01*
X99244200Y-89852161D01*
X99244200Y-90056039D01*
X99283974Y-90255998D01*
X99361995Y-90444356D01*
X99475263Y-90613874D01*
X99619426Y-90758037D01*
X99788944Y-90871305D01*
X99977302Y-90949326D01*
X100177261Y-90989100D01*
X100381139Y-90989100D01*
X100581098Y-90949326D01*
X100769456Y-90871305D01*
X100938974Y-90758037D01*
X101083137Y-90613874D01*
X101196405Y-90444356D01*
X101274426Y-90255998D01*
X101314200Y-90056039D01*
X101314200Y-89960809D01*
X102857610Y-88417400D01*
X108442228Y-88417400D01*
X108442228Y-89928700D01*
X108454488Y-90053182D01*
X108490798Y-90172880D01*
X108549763Y-90283194D01*
X108629115Y-90379885D01*
X108725806Y-90459237D01*
X108836120Y-90518202D01*
X108955818Y-90554512D01*
X109067601Y-90565521D01*
X109067601Y-91912133D01*
X109063054Y-91958300D01*
X109081199Y-92142533D01*
X109134938Y-92319686D01*
X109222204Y-92482951D01*
X109282359Y-92556248D01*
X109339647Y-92626054D01*
X109375510Y-92655486D01*
X109516537Y-92796513D01*
X109382700Y-92930350D01*
X109382700Y-93954600D01*
X110519450Y-93954600D01*
X110597036Y-93877014D01*
X110705128Y-93985105D01*
X110705128Y-94506601D01*
X110722192Y-94679855D01*
X110772728Y-94846451D01*
X110854795Y-94999987D01*
X110965238Y-95134562D01*
X111099813Y-95245005D01*
X111253349Y-95327072D01*
X111419945Y-95377608D01*
X111593199Y-95394672D01*
X112668201Y-95394672D01*
X112841455Y-95377608D01*
X113008051Y-95327072D01*
X113161587Y-95245005D01*
X113296162Y-95134562D01*
X113406605Y-94999987D01*
X113488672Y-94846451D01*
X113539208Y-94679855D01*
X113556272Y-94506601D01*
X113556272Y-93656599D01*
X113539208Y-93483345D01*
X113488672Y-93316749D01*
X113406605Y-93163213D01*
X113296162Y-93028638D01*
X113161587Y-92918195D01*
X113070500Y-92869508D01*
X113070500Y-90082607D01*
X113125926Y-89948798D01*
X113165700Y-89748839D01*
X113165700Y-89544961D01*
X113125926Y-89345002D01*
X113047905Y-89156644D01*
X112934637Y-88987126D01*
X112790474Y-88842963D01*
X112620956Y-88729695D01*
X112432598Y-88651674D01*
X112232639Y-88611900D01*
X112028761Y-88611900D01*
X111828802Y-88651674D01*
X111640444Y-88729695D01*
X111572572Y-88775045D01*
X111572572Y-88417400D01*
X118607217Y-88417400D01*
X118643400Y-88420964D01*
X118679583Y-88417400D01*
X118679586Y-88417400D01*
X118787799Y-88406742D01*
X118926649Y-88364622D01*
X119054613Y-88296224D01*
X119166775Y-88204175D01*
X119189845Y-88176064D01*
X120054209Y-87311701D01*
X120549614Y-87311701D01*
X120494795Y-87393744D01*
X120416774Y-87582102D01*
X120377000Y-87782061D01*
X120377000Y-87985939D01*
X120416774Y-88185898D01*
X120494795Y-88374256D01*
X120608063Y-88543774D01*
X120752226Y-88687937D01*
X120921744Y-88801205D01*
X121110102Y-88879226D01*
X121310061Y-88919000D01*
X121513939Y-88919000D01*
X121713898Y-88879226D01*
X121902256Y-88801205D01*
X122071774Y-88687937D01*
X122139111Y-88620600D01*
X122656291Y-88620600D01*
X129006259Y-94970569D01*
X129029325Y-94998675D01*
X129141487Y-95090724D01*
X129269451Y-95159122D01*
X129408298Y-95201241D01*
X129408301Y-95201242D01*
X129552700Y-95215464D01*
X129588886Y-95211900D01*
X129930489Y-95211900D01*
X129947026Y-95228437D01*
X130116544Y-95341705D01*
X130304902Y-95419726D01*
X130504861Y-95459500D01*
X130708739Y-95459500D01*
X130908698Y-95419726D01*
X131097056Y-95341705D01*
X131266574Y-95228437D01*
X131410737Y-95084274D01*
X131524005Y-94914756D01*
X131602026Y-94726398D01*
X131641800Y-94526439D01*
X131641800Y-94414104D01*
X139272960Y-94414104D01*
X139272960Y-94785416D01*
X139345399Y-95149594D01*
X139487494Y-95492642D01*
X139693785Y-95801378D01*
X139956342Y-96063935D01*
X140265078Y-96270226D01*
X140608126Y-96412321D01*
X140972304Y-96484760D01*
X141343616Y-96484760D01*
X141707794Y-96412321D01*
X142050842Y-96270226D01*
X142359578Y-96063935D01*
X142622135Y-95801378D01*
X142828426Y-95492642D01*
X142970521Y-95149594D01*
X143042960Y-94785416D01*
X143042960Y-94414104D01*
X142970521Y-94049926D01*
X142828426Y-93706878D01*
X142622135Y-93398142D01*
X142359578Y-93135585D01*
X142050842Y-92929294D01*
X141707794Y-92787199D01*
X141343616Y-92714760D01*
X140972304Y-92714760D01*
X140608126Y-92787199D01*
X140265078Y-92929294D01*
X139956342Y-93135585D01*
X139693785Y-93398142D01*
X139487494Y-93706878D01*
X139345399Y-94049926D01*
X139272960Y-94414104D01*
X131641800Y-94414104D01*
X131641800Y-94322561D01*
X131602026Y-94122602D01*
X131524005Y-93934244D01*
X131410737Y-93764726D01*
X131266574Y-93620563D01*
X131097056Y-93507295D01*
X130908698Y-93429274D01*
X130708739Y-93389500D01*
X130504861Y-93389500D01*
X130304902Y-93429274D01*
X130116544Y-93507295D01*
X129947026Y-93620563D01*
X129843349Y-93724240D01*
X126204125Y-90085016D01*
X126731190Y-90085016D01*
X126818148Y-90341965D01*
X127095336Y-90475571D01*
X127393263Y-90552533D01*
X127700480Y-90569892D01*
X128005180Y-90526983D01*
X128295655Y-90425455D01*
X128451852Y-90341965D01*
X128538810Y-90085016D01*
X127635000Y-89181205D01*
X126731190Y-90085016D01*
X126204125Y-90085016D01*
X124739709Y-88620600D01*
X126120042Y-88620600D01*
X126084067Y-88759863D01*
X126066708Y-89067080D01*
X126109617Y-89371780D01*
X126211145Y-89662255D01*
X126294635Y-89818452D01*
X126551584Y-89905410D01*
X127455395Y-89001600D01*
X127814605Y-89001600D01*
X128718416Y-89905410D01*
X128975365Y-89818452D01*
X129108971Y-89541264D01*
X129185933Y-89243337D01*
X129203292Y-88936120D01*
X129160383Y-88631420D01*
X129058855Y-88340945D01*
X128975365Y-88184748D01*
X128718416Y-88097790D01*
X127814605Y-89001600D01*
X127455395Y-89001600D01*
X127441252Y-88987458D01*
X127620858Y-88807853D01*
X127635000Y-88821995D01*
X128538810Y-87918184D01*
X128451852Y-87661235D01*
X128174664Y-87527629D01*
X128168137Y-87525943D01*
X128196160Y-87497920D01*
X129651089Y-87497920D01*
X129718426Y-87565257D01*
X129887944Y-87678525D01*
X130076302Y-87756546D01*
X130276261Y-87796320D01*
X130480139Y-87796320D01*
X130680098Y-87756546D01*
X130868456Y-87678525D01*
X131037974Y-87565257D01*
X131182137Y-87421094D01*
X131295405Y-87251576D01*
X131373426Y-87063218D01*
X131413200Y-86863259D01*
X131413200Y-86659381D01*
X131373426Y-86459422D01*
X131295405Y-86271064D01*
X131182137Y-86101546D01*
X131037974Y-85957383D01*
X130903604Y-85867600D01*
X144524628Y-85867600D01*
X144536888Y-85992082D01*
X144573198Y-86111780D01*
X144632163Y-86222094D01*
X144711515Y-86318785D01*
X144808206Y-86398137D01*
X144918520Y-86457102D01*
X145038218Y-86493412D01*
X145162700Y-86505672D01*
X145776950Y-86502600D01*
X145935700Y-86343850D01*
X145935700Y-85332100D01*
X146189700Y-85332100D01*
X146189700Y-86343850D01*
X146348450Y-86502600D01*
X146962700Y-86505672D01*
X147087182Y-86493412D01*
X147206880Y-86457102D01*
X147317194Y-86398137D01*
X147413885Y-86318785D01*
X147493237Y-86222094D01*
X147552202Y-86111780D01*
X147588512Y-85992082D01*
X147600772Y-85867600D01*
X147597700Y-85490850D01*
X147438950Y-85332100D01*
X146189700Y-85332100D01*
X145935700Y-85332100D01*
X144686450Y-85332100D01*
X144527700Y-85490850D01*
X144524628Y-85867600D01*
X130903604Y-85867600D01*
X130868456Y-85844115D01*
X130680098Y-85766094D01*
X130480139Y-85726320D01*
X130276261Y-85726320D01*
X130076302Y-85766094D01*
X129887944Y-85844115D01*
X129718426Y-85957383D01*
X129651089Y-86024720D01*
X127927225Y-86024720D01*
X127891049Y-86021157D01*
X127854873Y-86024720D01*
X127854864Y-86024720D01*
X127746651Y-86035378D01*
X127607801Y-86077498D01*
X127484901Y-86143190D01*
X127405774Y-86064063D01*
X127236256Y-85950795D01*
X127047898Y-85872774D01*
X126925880Y-85848503D01*
X126942800Y-85763439D01*
X126942800Y-85691228D01*
X126988239Y-85541437D01*
X127000000Y-85422023D01*
X127000000Y-85422021D01*
X127003932Y-85382101D01*
X127000000Y-85342180D01*
X127000000Y-84542600D01*
X144524628Y-84542600D01*
X144527700Y-84919350D01*
X144686450Y-85078100D01*
X145935700Y-85078100D01*
X145935700Y-84066350D01*
X146189700Y-84066350D01*
X146189700Y-85078100D01*
X147438950Y-85078100D01*
X147597700Y-84919350D01*
X147600772Y-84542600D01*
X147588512Y-84418118D01*
X147552202Y-84298420D01*
X147493237Y-84188106D01*
X147413885Y-84091415D01*
X147317194Y-84012063D01*
X147206880Y-83953098D01*
X147087182Y-83916788D01*
X146962700Y-83904528D01*
X146348450Y-83907600D01*
X146189700Y-84066350D01*
X145935700Y-84066350D01*
X145776950Y-83907600D01*
X145162700Y-83904528D01*
X145038218Y-83916788D01*
X144918520Y-83953098D01*
X144808206Y-84012063D01*
X144711515Y-84091415D01*
X144632163Y-84188106D01*
X144573198Y-84298420D01*
X144536888Y-84418118D01*
X144524628Y-84542600D01*
X127000000Y-84542600D01*
X127000000Y-83047377D01*
X126988239Y-82927963D01*
X126941762Y-82774750D01*
X126866288Y-82633548D01*
X126764717Y-82509783D01*
X126640951Y-82408212D01*
X126573259Y-82372030D01*
X126517321Y-82303869D01*
X126469072Y-82255620D01*
X126469072Y-81668600D01*
X126452008Y-81495346D01*
X126401472Y-81328750D01*
X126319405Y-81175214D01*
X126208962Y-81040638D01*
X126081700Y-80936197D01*
X126081700Y-80743316D01*
X126224746Y-80786708D01*
X126398000Y-80803772D01*
X127348000Y-80803772D01*
X127521254Y-80786708D01*
X127687850Y-80736172D01*
X127841386Y-80654105D01*
X127975962Y-80543662D01*
X128080403Y-80416400D01*
X128253007Y-80416400D01*
X129787031Y-81950425D01*
X129814774Y-82089898D01*
X129892795Y-82278256D01*
X130006063Y-82447774D01*
X130150226Y-82591937D01*
X130319744Y-82705205D01*
X130508102Y-82783226D01*
X130708061Y-82823000D01*
X130713850Y-82823000D01*
X130779783Y-82858242D01*
X130937784Y-82906171D01*
X131060930Y-82918300D01*
X131060937Y-82918300D01*
X131102100Y-82922354D01*
X131143263Y-82918300D01*
X144638115Y-82918300D01*
X144674295Y-82985987D01*
X144784738Y-83120562D01*
X144919313Y-83231005D01*
X145072848Y-83313072D01*
X145239444Y-83363608D01*
X145412698Y-83380672D01*
X146712702Y-83380672D01*
X146885956Y-83363608D01*
X147052552Y-83313072D01*
X147206087Y-83231005D01*
X147340662Y-83120562D01*
X147451105Y-82985987D01*
X147487285Y-82918300D01*
X147867204Y-82918300D01*
X147985444Y-82997305D01*
X148173802Y-83075326D01*
X148373761Y-83115100D01*
X148577639Y-83115100D01*
X148777598Y-83075326D01*
X148965956Y-82997305D01*
X149135474Y-82884037D01*
X149279637Y-82739874D01*
X149392905Y-82570356D01*
X149470926Y-82381998D01*
X149510700Y-82182039D01*
X149510700Y-81978161D01*
X149470926Y-81778202D01*
X149392905Y-81589844D01*
X149279637Y-81420326D01*
X149135474Y-81276163D01*
X148965956Y-81162895D01*
X148777598Y-81084874D01*
X148577639Y-81045100D01*
X148373761Y-81045100D01*
X148173802Y-81084874D01*
X147985444Y-81162895D01*
X147867204Y-81241900D01*
X147487285Y-81241900D01*
X147451105Y-81174213D01*
X147340662Y-81039638D01*
X147206087Y-80929195D01*
X147052552Y-80847128D01*
X146885956Y-80796592D01*
X146712702Y-80779528D01*
X145412698Y-80779528D01*
X145239444Y-80796592D01*
X145072848Y-80847128D01*
X144919313Y-80929195D01*
X144784738Y-81039638D01*
X144674295Y-81174213D01*
X144638115Y-81241900D01*
X131689891Y-81241900D01*
X131613937Y-81128226D01*
X131469774Y-80984063D01*
X131300256Y-80870795D01*
X131111898Y-80792774D01*
X130972425Y-80765031D01*
X129222011Y-79014618D01*
X129195764Y-78982636D01*
X129068132Y-78877891D01*
X128922517Y-78800058D01*
X128783707Y-78757951D01*
X128827281Y-78614306D01*
X128831945Y-78566950D01*
X128839410Y-78491160D01*
X128839410Y-78491153D01*
X128843464Y-78449990D01*
X128839410Y-78408827D01*
X128839410Y-76936293D01*
X128843464Y-76895130D01*
X128839410Y-76853967D01*
X128839410Y-76853960D01*
X128827281Y-76730814D01*
X128779352Y-76572813D01*
X128701519Y-76427198D01*
X128636975Y-76348551D01*
X128623018Y-76331544D01*
X128623016Y-76331542D01*
X128596774Y-76299566D01*
X128564799Y-76273325D01*
X127695934Y-75404460D01*
X129293399Y-73806996D01*
X129325374Y-73780755D01*
X129409390Y-73678382D01*
X129430119Y-73653123D01*
X129507952Y-73507508D01*
X129555881Y-73349507D01*
X129556343Y-73344812D01*
X129568010Y-73226361D01*
X129568010Y-73226354D01*
X129572064Y-73185191D01*
X129568010Y-73144028D01*
X129568010Y-72089772D01*
X129572064Y-72048609D01*
X129568010Y-72007446D01*
X129568010Y-72007440D01*
X129555881Y-71884294D01*
X129507952Y-71726293D01*
X129430119Y-71580678D01*
X129418946Y-71567064D01*
X129351618Y-71485024D01*
X129351616Y-71485022D01*
X129325374Y-71453046D01*
X129293397Y-71426803D01*
X128340197Y-70473604D01*
X128379602Y-70434200D01*
X128841188Y-70434200D01*
X128894804Y-70470025D01*
X129083162Y-70548046D01*
X129283121Y-70587820D01*
X129486999Y-70587820D01*
X129686958Y-70548046D01*
X129875316Y-70470025D01*
X130044834Y-70356757D01*
X130188997Y-70212594D01*
X130302265Y-70043076D01*
X130380286Y-69854718D01*
X130408029Y-69715245D01*
X131113480Y-69009794D01*
X131113479Y-70677628D01*
X130959824Y-70741275D01*
X130790306Y-70854543D01*
X130646143Y-70998706D01*
X130532875Y-71168224D01*
X130454854Y-71356582D01*
X130415080Y-71556541D01*
X130415080Y-71760419D01*
X130454854Y-71960378D01*
X130532875Y-72148736D01*
X130646143Y-72318254D01*
X130790306Y-72462417D01*
X130959824Y-72575685D01*
X131148182Y-72653706D01*
X131348141Y-72693480D01*
X131552019Y-72693480D01*
X131751978Y-72653706D01*
X131940336Y-72575685D01*
X132109854Y-72462417D01*
X132254017Y-72318254D01*
X132367285Y-72148736D01*
X132445306Y-71960378D01*
X132485080Y-71760419D01*
X132485080Y-71633068D01*
X132533901Y-71541730D01*
X132576021Y-71402880D01*
X132586679Y-71294667D01*
X132586679Y-71294665D01*
X132590243Y-71258482D01*
X132586679Y-71222298D01*
X132586679Y-70857286D01*
X132754298Y-70969286D01*
X133097346Y-71111381D01*
X133461524Y-71183820D01*
X133832836Y-71183820D01*
X134197014Y-71111381D01*
X134540062Y-70969286D01*
X134848798Y-70762995D01*
X135111355Y-70500438D01*
X135317646Y-70191702D01*
X135459741Y-69848654D01*
X135532180Y-69484476D01*
X135532180Y-69113164D01*
X135523086Y-69067444D01*
X147022500Y-69067444D01*
X147022500Y-69438756D01*
X147094939Y-69802934D01*
X147237034Y-70145982D01*
X147443325Y-70454718D01*
X147705882Y-70717275D01*
X148014618Y-70923566D01*
X148357666Y-71065661D01*
X148721844Y-71138100D01*
X149093156Y-71138100D01*
X149457334Y-71065661D01*
X149800382Y-70923566D01*
X150109118Y-70717275D01*
X150371675Y-70454718D01*
X150577966Y-70145982D01*
X150720061Y-69802934D01*
X150792500Y-69438756D01*
X150792500Y-69067444D01*
X150720061Y-68703266D01*
X150577966Y-68360218D01*
X150371675Y-68051482D01*
X150109118Y-67788925D01*
X149800382Y-67582634D01*
X149457334Y-67440539D01*
X149093156Y-67368100D01*
X148721844Y-67368100D01*
X148357666Y-67440539D01*
X148014618Y-67582634D01*
X147705882Y-67788925D01*
X147443325Y-68051482D01*
X147237034Y-68360218D01*
X147094939Y-68703266D01*
X147022500Y-69067444D01*
X135523086Y-69067444D01*
X135459741Y-68748986D01*
X135317646Y-68405938D01*
X135111355Y-68097202D01*
X134848798Y-67834645D01*
X134540062Y-67628354D01*
X134197014Y-67486259D01*
X133832836Y-67413820D01*
X133461524Y-67413820D01*
X133097346Y-67486259D01*
X132754298Y-67628354D01*
X132586679Y-67740354D01*
X132586679Y-67552930D01*
X132766142Y-67373467D01*
X138119338Y-62020272D01*
X138765701Y-62020272D01*
X138938955Y-62003208D01*
X139105551Y-61952672D01*
X139259087Y-61870605D01*
X139393662Y-61760162D01*
X139504105Y-61625587D01*
X139586172Y-61472051D01*
X139636708Y-61305455D01*
X139653772Y-61132201D01*
X139653772Y-60485838D01*
X139713010Y-60426600D01*
X144459289Y-60426600D01*
X144526626Y-60493937D01*
X144696144Y-60607205D01*
X144884502Y-60685226D01*
X145084461Y-60725000D01*
X145288339Y-60725000D01*
X145488298Y-60685226D01*
X145676656Y-60607205D01*
X145846174Y-60493937D01*
X145990337Y-60349774D01*
X146103605Y-60180256D01*
X146181626Y-59991898D01*
X146221400Y-59791939D01*
X146221400Y-59588061D01*
X146181626Y-59388102D01*
X146103605Y-59199744D01*
X145990337Y-59030226D01*
X145846174Y-58886063D01*
X145676656Y-58772795D01*
X145488298Y-58694774D01*
X145288339Y-58655000D01*
X145084461Y-58655000D01*
X144884502Y-58694774D01*
X144696144Y-58772795D01*
X144526626Y-58886063D01*
X144459289Y-58953400D01*
X141380310Y-58953400D01*
X141395400Y-58877539D01*
X141395400Y-58673661D01*
X141355626Y-58473702D01*
X141277605Y-58285344D01*
X141164337Y-58115826D01*
X141020174Y-57971663D01*
X140850656Y-57858395D01*
X140662298Y-57780374D01*
X140462339Y-57740600D01*
X140258461Y-57740600D01*
X140058502Y-57780374D01*
X139870144Y-57858395D01*
X139704013Y-57969400D01*
X139520454Y-57969400D01*
X139504105Y-57938813D01*
X139393662Y-57804238D01*
X139259087Y-57693795D01*
X139105551Y-57611728D01*
X138938955Y-57561192D01*
X138765701Y-57544128D01*
X137865699Y-57544128D01*
X137692445Y-57561192D01*
X137525849Y-57611728D01*
X137372313Y-57693795D01*
X137237738Y-57804238D01*
X137127295Y-57938813D01*
X137045228Y-58092349D01*
X136994692Y-58258945D01*
X136977628Y-58432199D01*
X136977628Y-59132201D01*
X136991143Y-59269424D01*
X130128389Y-66132179D01*
X130088068Y-66153731D01*
X129960436Y-66258476D01*
X129855691Y-66386109D01*
X129777858Y-66531724D01*
X129729929Y-66689725D01*
X129717800Y-66812871D01*
X129717801Y-68034685D01*
X129222635Y-68529851D01*
X129083162Y-68557594D01*
X128894804Y-68635615D01*
X128725286Y-68748883D01*
X128716369Y-68757800D01*
X128101830Y-68757800D01*
X127978684Y-68769929D01*
X127820683Y-68817858D01*
X127675068Y-68895691D01*
X127547436Y-69000436D01*
X127442691Y-69128068D01*
X127364858Y-69273683D01*
X127353686Y-69310512D01*
X126998370Y-69665828D01*
X126372600Y-69665828D01*
X126199346Y-69682892D01*
X126032750Y-69733428D01*
X125879214Y-69815495D01*
X125744638Y-69925938D01*
X125634195Y-70060514D01*
X125562097Y-70195400D01*
X123849419Y-70195400D01*
X123828294Y-70178063D01*
X123717980Y-70119098D01*
X123598282Y-70082788D01*
X123473800Y-70070528D01*
X122848799Y-70070528D01*
X122848799Y-69787558D01*
X122852363Y-69751374D01*
X122848799Y-69715189D01*
X122838141Y-69606976D01*
X122796021Y-69468126D01*
X122745489Y-69373587D01*
X122727623Y-69340161D01*
X122658641Y-69256107D01*
X122658636Y-69256102D01*
X122635573Y-69228000D01*
X122607472Y-69204938D01*
X122312001Y-68909468D01*
X122312001Y-68322387D01*
X122315565Y-68286201D01*
X122301343Y-68141802D01*
X122276396Y-68059564D01*
X122259223Y-68002952D01*
X122238403Y-67964000D01*
X122402939Y-67964000D01*
X122602898Y-67924226D01*
X122791256Y-67846205D01*
X122960774Y-67732937D01*
X123104937Y-67588774D01*
X123218205Y-67419256D01*
X123296226Y-67230898D01*
X123336000Y-67030939D01*
X123336000Y-66827061D01*
X123296226Y-66627102D01*
X123218205Y-66438744D01*
X123104937Y-66269226D01*
X122960774Y-66125063D01*
X122791256Y-66011795D01*
X122602898Y-65933774D01*
X122402939Y-65894000D01*
X122307709Y-65894000D01*
X121475846Y-65062137D01*
X121452775Y-65034025D01*
X121340613Y-64941976D01*
X121212649Y-64873578D01*
X121073799Y-64831458D01*
X120965586Y-64820800D01*
X120965583Y-64820800D01*
X120929400Y-64817236D01*
X120893217Y-64820800D01*
X119720986Y-64820800D01*
X119684800Y-64817236D01*
X119648614Y-64820800D01*
X119540401Y-64831458D01*
X119401551Y-64873578D01*
X119273587Y-64941976D01*
X119161425Y-65034025D01*
X119138359Y-65062131D01*
X118300532Y-65899959D01*
X118272426Y-65923025D01*
X118249360Y-65951131D01*
X118249358Y-65951133D01*
X118180376Y-66035188D01*
X118159628Y-66074005D01*
X118111978Y-66163151D01*
X118069858Y-66302001D01*
X118061213Y-66389776D01*
X118055636Y-66446400D01*
X118059200Y-66482583D01*
X118059200Y-66703121D01*
X116256908Y-64900829D01*
X116524950Y-64898100D01*
X116683700Y-64739350D01*
X116683700Y-63665100D01*
X116937700Y-63665100D01*
X116937700Y-64739350D01*
X117096450Y-64898100D01*
X117398200Y-64901172D01*
X117522682Y-64888912D01*
X117642380Y-64852602D01*
X117752694Y-64793637D01*
X117849385Y-64714285D01*
X117928737Y-64617594D01*
X117987702Y-64507280D01*
X118024012Y-64387582D01*
X118036272Y-64263100D01*
X118033200Y-63823850D01*
X117874450Y-63665100D01*
X116937700Y-63665100D01*
X116683700Y-63665100D01*
X116663700Y-63665100D01*
X116663700Y-63411100D01*
X116683700Y-63411100D01*
X116683700Y-63391100D01*
X116937700Y-63391100D01*
X116937700Y-63411100D01*
X117874450Y-63411100D01*
X118033200Y-63252350D01*
X118036272Y-62813100D01*
X118024012Y-62688618D01*
X117987702Y-62568920D01*
X117928737Y-62458606D01*
X117849385Y-62361915D01*
X117752694Y-62282563D01*
X117701876Y-62255400D01*
X118592600Y-62255400D01*
X118592600Y-63220600D01*
X118595071Y-63245529D01*
X118602327Y-63269344D01*
X118614090Y-63291287D01*
X118629907Y-63310512D01*
X118649172Y-63326283D01*
X118671143Y-63337992D01*
X118694976Y-63345190D01*
X118719755Y-63347600D01*
X129095655Y-63334900D01*
X129120276Y-63332460D01*
X129120389Y-63332426D01*
X129120506Y-63332414D01*
X129132236Y-63328832D01*
X129144101Y-63325233D01*
X129144206Y-63325177D01*
X129144317Y-63325143D01*
X129155009Y-63319402D01*
X129166057Y-63313497D01*
X129166150Y-63313421D01*
X129166252Y-63313366D01*
X129175607Y-63305660D01*
X129185303Y-63297703D01*
X129185379Y-63297610D01*
X129185468Y-63297537D01*
X129193180Y-63288104D01*
X129201097Y-63278457D01*
X129201153Y-63278353D01*
X129201227Y-63278262D01*
X129206939Y-63267528D01*
X129212833Y-63256501D01*
X129212868Y-63256385D01*
X129212922Y-63256284D01*
X129216416Y-63244688D01*
X129220060Y-63232676D01*
X129220072Y-63232558D01*
X129220105Y-63232447D01*
X129221287Y-63220219D01*
X129222500Y-63207900D01*
X129222500Y-58597800D01*
X129220060Y-58573024D01*
X129213912Y-58552755D01*
X129197100Y-49440866D01*
X129194660Y-49416324D01*
X129187433Y-49392499D01*
X129175697Y-49370543D01*
X129159903Y-49351297D01*
X129140657Y-49335503D01*
X129118701Y-49323767D01*
X129094876Y-49316540D01*
X129070100Y-49314100D01*
X113499900Y-49314100D01*
X113475124Y-49316540D01*
X113451299Y-49323767D01*
X113429343Y-49335503D01*
X113410097Y-49351297D01*
X113394303Y-49370543D01*
X113382567Y-49392499D01*
X113375340Y-49416324D01*
X113372900Y-49441100D01*
X113372900Y-62128400D01*
X113375340Y-62153176D01*
X113382567Y-62177001D01*
X113394303Y-62198957D01*
X113410097Y-62218203D01*
X113429343Y-62233997D01*
X113451299Y-62245733D01*
X113475124Y-62252960D01*
X113499900Y-62255400D01*
X114034455Y-62255400D01*
X113904814Y-62324695D01*
X113770238Y-62435138D01*
X113659795Y-62569714D01*
X113577728Y-62723250D01*
X113527192Y-62889846D01*
X113510128Y-63063100D01*
X113510128Y-64013100D01*
X113527192Y-64186354D01*
X113577728Y-64352950D01*
X113659795Y-64506486D01*
X113770238Y-64641062D01*
X113867628Y-64720988D01*
X113839995Y-64762344D01*
X113761974Y-64950702D01*
X113722200Y-65150661D01*
X113722200Y-65354539D01*
X113761974Y-65554498D01*
X113839995Y-65742856D01*
X113953263Y-65912374D01*
X114097426Y-66056537D01*
X114266944Y-66169805D01*
X114455302Y-66247826D01*
X114648989Y-66286352D01*
X114506102Y-66314774D01*
X114317744Y-66392795D01*
X114148226Y-66506063D01*
X114004063Y-66650226D01*
X113890795Y-66819744D01*
X113812774Y-67008102D01*
X113785031Y-67147576D01*
X113736413Y-67196194D01*
X113704437Y-67222436D01*
X113678195Y-67254412D01*
X113678192Y-67254415D01*
X113599691Y-67350069D01*
X113521858Y-67495684D01*
X113473929Y-67653685D01*
X113457746Y-67818000D01*
X113461801Y-67859172D01*
X113461800Y-69554837D01*
X113457746Y-69596000D01*
X113461800Y-69637163D01*
X113461800Y-69637169D01*
X113473929Y-69760315D01*
X113521858Y-69918316D01*
X113599691Y-70063931D01*
X113704436Y-70191564D01*
X113736418Y-70217811D01*
X114449928Y-70931322D01*
X114449928Y-71493400D01*
X114466992Y-71666654D01*
X114517528Y-71833250D01*
X114599595Y-71986786D01*
X114710038Y-72121362D01*
X114844614Y-72231805D01*
X114998150Y-72313872D01*
X115164746Y-72364408D01*
X115338000Y-72381472D01*
X115853179Y-72381472D01*
X118784656Y-75312950D01*
X117194713Y-76902894D01*
X117162737Y-76929136D01*
X117136495Y-76961112D01*
X117136492Y-76961115D01*
X117057991Y-77056769D01*
X116980158Y-77202384D01*
X116932229Y-77360385D01*
X116916046Y-77524700D01*
X116920101Y-77565872D01*
X116920101Y-77760732D01*
X116898585Y-77734515D01*
X116801894Y-77655163D01*
X116691580Y-77596198D01*
X116571882Y-77559888D01*
X116447400Y-77547628D01*
X116008150Y-77550700D01*
X115849400Y-77709450D01*
X115849400Y-78646200D01*
X115869400Y-78646200D01*
X115869400Y-78900200D01*
X115849400Y-78900200D01*
X115849400Y-78920200D01*
X115595400Y-78920200D01*
X115595400Y-78900200D01*
X114521150Y-78900200D01*
X114362400Y-79058950D01*
X114359328Y-79360700D01*
X114371588Y-79485182D01*
X114407898Y-79604880D01*
X114466863Y-79715194D01*
X114546215Y-79811885D01*
X114625994Y-79877358D01*
X114619438Y-79882738D01*
X114508995Y-80017314D01*
X114426928Y-80170850D01*
X114376392Y-80337446D01*
X114359328Y-80510700D01*
X114359328Y-81185700D01*
X114376392Y-81358954D01*
X114426928Y-81525550D01*
X114472175Y-81610200D01*
X112622496Y-81610200D01*
X112504256Y-81531195D01*
X112315898Y-81453174D01*
X112115939Y-81413400D01*
X111912061Y-81413400D01*
X111712102Y-81453174D01*
X111523744Y-81531195D01*
X111405504Y-81610200D01*
X111148594Y-81610200D01*
X110761272Y-81222878D01*
X110761272Y-80720199D01*
X110744208Y-80546945D01*
X110693672Y-80380349D01*
X110611605Y-80226813D01*
X110501162Y-80092238D01*
X110474309Y-80070200D01*
X110501162Y-80048162D01*
X110611605Y-79913587D01*
X110668684Y-79806800D01*
X110829689Y-79806800D01*
X110897026Y-79874137D01*
X111066544Y-79987405D01*
X111254902Y-80065426D01*
X111454861Y-80105200D01*
X111658739Y-80105200D01*
X111858698Y-80065426D01*
X112047056Y-79987405D01*
X112216574Y-79874137D01*
X112360737Y-79729974D01*
X112474005Y-79560456D01*
X112552026Y-79372098D01*
X112591800Y-79172139D01*
X112591800Y-78968261D01*
X112552026Y-78768302D01*
X112474005Y-78579944D01*
X112360737Y-78410426D01*
X112216574Y-78266263D01*
X112096003Y-78185700D01*
X114359328Y-78185700D01*
X114362400Y-78487450D01*
X114521150Y-78646200D01*
X115595400Y-78646200D01*
X115595400Y-77709450D01*
X115436650Y-77550700D01*
X114997400Y-77547628D01*
X114872918Y-77559888D01*
X114753220Y-77596198D01*
X114642906Y-77655163D01*
X114546215Y-77734515D01*
X114466863Y-77831206D01*
X114407898Y-77941520D01*
X114371588Y-78061218D01*
X114359328Y-78185700D01*
X112096003Y-78185700D01*
X112047056Y-78152995D01*
X111858698Y-78074974D01*
X111658739Y-78035200D01*
X111454861Y-78035200D01*
X111254902Y-78074974D01*
X111066544Y-78152995D01*
X110897026Y-78266263D01*
X110829689Y-78333600D01*
X110668684Y-78333600D01*
X110611605Y-78226813D01*
X110501162Y-78092238D01*
X110366587Y-77981795D01*
X110213051Y-77899728D01*
X110046455Y-77849192D01*
X109873201Y-77832128D01*
X109226837Y-77832128D01*
X107531246Y-76136537D01*
X107508175Y-76108425D01*
X107396013Y-76016376D01*
X107268049Y-75947978D01*
X107129199Y-75905858D01*
X107020986Y-75895200D01*
X107020983Y-75895200D01*
X106984800Y-75891636D01*
X106948617Y-75895200D01*
X106226011Y-75895200D01*
X106158674Y-75827863D01*
X105989156Y-75714595D01*
X105800798Y-75636574D01*
X105600839Y-75596800D01*
X105396961Y-75596800D01*
X105197002Y-75636574D01*
X105008644Y-75714595D01*
X104839126Y-75827863D01*
X104694963Y-75972026D01*
X104581695Y-76141544D01*
X104503674Y-76329902D01*
X104463900Y-76529861D01*
X104463900Y-76733739D01*
X104503674Y-76933698D01*
X104581695Y-77122056D01*
X104694963Y-77291574D01*
X104839126Y-77435737D01*
X105008644Y-77549005D01*
X105197002Y-77627026D01*
X105396961Y-77666800D01*
X105600839Y-77666800D01*
X105800798Y-77627026D01*
X105989156Y-77549005D01*
X106158674Y-77435737D01*
X106226011Y-77368400D01*
X106679691Y-77368400D01*
X108085128Y-78773837D01*
X108085128Y-79420201D01*
X108102192Y-79593455D01*
X108152728Y-79760051D01*
X108234795Y-79913587D01*
X108345238Y-80048162D01*
X108372091Y-80070200D01*
X108345238Y-80092238D01*
X108234795Y-80226813D01*
X108152728Y-80380349D01*
X108102192Y-80546945D01*
X108085128Y-80720199D01*
X108085128Y-81420201D01*
X108102192Y-81593455D01*
X108152728Y-81760051D01*
X108234795Y-81913587D01*
X108345238Y-82048162D01*
X108479813Y-82158605D01*
X108633349Y-82240672D01*
X108799945Y-82291208D01*
X108973199Y-82308272D01*
X109475879Y-82308272D01*
X110179594Y-83011987D01*
X110205836Y-83043964D01*
X110237812Y-83070206D01*
X110237814Y-83070208D01*
X110284076Y-83108174D01*
X110333468Y-83148709D01*
X110479083Y-83226542D01*
X110637084Y-83274471D01*
X110760230Y-83286600D01*
X110760236Y-83286600D01*
X110801399Y-83290654D01*
X110842562Y-83286600D01*
X111405504Y-83286600D01*
X111523744Y-83365605D01*
X111712102Y-83443626D01*
X111912061Y-83483400D01*
X112115939Y-83483400D01*
X112315898Y-83443626D01*
X112504256Y-83365605D01*
X112622496Y-83286600D01*
X114868437Y-83286600D01*
X114909600Y-83290654D01*
X114950763Y-83286600D01*
X114950770Y-83286600D01*
X115073916Y-83274471D01*
X115231917Y-83226542D01*
X115377532Y-83148709D01*
X115505164Y-83043964D01*
X115531411Y-83011982D01*
X116126681Y-82416713D01*
X116263683Y-82489942D01*
X116421684Y-82537871D01*
X116544830Y-82550000D01*
X116544837Y-82550000D01*
X116586000Y-82554054D01*
X116613527Y-82551343D01*
X116682395Y-82680186D01*
X116792838Y-82814762D01*
X116920100Y-82919203D01*
X116920101Y-85112603D01*
X116841095Y-85230844D01*
X116763074Y-85419202D01*
X116723300Y-85619161D01*
X116723300Y-85823039D01*
X116763074Y-86022998D01*
X116841095Y-86211356D01*
X116954363Y-86380874D01*
X117098526Y-86525037D01*
X117268044Y-86638305D01*
X117456402Y-86716326D01*
X117656361Y-86756100D01*
X117860239Y-86756100D01*
X118060198Y-86716326D01*
X118248556Y-86638305D01*
X118418074Y-86525037D01*
X118562237Y-86380874D01*
X118675505Y-86211356D01*
X118753526Y-86022998D01*
X118793300Y-85823039D01*
X118793300Y-85619161D01*
X118753526Y-85419202D01*
X118675505Y-85230844D01*
X118596500Y-85112604D01*
X118596500Y-82919203D01*
X118723762Y-82814762D01*
X118729142Y-82808206D01*
X118794615Y-82887985D01*
X118891306Y-82967337D01*
X119001620Y-83026302D01*
X119121318Y-83062612D01*
X119245800Y-83074872D01*
X119547550Y-83071800D01*
X119706300Y-82913050D01*
X119706300Y-81838800D01*
X119960300Y-81838800D01*
X119960300Y-82913050D01*
X120119050Y-83071800D01*
X120420800Y-83074872D01*
X120545282Y-83062612D01*
X120664980Y-83026302D01*
X120775294Y-82967337D01*
X120871985Y-82887985D01*
X120887893Y-82868600D01*
X121942928Y-82868600D01*
X121955188Y-82993082D01*
X121991498Y-83112780D01*
X122050463Y-83223094D01*
X122129815Y-83319785D01*
X122226506Y-83399137D01*
X122336820Y-83458102D01*
X122456518Y-83494412D01*
X122581000Y-83506672D01*
X122882750Y-83503600D01*
X123041500Y-83344850D01*
X123041500Y-82270600D01*
X122104750Y-82270600D01*
X121946000Y-82429350D01*
X121942928Y-82868600D01*
X120887893Y-82868600D01*
X120951337Y-82791294D01*
X121010302Y-82680980D01*
X121046612Y-82561282D01*
X121058872Y-82436800D01*
X121055800Y-81997550D01*
X120897050Y-81838800D01*
X119960300Y-81838800D01*
X119706300Y-81838800D01*
X119686300Y-81838800D01*
X119686300Y-81584800D01*
X119706300Y-81584800D01*
X119706300Y-80510550D01*
X119960300Y-80510550D01*
X119960300Y-81584800D01*
X120897050Y-81584800D01*
X121055800Y-81426050D01*
X121055852Y-81418600D01*
X121942928Y-81418600D01*
X121946000Y-81857850D01*
X122104750Y-82016600D01*
X123041500Y-82016600D01*
X123041500Y-80942350D01*
X122882750Y-80783600D01*
X122581000Y-80780528D01*
X122456518Y-80792788D01*
X122336820Y-80829098D01*
X122226506Y-80888063D01*
X122129815Y-80967415D01*
X122050463Y-81064106D01*
X121991498Y-81174420D01*
X121955188Y-81294118D01*
X121942928Y-81418600D01*
X121055852Y-81418600D01*
X121058872Y-80986800D01*
X121046612Y-80862318D01*
X121010302Y-80742620D01*
X120951337Y-80632306D01*
X120871985Y-80535615D01*
X120775294Y-80456263D01*
X120664980Y-80397298D01*
X120545282Y-80360988D01*
X120420800Y-80348728D01*
X120119050Y-80351800D01*
X119960300Y-80510550D01*
X119706300Y-80510550D01*
X119547550Y-80351800D01*
X119245800Y-80348728D01*
X119121318Y-80360988D01*
X119001620Y-80397298D01*
X118891306Y-80456263D01*
X118794615Y-80535615D01*
X118729142Y-80615394D01*
X118723762Y-80608838D01*
X118596500Y-80504397D01*
X118596500Y-77871893D01*
X119968100Y-76500293D01*
X124404588Y-80936782D01*
X124278038Y-81040638D01*
X124272658Y-81047194D01*
X124207185Y-80967415D01*
X124110494Y-80888063D01*
X124000180Y-80829098D01*
X123880482Y-80792788D01*
X123756000Y-80780528D01*
X123454250Y-80783600D01*
X123295500Y-80942350D01*
X123295500Y-82016600D01*
X123315500Y-82016600D01*
X123315500Y-82270600D01*
X123295500Y-82270600D01*
X123295500Y-83344850D01*
X123454250Y-83503600D01*
X123756000Y-83506672D01*
X123880482Y-83494412D01*
X124000180Y-83458102D01*
X124110494Y-83399137D01*
X124207185Y-83319785D01*
X124272658Y-83240006D01*
X124278038Y-83246562D01*
X124412614Y-83357005D01*
X124566150Y-83439072D01*
X124732746Y-83489608D01*
X124906000Y-83506672D01*
X125330100Y-83506672D01*
X125374400Y-83550972D01*
X125374401Y-84773122D01*
X125248026Y-84857563D01*
X125103863Y-85001726D01*
X124990595Y-85171244D01*
X124912574Y-85359602D01*
X124872800Y-85559561D01*
X124872800Y-85763439D01*
X124887731Y-85838501D01*
X119785285Y-85838501D01*
X119749099Y-85834937D01*
X119712913Y-85838501D01*
X119604700Y-85849159D01*
X119465850Y-85891279D01*
X119337886Y-85959677D01*
X119225724Y-86051726D01*
X119202658Y-86079832D01*
X118338291Y-86944200D01*
X102588686Y-86944200D01*
X102552500Y-86940636D01*
X102516314Y-86944200D01*
X102408101Y-86954858D01*
X102269251Y-86996978D01*
X102145324Y-87063218D01*
X102141287Y-87065376D01*
X102100955Y-87098476D01*
X102029125Y-87157425D01*
X102006059Y-87185531D01*
X101614478Y-87577112D01*
X101605164Y-87530288D01*
X101507189Y-87293756D01*
X101364952Y-87080882D01*
X101183918Y-86899848D01*
X100971044Y-86757611D01*
X100734512Y-86659636D01*
X100483410Y-86609689D01*
X100227390Y-86609689D01*
X99976288Y-86659636D01*
X99739756Y-86757611D01*
X99526882Y-86899848D01*
X99345848Y-87080882D01*
X99203611Y-87293756D01*
X99185800Y-87336755D01*
X99185800Y-85282038D01*
X99423389Y-85440790D01*
X99693642Y-85552732D01*
X99980540Y-85609800D01*
X100273060Y-85609800D01*
X100559958Y-85552732D01*
X100830211Y-85440790D01*
X101073432Y-85278275D01*
X101205287Y-85146420D01*
X101227298Y-85218980D01*
X101286263Y-85329294D01*
X101365615Y-85425985D01*
X101462306Y-85505337D01*
X101572620Y-85564302D01*
X101692318Y-85600612D01*
X101816800Y-85612872D01*
X102381050Y-85609800D01*
X102539800Y-85451050D01*
X102539800Y-84251800D01*
X102793800Y-84251800D01*
X102793800Y-85451050D01*
X102952550Y-85609800D01*
X103516800Y-85612872D01*
X103641282Y-85600612D01*
X103760980Y-85564302D01*
X103871294Y-85505337D01*
X103967985Y-85425985D01*
X104047337Y-85329294D01*
X104106302Y-85218980D01*
X104142612Y-85099282D01*
X104154872Y-84974800D01*
X104151800Y-84410550D01*
X103993050Y-84251800D01*
X102793800Y-84251800D01*
X102539800Y-84251800D01*
X102519800Y-84251800D01*
X102519800Y-83997800D01*
X102539800Y-83997800D01*
X102539800Y-82798550D01*
X102793800Y-82798550D01*
X102793800Y-83997800D01*
X103993050Y-83997800D01*
X104151800Y-83839050D01*
X104154872Y-83274800D01*
X104142612Y-83150318D01*
X104106302Y-83030620D01*
X104047337Y-82920306D01*
X103967985Y-82823615D01*
X103871294Y-82744263D01*
X103760980Y-82685298D01*
X103641282Y-82648988D01*
X103516800Y-82636728D01*
X102952550Y-82639800D01*
X102793800Y-82798550D01*
X102539800Y-82798550D01*
X102381050Y-82639800D01*
X101816800Y-82636728D01*
X101692318Y-82648988D01*
X101572620Y-82685298D01*
X101462306Y-82744263D01*
X101365615Y-82823615D01*
X101286263Y-82920306D01*
X101227298Y-83030620D01*
X101205287Y-83103180D01*
X101073432Y-82971325D01*
X100830211Y-82808810D01*
X100559958Y-82696868D01*
X100273060Y-82639800D01*
X99980540Y-82639800D01*
X99693642Y-82696868D01*
X99423389Y-82808810D01*
X99185800Y-82967562D01*
X99185800Y-59143000D01*
X99578528Y-59143000D01*
X99590788Y-59267482D01*
X99627098Y-59387180D01*
X99686063Y-59497494D01*
X99765415Y-59594185D01*
X99862106Y-59673537D01*
X99972420Y-59732502D01*
X100044980Y-59754513D01*
X99913125Y-59886368D01*
X99750610Y-60129589D01*
X99638668Y-60399842D01*
X99581600Y-60686740D01*
X99581600Y-60979260D01*
X99638668Y-61266158D01*
X99750610Y-61536411D01*
X99913125Y-61779632D01*
X100119968Y-61986475D01*
X100294360Y-62103000D01*
X100119968Y-62219525D01*
X99913125Y-62426368D01*
X99750610Y-62669589D01*
X99638668Y-62939842D01*
X99581600Y-63226740D01*
X99581600Y-63519260D01*
X99638668Y-63806158D01*
X99750610Y-64076411D01*
X99913125Y-64319632D01*
X100119968Y-64526475D01*
X100294360Y-64643000D01*
X100119968Y-64759525D01*
X99913125Y-64966368D01*
X99750610Y-65209589D01*
X99638668Y-65479842D01*
X99581600Y-65766740D01*
X99581600Y-66059260D01*
X99638668Y-66346158D01*
X99750610Y-66616411D01*
X99913125Y-66859632D01*
X100119968Y-67066475D01*
X100294360Y-67183000D01*
X100119968Y-67299525D01*
X99913125Y-67506368D01*
X99750610Y-67749589D01*
X99638668Y-68019842D01*
X99581600Y-68306740D01*
X99581600Y-68599260D01*
X99638668Y-68886158D01*
X99750610Y-69156411D01*
X99913125Y-69399632D01*
X100119968Y-69606475D01*
X100363189Y-69768990D01*
X100633442Y-69880932D01*
X100920340Y-69938000D01*
X101212860Y-69938000D01*
X101499758Y-69880932D01*
X101770011Y-69768990D01*
X102013232Y-69606475D01*
X102220075Y-69399632D01*
X102382590Y-69156411D01*
X102494532Y-68886158D01*
X102551600Y-68599260D01*
X102551600Y-68306740D01*
X102494532Y-68019842D01*
X102382590Y-67749589D01*
X102220075Y-67506368D01*
X102013232Y-67299525D01*
X101838840Y-67183000D01*
X102013232Y-67066475D01*
X102220075Y-66859632D01*
X102382590Y-66616411D01*
X102494532Y-66346158D01*
X102551600Y-66059260D01*
X102551600Y-65766740D01*
X102494532Y-65479842D01*
X102382590Y-65209589D01*
X102220075Y-64966368D01*
X102013232Y-64759525D01*
X101838840Y-64643000D01*
X102013232Y-64526475D01*
X102220075Y-64319632D01*
X102382590Y-64076411D01*
X102494532Y-63806158D01*
X102551600Y-63519260D01*
X102551600Y-63226740D01*
X102494532Y-62939842D01*
X102382590Y-62669589D01*
X102220075Y-62426368D01*
X102013232Y-62219525D01*
X101838840Y-62103000D01*
X102013232Y-61986475D01*
X102220075Y-61779632D01*
X102382590Y-61536411D01*
X102494532Y-61266158D01*
X102551600Y-60979260D01*
X102551600Y-60686740D01*
X102545259Y-60654861D01*
X102914500Y-60654861D01*
X102914500Y-60858739D01*
X102954274Y-61058698D01*
X103032295Y-61247056D01*
X103145563Y-61416574D01*
X103212900Y-61483911D01*
X103212901Y-62816107D01*
X103209336Y-62852300D01*
X103223559Y-62996698D01*
X103265678Y-63135547D01*
X103334076Y-63263512D01*
X103401108Y-63345190D01*
X103426126Y-63375675D01*
X103454232Y-63398741D01*
X115606880Y-75551390D01*
X115606880Y-75646619D01*
X115646654Y-75846578D01*
X115724675Y-76034936D01*
X115837943Y-76204454D01*
X115982106Y-76348617D01*
X116151624Y-76461885D01*
X116339982Y-76539906D01*
X116539941Y-76579680D01*
X116743819Y-76579680D01*
X116943778Y-76539906D01*
X117132136Y-76461885D01*
X117301654Y-76348617D01*
X117445817Y-76204454D01*
X117559085Y-76034936D01*
X117637106Y-75846578D01*
X117676880Y-75646619D01*
X117676880Y-75442741D01*
X117637106Y-75242782D01*
X117559085Y-75054424D01*
X117445817Y-74884906D01*
X117301654Y-74740743D01*
X117132136Y-74627475D01*
X116943778Y-74549454D01*
X116743819Y-74509680D01*
X116648590Y-74509680D01*
X104686100Y-62547191D01*
X104686100Y-61483911D01*
X104753437Y-61416574D01*
X104866705Y-61247056D01*
X104944726Y-61058698D01*
X104984500Y-60858739D01*
X104984500Y-60654861D01*
X104944726Y-60454902D01*
X104866705Y-60266544D01*
X104753437Y-60097026D01*
X104609274Y-59952863D01*
X104439756Y-59839595D01*
X104251398Y-59761574D01*
X104051439Y-59721800D01*
X103847561Y-59721800D01*
X103647602Y-59761574D01*
X103459244Y-59839595D01*
X103289726Y-59952863D01*
X103145563Y-60097026D01*
X103032295Y-60266544D01*
X102954274Y-60454902D01*
X102914500Y-60654861D01*
X102545259Y-60654861D01*
X102494532Y-60399842D01*
X102382590Y-60129589D01*
X102220075Y-59886368D01*
X102088220Y-59754513D01*
X102160780Y-59732502D01*
X102271094Y-59673537D01*
X102367785Y-59594185D01*
X102447137Y-59497494D01*
X102506102Y-59387180D01*
X102542412Y-59267482D01*
X102554672Y-59143000D01*
X102551600Y-58578750D01*
X102392850Y-58420000D01*
X101193600Y-58420000D01*
X101193600Y-58440000D01*
X100939600Y-58440000D01*
X100939600Y-58420000D01*
X99740350Y-58420000D01*
X99581600Y-58578750D01*
X99578528Y-59143000D01*
X99185800Y-59143000D01*
X99185800Y-57443000D01*
X99578528Y-57443000D01*
X99581600Y-58007250D01*
X99740350Y-58166000D01*
X100939600Y-58166000D01*
X100939600Y-56966750D01*
X101193600Y-56966750D01*
X101193600Y-58166000D01*
X102392850Y-58166000D01*
X102551600Y-58007250D01*
X102554672Y-57443000D01*
X102542412Y-57318518D01*
X102506102Y-57198820D01*
X102447137Y-57088506D01*
X102367785Y-56991815D01*
X102271094Y-56912463D01*
X102160780Y-56853498D01*
X102041082Y-56817188D01*
X101916600Y-56804928D01*
X101352350Y-56808000D01*
X101193600Y-56966750D01*
X100939600Y-56966750D01*
X100780850Y-56808000D01*
X100216600Y-56804928D01*
X100092118Y-56817188D01*
X99972420Y-56853498D01*
X99862106Y-56912463D01*
X99765415Y-56991815D01*
X99686063Y-57088506D01*
X99627098Y-57198820D01*
X99590788Y-57318518D01*
X99578528Y-57443000D01*
X99185800Y-57443000D01*
X99185800Y-48722044D01*
X100286500Y-48722044D01*
X100286500Y-49093356D01*
X100358939Y-49457534D01*
X100501034Y-49800582D01*
X100707325Y-50109318D01*
X100969882Y-50371875D01*
X101278618Y-50578166D01*
X101621666Y-50720261D01*
X101985844Y-50792700D01*
X102357156Y-50792700D01*
X102721334Y-50720261D01*
X103064382Y-50578166D01*
X103373118Y-50371875D01*
X103635675Y-50109318D01*
X103841966Y-49800582D01*
X103984061Y-49457534D01*
X104056500Y-49093356D01*
X104056500Y-48780464D01*
X131762180Y-48780464D01*
X131762180Y-49151776D01*
X131834619Y-49515954D01*
X131976714Y-49859002D01*
X132183005Y-50167738D01*
X132445562Y-50430295D01*
X132754298Y-50636586D01*
X133097346Y-50778681D01*
X133461524Y-50851120D01*
X133832836Y-50851120D01*
X134197014Y-50778681D01*
X134540062Y-50636586D01*
X134848798Y-50430295D01*
X135111355Y-50167738D01*
X135317646Y-49859002D01*
X135459741Y-49515954D01*
X135532180Y-49151776D01*
X135532180Y-48780464D01*
X135504859Y-48643110D01*
X142398249Y-48643110D01*
X142398249Y-48899130D01*
X142448196Y-49150232D01*
X142546171Y-49386764D01*
X142688408Y-49599638D01*
X142869442Y-49780672D01*
X143082316Y-49922909D01*
X143318848Y-50020884D01*
X143569950Y-50070831D01*
X143825970Y-50070831D01*
X144077072Y-50020884D01*
X144313604Y-49922909D01*
X144526478Y-49780672D01*
X144707512Y-49599638D01*
X144849749Y-49386764D01*
X144947724Y-49150232D01*
X144997671Y-48899130D01*
X144997671Y-48734744D01*
X147022500Y-48734744D01*
X147022500Y-49106056D01*
X147094939Y-49470234D01*
X147237034Y-49813282D01*
X147443325Y-50122018D01*
X147705882Y-50384575D01*
X148014618Y-50590866D01*
X148357666Y-50732961D01*
X148721844Y-50805400D01*
X149093156Y-50805400D01*
X149457334Y-50732961D01*
X149800382Y-50590866D01*
X150109118Y-50384575D01*
X150371675Y-50122018D01*
X150577966Y-49813282D01*
X150720061Y-49470234D01*
X150792500Y-49106056D01*
X150792500Y-48734744D01*
X150720061Y-48370566D01*
X150577966Y-48027518D01*
X150371675Y-47718782D01*
X150109118Y-47456225D01*
X149800382Y-47249934D01*
X149457334Y-47107839D01*
X149093156Y-47035400D01*
X148721844Y-47035400D01*
X148357666Y-47107839D01*
X148014618Y-47249934D01*
X147705882Y-47456225D01*
X147443325Y-47718782D01*
X147237034Y-48027518D01*
X147094939Y-48370566D01*
X147022500Y-48734744D01*
X144997671Y-48734744D01*
X144997671Y-48643110D01*
X144947724Y-48392008D01*
X144849749Y-48155476D01*
X144707512Y-47942602D01*
X144526478Y-47761568D01*
X144313604Y-47619331D01*
X144077072Y-47521356D01*
X143825970Y-47471409D01*
X143569950Y-47471409D01*
X143318848Y-47521356D01*
X143082316Y-47619331D01*
X142869442Y-47761568D01*
X142688408Y-47942602D01*
X142546171Y-48155476D01*
X142448196Y-48392008D01*
X142398249Y-48643110D01*
X135504859Y-48643110D01*
X135459741Y-48416286D01*
X135317646Y-48073238D01*
X135111355Y-47764502D01*
X134848798Y-47501945D01*
X134540062Y-47295654D01*
X134197014Y-47153559D01*
X133832836Y-47081120D01*
X133461524Y-47081120D01*
X133097346Y-47153559D01*
X132754298Y-47295654D01*
X132445562Y-47501945D01*
X132183005Y-47764502D01*
X131976714Y-48073238D01*
X131834619Y-48416286D01*
X131762180Y-48780464D01*
X104056500Y-48780464D01*
X104056500Y-48722044D01*
X103984061Y-48357866D01*
X103841966Y-48014818D01*
X103635675Y-47706082D01*
X103373118Y-47443525D01*
X103064382Y-47237234D01*
X102721334Y-47095139D01*
X102357156Y-47022700D01*
X101985844Y-47022700D01*
X101621666Y-47095139D01*
X101278618Y-47237234D01*
X100969882Y-47443525D01*
X100707325Y-47706082D01*
X100501034Y-48014818D01*
X100358939Y-48357866D01*
X100286500Y-48722044D01*
X99185800Y-48722044D01*
X99185800Y-46086594D01*
X151283601Y-46049505D01*
X151283600Y-105182769D01*
G37*
%TD.AperFunction*%
D18*
X126198669Y-76277982D02*
X126148000Y-76277628D01*
X126023518Y-76289888D01*
X125903820Y-76326198D01*
X125793506Y-76385163D01*
X125696815Y-76464515D01*
X125617463Y-76561206D01*
X125558498Y-76671520D01*
X125522188Y-76791218D01*
X125509928Y-76915700D01*
X125513000Y-77217450D01*
X125671750Y-77376200D01*
X126746000Y-77376200D01*
X126746000Y-77356200D01*
X127000000Y-77356200D01*
X127000000Y-77376200D01*
X127020000Y-77376200D01*
X127020000Y-77630200D01*
X127000000Y-77630200D01*
X127000000Y-77650200D01*
X126746000Y-77650200D01*
X126746000Y-77630200D01*
X125671750Y-77630200D01*
X125513000Y-77788950D01*
X125509928Y-78090700D01*
X125522188Y-78215182D01*
X125558498Y-78334880D01*
X125617463Y-78445194D01*
X125696815Y-78541885D01*
X125776594Y-78607358D01*
X125770038Y-78612738D01*
X125659595Y-78747314D01*
X125577528Y-78900850D01*
X125526992Y-79067446D01*
X125509928Y-79240700D01*
X125509928Y-79671334D01*
X121987793Y-76149200D01*
X126069887Y-76149200D01*
X126198669Y-76277982D01*
%TA.AperFunction,Conductor*%
D25*
G36*
X126198669Y-76277982D02*
G01*
X126148000Y-76277628D01*
X126023518Y-76289888D01*
X125903820Y-76326198D01*
X125793506Y-76385163D01*
X125696815Y-76464515D01*
X125617463Y-76561206D01*
X125558498Y-76671520D01*
X125522188Y-76791218D01*
X125509928Y-76915700D01*
X125513000Y-77217450D01*
X125671750Y-77376200D01*
X126746000Y-77376200D01*
X126746000Y-77356200D01*
X127000000Y-77356200D01*
X127000000Y-77376200D01*
X127020000Y-77376200D01*
X127020000Y-77630200D01*
X127000000Y-77630200D01*
X127000000Y-77650200D01*
X126746000Y-77650200D01*
X126746000Y-77630200D01*
X125671750Y-77630200D01*
X125513000Y-77788950D01*
X125509928Y-78090700D01*
X125522188Y-78215182D01*
X125558498Y-78334880D01*
X125617463Y-78445194D01*
X125696815Y-78541885D01*
X125776594Y-78607358D01*
X125770038Y-78612738D01*
X125659595Y-78747314D01*
X125577528Y-78900850D01*
X125526992Y-79067446D01*
X125509928Y-79240700D01*
X125509928Y-79671334D01*
X121987793Y-76149200D01*
X126069887Y-76149200D01*
X126198669Y-76277982D01*
G37*
%TD.AperFunction*%
D18*
X119663583Y-70390923D02*
X119624298Y-70464420D01*
X119587988Y-70584118D01*
X119575728Y-70708600D01*
X119575728Y-71358600D01*
X119587988Y-71483082D01*
X119624298Y-71602780D01*
X119683263Y-71713094D01*
X119762615Y-71809785D01*
X119859306Y-71889137D01*
X119969620Y-71948102D01*
X120086641Y-71983600D01*
X119969620Y-72019098D01*
X119859306Y-72078063D01*
X119762615Y-72157415D01*
X119683263Y-72254106D01*
X119624298Y-72364420D01*
X119587988Y-72484118D01*
X119575728Y-72608600D01*
X119575728Y-73258600D01*
X119587988Y-73383082D01*
X119624298Y-73502780D01*
X119683263Y-73613094D01*
X119762615Y-73709785D01*
X119859306Y-73789137D01*
X119969620Y-73848102D01*
X120089318Y-73884412D01*
X120213800Y-73896672D01*
X121273800Y-73896672D01*
X121398282Y-73884412D01*
X121517980Y-73848102D01*
X121628294Y-73789137D01*
X121724985Y-73709785D01*
X121804337Y-73613094D01*
X121843800Y-73539265D01*
X121883263Y-73613094D01*
X121962615Y-73709785D01*
X122059306Y-73789137D01*
X122169620Y-73848102D01*
X122289318Y-73884412D01*
X122413800Y-73896672D01*
X123473800Y-73896672D01*
X123598282Y-73884412D01*
X123717980Y-73848102D01*
X123828294Y-73789137D01*
X123924985Y-73709785D01*
X124004337Y-73613094D01*
X124063302Y-73502780D01*
X124099612Y-73383082D01*
X124111872Y-73258600D01*
X124111872Y-72973116D01*
X124115764Y-72933600D01*
X124111872Y-72894084D01*
X124111872Y-72608600D01*
X124099612Y-72484118D01*
X124091871Y-72458600D01*
X124099612Y-72433082D01*
X124111872Y-72308600D01*
X124108800Y-72269350D01*
X123950050Y-72110600D01*
X123867941Y-72110600D01*
X123828294Y-72078063D01*
X123717980Y-72019098D01*
X123600959Y-71983600D01*
X123717980Y-71948102D01*
X123828294Y-71889137D01*
X123849419Y-71871800D01*
X125739548Y-71871800D01*
X125671415Y-71927715D01*
X125592063Y-72024406D01*
X125533098Y-72134720D01*
X125496788Y-72254418D01*
X125484528Y-72378900D01*
X125487600Y-72680650D01*
X125646350Y-72839400D01*
X126720600Y-72839400D01*
X126720600Y-72819400D01*
X126974600Y-72819400D01*
X126974600Y-72839400D01*
X126994600Y-72839400D01*
X126994600Y-73093400D01*
X126974600Y-73093400D01*
X126974600Y-73113400D01*
X126720600Y-73113400D01*
X126720600Y-73093400D01*
X125646350Y-73093400D01*
X125487600Y-73252150D01*
X125484528Y-73553900D01*
X125496788Y-73678382D01*
X125533098Y-73798080D01*
X125592063Y-73908394D01*
X125671415Y-74005085D01*
X125768106Y-74084437D01*
X125878420Y-74143402D01*
X125998118Y-74179712D01*
X126122600Y-74191972D01*
X126540559Y-74189049D01*
X126256808Y-74472800D01*
X120315294Y-74472800D01*
X118222793Y-72380299D01*
X118338000Y-72381472D01*
X118462482Y-72369212D01*
X118582180Y-72332902D01*
X118692494Y-72273937D01*
X118789185Y-72194585D01*
X118868537Y-72097894D01*
X118927502Y-71987580D01*
X118963812Y-71867882D01*
X118976072Y-71743400D01*
X118973000Y-71304150D01*
X118814250Y-71145400D01*
X117877500Y-71145400D01*
X117877500Y-71165400D01*
X117623500Y-71165400D01*
X117623500Y-71145400D01*
X117603500Y-71145400D01*
X117603500Y-70891400D01*
X117623500Y-70891400D01*
X117623500Y-69817150D01*
X117877500Y-69817150D01*
X117877500Y-70891400D01*
X118814250Y-70891400D01*
X118973000Y-70732650D01*
X118976072Y-70293400D01*
X118963812Y-70168918D01*
X118927502Y-70049220D01*
X118868537Y-69938906D01*
X118789185Y-69842215D01*
X118692494Y-69762863D01*
X118582180Y-69703898D01*
X118462482Y-69667588D01*
X118338000Y-69655328D01*
X118036250Y-69658400D01*
X117877500Y-69817150D01*
X117623500Y-69817150D01*
X117464750Y-69658400D01*
X117163000Y-69655328D01*
X117038518Y-69667588D01*
X116918820Y-69703898D01*
X116808506Y-69762863D01*
X116711815Y-69842215D01*
X116646342Y-69921994D01*
X116640962Y-69915438D01*
X116506386Y-69804995D01*
X116352850Y-69722928D01*
X116186254Y-69672392D01*
X116013000Y-69655328D01*
X115544721Y-69655328D01*
X115138200Y-69248807D01*
X115138200Y-68293503D01*
X115298256Y-68227205D01*
X115467774Y-68113937D01*
X115611937Y-67969774D01*
X115725205Y-67800256D01*
X115803226Y-67611898D01*
X115843000Y-67411939D01*
X115843000Y-67208061D01*
X115803226Y-67008102D01*
X115725205Y-66819744D01*
X115611937Y-66650226D01*
X115467774Y-66506063D01*
X115298256Y-66392795D01*
X115109898Y-66314774D01*
X114916211Y-66276248D01*
X115059098Y-66247826D01*
X115247456Y-66169805D01*
X115364356Y-66091695D01*
X119663583Y-70390923D01*
%TA.AperFunction,Conductor*%
D25*
G36*
X119663583Y-70390923D02*
G01*
X119624298Y-70464420D01*
X119587988Y-70584118D01*
X119575728Y-70708600D01*
X119575728Y-71358600D01*
X119587988Y-71483082D01*
X119624298Y-71602780D01*
X119683263Y-71713094D01*
X119762615Y-71809785D01*
X119859306Y-71889137D01*
X119969620Y-71948102D01*
X120086641Y-71983600D01*
X119969620Y-72019098D01*
X119859306Y-72078063D01*
X119762615Y-72157415D01*
X119683263Y-72254106D01*
X119624298Y-72364420D01*
X119587988Y-72484118D01*
X119575728Y-72608600D01*
X119575728Y-73258600D01*
X119587988Y-73383082D01*
X119624298Y-73502780D01*
X119683263Y-73613094D01*
X119762615Y-73709785D01*
X119859306Y-73789137D01*
X119969620Y-73848102D01*
X120089318Y-73884412D01*
X120213800Y-73896672D01*
X121273800Y-73896672D01*
X121398282Y-73884412D01*
X121517980Y-73848102D01*
X121628294Y-73789137D01*
X121724985Y-73709785D01*
X121804337Y-73613094D01*
X121843800Y-73539265D01*
X121883263Y-73613094D01*
X121962615Y-73709785D01*
X122059306Y-73789137D01*
X122169620Y-73848102D01*
X122289318Y-73884412D01*
X122413800Y-73896672D01*
X123473800Y-73896672D01*
X123598282Y-73884412D01*
X123717980Y-73848102D01*
X123828294Y-73789137D01*
X123924985Y-73709785D01*
X124004337Y-73613094D01*
X124063302Y-73502780D01*
X124099612Y-73383082D01*
X124111872Y-73258600D01*
X124111872Y-72973116D01*
X124115764Y-72933600D01*
X124111872Y-72894084D01*
X124111872Y-72608600D01*
X124099612Y-72484118D01*
X124091871Y-72458600D01*
X124099612Y-72433082D01*
X124111872Y-72308600D01*
X124108800Y-72269350D01*
X123950050Y-72110600D01*
X123867941Y-72110600D01*
X123828294Y-72078063D01*
X123717980Y-72019098D01*
X123600959Y-71983600D01*
X123717980Y-71948102D01*
X123828294Y-71889137D01*
X123849419Y-71871800D01*
X125739548Y-71871800D01*
X125671415Y-71927715D01*
X125592063Y-72024406D01*
X125533098Y-72134720D01*
X125496788Y-72254418D01*
X125484528Y-72378900D01*
X125487600Y-72680650D01*
X125646350Y-72839400D01*
X126720600Y-72839400D01*
X126720600Y-72819400D01*
X126974600Y-72819400D01*
X126974600Y-72839400D01*
X126994600Y-72839400D01*
X126994600Y-73093400D01*
X126974600Y-73093400D01*
X126974600Y-73113400D01*
X126720600Y-73113400D01*
X126720600Y-73093400D01*
X125646350Y-73093400D01*
X125487600Y-73252150D01*
X125484528Y-73553900D01*
X125496788Y-73678382D01*
X125533098Y-73798080D01*
X125592063Y-73908394D01*
X125671415Y-74005085D01*
X125768106Y-74084437D01*
X125878420Y-74143402D01*
X125998118Y-74179712D01*
X126122600Y-74191972D01*
X126540559Y-74189049D01*
X126256808Y-74472800D01*
X120315294Y-74472800D01*
X118222793Y-72380299D01*
X118338000Y-72381472D01*
X118462482Y-72369212D01*
X118582180Y-72332902D01*
X118692494Y-72273937D01*
X118789185Y-72194585D01*
X118868537Y-72097894D01*
X118927502Y-71987580D01*
X118963812Y-71867882D01*
X118976072Y-71743400D01*
X118973000Y-71304150D01*
X118814250Y-71145400D01*
X117877500Y-71145400D01*
X117877500Y-71165400D01*
X117623500Y-71165400D01*
X117623500Y-71145400D01*
X117603500Y-71145400D01*
X117603500Y-70891400D01*
X117623500Y-70891400D01*
X117623500Y-69817150D01*
X117877500Y-69817150D01*
X117877500Y-70891400D01*
X118814250Y-70891400D01*
X118973000Y-70732650D01*
X118976072Y-70293400D01*
X118963812Y-70168918D01*
X118927502Y-70049220D01*
X118868537Y-69938906D01*
X118789185Y-69842215D01*
X118692494Y-69762863D01*
X118582180Y-69703898D01*
X118462482Y-69667588D01*
X118338000Y-69655328D01*
X118036250Y-69658400D01*
X117877500Y-69817150D01*
X117623500Y-69817150D01*
X117464750Y-69658400D01*
X117163000Y-69655328D01*
X117038518Y-69667588D01*
X116918820Y-69703898D01*
X116808506Y-69762863D01*
X116711815Y-69842215D01*
X116646342Y-69921994D01*
X116640962Y-69915438D01*
X116506386Y-69804995D01*
X116352850Y-69722928D01*
X116186254Y-69672392D01*
X116013000Y-69655328D01*
X115544721Y-69655328D01*
X115138200Y-69248807D01*
X115138200Y-68293503D01*
X115298256Y-68227205D01*
X115467774Y-68113937D01*
X115611937Y-67969774D01*
X115725205Y-67800256D01*
X115803226Y-67611898D01*
X115843000Y-67411939D01*
X115843000Y-67208061D01*
X115803226Y-67008102D01*
X115725205Y-66819744D01*
X115611937Y-66650226D01*
X115467774Y-66506063D01*
X115298256Y-66392795D01*
X115109898Y-66314774D01*
X114916211Y-66276248D01*
X115059098Y-66247826D01*
X115247456Y-66169805D01*
X115364356Y-66091695D01*
X119663583Y-70390923D01*
G37*
%TD.AperFunction*%
%TD*%
M02*
