%TF.GenerationSoftware,KiCad,Pcbnew,(5.1.7)-1*%
%TF.CreationDate,2020-10-23T16:32:44-04:00*%
%TF.ProjectId,final_schematic,66696e61-6c5f-4736-9368-656d61746963,3*%
%TF.SameCoordinates,Original*%
%TF.FileFunction,Paste,Top*%
%TF.FilePolarity,Positive*%
%FSLAX46Y46*%
G04 Gerber Fmt 4.6, Leading zero omitted, Abs format (unit mm)*
G04 Created by KiCad (PCBNEW (5.1.7)-1) date 2020-10-23 16:32:44*
%MOMM*%
%LPD*%
G01*
G04 APERTURE LIST*
%ADD10R,1.000000X1.000000*%
%ADD11R,1.050000X2.200000*%
%ADD12R,0.700000X1.500000*%
%ADD13R,1.000000X0.800000*%
%ADD14R,1.250000X2.500000*%
%ADD15R,1.550000X1.300000*%
%ADD16R,1.000000X2.000000*%
%ADD17R,2.000000X1.000000*%
G04 APERTURE END LIST*
%TO.C,OLED Qwiic*%
G36*
G01*
X99024199Y-78323800D02*
X100324201Y-78323800D01*
G75*
G02*
X100574200Y-78573799I0J-249999D01*
G01*
X100574200Y-79273801D01*
G75*
G02*
X100324201Y-79523800I-249999J0D01*
G01*
X99024199Y-79523800D01*
G75*
G02*
X98774200Y-79273801I0J249999D01*
G01*
X98774200Y-78573799D01*
G75*
G02*
X99024199Y-78323800I249999J0D01*
G01*
G37*
G36*
G01*
X99024199Y-72723800D02*
X100324201Y-72723800D01*
G75*
G02*
X100574200Y-72973799I0J-249999D01*
G01*
X100574200Y-73673801D01*
G75*
G02*
X100324201Y-73923800I-249999J0D01*
G01*
X99024199Y-73923800D01*
G75*
G02*
X98774200Y-73673801I0J249999D01*
G01*
X98774200Y-72973799D01*
G75*
G02*
X99024199Y-72723800I249999J0D01*
G01*
G37*
G36*
G01*
X102924200Y-77323800D02*
X104174200Y-77323800D01*
G75*
G02*
X104324200Y-77473800I0J-150000D01*
G01*
X104324200Y-77773800D01*
G75*
G02*
X104174200Y-77923800I-150000J0D01*
G01*
X102924200Y-77923800D01*
G75*
G02*
X102774200Y-77773800I0J150000D01*
G01*
X102774200Y-77473800D01*
G75*
G02*
X102924200Y-77323800I150000J0D01*
G01*
G37*
G36*
G01*
X102924200Y-76323800D02*
X104174200Y-76323800D01*
G75*
G02*
X104324200Y-76473800I0J-150000D01*
G01*
X104324200Y-76773800D01*
G75*
G02*
X104174200Y-76923800I-150000J0D01*
G01*
X102924200Y-76923800D01*
G75*
G02*
X102774200Y-76773800I0J150000D01*
G01*
X102774200Y-76473800D01*
G75*
G02*
X102924200Y-76323800I150000J0D01*
G01*
G37*
G36*
G01*
X102924200Y-75323800D02*
X104174200Y-75323800D01*
G75*
G02*
X104324200Y-75473800I0J-150000D01*
G01*
X104324200Y-75773800D01*
G75*
G02*
X104174200Y-75923800I-150000J0D01*
G01*
X102924200Y-75923800D01*
G75*
G02*
X102774200Y-75773800I0J150000D01*
G01*
X102774200Y-75473800D01*
G75*
G02*
X102924200Y-75323800I150000J0D01*
G01*
G37*
G36*
G01*
X102924200Y-74323800D02*
X104174200Y-74323800D01*
G75*
G02*
X104324200Y-74473800I0J-150000D01*
G01*
X104324200Y-74773800D01*
G75*
G02*
X104174200Y-74923800I-150000J0D01*
G01*
X102924200Y-74923800D01*
G75*
G02*
X102774200Y-74773800I0J150000D01*
G01*
X102774200Y-74473800D01*
G75*
G02*
X102924200Y-74323800I150000J0D01*
G01*
G37*
%TD*%
%TO.C,IMU*%
G36*
G01*
X151470601Y-57083600D02*
X150170599Y-57083600D01*
G75*
G02*
X149920600Y-56833601I0J249999D01*
G01*
X149920600Y-56133599D01*
G75*
G02*
X150170599Y-55883600I249999J0D01*
G01*
X151470601Y-55883600D01*
G75*
G02*
X151720600Y-56133599I0J-249999D01*
G01*
X151720600Y-56833601D01*
G75*
G02*
X151470601Y-57083600I-249999J0D01*
G01*
G37*
G36*
G01*
X151470601Y-62683600D02*
X150170599Y-62683600D01*
G75*
G02*
X149920600Y-62433601I0J249999D01*
G01*
X149920600Y-61733599D01*
G75*
G02*
X150170599Y-61483600I249999J0D01*
G01*
X151470601Y-61483600D01*
G75*
G02*
X151720600Y-61733599I0J-249999D01*
G01*
X151720600Y-62433601D01*
G75*
G02*
X151470601Y-62683600I-249999J0D01*
G01*
G37*
G36*
G01*
X147570600Y-58083600D02*
X146320600Y-58083600D01*
G75*
G02*
X146170600Y-57933600I0J150000D01*
G01*
X146170600Y-57633600D01*
G75*
G02*
X146320600Y-57483600I150000J0D01*
G01*
X147570600Y-57483600D01*
G75*
G02*
X147720600Y-57633600I0J-150000D01*
G01*
X147720600Y-57933600D01*
G75*
G02*
X147570600Y-58083600I-150000J0D01*
G01*
G37*
G36*
G01*
X147570600Y-59083600D02*
X146320600Y-59083600D01*
G75*
G02*
X146170600Y-58933600I0J150000D01*
G01*
X146170600Y-58633600D01*
G75*
G02*
X146320600Y-58483600I150000J0D01*
G01*
X147570600Y-58483600D01*
G75*
G02*
X147720600Y-58633600I0J-150000D01*
G01*
X147720600Y-58933600D01*
G75*
G02*
X147570600Y-59083600I-150000J0D01*
G01*
G37*
G36*
G01*
X147570600Y-60083600D02*
X146320600Y-60083600D01*
G75*
G02*
X146170600Y-59933600I0J150000D01*
G01*
X146170600Y-59633600D01*
G75*
G02*
X146320600Y-59483600I150000J0D01*
G01*
X147570600Y-59483600D01*
G75*
G02*
X147720600Y-59633600I0J-150000D01*
G01*
X147720600Y-59933600D01*
G75*
G02*
X147570600Y-60083600I-150000J0D01*
G01*
G37*
G36*
G01*
X147570600Y-61083600D02*
X146320600Y-61083600D01*
G75*
G02*
X146170600Y-60933600I0J150000D01*
G01*
X146170600Y-60633600D01*
G75*
G02*
X146320600Y-60483600I150000J0D01*
G01*
X147570600Y-60483600D01*
G75*
G02*
X147720600Y-60633600I0J-150000D01*
G01*
X147720600Y-60933600D01*
G75*
G02*
X147570600Y-61083600I-150000J0D01*
G01*
G37*
%TD*%
%TO.C,R9*%
G36*
G01*
X135478099Y-97955300D02*
X136378101Y-97955300D01*
G75*
G02*
X136628100Y-98205299I0J-249999D01*
G01*
X136628100Y-98905301D01*
G75*
G02*
X136378101Y-99155300I-249999J0D01*
G01*
X135478099Y-99155300D01*
G75*
G02*
X135228100Y-98905301I0J249999D01*
G01*
X135228100Y-98205299D01*
G75*
G02*
X135478099Y-97955300I249999J0D01*
G01*
G37*
G36*
G01*
X135478099Y-99955300D02*
X136378101Y-99955300D01*
G75*
G02*
X136628100Y-100205299I0J-249999D01*
G01*
X136628100Y-100905301D01*
G75*
G02*
X136378101Y-101155300I-249999J0D01*
G01*
X135478099Y-101155300D01*
G75*
G02*
X135228100Y-100905301I0J249999D01*
G01*
X135228100Y-100205299D01*
G75*
G02*
X135478099Y-99955300I249999J0D01*
G01*
G37*
%TD*%
%TO.C,R14*%
G36*
G01*
X126180900Y-95511199D02*
X126180900Y-96411201D01*
G75*
G02*
X125930901Y-96661200I-249999J0D01*
G01*
X125230899Y-96661200D01*
G75*
G02*
X124980900Y-96411201I0J249999D01*
G01*
X124980900Y-95511199D01*
G75*
G02*
X125230899Y-95261200I249999J0D01*
G01*
X125930901Y-95261200D01*
G75*
G02*
X126180900Y-95511199I0J-249999D01*
G01*
G37*
G36*
G01*
X128180900Y-95511199D02*
X128180900Y-96411201D01*
G75*
G02*
X127930901Y-96661200I-249999J0D01*
G01*
X127230899Y-96661200D01*
G75*
G02*
X126980900Y-96411201I0J249999D01*
G01*
X126980900Y-95511199D01*
G75*
G02*
X127230899Y-95261200I249999J0D01*
G01*
X127930901Y-95261200D01*
G75*
G02*
X128180900Y-95511199I0J-249999D01*
G01*
G37*
%TD*%
%TO.C,R8*%
G36*
G01*
X126244400Y-92958499D02*
X126244400Y-93858501D01*
G75*
G02*
X125994401Y-94108500I-249999J0D01*
G01*
X125294399Y-94108500D01*
G75*
G02*
X125044400Y-93858501I0J249999D01*
G01*
X125044400Y-92958499D01*
G75*
G02*
X125294399Y-92708500I249999J0D01*
G01*
X125994401Y-92708500D01*
G75*
G02*
X126244400Y-92958499I0J-249999D01*
G01*
G37*
G36*
G01*
X128244400Y-92958499D02*
X128244400Y-93858501D01*
G75*
G02*
X127994401Y-94108500I-249999J0D01*
G01*
X127294399Y-94108500D01*
G75*
G02*
X127044400Y-93858501I0J249999D01*
G01*
X127044400Y-92958499D01*
G75*
G02*
X127294399Y-92708500I249999J0D01*
G01*
X127994401Y-92708500D01*
G75*
G02*
X128244400Y-92958499I0J-249999D01*
G01*
G37*
%TD*%
%TO.C,R7*%
G36*
G01*
X141624899Y-60178900D02*
X142524901Y-60178900D01*
G75*
G02*
X142774900Y-60428899I0J-249999D01*
G01*
X142774900Y-61128901D01*
G75*
G02*
X142524901Y-61378900I-249999J0D01*
G01*
X141624899Y-61378900D01*
G75*
G02*
X141374900Y-61128901I0J249999D01*
G01*
X141374900Y-60428899D01*
G75*
G02*
X141624899Y-60178900I249999J0D01*
G01*
G37*
G36*
G01*
X141624899Y-58178900D02*
X142524901Y-58178900D01*
G75*
G02*
X142774900Y-58428899I0J-249999D01*
G01*
X142774900Y-59128901D01*
G75*
G02*
X142524901Y-59378900I-249999J0D01*
G01*
X141624899Y-59378900D01*
G75*
G02*
X141374900Y-59128901I0J249999D01*
G01*
X141374900Y-58428899D01*
G75*
G02*
X141624899Y-58178900I249999J0D01*
G01*
G37*
%TD*%
%TO.C,R6*%
G36*
G01*
X107345901Y-78936900D02*
X106445899Y-78936900D01*
G75*
G02*
X106195900Y-78686901I0J249999D01*
G01*
X106195900Y-77986899D01*
G75*
G02*
X106445899Y-77736900I249999J0D01*
G01*
X107345901Y-77736900D01*
G75*
G02*
X107595900Y-77986899I0J-249999D01*
G01*
X107595900Y-78686901D01*
G75*
G02*
X107345901Y-78936900I-249999J0D01*
G01*
G37*
G36*
G01*
X107345901Y-80936900D02*
X106445899Y-80936900D01*
G75*
G02*
X106195900Y-80686901I0J249999D01*
G01*
X106195900Y-79986899D01*
G75*
G02*
X106445899Y-79736900I249999J0D01*
G01*
X107345901Y-79736900D01*
G75*
G02*
X107595900Y-79986899I0J-249999D01*
G01*
X107595900Y-80686901D01*
G75*
G02*
X107345901Y-80936900I-249999J0D01*
G01*
G37*
%TD*%
%TO.C,C1*%
G36*
G01*
X104282001Y-94286500D02*
X102981999Y-94286500D01*
G75*
G02*
X102732000Y-94036501I0J249999D01*
G01*
X102732000Y-93211499D01*
G75*
G02*
X102981999Y-92961500I249999J0D01*
G01*
X104282001Y-92961500D01*
G75*
G02*
X104532000Y-93211499I0J-249999D01*
G01*
X104532000Y-94036501D01*
G75*
G02*
X104282001Y-94286500I-249999J0D01*
G01*
G37*
G36*
G01*
X104282001Y-97411500D02*
X102981999Y-97411500D01*
G75*
G02*
X102732000Y-97161501I0J249999D01*
G01*
X102732000Y-96336499D01*
G75*
G02*
X102981999Y-96086500I249999J0D01*
G01*
X104282001Y-96086500D01*
G75*
G02*
X104532000Y-96336499I0J-249999D01*
G01*
X104532000Y-97161501D01*
G75*
G02*
X104282001Y-97411500I-249999J0D01*
G01*
G37*
%TD*%
%TO.C,C12*%
G36*
G01*
X116221399Y-88943800D02*
X118271401Y-88943800D01*
G75*
G02*
X118521400Y-89193799I0J-249999D01*
G01*
X118521400Y-90943801D01*
G75*
G02*
X118271401Y-91193800I-249999J0D01*
G01*
X116221399Y-91193800D01*
G75*
G02*
X115971400Y-90943801I0J249999D01*
G01*
X115971400Y-89193799D01*
G75*
G02*
X116221399Y-88943800I249999J0D01*
G01*
G37*
G36*
G01*
X116221399Y-95343800D02*
X118271401Y-95343800D01*
G75*
G02*
X118521400Y-95593799I0J-249999D01*
G01*
X118521400Y-97343801D01*
G75*
G02*
X118271401Y-97593800I-249999J0D01*
G01*
X116221399Y-97593800D01*
G75*
G02*
X115971400Y-97343801I0J249999D01*
G01*
X115971400Y-95593799D01*
G75*
G02*
X116221399Y-95343800I249999J0D01*
G01*
G37*
%TD*%
%TO.C,D1*%
G36*
G01*
X110963700Y-58160400D02*
X111438700Y-58160400D01*
G75*
G02*
X111676200Y-58397900I0J-237500D01*
G01*
X111676200Y-58972900D01*
G75*
G02*
X111438700Y-59210400I-237500J0D01*
G01*
X110963700Y-59210400D01*
G75*
G02*
X110726200Y-58972900I0J237500D01*
G01*
X110726200Y-58397900D01*
G75*
G02*
X110963700Y-58160400I237500J0D01*
G01*
G37*
G36*
G01*
X110963700Y-56410400D02*
X111438700Y-56410400D01*
G75*
G02*
X111676200Y-56647900I0J-237500D01*
G01*
X111676200Y-57222900D01*
G75*
G02*
X111438700Y-57460400I-237500J0D01*
G01*
X110963700Y-57460400D01*
G75*
G02*
X110726200Y-57222900I0J237500D01*
G01*
X110726200Y-56647900D01*
G75*
G02*
X110963700Y-56410400I237500J0D01*
G01*
G37*
%TD*%
%TO.C,D2*%
G36*
G01*
X142852000Y-73287900D02*
X142852000Y-72812900D01*
G75*
G02*
X143089500Y-72575400I237500J0D01*
G01*
X143664500Y-72575400D01*
G75*
G02*
X143902000Y-72812900I0J-237500D01*
G01*
X143902000Y-73287900D01*
G75*
G02*
X143664500Y-73525400I-237500J0D01*
G01*
X143089500Y-73525400D01*
G75*
G02*
X142852000Y-73287900I0J237500D01*
G01*
G37*
G36*
G01*
X144602000Y-73287900D02*
X144602000Y-72812900D01*
G75*
G02*
X144839500Y-72575400I237500J0D01*
G01*
X145414500Y-72575400D01*
G75*
G02*
X145652000Y-72812900I0J-237500D01*
G01*
X145652000Y-73287900D01*
G75*
G02*
X145414500Y-73525400I-237500J0D01*
G01*
X144839500Y-73525400D01*
G75*
G02*
X144602000Y-73287900I0J237500D01*
G01*
G37*
%TD*%
D10*
%TO.C,J8*%
X133424199Y-56196100D03*
X133424199Y-59196100D03*
D11*
X131949199Y-57696100D03*
X134899199Y-57696100D03*
%TD*%
%TO.C,RADIO_COAX*%
X150566600Y-94488000D03*
X147616600Y-94488000D03*
D10*
X149091600Y-95988000D03*
X149091600Y-92988000D03*
%TD*%
%TO.C,R1*%
G36*
G01*
X109617200Y-54171001D02*
X109617200Y-53270999D01*
G75*
G02*
X109867199Y-53021000I249999J0D01*
G01*
X110567201Y-53021000D01*
G75*
G02*
X110817200Y-53270999I0J-249999D01*
G01*
X110817200Y-54171001D01*
G75*
G02*
X110567201Y-54421000I-249999J0D01*
G01*
X109867199Y-54421000D01*
G75*
G02*
X109617200Y-54171001I0J249999D01*
G01*
G37*
G36*
G01*
X111617200Y-54171001D02*
X111617200Y-53270999D01*
G75*
G02*
X111867199Y-53021000I249999J0D01*
G01*
X112567201Y-53021000D01*
G75*
G02*
X112817200Y-53270999I0J-249999D01*
G01*
X112817200Y-54171001D01*
G75*
G02*
X112567201Y-54421000I-249999J0D01*
G01*
X111867199Y-54421000D01*
G75*
G02*
X111617200Y-54171001I0J249999D01*
G01*
G37*
%TD*%
%TO.C,R2*%
G36*
G01*
X138455600Y-73500401D02*
X138455600Y-72600399D01*
G75*
G02*
X138705599Y-72350400I249999J0D01*
G01*
X139405601Y-72350400D01*
G75*
G02*
X139655600Y-72600399I0J-249999D01*
G01*
X139655600Y-73500401D01*
G75*
G02*
X139405601Y-73750400I-249999J0D01*
G01*
X138705599Y-73750400D01*
G75*
G02*
X138455600Y-73500401I0J249999D01*
G01*
G37*
G36*
G01*
X140455600Y-73500401D02*
X140455600Y-72600399D01*
G75*
G02*
X140705599Y-72350400I249999J0D01*
G01*
X141405601Y-72350400D01*
G75*
G02*
X141655600Y-72600399I0J-249999D01*
G01*
X141655600Y-73500401D01*
G75*
G02*
X141405601Y-73750400I-249999J0D01*
G01*
X140705599Y-73750400D01*
G75*
G02*
X140455600Y-73500401I0J249999D01*
G01*
G37*
%TD*%
%TO.C,R3*%
G36*
G01*
X103181999Y-90862100D02*
X104082001Y-90862100D01*
G75*
G02*
X104332000Y-91112099I0J-249999D01*
G01*
X104332000Y-91812101D01*
G75*
G02*
X104082001Y-92062100I-249999J0D01*
G01*
X103181999Y-92062100D01*
G75*
G02*
X102932000Y-91812101I0J249999D01*
G01*
X102932000Y-91112099D01*
G75*
G02*
X103181999Y-90862100I249999J0D01*
G01*
G37*
G36*
G01*
X103181999Y-88862100D02*
X104082001Y-88862100D01*
G75*
G02*
X104332000Y-89112099I0J-249999D01*
G01*
X104332000Y-89812101D01*
G75*
G02*
X104082001Y-90062100I-249999J0D01*
G01*
X103181999Y-90062100D01*
G75*
G02*
X102932000Y-89812101I0J249999D01*
G01*
X102932000Y-89112099D01*
G75*
G02*
X103181999Y-88862100I249999J0D01*
G01*
G37*
%TD*%
%TO.C,R4*%
G36*
G01*
X138297499Y-99984000D02*
X139197501Y-99984000D01*
G75*
G02*
X139447500Y-100233999I0J-249999D01*
G01*
X139447500Y-100934001D01*
G75*
G02*
X139197501Y-101184000I-249999J0D01*
G01*
X138297499Y-101184000D01*
G75*
G02*
X138047500Y-100934001I0J249999D01*
G01*
X138047500Y-100233999D01*
G75*
G02*
X138297499Y-99984000I249999J0D01*
G01*
G37*
G36*
G01*
X138297499Y-97984000D02*
X139197501Y-97984000D01*
G75*
G02*
X139447500Y-98233999I0J-249999D01*
G01*
X139447500Y-98934001D01*
G75*
G02*
X139197501Y-99184000I-249999J0D01*
G01*
X138297499Y-99184000D01*
G75*
G02*
X138047500Y-98934001I0J249999D01*
G01*
X138047500Y-98233999D01*
G75*
G02*
X138297499Y-97984000I249999J0D01*
G01*
G37*
%TD*%
%TO.C,R5*%
G36*
G01*
X132912699Y-95240800D02*
X133812701Y-95240800D01*
G75*
G02*
X134062700Y-95490799I0J-249999D01*
G01*
X134062700Y-96190801D01*
G75*
G02*
X133812701Y-96440800I-249999J0D01*
G01*
X132912699Y-96440800D01*
G75*
G02*
X132662700Y-96190801I0J249999D01*
G01*
X132662700Y-95490799D01*
G75*
G02*
X132912699Y-95240800I249999J0D01*
G01*
G37*
G36*
G01*
X132912699Y-97240800D02*
X133812701Y-97240800D01*
G75*
G02*
X134062700Y-97490799I0J-249999D01*
G01*
X134062700Y-98190801D01*
G75*
G02*
X133812701Y-98440800I-249999J0D01*
G01*
X132912699Y-98440800D01*
G75*
G02*
X132662700Y-98190801I0J249999D01*
G01*
X132662700Y-97490799D01*
G75*
G02*
X132912699Y-97240800I249999J0D01*
G01*
G37*
%TD*%
%TO.C,R10*%
G36*
G01*
X99829199Y-93046500D02*
X100729201Y-93046500D01*
G75*
G02*
X100979200Y-93296499I0J-249999D01*
G01*
X100979200Y-93996501D01*
G75*
G02*
X100729201Y-94246500I-249999J0D01*
G01*
X99829199Y-94246500D01*
G75*
G02*
X99579200Y-93996501I0J249999D01*
G01*
X99579200Y-93296499D01*
G75*
G02*
X99829199Y-93046500I249999J0D01*
G01*
G37*
G36*
G01*
X99829199Y-91046500D02*
X100729201Y-91046500D01*
G75*
G02*
X100979200Y-91296499I0J-249999D01*
G01*
X100979200Y-91996501D01*
G75*
G02*
X100729201Y-92246500I-249999J0D01*
G01*
X99829199Y-92246500D01*
G75*
G02*
X99579200Y-91996501I0J249999D01*
G01*
X99579200Y-91296499D01*
G75*
G02*
X99829199Y-91046500I249999J0D01*
G01*
G37*
%TD*%
%TO.C,R11*%
G36*
G01*
X130169499Y-95202700D02*
X131069501Y-95202700D01*
G75*
G02*
X131319500Y-95452699I0J-249999D01*
G01*
X131319500Y-96152701D01*
G75*
G02*
X131069501Y-96402700I-249999J0D01*
G01*
X130169499Y-96402700D01*
G75*
G02*
X129919500Y-96152701I0J249999D01*
G01*
X129919500Y-95452699D01*
G75*
G02*
X130169499Y-95202700I249999J0D01*
G01*
G37*
G36*
G01*
X130169499Y-97202700D02*
X131069501Y-97202700D01*
G75*
G02*
X131319500Y-97452699I0J-249999D01*
G01*
X131319500Y-98152701D01*
G75*
G02*
X131069501Y-98402700I-249999J0D01*
G01*
X130169499Y-98402700D01*
G75*
G02*
X129919500Y-98152701I0J249999D01*
G01*
X129919500Y-97452699D01*
G75*
G02*
X130169499Y-97202700I249999J0D01*
G01*
G37*
%TD*%
D12*
%TO.C,S1*%
X111642900Y-102163900D03*
X113142900Y-102163900D03*
X116142900Y-102163900D03*
X117642900Y-102163900D03*
D13*
X109492900Y-105023900D03*
X119792900Y-105023900D03*
X119792900Y-102813900D03*
X109492900Y-102813900D03*
%TD*%
D14*
%TO.C,SESS*%
X101106600Y-100691500D03*
X103606600Y-100691500D03*
X106106600Y-100691500D03*
%TD*%
D15*
%TO.C,RADIO PUSH*%
X142561600Y-104408800D03*
X142561600Y-99908800D03*
X150521600Y-99908800D03*
X150521600Y-104408800D03*
%TD*%
%TO.C,MICRO*%
G36*
G01*
X115334600Y-84929000D02*
X115184600Y-84929000D01*
G75*
G02*
X115109600Y-84854000I0J75000D01*
G01*
X115109600Y-83404000D01*
G75*
G02*
X115184600Y-83329000I75000J0D01*
G01*
X115334600Y-83329000D01*
G75*
G02*
X115409600Y-83404000I0J-75000D01*
G01*
X115409600Y-84854000D01*
G75*
G02*
X115334600Y-84929000I-75000J0D01*
G01*
G37*
G36*
G01*
X115834600Y-84929000D02*
X115684600Y-84929000D01*
G75*
G02*
X115609600Y-84854000I0J75000D01*
G01*
X115609600Y-83404000D01*
G75*
G02*
X115684600Y-83329000I75000J0D01*
G01*
X115834600Y-83329000D01*
G75*
G02*
X115909600Y-83404000I0J-75000D01*
G01*
X115909600Y-84854000D01*
G75*
G02*
X115834600Y-84929000I-75000J0D01*
G01*
G37*
G36*
G01*
X116334600Y-84929000D02*
X116184600Y-84929000D01*
G75*
G02*
X116109600Y-84854000I0J75000D01*
G01*
X116109600Y-83404000D01*
G75*
G02*
X116184600Y-83329000I75000J0D01*
G01*
X116334600Y-83329000D01*
G75*
G02*
X116409600Y-83404000I0J-75000D01*
G01*
X116409600Y-84854000D01*
G75*
G02*
X116334600Y-84929000I-75000J0D01*
G01*
G37*
G36*
G01*
X116834600Y-84929000D02*
X116684600Y-84929000D01*
G75*
G02*
X116609600Y-84854000I0J75000D01*
G01*
X116609600Y-83404000D01*
G75*
G02*
X116684600Y-83329000I75000J0D01*
G01*
X116834600Y-83329000D01*
G75*
G02*
X116909600Y-83404000I0J-75000D01*
G01*
X116909600Y-84854000D01*
G75*
G02*
X116834600Y-84929000I-75000J0D01*
G01*
G37*
G36*
G01*
X117334600Y-84929000D02*
X117184600Y-84929000D01*
G75*
G02*
X117109600Y-84854000I0J75000D01*
G01*
X117109600Y-83404000D01*
G75*
G02*
X117184600Y-83329000I75000J0D01*
G01*
X117334600Y-83329000D01*
G75*
G02*
X117409600Y-83404000I0J-75000D01*
G01*
X117409600Y-84854000D01*
G75*
G02*
X117334600Y-84929000I-75000J0D01*
G01*
G37*
G36*
G01*
X117834600Y-84929000D02*
X117684600Y-84929000D01*
G75*
G02*
X117609600Y-84854000I0J75000D01*
G01*
X117609600Y-83404000D01*
G75*
G02*
X117684600Y-83329000I75000J0D01*
G01*
X117834600Y-83329000D01*
G75*
G02*
X117909600Y-83404000I0J-75000D01*
G01*
X117909600Y-84854000D01*
G75*
G02*
X117834600Y-84929000I-75000J0D01*
G01*
G37*
G36*
G01*
X118334600Y-84929000D02*
X118184600Y-84929000D01*
G75*
G02*
X118109600Y-84854000I0J75000D01*
G01*
X118109600Y-83404000D01*
G75*
G02*
X118184600Y-83329000I75000J0D01*
G01*
X118334600Y-83329000D01*
G75*
G02*
X118409600Y-83404000I0J-75000D01*
G01*
X118409600Y-84854000D01*
G75*
G02*
X118334600Y-84929000I-75000J0D01*
G01*
G37*
G36*
G01*
X118834600Y-84929000D02*
X118684600Y-84929000D01*
G75*
G02*
X118609600Y-84854000I0J75000D01*
G01*
X118609600Y-83404000D01*
G75*
G02*
X118684600Y-83329000I75000J0D01*
G01*
X118834600Y-83329000D01*
G75*
G02*
X118909600Y-83404000I0J-75000D01*
G01*
X118909600Y-84854000D01*
G75*
G02*
X118834600Y-84929000I-75000J0D01*
G01*
G37*
G36*
G01*
X119334600Y-84929000D02*
X119184600Y-84929000D01*
G75*
G02*
X119109600Y-84854000I0J75000D01*
G01*
X119109600Y-83404000D01*
G75*
G02*
X119184600Y-83329000I75000J0D01*
G01*
X119334600Y-83329000D01*
G75*
G02*
X119409600Y-83404000I0J-75000D01*
G01*
X119409600Y-84854000D01*
G75*
G02*
X119334600Y-84929000I-75000J0D01*
G01*
G37*
G36*
G01*
X119834600Y-84929000D02*
X119684600Y-84929000D01*
G75*
G02*
X119609600Y-84854000I0J75000D01*
G01*
X119609600Y-83404000D01*
G75*
G02*
X119684600Y-83329000I75000J0D01*
G01*
X119834600Y-83329000D01*
G75*
G02*
X119909600Y-83404000I0J-75000D01*
G01*
X119909600Y-84854000D01*
G75*
G02*
X119834600Y-84929000I-75000J0D01*
G01*
G37*
G36*
G01*
X120334600Y-84929000D02*
X120184600Y-84929000D01*
G75*
G02*
X120109600Y-84854000I0J75000D01*
G01*
X120109600Y-83404000D01*
G75*
G02*
X120184600Y-83329000I75000J0D01*
G01*
X120334600Y-83329000D01*
G75*
G02*
X120409600Y-83404000I0J-75000D01*
G01*
X120409600Y-84854000D01*
G75*
G02*
X120334600Y-84929000I-75000J0D01*
G01*
G37*
G36*
G01*
X120834600Y-84929000D02*
X120684600Y-84929000D01*
G75*
G02*
X120609600Y-84854000I0J75000D01*
G01*
X120609600Y-83404000D01*
G75*
G02*
X120684600Y-83329000I75000J0D01*
G01*
X120834600Y-83329000D01*
G75*
G02*
X120909600Y-83404000I0J-75000D01*
G01*
X120909600Y-84854000D01*
G75*
G02*
X120834600Y-84929000I-75000J0D01*
G01*
G37*
G36*
G01*
X121334600Y-84929000D02*
X121184600Y-84929000D01*
G75*
G02*
X121109600Y-84854000I0J75000D01*
G01*
X121109600Y-83404000D01*
G75*
G02*
X121184600Y-83329000I75000J0D01*
G01*
X121334600Y-83329000D01*
G75*
G02*
X121409600Y-83404000I0J-75000D01*
G01*
X121409600Y-84854000D01*
G75*
G02*
X121334600Y-84929000I-75000J0D01*
G01*
G37*
G36*
G01*
X121834600Y-84929000D02*
X121684600Y-84929000D01*
G75*
G02*
X121609600Y-84854000I0J75000D01*
G01*
X121609600Y-83404000D01*
G75*
G02*
X121684600Y-83329000I75000J0D01*
G01*
X121834600Y-83329000D01*
G75*
G02*
X121909600Y-83404000I0J-75000D01*
G01*
X121909600Y-84854000D01*
G75*
G02*
X121834600Y-84929000I-75000J0D01*
G01*
G37*
G36*
G01*
X122334600Y-84929000D02*
X122184600Y-84929000D01*
G75*
G02*
X122109600Y-84854000I0J75000D01*
G01*
X122109600Y-83404000D01*
G75*
G02*
X122184600Y-83329000I75000J0D01*
G01*
X122334600Y-83329000D01*
G75*
G02*
X122409600Y-83404000I0J-75000D01*
G01*
X122409600Y-84854000D01*
G75*
G02*
X122334600Y-84929000I-75000J0D01*
G01*
G37*
G36*
G01*
X122834600Y-84929000D02*
X122684600Y-84929000D01*
G75*
G02*
X122609600Y-84854000I0J75000D01*
G01*
X122609600Y-83404000D01*
G75*
G02*
X122684600Y-83329000I75000J0D01*
G01*
X122834600Y-83329000D01*
G75*
G02*
X122909600Y-83404000I0J-75000D01*
G01*
X122909600Y-84854000D01*
G75*
G02*
X122834600Y-84929000I-75000J0D01*
G01*
G37*
G36*
G01*
X123334600Y-84929000D02*
X123184600Y-84929000D01*
G75*
G02*
X123109600Y-84854000I0J75000D01*
G01*
X123109600Y-83404000D01*
G75*
G02*
X123184600Y-83329000I75000J0D01*
G01*
X123334600Y-83329000D01*
G75*
G02*
X123409600Y-83404000I0J-75000D01*
G01*
X123409600Y-84854000D01*
G75*
G02*
X123334600Y-84929000I-75000J0D01*
G01*
G37*
G36*
G01*
X123834600Y-84929000D02*
X123684600Y-84929000D01*
G75*
G02*
X123609600Y-84854000I0J75000D01*
G01*
X123609600Y-83404000D01*
G75*
G02*
X123684600Y-83329000I75000J0D01*
G01*
X123834600Y-83329000D01*
G75*
G02*
X123909600Y-83404000I0J-75000D01*
G01*
X123909600Y-84854000D01*
G75*
G02*
X123834600Y-84929000I-75000J0D01*
G01*
G37*
G36*
G01*
X124334600Y-84929000D02*
X124184600Y-84929000D01*
G75*
G02*
X124109600Y-84854000I0J75000D01*
G01*
X124109600Y-83404000D01*
G75*
G02*
X124184600Y-83329000I75000J0D01*
G01*
X124334600Y-83329000D01*
G75*
G02*
X124409600Y-83404000I0J-75000D01*
G01*
X124409600Y-84854000D01*
G75*
G02*
X124334600Y-84929000I-75000J0D01*
G01*
G37*
G36*
G01*
X124834600Y-84929000D02*
X124684600Y-84929000D01*
G75*
G02*
X124609600Y-84854000I0J75000D01*
G01*
X124609600Y-83404000D01*
G75*
G02*
X124684600Y-83329000I75000J0D01*
G01*
X124834600Y-83329000D01*
G75*
G02*
X124909600Y-83404000I0J-75000D01*
G01*
X124909600Y-84854000D01*
G75*
G02*
X124834600Y-84929000I-75000J0D01*
G01*
G37*
G36*
G01*
X125334600Y-84929000D02*
X125184600Y-84929000D01*
G75*
G02*
X125109600Y-84854000I0J75000D01*
G01*
X125109600Y-83404000D01*
G75*
G02*
X125184600Y-83329000I75000J0D01*
G01*
X125334600Y-83329000D01*
G75*
G02*
X125409600Y-83404000I0J-75000D01*
G01*
X125409600Y-84854000D01*
G75*
G02*
X125334600Y-84929000I-75000J0D01*
G01*
G37*
G36*
G01*
X125834600Y-84929000D02*
X125684600Y-84929000D01*
G75*
G02*
X125609600Y-84854000I0J75000D01*
G01*
X125609600Y-83404000D01*
G75*
G02*
X125684600Y-83329000I75000J0D01*
G01*
X125834600Y-83329000D01*
G75*
G02*
X125909600Y-83404000I0J-75000D01*
G01*
X125909600Y-84854000D01*
G75*
G02*
X125834600Y-84929000I-75000J0D01*
G01*
G37*
G36*
G01*
X126334600Y-84929000D02*
X126184600Y-84929000D01*
G75*
G02*
X126109600Y-84854000I0J75000D01*
G01*
X126109600Y-83404000D01*
G75*
G02*
X126184600Y-83329000I75000J0D01*
G01*
X126334600Y-83329000D01*
G75*
G02*
X126409600Y-83404000I0J-75000D01*
G01*
X126409600Y-84854000D01*
G75*
G02*
X126334600Y-84929000I-75000J0D01*
G01*
G37*
G36*
G01*
X126834600Y-84929000D02*
X126684600Y-84929000D01*
G75*
G02*
X126609600Y-84854000I0J75000D01*
G01*
X126609600Y-83404000D01*
G75*
G02*
X126684600Y-83329000I75000J0D01*
G01*
X126834600Y-83329000D01*
G75*
G02*
X126909600Y-83404000I0J-75000D01*
G01*
X126909600Y-84854000D01*
G75*
G02*
X126834600Y-84929000I-75000J0D01*
G01*
G37*
G36*
G01*
X127334600Y-84929000D02*
X127184600Y-84929000D01*
G75*
G02*
X127109600Y-84854000I0J75000D01*
G01*
X127109600Y-83404000D01*
G75*
G02*
X127184600Y-83329000I75000J0D01*
G01*
X127334600Y-83329000D01*
G75*
G02*
X127409600Y-83404000I0J-75000D01*
G01*
X127409600Y-84854000D01*
G75*
G02*
X127334600Y-84929000I-75000J0D01*
G01*
G37*
G36*
G01*
X129659600Y-82604000D02*
X128209600Y-82604000D01*
G75*
G02*
X128134600Y-82529000I0J75000D01*
G01*
X128134600Y-82379000D01*
G75*
G02*
X128209600Y-82304000I75000J0D01*
G01*
X129659600Y-82304000D01*
G75*
G02*
X129734600Y-82379000I0J-75000D01*
G01*
X129734600Y-82529000D01*
G75*
G02*
X129659600Y-82604000I-75000J0D01*
G01*
G37*
G36*
G01*
X129659600Y-82104000D02*
X128209600Y-82104000D01*
G75*
G02*
X128134600Y-82029000I0J75000D01*
G01*
X128134600Y-81879000D01*
G75*
G02*
X128209600Y-81804000I75000J0D01*
G01*
X129659600Y-81804000D01*
G75*
G02*
X129734600Y-81879000I0J-75000D01*
G01*
X129734600Y-82029000D01*
G75*
G02*
X129659600Y-82104000I-75000J0D01*
G01*
G37*
G36*
G01*
X129659600Y-81604000D02*
X128209600Y-81604000D01*
G75*
G02*
X128134600Y-81529000I0J75000D01*
G01*
X128134600Y-81379000D01*
G75*
G02*
X128209600Y-81304000I75000J0D01*
G01*
X129659600Y-81304000D01*
G75*
G02*
X129734600Y-81379000I0J-75000D01*
G01*
X129734600Y-81529000D01*
G75*
G02*
X129659600Y-81604000I-75000J0D01*
G01*
G37*
G36*
G01*
X129659600Y-81104000D02*
X128209600Y-81104000D01*
G75*
G02*
X128134600Y-81029000I0J75000D01*
G01*
X128134600Y-80879000D01*
G75*
G02*
X128209600Y-80804000I75000J0D01*
G01*
X129659600Y-80804000D01*
G75*
G02*
X129734600Y-80879000I0J-75000D01*
G01*
X129734600Y-81029000D01*
G75*
G02*
X129659600Y-81104000I-75000J0D01*
G01*
G37*
G36*
G01*
X129659600Y-80604000D02*
X128209600Y-80604000D01*
G75*
G02*
X128134600Y-80529000I0J75000D01*
G01*
X128134600Y-80379000D01*
G75*
G02*
X128209600Y-80304000I75000J0D01*
G01*
X129659600Y-80304000D01*
G75*
G02*
X129734600Y-80379000I0J-75000D01*
G01*
X129734600Y-80529000D01*
G75*
G02*
X129659600Y-80604000I-75000J0D01*
G01*
G37*
G36*
G01*
X129659600Y-80104000D02*
X128209600Y-80104000D01*
G75*
G02*
X128134600Y-80029000I0J75000D01*
G01*
X128134600Y-79879000D01*
G75*
G02*
X128209600Y-79804000I75000J0D01*
G01*
X129659600Y-79804000D01*
G75*
G02*
X129734600Y-79879000I0J-75000D01*
G01*
X129734600Y-80029000D01*
G75*
G02*
X129659600Y-80104000I-75000J0D01*
G01*
G37*
G36*
G01*
X129659600Y-79604000D02*
X128209600Y-79604000D01*
G75*
G02*
X128134600Y-79529000I0J75000D01*
G01*
X128134600Y-79379000D01*
G75*
G02*
X128209600Y-79304000I75000J0D01*
G01*
X129659600Y-79304000D01*
G75*
G02*
X129734600Y-79379000I0J-75000D01*
G01*
X129734600Y-79529000D01*
G75*
G02*
X129659600Y-79604000I-75000J0D01*
G01*
G37*
G36*
G01*
X129659600Y-79104000D02*
X128209600Y-79104000D01*
G75*
G02*
X128134600Y-79029000I0J75000D01*
G01*
X128134600Y-78879000D01*
G75*
G02*
X128209600Y-78804000I75000J0D01*
G01*
X129659600Y-78804000D01*
G75*
G02*
X129734600Y-78879000I0J-75000D01*
G01*
X129734600Y-79029000D01*
G75*
G02*
X129659600Y-79104000I-75000J0D01*
G01*
G37*
G36*
G01*
X129659600Y-78604000D02*
X128209600Y-78604000D01*
G75*
G02*
X128134600Y-78529000I0J75000D01*
G01*
X128134600Y-78379000D01*
G75*
G02*
X128209600Y-78304000I75000J0D01*
G01*
X129659600Y-78304000D01*
G75*
G02*
X129734600Y-78379000I0J-75000D01*
G01*
X129734600Y-78529000D01*
G75*
G02*
X129659600Y-78604000I-75000J0D01*
G01*
G37*
G36*
G01*
X129659600Y-78104000D02*
X128209600Y-78104000D01*
G75*
G02*
X128134600Y-78029000I0J75000D01*
G01*
X128134600Y-77879000D01*
G75*
G02*
X128209600Y-77804000I75000J0D01*
G01*
X129659600Y-77804000D01*
G75*
G02*
X129734600Y-77879000I0J-75000D01*
G01*
X129734600Y-78029000D01*
G75*
G02*
X129659600Y-78104000I-75000J0D01*
G01*
G37*
G36*
G01*
X129659600Y-77604000D02*
X128209600Y-77604000D01*
G75*
G02*
X128134600Y-77529000I0J75000D01*
G01*
X128134600Y-77379000D01*
G75*
G02*
X128209600Y-77304000I75000J0D01*
G01*
X129659600Y-77304000D01*
G75*
G02*
X129734600Y-77379000I0J-75000D01*
G01*
X129734600Y-77529000D01*
G75*
G02*
X129659600Y-77604000I-75000J0D01*
G01*
G37*
G36*
G01*
X129659600Y-77104000D02*
X128209600Y-77104000D01*
G75*
G02*
X128134600Y-77029000I0J75000D01*
G01*
X128134600Y-76879000D01*
G75*
G02*
X128209600Y-76804000I75000J0D01*
G01*
X129659600Y-76804000D01*
G75*
G02*
X129734600Y-76879000I0J-75000D01*
G01*
X129734600Y-77029000D01*
G75*
G02*
X129659600Y-77104000I-75000J0D01*
G01*
G37*
G36*
G01*
X129659600Y-76604000D02*
X128209600Y-76604000D01*
G75*
G02*
X128134600Y-76529000I0J75000D01*
G01*
X128134600Y-76379000D01*
G75*
G02*
X128209600Y-76304000I75000J0D01*
G01*
X129659600Y-76304000D01*
G75*
G02*
X129734600Y-76379000I0J-75000D01*
G01*
X129734600Y-76529000D01*
G75*
G02*
X129659600Y-76604000I-75000J0D01*
G01*
G37*
G36*
G01*
X129659600Y-76104000D02*
X128209600Y-76104000D01*
G75*
G02*
X128134600Y-76029000I0J75000D01*
G01*
X128134600Y-75879000D01*
G75*
G02*
X128209600Y-75804000I75000J0D01*
G01*
X129659600Y-75804000D01*
G75*
G02*
X129734600Y-75879000I0J-75000D01*
G01*
X129734600Y-76029000D01*
G75*
G02*
X129659600Y-76104000I-75000J0D01*
G01*
G37*
G36*
G01*
X129659600Y-75604000D02*
X128209600Y-75604000D01*
G75*
G02*
X128134600Y-75529000I0J75000D01*
G01*
X128134600Y-75379000D01*
G75*
G02*
X128209600Y-75304000I75000J0D01*
G01*
X129659600Y-75304000D01*
G75*
G02*
X129734600Y-75379000I0J-75000D01*
G01*
X129734600Y-75529000D01*
G75*
G02*
X129659600Y-75604000I-75000J0D01*
G01*
G37*
G36*
G01*
X129659600Y-75104000D02*
X128209600Y-75104000D01*
G75*
G02*
X128134600Y-75029000I0J75000D01*
G01*
X128134600Y-74879000D01*
G75*
G02*
X128209600Y-74804000I75000J0D01*
G01*
X129659600Y-74804000D01*
G75*
G02*
X129734600Y-74879000I0J-75000D01*
G01*
X129734600Y-75029000D01*
G75*
G02*
X129659600Y-75104000I-75000J0D01*
G01*
G37*
G36*
G01*
X129659600Y-74604000D02*
X128209600Y-74604000D01*
G75*
G02*
X128134600Y-74529000I0J75000D01*
G01*
X128134600Y-74379000D01*
G75*
G02*
X128209600Y-74304000I75000J0D01*
G01*
X129659600Y-74304000D01*
G75*
G02*
X129734600Y-74379000I0J-75000D01*
G01*
X129734600Y-74529000D01*
G75*
G02*
X129659600Y-74604000I-75000J0D01*
G01*
G37*
G36*
G01*
X129659600Y-74104000D02*
X128209600Y-74104000D01*
G75*
G02*
X128134600Y-74029000I0J75000D01*
G01*
X128134600Y-73879000D01*
G75*
G02*
X128209600Y-73804000I75000J0D01*
G01*
X129659600Y-73804000D01*
G75*
G02*
X129734600Y-73879000I0J-75000D01*
G01*
X129734600Y-74029000D01*
G75*
G02*
X129659600Y-74104000I-75000J0D01*
G01*
G37*
G36*
G01*
X129659600Y-73604000D02*
X128209600Y-73604000D01*
G75*
G02*
X128134600Y-73529000I0J75000D01*
G01*
X128134600Y-73379000D01*
G75*
G02*
X128209600Y-73304000I75000J0D01*
G01*
X129659600Y-73304000D01*
G75*
G02*
X129734600Y-73379000I0J-75000D01*
G01*
X129734600Y-73529000D01*
G75*
G02*
X129659600Y-73604000I-75000J0D01*
G01*
G37*
G36*
G01*
X129659600Y-73104000D02*
X128209600Y-73104000D01*
G75*
G02*
X128134600Y-73029000I0J75000D01*
G01*
X128134600Y-72879000D01*
G75*
G02*
X128209600Y-72804000I75000J0D01*
G01*
X129659600Y-72804000D01*
G75*
G02*
X129734600Y-72879000I0J-75000D01*
G01*
X129734600Y-73029000D01*
G75*
G02*
X129659600Y-73104000I-75000J0D01*
G01*
G37*
G36*
G01*
X129659600Y-72604000D02*
X128209600Y-72604000D01*
G75*
G02*
X128134600Y-72529000I0J75000D01*
G01*
X128134600Y-72379000D01*
G75*
G02*
X128209600Y-72304000I75000J0D01*
G01*
X129659600Y-72304000D01*
G75*
G02*
X129734600Y-72379000I0J-75000D01*
G01*
X129734600Y-72529000D01*
G75*
G02*
X129659600Y-72604000I-75000J0D01*
G01*
G37*
G36*
G01*
X129659600Y-72104000D02*
X128209600Y-72104000D01*
G75*
G02*
X128134600Y-72029000I0J75000D01*
G01*
X128134600Y-71879000D01*
G75*
G02*
X128209600Y-71804000I75000J0D01*
G01*
X129659600Y-71804000D01*
G75*
G02*
X129734600Y-71879000I0J-75000D01*
G01*
X129734600Y-72029000D01*
G75*
G02*
X129659600Y-72104000I-75000J0D01*
G01*
G37*
G36*
G01*
X129659600Y-71604000D02*
X128209600Y-71604000D01*
G75*
G02*
X128134600Y-71529000I0J75000D01*
G01*
X128134600Y-71379000D01*
G75*
G02*
X128209600Y-71304000I75000J0D01*
G01*
X129659600Y-71304000D01*
G75*
G02*
X129734600Y-71379000I0J-75000D01*
G01*
X129734600Y-71529000D01*
G75*
G02*
X129659600Y-71604000I-75000J0D01*
G01*
G37*
G36*
G01*
X129659600Y-71104000D02*
X128209600Y-71104000D01*
G75*
G02*
X128134600Y-71029000I0J75000D01*
G01*
X128134600Y-70879000D01*
G75*
G02*
X128209600Y-70804000I75000J0D01*
G01*
X129659600Y-70804000D01*
G75*
G02*
X129734600Y-70879000I0J-75000D01*
G01*
X129734600Y-71029000D01*
G75*
G02*
X129659600Y-71104000I-75000J0D01*
G01*
G37*
G36*
G01*
X129659600Y-70604000D02*
X128209600Y-70604000D01*
G75*
G02*
X128134600Y-70529000I0J75000D01*
G01*
X128134600Y-70379000D01*
G75*
G02*
X128209600Y-70304000I75000J0D01*
G01*
X129659600Y-70304000D01*
G75*
G02*
X129734600Y-70379000I0J-75000D01*
G01*
X129734600Y-70529000D01*
G75*
G02*
X129659600Y-70604000I-75000J0D01*
G01*
G37*
G36*
G01*
X127334600Y-69579000D02*
X127184600Y-69579000D01*
G75*
G02*
X127109600Y-69504000I0J75000D01*
G01*
X127109600Y-68054000D01*
G75*
G02*
X127184600Y-67979000I75000J0D01*
G01*
X127334600Y-67979000D01*
G75*
G02*
X127409600Y-68054000I0J-75000D01*
G01*
X127409600Y-69504000D01*
G75*
G02*
X127334600Y-69579000I-75000J0D01*
G01*
G37*
G36*
G01*
X126834600Y-69579000D02*
X126684600Y-69579000D01*
G75*
G02*
X126609600Y-69504000I0J75000D01*
G01*
X126609600Y-68054000D01*
G75*
G02*
X126684600Y-67979000I75000J0D01*
G01*
X126834600Y-67979000D01*
G75*
G02*
X126909600Y-68054000I0J-75000D01*
G01*
X126909600Y-69504000D01*
G75*
G02*
X126834600Y-69579000I-75000J0D01*
G01*
G37*
G36*
G01*
X126334600Y-69579000D02*
X126184600Y-69579000D01*
G75*
G02*
X126109600Y-69504000I0J75000D01*
G01*
X126109600Y-68054000D01*
G75*
G02*
X126184600Y-67979000I75000J0D01*
G01*
X126334600Y-67979000D01*
G75*
G02*
X126409600Y-68054000I0J-75000D01*
G01*
X126409600Y-69504000D01*
G75*
G02*
X126334600Y-69579000I-75000J0D01*
G01*
G37*
G36*
G01*
X125834600Y-69579000D02*
X125684600Y-69579000D01*
G75*
G02*
X125609600Y-69504000I0J75000D01*
G01*
X125609600Y-68054000D01*
G75*
G02*
X125684600Y-67979000I75000J0D01*
G01*
X125834600Y-67979000D01*
G75*
G02*
X125909600Y-68054000I0J-75000D01*
G01*
X125909600Y-69504000D01*
G75*
G02*
X125834600Y-69579000I-75000J0D01*
G01*
G37*
G36*
G01*
X125334600Y-69579000D02*
X125184600Y-69579000D01*
G75*
G02*
X125109600Y-69504000I0J75000D01*
G01*
X125109600Y-68054000D01*
G75*
G02*
X125184600Y-67979000I75000J0D01*
G01*
X125334600Y-67979000D01*
G75*
G02*
X125409600Y-68054000I0J-75000D01*
G01*
X125409600Y-69504000D01*
G75*
G02*
X125334600Y-69579000I-75000J0D01*
G01*
G37*
G36*
G01*
X124834600Y-69579000D02*
X124684600Y-69579000D01*
G75*
G02*
X124609600Y-69504000I0J75000D01*
G01*
X124609600Y-68054000D01*
G75*
G02*
X124684600Y-67979000I75000J0D01*
G01*
X124834600Y-67979000D01*
G75*
G02*
X124909600Y-68054000I0J-75000D01*
G01*
X124909600Y-69504000D01*
G75*
G02*
X124834600Y-69579000I-75000J0D01*
G01*
G37*
G36*
G01*
X124334600Y-69579000D02*
X124184600Y-69579000D01*
G75*
G02*
X124109600Y-69504000I0J75000D01*
G01*
X124109600Y-68054000D01*
G75*
G02*
X124184600Y-67979000I75000J0D01*
G01*
X124334600Y-67979000D01*
G75*
G02*
X124409600Y-68054000I0J-75000D01*
G01*
X124409600Y-69504000D01*
G75*
G02*
X124334600Y-69579000I-75000J0D01*
G01*
G37*
G36*
G01*
X123834600Y-69579000D02*
X123684600Y-69579000D01*
G75*
G02*
X123609600Y-69504000I0J75000D01*
G01*
X123609600Y-68054000D01*
G75*
G02*
X123684600Y-67979000I75000J0D01*
G01*
X123834600Y-67979000D01*
G75*
G02*
X123909600Y-68054000I0J-75000D01*
G01*
X123909600Y-69504000D01*
G75*
G02*
X123834600Y-69579000I-75000J0D01*
G01*
G37*
G36*
G01*
X123334600Y-69579000D02*
X123184600Y-69579000D01*
G75*
G02*
X123109600Y-69504000I0J75000D01*
G01*
X123109600Y-68054000D01*
G75*
G02*
X123184600Y-67979000I75000J0D01*
G01*
X123334600Y-67979000D01*
G75*
G02*
X123409600Y-68054000I0J-75000D01*
G01*
X123409600Y-69504000D01*
G75*
G02*
X123334600Y-69579000I-75000J0D01*
G01*
G37*
G36*
G01*
X122834600Y-69579000D02*
X122684600Y-69579000D01*
G75*
G02*
X122609600Y-69504000I0J75000D01*
G01*
X122609600Y-68054000D01*
G75*
G02*
X122684600Y-67979000I75000J0D01*
G01*
X122834600Y-67979000D01*
G75*
G02*
X122909600Y-68054000I0J-75000D01*
G01*
X122909600Y-69504000D01*
G75*
G02*
X122834600Y-69579000I-75000J0D01*
G01*
G37*
G36*
G01*
X122334600Y-69579000D02*
X122184600Y-69579000D01*
G75*
G02*
X122109600Y-69504000I0J75000D01*
G01*
X122109600Y-68054000D01*
G75*
G02*
X122184600Y-67979000I75000J0D01*
G01*
X122334600Y-67979000D01*
G75*
G02*
X122409600Y-68054000I0J-75000D01*
G01*
X122409600Y-69504000D01*
G75*
G02*
X122334600Y-69579000I-75000J0D01*
G01*
G37*
G36*
G01*
X121834600Y-69579000D02*
X121684600Y-69579000D01*
G75*
G02*
X121609600Y-69504000I0J75000D01*
G01*
X121609600Y-68054000D01*
G75*
G02*
X121684600Y-67979000I75000J0D01*
G01*
X121834600Y-67979000D01*
G75*
G02*
X121909600Y-68054000I0J-75000D01*
G01*
X121909600Y-69504000D01*
G75*
G02*
X121834600Y-69579000I-75000J0D01*
G01*
G37*
G36*
G01*
X121334600Y-69579000D02*
X121184600Y-69579000D01*
G75*
G02*
X121109600Y-69504000I0J75000D01*
G01*
X121109600Y-68054000D01*
G75*
G02*
X121184600Y-67979000I75000J0D01*
G01*
X121334600Y-67979000D01*
G75*
G02*
X121409600Y-68054000I0J-75000D01*
G01*
X121409600Y-69504000D01*
G75*
G02*
X121334600Y-69579000I-75000J0D01*
G01*
G37*
G36*
G01*
X120834600Y-69579000D02*
X120684600Y-69579000D01*
G75*
G02*
X120609600Y-69504000I0J75000D01*
G01*
X120609600Y-68054000D01*
G75*
G02*
X120684600Y-67979000I75000J0D01*
G01*
X120834600Y-67979000D01*
G75*
G02*
X120909600Y-68054000I0J-75000D01*
G01*
X120909600Y-69504000D01*
G75*
G02*
X120834600Y-69579000I-75000J0D01*
G01*
G37*
G36*
G01*
X120334600Y-69579000D02*
X120184600Y-69579000D01*
G75*
G02*
X120109600Y-69504000I0J75000D01*
G01*
X120109600Y-68054000D01*
G75*
G02*
X120184600Y-67979000I75000J0D01*
G01*
X120334600Y-67979000D01*
G75*
G02*
X120409600Y-68054000I0J-75000D01*
G01*
X120409600Y-69504000D01*
G75*
G02*
X120334600Y-69579000I-75000J0D01*
G01*
G37*
G36*
G01*
X119834600Y-69579000D02*
X119684600Y-69579000D01*
G75*
G02*
X119609600Y-69504000I0J75000D01*
G01*
X119609600Y-68054000D01*
G75*
G02*
X119684600Y-67979000I75000J0D01*
G01*
X119834600Y-67979000D01*
G75*
G02*
X119909600Y-68054000I0J-75000D01*
G01*
X119909600Y-69504000D01*
G75*
G02*
X119834600Y-69579000I-75000J0D01*
G01*
G37*
G36*
G01*
X119334600Y-69579000D02*
X119184600Y-69579000D01*
G75*
G02*
X119109600Y-69504000I0J75000D01*
G01*
X119109600Y-68054000D01*
G75*
G02*
X119184600Y-67979000I75000J0D01*
G01*
X119334600Y-67979000D01*
G75*
G02*
X119409600Y-68054000I0J-75000D01*
G01*
X119409600Y-69504000D01*
G75*
G02*
X119334600Y-69579000I-75000J0D01*
G01*
G37*
G36*
G01*
X118834600Y-69579000D02*
X118684600Y-69579000D01*
G75*
G02*
X118609600Y-69504000I0J75000D01*
G01*
X118609600Y-68054000D01*
G75*
G02*
X118684600Y-67979000I75000J0D01*
G01*
X118834600Y-67979000D01*
G75*
G02*
X118909600Y-68054000I0J-75000D01*
G01*
X118909600Y-69504000D01*
G75*
G02*
X118834600Y-69579000I-75000J0D01*
G01*
G37*
G36*
G01*
X118334600Y-69579000D02*
X118184600Y-69579000D01*
G75*
G02*
X118109600Y-69504000I0J75000D01*
G01*
X118109600Y-68054000D01*
G75*
G02*
X118184600Y-67979000I75000J0D01*
G01*
X118334600Y-67979000D01*
G75*
G02*
X118409600Y-68054000I0J-75000D01*
G01*
X118409600Y-69504000D01*
G75*
G02*
X118334600Y-69579000I-75000J0D01*
G01*
G37*
G36*
G01*
X117834600Y-69579000D02*
X117684600Y-69579000D01*
G75*
G02*
X117609600Y-69504000I0J75000D01*
G01*
X117609600Y-68054000D01*
G75*
G02*
X117684600Y-67979000I75000J0D01*
G01*
X117834600Y-67979000D01*
G75*
G02*
X117909600Y-68054000I0J-75000D01*
G01*
X117909600Y-69504000D01*
G75*
G02*
X117834600Y-69579000I-75000J0D01*
G01*
G37*
G36*
G01*
X117334600Y-69579000D02*
X117184600Y-69579000D01*
G75*
G02*
X117109600Y-69504000I0J75000D01*
G01*
X117109600Y-68054000D01*
G75*
G02*
X117184600Y-67979000I75000J0D01*
G01*
X117334600Y-67979000D01*
G75*
G02*
X117409600Y-68054000I0J-75000D01*
G01*
X117409600Y-69504000D01*
G75*
G02*
X117334600Y-69579000I-75000J0D01*
G01*
G37*
G36*
G01*
X116834600Y-69579000D02*
X116684600Y-69579000D01*
G75*
G02*
X116609600Y-69504000I0J75000D01*
G01*
X116609600Y-68054000D01*
G75*
G02*
X116684600Y-67979000I75000J0D01*
G01*
X116834600Y-67979000D01*
G75*
G02*
X116909600Y-68054000I0J-75000D01*
G01*
X116909600Y-69504000D01*
G75*
G02*
X116834600Y-69579000I-75000J0D01*
G01*
G37*
G36*
G01*
X116334600Y-69579000D02*
X116184600Y-69579000D01*
G75*
G02*
X116109600Y-69504000I0J75000D01*
G01*
X116109600Y-68054000D01*
G75*
G02*
X116184600Y-67979000I75000J0D01*
G01*
X116334600Y-67979000D01*
G75*
G02*
X116409600Y-68054000I0J-75000D01*
G01*
X116409600Y-69504000D01*
G75*
G02*
X116334600Y-69579000I-75000J0D01*
G01*
G37*
G36*
G01*
X115834600Y-69579000D02*
X115684600Y-69579000D01*
G75*
G02*
X115609600Y-69504000I0J75000D01*
G01*
X115609600Y-68054000D01*
G75*
G02*
X115684600Y-67979000I75000J0D01*
G01*
X115834600Y-67979000D01*
G75*
G02*
X115909600Y-68054000I0J-75000D01*
G01*
X115909600Y-69504000D01*
G75*
G02*
X115834600Y-69579000I-75000J0D01*
G01*
G37*
G36*
G01*
X115334600Y-69579000D02*
X115184600Y-69579000D01*
G75*
G02*
X115109600Y-69504000I0J75000D01*
G01*
X115109600Y-68054000D01*
G75*
G02*
X115184600Y-67979000I75000J0D01*
G01*
X115334600Y-67979000D01*
G75*
G02*
X115409600Y-68054000I0J-75000D01*
G01*
X115409600Y-69504000D01*
G75*
G02*
X115334600Y-69579000I-75000J0D01*
G01*
G37*
G36*
G01*
X114309600Y-70604000D02*
X112859600Y-70604000D01*
G75*
G02*
X112784600Y-70529000I0J75000D01*
G01*
X112784600Y-70379000D01*
G75*
G02*
X112859600Y-70304000I75000J0D01*
G01*
X114309600Y-70304000D01*
G75*
G02*
X114384600Y-70379000I0J-75000D01*
G01*
X114384600Y-70529000D01*
G75*
G02*
X114309600Y-70604000I-75000J0D01*
G01*
G37*
G36*
G01*
X114309600Y-71104000D02*
X112859600Y-71104000D01*
G75*
G02*
X112784600Y-71029000I0J75000D01*
G01*
X112784600Y-70879000D01*
G75*
G02*
X112859600Y-70804000I75000J0D01*
G01*
X114309600Y-70804000D01*
G75*
G02*
X114384600Y-70879000I0J-75000D01*
G01*
X114384600Y-71029000D01*
G75*
G02*
X114309600Y-71104000I-75000J0D01*
G01*
G37*
G36*
G01*
X114309600Y-71604000D02*
X112859600Y-71604000D01*
G75*
G02*
X112784600Y-71529000I0J75000D01*
G01*
X112784600Y-71379000D01*
G75*
G02*
X112859600Y-71304000I75000J0D01*
G01*
X114309600Y-71304000D01*
G75*
G02*
X114384600Y-71379000I0J-75000D01*
G01*
X114384600Y-71529000D01*
G75*
G02*
X114309600Y-71604000I-75000J0D01*
G01*
G37*
G36*
G01*
X114309600Y-72104000D02*
X112859600Y-72104000D01*
G75*
G02*
X112784600Y-72029000I0J75000D01*
G01*
X112784600Y-71879000D01*
G75*
G02*
X112859600Y-71804000I75000J0D01*
G01*
X114309600Y-71804000D01*
G75*
G02*
X114384600Y-71879000I0J-75000D01*
G01*
X114384600Y-72029000D01*
G75*
G02*
X114309600Y-72104000I-75000J0D01*
G01*
G37*
G36*
G01*
X114309600Y-72604000D02*
X112859600Y-72604000D01*
G75*
G02*
X112784600Y-72529000I0J75000D01*
G01*
X112784600Y-72379000D01*
G75*
G02*
X112859600Y-72304000I75000J0D01*
G01*
X114309600Y-72304000D01*
G75*
G02*
X114384600Y-72379000I0J-75000D01*
G01*
X114384600Y-72529000D01*
G75*
G02*
X114309600Y-72604000I-75000J0D01*
G01*
G37*
G36*
G01*
X114309600Y-73104000D02*
X112859600Y-73104000D01*
G75*
G02*
X112784600Y-73029000I0J75000D01*
G01*
X112784600Y-72879000D01*
G75*
G02*
X112859600Y-72804000I75000J0D01*
G01*
X114309600Y-72804000D01*
G75*
G02*
X114384600Y-72879000I0J-75000D01*
G01*
X114384600Y-73029000D01*
G75*
G02*
X114309600Y-73104000I-75000J0D01*
G01*
G37*
G36*
G01*
X114309600Y-73604000D02*
X112859600Y-73604000D01*
G75*
G02*
X112784600Y-73529000I0J75000D01*
G01*
X112784600Y-73379000D01*
G75*
G02*
X112859600Y-73304000I75000J0D01*
G01*
X114309600Y-73304000D01*
G75*
G02*
X114384600Y-73379000I0J-75000D01*
G01*
X114384600Y-73529000D01*
G75*
G02*
X114309600Y-73604000I-75000J0D01*
G01*
G37*
G36*
G01*
X114309600Y-74104000D02*
X112859600Y-74104000D01*
G75*
G02*
X112784600Y-74029000I0J75000D01*
G01*
X112784600Y-73879000D01*
G75*
G02*
X112859600Y-73804000I75000J0D01*
G01*
X114309600Y-73804000D01*
G75*
G02*
X114384600Y-73879000I0J-75000D01*
G01*
X114384600Y-74029000D01*
G75*
G02*
X114309600Y-74104000I-75000J0D01*
G01*
G37*
G36*
G01*
X114309600Y-74604000D02*
X112859600Y-74604000D01*
G75*
G02*
X112784600Y-74529000I0J75000D01*
G01*
X112784600Y-74379000D01*
G75*
G02*
X112859600Y-74304000I75000J0D01*
G01*
X114309600Y-74304000D01*
G75*
G02*
X114384600Y-74379000I0J-75000D01*
G01*
X114384600Y-74529000D01*
G75*
G02*
X114309600Y-74604000I-75000J0D01*
G01*
G37*
G36*
G01*
X114309600Y-75104000D02*
X112859600Y-75104000D01*
G75*
G02*
X112784600Y-75029000I0J75000D01*
G01*
X112784600Y-74879000D01*
G75*
G02*
X112859600Y-74804000I75000J0D01*
G01*
X114309600Y-74804000D01*
G75*
G02*
X114384600Y-74879000I0J-75000D01*
G01*
X114384600Y-75029000D01*
G75*
G02*
X114309600Y-75104000I-75000J0D01*
G01*
G37*
G36*
G01*
X114309600Y-75604000D02*
X112859600Y-75604000D01*
G75*
G02*
X112784600Y-75529000I0J75000D01*
G01*
X112784600Y-75379000D01*
G75*
G02*
X112859600Y-75304000I75000J0D01*
G01*
X114309600Y-75304000D01*
G75*
G02*
X114384600Y-75379000I0J-75000D01*
G01*
X114384600Y-75529000D01*
G75*
G02*
X114309600Y-75604000I-75000J0D01*
G01*
G37*
G36*
G01*
X114309600Y-76104000D02*
X112859600Y-76104000D01*
G75*
G02*
X112784600Y-76029000I0J75000D01*
G01*
X112784600Y-75879000D01*
G75*
G02*
X112859600Y-75804000I75000J0D01*
G01*
X114309600Y-75804000D01*
G75*
G02*
X114384600Y-75879000I0J-75000D01*
G01*
X114384600Y-76029000D01*
G75*
G02*
X114309600Y-76104000I-75000J0D01*
G01*
G37*
G36*
G01*
X114309600Y-76604000D02*
X112859600Y-76604000D01*
G75*
G02*
X112784600Y-76529000I0J75000D01*
G01*
X112784600Y-76379000D01*
G75*
G02*
X112859600Y-76304000I75000J0D01*
G01*
X114309600Y-76304000D01*
G75*
G02*
X114384600Y-76379000I0J-75000D01*
G01*
X114384600Y-76529000D01*
G75*
G02*
X114309600Y-76604000I-75000J0D01*
G01*
G37*
G36*
G01*
X114309600Y-77104000D02*
X112859600Y-77104000D01*
G75*
G02*
X112784600Y-77029000I0J75000D01*
G01*
X112784600Y-76879000D01*
G75*
G02*
X112859600Y-76804000I75000J0D01*
G01*
X114309600Y-76804000D01*
G75*
G02*
X114384600Y-76879000I0J-75000D01*
G01*
X114384600Y-77029000D01*
G75*
G02*
X114309600Y-77104000I-75000J0D01*
G01*
G37*
G36*
G01*
X114309600Y-77604000D02*
X112859600Y-77604000D01*
G75*
G02*
X112784600Y-77529000I0J75000D01*
G01*
X112784600Y-77379000D01*
G75*
G02*
X112859600Y-77304000I75000J0D01*
G01*
X114309600Y-77304000D01*
G75*
G02*
X114384600Y-77379000I0J-75000D01*
G01*
X114384600Y-77529000D01*
G75*
G02*
X114309600Y-77604000I-75000J0D01*
G01*
G37*
G36*
G01*
X114309600Y-78104000D02*
X112859600Y-78104000D01*
G75*
G02*
X112784600Y-78029000I0J75000D01*
G01*
X112784600Y-77879000D01*
G75*
G02*
X112859600Y-77804000I75000J0D01*
G01*
X114309600Y-77804000D01*
G75*
G02*
X114384600Y-77879000I0J-75000D01*
G01*
X114384600Y-78029000D01*
G75*
G02*
X114309600Y-78104000I-75000J0D01*
G01*
G37*
G36*
G01*
X114309600Y-78604000D02*
X112859600Y-78604000D01*
G75*
G02*
X112784600Y-78529000I0J75000D01*
G01*
X112784600Y-78379000D01*
G75*
G02*
X112859600Y-78304000I75000J0D01*
G01*
X114309600Y-78304000D01*
G75*
G02*
X114384600Y-78379000I0J-75000D01*
G01*
X114384600Y-78529000D01*
G75*
G02*
X114309600Y-78604000I-75000J0D01*
G01*
G37*
G36*
G01*
X114309600Y-79104000D02*
X112859600Y-79104000D01*
G75*
G02*
X112784600Y-79029000I0J75000D01*
G01*
X112784600Y-78879000D01*
G75*
G02*
X112859600Y-78804000I75000J0D01*
G01*
X114309600Y-78804000D01*
G75*
G02*
X114384600Y-78879000I0J-75000D01*
G01*
X114384600Y-79029000D01*
G75*
G02*
X114309600Y-79104000I-75000J0D01*
G01*
G37*
G36*
G01*
X114309600Y-79604000D02*
X112859600Y-79604000D01*
G75*
G02*
X112784600Y-79529000I0J75000D01*
G01*
X112784600Y-79379000D01*
G75*
G02*
X112859600Y-79304000I75000J0D01*
G01*
X114309600Y-79304000D01*
G75*
G02*
X114384600Y-79379000I0J-75000D01*
G01*
X114384600Y-79529000D01*
G75*
G02*
X114309600Y-79604000I-75000J0D01*
G01*
G37*
G36*
G01*
X114309600Y-80104000D02*
X112859600Y-80104000D01*
G75*
G02*
X112784600Y-80029000I0J75000D01*
G01*
X112784600Y-79879000D01*
G75*
G02*
X112859600Y-79804000I75000J0D01*
G01*
X114309600Y-79804000D01*
G75*
G02*
X114384600Y-79879000I0J-75000D01*
G01*
X114384600Y-80029000D01*
G75*
G02*
X114309600Y-80104000I-75000J0D01*
G01*
G37*
G36*
G01*
X114309600Y-80604000D02*
X112859600Y-80604000D01*
G75*
G02*
X112784600Y-80529000I0J75000D01*
G01*
X112784600Y-80379000D01*
G75*
G02*
X112859600Y-80304000I75000J0D01*
G01*
X114309600Y-80304000D01*
G75*
G02*
X114384600Y-80379000I0J-75000D01*
G01*
X114384600Y-80529000D01*
G75*
G02*
X114309600Y-80604000I-75000J0D01*
G01*
G37*
G36*
G01*
X114309600Y-81104000D02*
X112859600Y-81104000D01*
G75*
G02*
X112784600Y-81029000I0J75000D01*
G01*
X112784600Y-80879000D01*
G75*
G02*
X112859600Y-80804000I75000J0D01*
G01*
X114309600Y-80804000D01*
G75*
G02*
X114384600Y-80879000I0J-75000D01*
G01*
X114384600Y-81029000D01*
G75*
G02*
X114309600Y-81104000I-75000J0D01*
G01*
G37*
G36*
G01*
X114309600Y-81604000D02*
X112859600Y-81604000D01*
G75*
G02*
X112784600Y-81529000I0J75000D01*
G01*
X112784600Y-81379000D01*
G75*
G02*
X112859600Y-81304000I75000J0D01*
G01*
X114309600Y-81304000D01*
G75*
G02*
X114384600Y-81379000I0J-75000D01*
G01*
X114384600Y-81529000D01*
G75*
G02*
X114309600Y-81604000I-75000J0D01*
G01*
G37*
G36*
G01*
X114309600Y-82104000D02*
X112859600Y-82104000D01*
G75*
G02*
X112784600Y-82029000I0J75000D01*
G01*
X112784600Y-81879000D01*
G75*
G02*
X112859600Y-81804000I75000J0D01*
G01*
X114309600Y-81804000D01*
G75*
G02*
X114384600Y-81879000I0J-75000D01*
G01*
X114384600Y-82029000D01*
G75*
G02*
X114309600Y-82104000I-75000J0D01*
G01*
G37*
G36*
G01*
X114309600Y-82604000D02*
X112859600Y-82604000D01*
G75*
G02*
X112784600Y-82529000I0J75000D01*
G01*
X112784600Y-82379000D01*
G75*
G02*
X112859600Y-82304000I75000J0D01*
G01*
X114309600Y-82304000D01*
G75*
G02*
X114384600Y-82379000I0J-75000D01*
G01*
X114384600Y-82529000D01*
G75*
G02*
X114309600Y-82604000I-75000J0D01*
G01*
G37*
%TD*%
D16*
%TO.C,GPS*%
X114509600Y-63372000D03*
X116009600Y-63372000D03*
X117509600Y-63372000D03*
X119009600Y-63372000D03*
X120509600Y-63372000D03*
X122009600Y-63372000D03*
X123509600Y-63372000D03*
X125009600Y-63372000D03*
X126509600Y-63372000D03*
X128009600Y-63372000D03*
X128009600Y-47372000D03*
X126509600Y-47372000D03*
X125009600Y-47372000D03*
X123509600Y-47372000D03*
X122009600Y-47372000D03*
X120509600Y-47372000D03*
X119009600Y-47372000D03*
X117509600Y-47372000D03*
X116009600Y-47372000D03*
X114509600Y-47372000D03*
%TD*%
D17*
%TO.C,RADIO*%
X134341600Y-76058000D03*
X134341600Y-78058000D03*
X134341600Y-80058000D03*
X134341600Y-82058000D03*
X134341600Y-84058000D03*
X134341600Y-86058000D03*
X134341600Y-88058000D03*
X134341600Y-90058000D03*
X150341600Y-90058000D03*
X150341600Y-88058000D03*
X150341600Y-86058000D03*
X150341600Y-84058000D03*
X150341600Y-82058000D03*
X150341600Y-80058000D03*
X150341600Y-78058000D03*
X150341600Y-76058000D03*
%TD*%
%TO.C,V_REG*%
G36*
G01*
X112448200Y-90682400D02*
X112748200Y-90682400D01*
G75*
G02*
X112898200Y-90832400I0J-150000D01*
G01*
X112898200Y-92482400D01*
G75*
G02*
X112748200Y-92632400I-150000J0D01*
G01*
X112448200Y-92632400D01*
G75*
G02*
X112298200Y-92482400I0J150000D01*
G01*
X112298200Y-90832400D01*
G75*
G02*
X112448200Y-90682400I150000J0D01*
G01*
G37*
G36*
G01*
X111178200Y-90682400D02*
X111478200Y-90682400D01*
G75*
G02*
X111628200Y-90832400I0J-150000D01*
G01*
X111628200Y-92482400D01*
G75*
G02*
X111478200Y-92632400I-150000J0D01*
G01*
X111178200Y-92632400D01*
G75*
G02*
X111028200Y-92482400I0J150000D01*
G01*
X111028200Y-90832400D01*
G75*
G02*
X111178200Y-90682400I150000J0D01*
G01*
G37*
G36*
G01*
X109908200Y-90682400D02*
X110208200Y-90682400D01*
G75*
G02*
X110358200Y-90832400I0J-150000D01*
G01*
X110358200Y-92482400D01*
G75*
G02*
X110208200Y-92632400I-150000J0D01*
G01*
X109908200Y-92632400D01*
G75*
G02*
X109758200Y-92482400I0J150000D01*
G01*
X109758200Y-90832400D01*
G75*
G02*
X109908200Y-90682400I150000J0D01*
G01*
G37*
G36*
G01*
X108638200Y-90682400D02*
X108938200Y-90682400D01*
G75*
G02*
X109088200Y-90832400I0J-150000D01*
G01*
X109088200Y-92482400D01*
G75*
G02*
X108938200Y-92632400I-150000J0D01*
G01*
X108638200Y-92632400D01*
G75*
G02*
X108488200Y-92482400I0J150000D01*
G01*
X108488200Y-90832400D01*
G75*
G02*
X108638200Y-90682400I150000J0D01*
G01*
G37*
G36*
G01*
X108638200Y-95632400D02*
X108938200Y-95632400D01*
G75*
G02*
X109088200Y-95782400I0J-150000D01*
G01*
X109088200Y-97432400D01*
G75*
G02*
X108938200Y-97582400I-150000J0D01*
G01*
X108638200Y-97582400D01*
G75*
G02*
X108488200Y-97432400I0J150000D01*
G01*
X108488200Y-95782400D01*
G75*
G02*
X108638200Y-95632400I150000J0D01*
G01*
G37*
G36*
G01*
X109908200Y-95632400D02*
X110208200Y-95632400D01*
G75*
G02*
X110358200Y-95782400I0J-150000D01*
G01*
X110358200Y-97432400D01*
G75*
G02*
X110208200Y-97582400I-150000J0D01*
G01*
X109908200Y-97582400D01*
G75*
G02*
X109758200Y-97432400I0J150000D01*
G01*
X109758200Y-95782400D01*
G75*
G02*
X109908200Y-95632400I150000J0D01*
G01*
G37*
G36*
G01*
X111178200Y-95632400D02*
X111478200Y-95632400D01*
G75*
G02*
X111628200Y-95782400I0J-150000D01*
G01*
X111628200Y-97432400D01*
G75*
G02*
X111478200Y-97582400I-150000J0D01*
G01*
X111178200Y-97582400D01*
G75*
G02*
X111028200Y-97432400I0J150000D01*
G01*
X111028200Y-95782400D01*
G75*
G02*
X111178200Y-95632400I150000J0D01*
G01*
G37*
G36*
G01*
X112448200Y-95632400D02*
X112748200Y-95632400D01*
G75*
G02*
X112898200Y-95782400I0J-150000D01*
G01*
X112898200Y-97432400D01*
G75*
G02*
X112748200Y-97582400I-150000J0D01*
G01*
X112448200Y-97582400D01*
G75*
G02*
X112298200Y-97432400I0J150000D01*
G01*
X112298200Y-95782400D01*
G75*
G02*
X112448200Y-95632400I150000J0D01*
G01*
G37*
%TD*%
M02*
