%TF.GenerationSoftware,KiCad,Pcbnew,(5.1.7)-1*%
%TF.CreationDate,2020-10-23T17:33:59-04:00*%
%TF.ProjectId,final_schematic,66696e61-6c5f-4736-9368-656d61746963,3*%
%TF.SameCoordinates,Original*%
%TF.FileFunction,Legend,Top*%
%TF.FilePolarity,Positive*%
%FSLAX46Y46*%
G04 Gerber Fmt 4.6, Leading zero omitted, Abs format (unit mm)*
G04 Created by KiCad (PCBNEW (5.1.7)-1) date 2020-10-23 17:33:59*
%MOMM*%
%LPD*%
G01*
G04 APERTURE LIST*
%ADD10C,0.150000*%
%ADD11C,0.125000*%
%ADD12C,0.250000*%
%ADD13C,0.120000*%
%ADD14C,0.010000*%
%ADD15C,0.200000*%
%ADD16C,0.127000*%
%ADD17C,0.203200*%
%ADD18C,0.100000*%
%ADD19C,0.015000*%
%ADD20C,0.144780*%
%ADD21C,0.077216*%
G04 APERTURE END LIST*
D10*
X146868162Y-56896000D02*
G75*
G03*
X146868162Y-56896000I-183162J0D01*
G01*
D11*
X102155785Y-84860580D02*
X102227214Y-84884390D01*
X102346261Y-84884390D01*
X102393880Y-84860580D01*
X102417690Y-84836771D01*
X102441500Y-84789152D01*
X102441500Y-84741533D01*
X102417690Y-84693914D01*
X102393880Y-84670104D01*
X102346261Y-84646295D01*
X102251023Y-84622485D01*
X102203404Y-84598676D01*
X102179595Y-84574866D01*
X102155785Y-84527247D01*
X102155785Y-84479628D01*
X102179595Y-84432009D01*
X102203404Y-84408200D01*
X102251023Y-84384390D01*
X102370071Y-84384390D01*
X102441500Y-84408200D01*
X102751023Y-84646295D02*
X102751023Y-84884390D01*
X102584357Y-84384390D02*
X102751023Y-84646295D01*
X102917690Y-84384390D01*
X103060547Y-84860580D02*
X103131976Y-84884390D01*
X103251023Y-84884390D01*
X103298642Y-84860580D01*
X103322452Y-84836771D01*
X103346261Y-84789152D01*
X103346261Y-84741533D01*
X103322452Y-84693914D01*
X103298642Y-84670104D01*
X103251023Y-84646295D01*
X103155785Y-84622485D01*
X103108166Y-84598676D01*
X103084357Y-84574866D01*
X103060547Y-84527247D01*
X103060547Y-84479628D01*
X103084357Y-84432009D01*
X103108166Y-84408200D01*
X103155785Y-84384390D01*
X103274833Y-84384390D01*
X103346261Y-84408200D01*
X103655785Y-84384390D02*
X103751023Y-84384390D01*
X103798642Y-84408200D01*
X103846261Y-84455819D01*
X103870071Y-84551057D01*
X103870071Y-84717723D01*
X103846261Y-84812961D01*
X103798642Y-84860580D01*
X103751023Y-84884390D01*
X103655785Y-84884390D01*
X103608166Y-84860580D01*
X103560547Y-84812961D01*
X103536738Y-84717723D01*
X103536738Y-84551057D01*
X103560547Y-84455819D01*
X103608166Y-84408200D01*
X103655785Y-84384390D01*
X104251023Y-84622485D02*
X104084357Y-84622485D01*
X104084357Y-84884390D02*
X104084357Y-84384390D01*
X104322452Y-84384390D01*
X104679595Y-84622485D02*
X104512928Y-84622485D01*
X104512928Y-84884390D02*
X104512928Y-84384390D01*
X104751023Y-84384390D01*
X106660647Y-76836209D02*
X106660647Y-76328209D01*
X106878361Y-76376590D02*
X106902552Y-76352400D01*
X106950933Y-76328209D01*
X107071885Y-76328209D01*
X107120266Y-76352400D01*
X107144457Y-76376590D01*
X107168647Y-76424971D01*
X107168647Y-76473352D01*
X107144457Y-76545923D01*
X106854171Y-76836209D01*
X107168647Y-76836209D01*
X107676647Y-76787828D02*
X107652457Y-76812019D01*
X107579885Y-76836209D01*
X107531504Y-76836209D01*
X107458933Y-76812019D01*
X107410552Y-76763638D01*
X107386361Y-76715257D01*
X107362171Y-76618495D01*
X107362171Y-76545923D01*
X107386361Y-76449161D01*
X107410552Y-76400780D01*
X107458933Y-76352400D01*
X107531504Y-76328209D01*
X107579885Y-76328209D01*
X107652457Y-76352400D01*
X107676647Y-76376590D01*
X108160457Y-76836209D02*
X107870171Y-76836209D01*
X108015314Y-76836209D02*
X108015314Y-76328209D01*
X107966933Y-76400780D01*
X107918552Y-76449161D01*
X107870171Y-76473352D01*
X108257219Y-76884590D02*
X108644266Y-76884590D01*
X108741028Y-76812019D02*
X108813600Y-76836209D01*
X108934552Y-76836209D01*
X108982933Y-76812019D01*
X109007123Y-76787828D01*
X109031314Y-76739447D01*
X109031314Y-76691066D01*
X109007123Y-76642685D01*
X108982933Y-76618495D01*
X108934552Y-76594304D01*
X108837790Y-76570114D01*
X108789409Y-76545923D01*
X108765219Y-76521733D01*
X108741028Y-76473352D01*
X108741028Y-76424971D01*
X108765219Y-76376590D01*
X108789409Y-76352400D01*
X108837790Y-76328209D01*
X108958742Y-76328209D01*
X109031314Y-76352400D01*
X109249028Y-76836209D02*
X109249028Y-76328209D01*
X109369980Y-76328209D01*
X109442552Y-76352400D01*
X109490933Y-76400780D01*
X109515123Y-76449161D01*
X109539314Y-76545923D01*
X109539314Y-76618495D01*
X109515123Y-76715257D01*
X109490933Y-76763638D01*
X109442552Y-76812019D01*
X109369980Y-76836209D01*
X109249028Y-76836209D01*
X109732838Y-76691066D02*
X109974742Y-76691066D01*
X109684457Y-76836209D02*
X109853790Y-76328209D01*
X110023123Y-76836209D01*
X106638876Y-75324909D02*
X106953352Y-75324909D01*
X106784019Y-75518433D01*
X106856590Y-75518433D01*
X106904971Y-75542623D01*
X106929162Y-75566814D01*
X106953352Y-75615195D01*
X106953352Y-75736147D01*
X106929162Y-75784528D01*
X106904971Y-75808719D01*
X106856590Y-75832909D01*
X106711448Y-75832909D01*
X106663067Y-75808719D01*
X106638876Y-75784528D01*
X107098495Y-75324909D02*
X107267829Y-75832909D01*
X107437162Y-75324909D01*
X107558114Y-75324909D02*
X107872590Y-75324909D01*
X107703257Y-75518433D01*
X107775829Y-75518433D01*
X107824209Y-75542623D01*
X107848400Y-75566814D01*
X107872590Y-75615195D01*
X107872590Y-75736147D01*
X107848400Y-75784528D01*
X107824209Y-75808719D01*
X107775829Y-75832909D01*
X107630686Y-75832909D01*
X107582305Y-75808719D01*
X107558114Y-75784528D01*
X106953352Y-74358500D02*
X106904971Y-74334309D01*
X106832400Y-74334309D01*
X106759828Y-74358500D01*
X106711447Y-74406880D01*
X106687257Y-74455261D01*
X106663066Y-74552023D01*
X106663066Y-74624595D01*
X106687257Y-74721357D01*
X106711447Y-74769738D01*
X106759828Y-74818119D01*
X106832400Y-74842309D01*
X106880780Y-74842309D01*
X106953352Y-74818119D01*
X106977542Y-74793928D01*
X106977542Y-74624595D01*
X106880780Y-74624595D01*
X107195257Y-74842309D02*
X107195257Y-74334309D01*
X107485542Y-74842309D01*
X107485542Y-74334309D01*
X107727447Y-74842309D02*
X107727447Y-74334309D01*
X107848400Y-74334309D01*
X107920971Y-74358500D01*
X107969352Y-74406880D01*
X107993542Y-74455261D01*
X108017733Y-74552023D01*
X108017733Y-74624595D01*
X107993542Y-74721357D01*
X107969352Y-74769738D01*
X107920971Y-74818119D01*
X107848400Y-74842309D01*
X107727447Y-74842309D01*
X103257652Y-68684019D02*
X103330223Y-68708209D01*
X103451176Y-68708209D01*
X103499557Y-68684019D01*
X103523747Y-68659828D01*
X103547938Y-68611447D01*
X103547938Y-68563066D01*
X103523747Y-68514685D01*
X103499557Y-68490495D01*
X103451176Y-68466304D01*
X103354414Y-68442114D01*
X103306033Y-68417923D01*
X103281842Y-68393733D01*
X103257652Y-68345352D01*
X103257652Y-68296971D01*
X103281842Y-68248590D01*
X103306033Y-68224400D01*
X103354414Y-68200209D01*
X103475366Y-68200209D01*
X103547938Y-68224400D01*
X103717271Y-68200209D02*
X103838223Y-68708209D01*
X103934985Y-68345352D01*
X104031747Y-68708209D01*
X104152700Y-68200209D01*
X104636509Y-68659828D02*
X104612319Y-68684019D01*
X104539747Y-68708209D01*
X104491366Y-68708209D01*
X104418795Y-68684019D01*
X104370414Y-68635638D01*
X104346223Y-68587257D01*
X104322033Y-68490495D01*
X104322033Y-68417923D01*
X104346223Y-68321161D01*
X104370414Y-68272780D01*
X104418795Y-68224400D01*
X104491366Y-68200209D01*
X104539747Y-68200209D01*
X104612319Y-68224400D01*
X104636509Y-68248590D01*
X105096128Y-68708209D02*
X104854223Y-68708209D01*
X104854223Y-68200209D01*
X105265461Y-68708209D02*
X105265461Y-68200209D01*
X105555747Y-68708209D02*
X105338033Y-68417923D01*
X105555747Y-68200209D02*
X105265461Y-68490495D01*
X103259466Y-66144019D02*
X103332038Y-66168209D01*
X103452990Y-66168209D01*
X103501371Y-66144019D01*
X103525562Y-66119828D01*
X103549752Y-66071447D01*
X103549752Y-66023066D01*
X103525562Y-65974685D01*
X103501371Y-65950495D01*
X103452990Y-65926304D01*
X103356228Y-65902114D01*
X103307847Y-65877923D01*
X103283657Y-65853733D01*
X103259466Y-65805352D01*
X103259466Y-65756971D01*
X103283657Y-65708590D01*
X103307847Y-65684400D01*
X103356228Y-65660209D01*
X103477181Y-65660209D01*
X103549752Y-65684400D01*
X103719085Y-65660209D02*
X103840038Y-66168209D01*
X103936800Y-65805352D01*
X104033562Y-66168209D01*
X104154514Y-65660209D01*
X104348038Y-66168209D02*
X104348038Y-65660209D01*
X104468990Y-65660209D01*
X104541562Y-65684400D01*
X104589943Y-65732780D01*
X104614133Y-65781161D01*
X104638323Y-65877923D01*
X104638323Y-65950495D01*
X104614133Y-66047257D01*
X104589943Y-66095638D01*
X104541562Y-66144019D01*
X104468990Y-66168209D01*
X104348038Y-66168209D01*
X104856038Y-66168209D02*
X104856038Y-65660209D01*
X105194704Y-65660209D02*
X105291466Y-65660209D01*
X105339847Y-65684400D01*
X105388228Y-65732780D01*
X105412419Y-65829542D01*
X105412419Y-65998876D01*
X105388228Y-66095638D01*
X105339847Y-66144019D01*
X105291466Y-66168209D01*
X105194704Y-66168209D01*
X105146323Y-66144019D01*
X105097943Y-66095638D01*
X105073752Y-65998876D01*
X105073752Y-65829542D01*
X105097943Y-65732780D01*
X105146323Y-65684400D01*
X105194704Y-65660209D01*
X103235276Y-63094809D02*
X103549752Y-63094809D01*
X103380419Y-63288333D01*
X103452990Y-63288333D01*
X103501371Y-63312523D01*
X103525562Y-63336714D01*
X103549752Y-63385095D01*
X103549752Y-63506047D01*
X103525562Y-63554428D01*
X103501371Y-63578619D01*
X103452990Y-63602809D01*
X103307848Y-63602809D01*
X103259467Y-63578619D01*
X103235276Y-63554428D01*
X103694895Y-63094809D02*
X103864229Y-63602809D01*
X104033562Y-63094809D01*
X104154514Y-63094809D02*
X104468990Y-63094809D01*
X104299657Y-63288333D01*
X104372229Y-63288333D01*
X104420609Y-63312523D01*
X104444800Y-63336714D01*
X104468990Y-63385095D01*
X104468990Y-63506047D01*
X104444800Y-63554428D01*
X104420609Y-63578619D01*
X104372229Y-63602809D01*
X104227086Y-63602809D01*
X104178705Y-63578619D01*
X104154514Y-63554428D01*
X103549752Y-58039000D02*
X103501371Y-58014809D01*
X103428800Y-58014809D01*
X103356228Y-58039000D01*
X103307847Y-58087380D01*
X103283657Y-58135761D01*
X103259466Y-58232523D01*
X103259466Y-58305095D01*
X103283657Y-58401857D01*
X103307847Y-58450238D01*
X103356228Y-58498619D01*
X103428800Y-58522809D01*
X103477180Y-58522809D01*
X103549752Y-58498619D01*
X103573942Y-58474428D01*
X103573942Y-58305095D01*
X103477180Y-58305095D01*
X103791657Y-58522809D02*
X103791657Y-58014809D01*
X104081942Y-58522809D01*
X104081942Y-58014809D01*
X104323847Y-58522809D02*
X104323847Y-58014809D01*
X104444800Y-58014809D01*
X104517371Y-58039000D01*
X104565752Y-58087380D01*
X104589942Y-58135761D01*
X104614133Y-58232523D01*
X104614133Y-58305095D01*
X104589942Y-58401857D01*
X104565752Y-58450238D01*
X104517371Y-58498619D01*
X104444800Y-58522809D01*
X104323847Y-58522809D01*
D10*
X111779085Y-59603871D02*
X112350514Y-59603871D01*
X112064800Y-59889585D02*
X112064800Y-59318157D01*
X145776985Y-73980271D02*
X146348414Y-73980271D01*
X146062700Y-74265985D02*
X146062700Y-73694557D01*
X130677000Y-55504442D02*
X130712714Y-55433014D01*
X130712714Y-55325871D01*
X130677000Y-55218728D01*
X130605571Y-55147300D01*
X130534142Y-55111585D01*
X130391285Y-55075871D01*
X130284142Y-55075871D01*
X130141285Y-55111585D01*
X130069857Y-55147300D01*
X129998428Y-55218728D01*
X129962714Y-55325871D01*
X129962714Y-55397300D01*
X129998428Y-55504442D01*
X130034142Y-55540157D01*
X130284142Y-55540157D01*
X130284142Y-55397300D01*
X129962714Y-55861585D02*
X130712714Y-55861585D01*
X130712714Y-56147300D01*
X130677000Y-56218728D01*
X130641285Y-56254442D01*
X130569857Y-56290157D01*
X130462714Y-56290157D01*
X130391285Y-56254442D01*
X130355571Y-56218728D01*
X130319857Y-56147300D01*
X130319857Y-55861585D01*
X129998428Y-56575871D02*
X129962714Y-56683014D01*
X129962714Y-56861585D01*
X129998428Y-56933014D01*
X130034142Y-56968728D01*
X130105571Y-57004442D01*
X130177000Y-57004442D01*
X130248428Y-56968728D01*
X130284142Y-56933014D01*
X130319857Y-56861585D01*
X130355571Y-56718728D01*
X130391285Y-56647300D01*
X130427000Y-56611585D01*
X130498428Y-56575871D01*
X130569857Y-56575871D01*
X130641285Y-56611585D01*
X130677000Y-56647300D01*
X130712714Y-56718728D01*
X130712714Y-56897300D01*
X130677000Y-57004442D01*
X129891285Y-57147300D02*
X129891285Y-57718728D01*
X130034142Y-58325871D02*
X129998428Y-58290157D01*
X129962714Y-58183014D01*
X129962714Y-58111585D01*
X129998428Y-58004442D01*
X130069857Y-57933014D01*
X130141285Y-57897300D01*
X130284142Y-57861585D01*
X130391285Y-57861585D01*
X130534142Y-57897300D01*
X130605571Y-57933014D01*
X130677000Y-58004442D01*
X130712714Y-58111585D01*
X130712714Y-58183014D01*
X130677000Y-58290157D01*
X130641285Y-58325871D01*
X130712714Y-58790157D02*
X130712714Y-58933014D01*
X130677000Y-59004442D01*
X130605571Y-59075871D01*
X130462714Y-59111585D01*
X130212714Y-59111585D01*
X130069857Y-59075871D01*
X129998428Y-59004442D01*
X129962714Y-58933014D01*
X129962714Y-58790157D01*
X129998428Y-58718728D01*
X130069857Y-58647300D01*
X130212714Y-58611585D01*
X130462714Y-58611585D01*
X130605571Y-58647300D01*
X130677000Y-58718728D01*
X130712714Y-58790157D01*
X130177000Y-59397300D02*
X130177000Y-59754442D01*
X129962714Y-59325871D02*
X130712714Y-59575871D01*
X129962714Y-59825871D01*
X130712714Y-60004442D02*
X129962714Y-60504442D01*
X130712714Y-60504442D02*
X129962714Y-60004442D01*
X113599524Y-63906400D02*
G75*
G03*
X113599524Y-63906400I-183162J0D01*
G01*
X132943600Y-75133200D02*
G75*
G03*
X132943600Y-75133200I-183162J0D01*
G01*
X141356362Y-99039962D02*
G75*
G03*
X141356362Y-99039962I-183162J0D01*
G01*
X125303562Y-100045238D02*
G75*
G03*
X125303562Y-100045238I-183162J0D01*
G01*
X110419162Y-101549200D02*
G75*
G03*
X110419162Y-101549200I-183162J0D01*
G01*
X99938840Y-99146360D02*
G75*
G03*
X99938840Y-99146360I-183162J0D01*
G01*
X115397562Y-85547200D02*
G75*
G03*
X115397562Y-85547200I-183162J0D01*
G01*
X104094562Y-73609200D02*
G75*
G03*
X104094562Y-73609200I-183162J0D01*
G01*
D12*
X135494780Y-105036880D02*
X135161447Y-104560690D01*
X134923352Y-105036880D02*
X134923352Y-104036880D01*
X135304304Y-104036880D01*
X135399542Y-104084500D01*
X135447161Y-104132119D01*
X135494780Y-104227357D01*
X135494780Y-104370214D01*
X135447161Y-104465452D01*
X135399542Y-104513071D01*
X135304304Y-104560690D01*
X134923352Y-104560690D01*
X135875733Y-104989261D02*
X136018590Y-105036880D01*
X136256685Y-105036880D01*
X136351923Y-104989261D01*
X136399542Y-104941642D01*
X136447161Y-104846404D01*
X136447161Y-104751166D01*
X136399542Y-104655928D01*
X136351923Y-104608309D01*
X136256685Y-104560690D01*
X136066209Y-104513071D01*
X135970971Y-104465452D01*
X135923352Y-104417833D01*
X135875733Y-104322595D01*
X135875733Y-104227357D01*
X135923352Y-104132119D01*
X135970971Y-104084500D01*
X136066209Y-104036880D01*
X136304304Y-104036880D01*
X136447161Y-104084500D01*
X136732876Y-104036880D02*
X137304304Y-104036880D01*
X137018590Y-105036880D02*
X137018590Y-104036880D01*
X117970419Y-99858580D02*
X118160895Y-99858580D01*
X118256133Y-99906200D01*
X118351371Y-100001438D01*
X118398990Y-100191914D01*
X118398990Y-100525247D01*
X118351371Y-100715723D01*
X118256133Y-100810961D01*
X118160895Y-100858580D01*
X117970419Y-100858580D01*
X117875180Y-100810961D01*
X117779942Y-100715723D01*
X117732323Y-100525247D01*
X117732323Y-100191914D01*
X117779942Y-100001438D01*
X117875180Y-99906200D01*
X117970419Y-99858580D01*
X119160895Y-100334771D02*
X118827561Y-100334771D01*
X118827561Y-100858580D02*
X118827561Y-99858580D01*
X119303752Y-99858580D01*
X120018038Y-100334771D02*
X119684704Y-100334771D01*
X119684704Y-100858580D02*
X119684704Y-99858580D01*
X120160895Y-99858580D01*
X109616952Y-99820480D02*
X109807428Y-99820480D01*
X109902666Y-99868100D01*
X109997904Y-99963338D01*
X110045523Y-100153814D01*
X110045523Y-100487147D01*
X109997904Y-100677623D01*
X109902666Y-100772861D01*
X109807428Y-100820480D01*
X109616952Y-100820480D01*
X109521714Y-100772861D01*
X109426476Y-100677623D01*
X109378857Y-100487147D01*
X109378857Y-100153814D01*
X109426476Y-99963338D01*
X109521714Y-99868100D01*
X109616952Y-99820480D01*
X110474095Y-100820480D02*
X110474095Y-99820480D01*
X111045523Y-100820480D01*
X111045523Y-99820480D01*
D13*
%TO.C,PROG*%
X99736600Y-56963000D02*
X101066600Y-56963000D01*
X99736600Y-58293000D02*
X99736600Y-56963000D01*
X99736600Y-59563000D02*
X102396600Y-59563000D01*
X102396600Y-59563000D02*
X102396600Y-69783000D01*
X99736600Y-59563000D02*
X99736600Y-69783000D01*
X99736600Y-69783000D02*
X102396600Y-69783000D01*
%TO.C,OLED Qwiic*%
X100834200Y-73013800D02*
X103334200Y-73013800D01*
X103334200Y-73013800D02*
X103334200Y-74063800D01*
X103334200Y-74063800D02*
X104324200Y-74063800D01*
X100834200Y-79233800D02*
X103334200Y-79233800D01*
X103334200Y-79233800D02*
X103334200Y-78183800D01*
X98864200Y-74183800D02*
X98864200Y-78063800D01*
%TO.C,IMU*%
X149660600Y-62393600D02*
X147160600Y-62393600D01*
X147160600Y-62393600D02*
X147160600Y-61343600D01*
X147160600Y-61343600D02*
X146170600Y-61343600D01*
X149660600Y-56173600D02*
X147160600Y-56173600D01*
X147160600Y-56173600D02*
X147160600Y-57223600D01*
X151630600Y-61223600D02*
X151630600Y-57343600D01*
%TO.C,R9*%
X135193100Y-99328236D02*
X135193100Y-99782364D01*
X136663100Y-99328236D02*
X136663100Y-99782364D01*
%TO.C,R14*%
X126807964Y-95226200D02*
X126353836Y-95226200D01*
X126807964Y-96696200D02*
X126353836Y-96696200D01*
%TO.C,R8*%
X126871464Y-92673500D02*
X126417336Y-92673500D01*
X126871464Y-94143500D02*
X126417336Y-94143500D01*
%TO.C,R7*%
X141339900Y-59551836D02*
X141339900Y-60005964D01*
X142809900Y-59551836D02*
X142809900Y-60005964D01*
%TO.C,R6*%
X107630900Y-79563964D02*
X107630900Y-79109836D01*
X106160900Y-79563964D02*
X106160900Y-79109836D01*
%TO.C,SYSOFF*%
X104771500Y-83664100D02*
X104771500Y-81004100D01*
X102171500Y-83664100D02*
X104771500Y-83664100D01*
X102171500Y-81004100D02*
X104771500Y-81004100D01*
X102171500Y-83664100D02*
X102171500Y-81004100D01*
X100901500Y-83664100D02*
X99571500Y-83664100D01*
X99571500Y-83664100D02*
X99571500Y-82334100D01*
%TO.C,BB*%
X123839280Y-90028720D02*
X121179280Y-90028720D01*
X123839280Y-102788720D02*
X123839280Y-90028720D01*
X121179280Y-102788720D02*
X121179280Y-90028720D01*
X123839280Y-102788720D02*
X121179280Y-102788720D01*
X123839280Y-104058720D02*
X123839280Y-105388720D01*
X123839280Y-105388720D02*
X122509280Y-105388720D01*
D14*
%TO.C,G\u002A\u002A\u002A*%
G36*
X108224320Y-48492228D02*
G01*
X108217063Y-48499485D01*
X108209805Y-48492228D01*
X108217063Y-48484971D01*
X108224320Y-48492228D01*
G37*
X108224320Y-48492228D02*
X108217063Y-48499485D01*
X108209805Y-48492228D01*
X108217063Y-48484971D01*
X108224320Y-48492228D01*
G36*
X108460550Y-48425413D02*
G01*
X108538997Y-48465370D01*
X108599723Y-48501172D01*
X108652030Y-48539268D01*
X108705220Y-48586109D01*
X108738395Y-48618108D01*
X108808638Y-48682650D01*
X108869620Y-48729499D01*
X108916449Y-48755288D01*
X108951245Y-48767548D01*
X108977965Y-48771433D01*
X109006823Y-48765993D01*
X109048031Y-48750278D01*
X109070032Y-48740999D01*
X109119995Y-48721332D01*
X109162071Y-48707501D01*
X109185934Y-48702644D01*
X109220303Y-48712611D01*
X109270641Y-48740550D01*
X109332659Y-48783635D01*
X109402073Y-48839043D01*
X109431083Y-48864143D01*
X109529376Y-48948194D01*
X109613625Y-49014170D01*
X109682447Y-49061112D01*
X109734460Y-49088056D01*
X109762449Y-49094571D01*
X109786947Y-49087631D01*
X109829658Y-49068892D01*
X109883892Y-49041474D01*
X109926246Y-49018153D01*
X110002885Y-48974244D01*
X110059034Y-48942797D01*
X110099900Y-48922768D01*
X110130689Y-48913114D01*
X110156605Y-48912791D01*
X110182856Y-48920755D01*
X110214647Y-48935962D01*
X110249132Y-48953418D01*
X110330778Y-48996945D01*
X110402302Y-49041075D01*
X110459303Y-49082663D01*
X110497379Y-49118565D01*
X110511089Y-49140537D01*
X110515570Y-49180606D01*
X110512170Y-49236179D01*
X110502624Y-49295371D01*
X110488667Y-49346298D01*
X110477591Y-49370065D01*
X110453169Y-49401562D01*
X110419672Y-49431731D01*
X110373213Y-49462984D01*
X110309910Y-49497736D01*
X110225878Y-49538402D01*
X110154720Y-49570751D01*
X110100526Y-49594025D01*
X110032677Y-49621757D01*
X109956580Y-49651895D01*
X109877640Y-49682387D01*
X109801266Y-49711183D01*
X109732862Y-49736231D01*
X109677836Y-49755481D01*
X109641593Y-49766879D01*
X109632205Y-49768994D01*
X109614928Y-49776608D01*
X109607151Y-49781236D01*
X109583061Y-49789447D01*
X109541721Y-49797659D01*
X109516496Y-49801172D01*
X109467615Y-49804253D01*
X109431821Y-49796828D01*
X109394023Y-49775369D01*
X109387789Y-49771097D01*
X109365544Y-49755475D01*
X109346798Y-49740990D01*
X109327996Y-49723865D01*
X109305581Y-49700322D01*
X109275999Y-49666584D01*
X109235693Y-49618876D01*
X109181109Y-49553418D01*
X109167660Y-49537257D01*
X109051026Y-49400834D01*
X108947794Y-49288207D01*
X108856666Y-49198141D01*
X108777909Y-49130742D01*
X109905672Y-49130742D01*
X109989119Y-49151109D01*
X110036245Y-49161847D01*
X110064097Y-49164337D01*
X110081478Y-49157703D01*
X110097190Y-49141066D01*
X110097827Y-49140280D01*
X110121802Y-49114323D01*
X110131336Y-49113546D01*
X110126464Y-49137969D01*
X110120802Y-49153971D01*
X110111826Y-49185118D01*
X110117957Y-49206402D01*
X110143371Y-49230328D01*
X110147366Y-49233533D01*
X110176318Y-49254518D01*
X110191276Y-49257301D01*
X110198988Y-49244902D01*
X110207699Y-49234543D01*
X110223520Y-49243550D01*
X110248012Y-49270569D01*
X110298870Y-49313873D01*
X110356047Y-49335399D01*
X110396463Y-49343875D01*
X110423245Y-49347498D01*
X110428599Y-49346967D01*
X110423604Y-49334068D01*
X110405221Y-49304825D01*
X110381923Y-49271783D01*
X110347228Y-49219903D01*
X110315479Y-49164846D01*
X110301758Y-49136844D01*
X110268833Y-49075706D01*
X110230736Y-49026525D01*
X110192138Y-48994021D01*
X110157707Y-48982913D01*
X110150503Y-48983977D01*
X110109854Y-48991260D01*
X110087998Y-48992773D01*
X110061785Y-48998587D01*
X110029409Y-49017858D01*
X109986228Y-49053812D01*
X109946739Y-49090971D01*
X109905672Y-49130742D01*
X108777909Y-49130742D01*
X108776342Y-49129401D01*
X108705525Y-49080752D01*
X108666551Y-49060464D01*
X108621314Y-49039765D01*
X108581333Y-49020914D01*
X108574094Y-49017389D01*
X108542727Y-49009637D01*
X108489207Y-49004111D01*
X108420322Y-49000776D01*
X108342858Y-48999598D01*
X108263604Y-49000544D01*
X108189347Y-49003581D01*
X108126875Y-49008672D01*
X108082974Y-49015786D01*
X108070488Y-49019910D01*
X107992433Y-49057947D01*
X107931840Y-49092170D01*
X107878994Y-49128971D01*
X107824183Y-49174741D01*
X107794868Y-49201273D01*
X107717084Y-49276751D01*
X107634234Y-49363801D01*
X107554623Y-49453305D01*
X107486556Y-49536147D01*
X107469577Y-49558405D01*
X107425916Y-49613026D01*
X107376316Y-49668970D01*
X107326611Y-49720235D01*
X107282637Y-49760817D01*
X107250228Y-49784714D01*
X107248955Y-49785395D01*
X107186733Y-49802611D01*
X107112555Y-49798189D01*
X107099463Y-49795281D01*
X107042213Y-49778675D01*
X106964301Y-49752448D01*
X106871545Y-49718871D01*
X106769764Y-49680214D01*
X106664775Y-49638749D01*
X106562396Y-49596748D01*
X106468447Y-49556481D01*
X106388744Y-49520220D01*
X106363122Y-49507825D01*
X106306544Y-49477522D01*
X106256221Y-49446488D01*
X106221072Y-49420334D01*
X106215448Y-49414951D01*
X106181609Y-49379295D01*
X106280492Y-49379295D01*
X106284411Y-49394848D01*
X106302144Y-49393751D01*
X106330033Y-49395746D01*
X106346835Y-49406670D01*
X106378017Y-49424661D01*
X106412085Y-49427001D01*
X106437697Y-49414121D01*
X106443572Y-49403000D01*
X106448801Y-49391188D01*
X106451645Y-49407426D01*
X106451893Y-49411905D01*
X106454969Y-49432209D01*
X106466655Y-49440641D01*
X106494625Y-49439815D01*
X106522520Y-49435947D01*
X106563982Y-49428879D01*
X106591559Y-49422495D01*
X106597159Y-49420136D01*
X106594147Y-49406135D01*
X106585668Y-49393876D01*
X106575890Y-49375362D01*
X106586153Y-49367274D01*
X106589206Y-49353022D01*
X106572089Y-49320302D01*
X106554102Y-49294715D01*
X106507909Y-49243661D01*
X106464141Y-49220677D01*
X106419137Y-49225448D01*
X106369237Y-49257659D01*
X106348242Y-49277017D01*
X106314429Y-49315261D01*
X106291172Y-49351060D01*
X106280492Y-49379295D01*
X106181609Y-49379295D01*
X106180000Y-49377600D01*
X106318970Y-49250756D01*
X106457939Y-49123912D01*
X106557586Y-49177733D01*
X106657233Y-49231555D01*
X106669415Y-49225200D01*
X106868447Y-49225200D01*
X106936062Y-49225200D01*
X106984991Y-49221176D01*
X107012368Y-49207766D01*
X107018471Y-49199800D01*
X107030095Y-49182140D01*
X107033420Y-49189889D01*
X107033707Y-49199800D01*
X107035424Y-49213247D01*
X107042765Y-49220928D01*
X107059853Y-49222343D01*
X107090813Y-49216994D01*
X107139771Y-49204381D01*
X107210850Y-49184004D01*
X107243576Y-49174400D01*
X107309849Y-49155023D01*
X107365278Y-49139052D01*
X107404342Y-49128062D01*
X107421523Y-49123624D01*
X107421782Y-49123600D01*
X107423221Y-49110970D01*
X107419870Y-49079593D01*
X107418227Y-49069171D01*
X107409104Y-49014743D01*
X107457483Y-49069237D01*
X107503824Y-49110284D01*
X107550021Y-49132099D01*
X107553034Y-49132737D01*
X107600205Y-49141743D01*
X107600205Y-49075292D01*
X107596647Y-49028652D01*
X107583429Y-48999995D01*
X107567548Y-48985848D01*
X107511792Y-48945783D01*
X107452430Y-48901858D01*
X107400342Y-48862179D01*
X107379693Y-48845877D01*
X107351516Y-48825698D01*
X107331210Y-48823441D01*
X107304957Y-48837734D01*
X107304004Y-48838357D01*
X107270751Y-48857985D01*
X107258893Y-48858269D01*
X107267574Y-48838269D01*
X107282964Y-48815171D01*
X107301956Y-48786913D01*
X107304088Y-48778877D01*
X107289916Y-48788061D01*
X107287676Y-48789771D01*
X107255902Y-48818597D01*
X107233755Y-48842936D01*
X107209025Y-48866051D01*
X107167855Y-48897495D01*
X107118774Y-48930792D01*
X107114507Y-48933503D01*
X107066595Y-48966596D01*
X107027515Y-48998748D01*
X107005006Y-49023524D01*
X107003896Y-49025480D01*
X106981394Y-49060916D01*
X106956134Y-49092912D01*
X106925291Y-49127539D01*
X106961577Y-49109312D01*
X106976219Y-49104576D01*
X106971638Y-49115506D01*
X106946879Y-49143747D01*
X106933155Y-49158143D01*
X106868447Y-49225200D01*
X106669415Y-49225200D01*
X106711434Y-49203282D01*
X106744704Y-49180830D01*
X106790613Y-49143159D01*
X106842048Y-49096323D01*
X106874491Y-49064429D01*
X106928858Y-49010816D01*
X106984920Y-48958199D01*
X107034160Y-48914465D01*
X107055053Y-48897210D01*
X107100355Y-48860580D01*
X107142112Y-48825415D01*
X107163910Y-48806066D01*
X107200847Y-48775115D01*
X107245271Y-48742157D01*
X107254806Y-48735648D01*
X107308549Y-48699735D01*
X107397179Y-48744023D01*
X107485808Y-48788312D01*
X107561150Y-48740973D01*
X107597181Y-48720275D01*
X107733611Y-48720275D01*
X107743269Y-48730122D01*
X107755684Y-48743075D01*
X107743269Y-48755262D01*
X107745530Y-48763537D01*
X107775928Y-48772642D01*
X107833593Y-48782334D01*
X107846948Y-48784142D01*
X107904187Y-48791724D01*
X107950114Y-48797917D01*
X107977351Y-48801721D01*
X107981205Y-48802322D01*
X107989856Y-48791787D01*
X107992091Y-48773649D01*
X107992091Y-48743012D01*
X108042891Y-48805108D01*
X108074137Y-48794565D01*
X109080511Y-48794565D01*
X109081704Y-48812796D01*
X109081837Y-48812958D01*
X109106072Y-48825147D01*
X109118009Y-48823641D01*
X109135992Y-48824863D01*
X109138720Y-48831761D01*
X109151131Y-48843835D01*
X109175005Y-48847828D01*
X109204560Y-48840019D01*
X109211614Y-48822428D01*
X109214187Y-48807133D01*
X109224923Y-48813634D01*
X109237014Y-48827795D01*
X109270010Y-48859418D01*
X109307213Y-48883079D01*
X109332703Y-48890930D01*
X109334628Y-48880773D01*
X109322725Y-48855356D01*
X109320350Y-48851457D01*
X109275931Y-48795723D01*
X109227502Y-48766596D01*
X109188595Y-48760743D01*
X109140147Y-48765510D01*
X109102055Y-48777793D01*
X109080511Y-48794565D01*
X108074137Y-48794565D01*
X108144491Y-48770827D01*
X108198203Y-48751427D01*
X108230924Y-48734848D01*
X108249641Y-48716171D01*
X108261341Y-48690477D01*
X108262185Y-48687965D01*
X108278279Y-48639384D01*
X108298474Y-48681519D01*
X108309759Y-48701303D01*
X108325004Y-48715602D01*
X108349561Y-48726250D01*
X108388784Y-48735081D01*
X108448025Y-48743929D01*
X108500091Y-48750594D01*
X108565405Y-48758740D01*
X108518005Y-48716198D01*
X108492583Y-48690929D01*
X108482523Y-48675687D01*
X108484491Y-48673657D01*
X108504379Y-48684218D01*
X108507348Y-48688171D01*
X108527358Y-48702157D01*
X108531825Y-48702685D01*
X108531204Y-48693232D01*
X108514119Y-48668610D01*
X108488456Y-48638814D01*
X108449191Y-48591297D01*
X108413518Y-48540025D01*
X108398467Y-48513952D01*
X108380425Y-48480879D01*
X108363575Y-48463840D01*
X108339834Y-48460660D01*
X108301120Y-48469166D01*
X108267863Y-48478821D01*
X108242905Y-48485039D01*
X108242372Y-48478094D01*
X108257103Y-48460567D01*
X108254647Y-48456308D01*
X108231645Y-48463417D01*
X108193087Y-48479460D01*
X108143965Y-48502001D01*
X108089268Y-48528605D01*
X108033986Y-48556835D01*
X107983111Y-48584257D01*
X107941632Y-48608436D01*
X107914541Y-48626935D01*
X107912263Y-48628860D01*
X107869448Y-48661466D01*
X107821359Y-48690595D01*
X107777635Y-48710957D01*
X107750892Y-48717422D01*
X107733611Y-48720275D01*
X107597181Y-48720275D01*
X107618401Y-48708086D01*
X107681091Y-48676572D01*
X107712243Y-48662864D01*
X107757656Y-48643023D01*
X107793324Y-48624951D01*
X107806586Y-48616386D01*
X107860306Y-48576950D01*
X107937047Y-48530264D01*
X108038431Y-48475382D01*
X108119464Y-48434296D01*
X108297638Y-48345791D01*
X108460550Y-48425413D01*
G37*
X108460550Y-48425413D02*
X108538997Y-48465370D01*
X108599723Y-48501172D01*
X108652030Y-48539268D01*
X108705220Y-48586109D01*
X108738395Y-48618108D01*
X108808638Y-48682650D01*
X108869620Y-48729499D01*
X108916449Y-48755288D01*
X108951245Y-48767548D01*
X108977965Y-48771433D01*
X109006823Y-48765993D01*
X109048031Y-48750278D01*
X109070032Y-48740999D01*
X109119995Y-48721332D01*
X109162071Y-48707501D01*
X109185934Y-48702644D01*
X109220303Y-48712611D01*
X109270641Y-48740550D01*
X109332659Y-48783635D01*
X109402073Y-48839043D01*
X109431083Y-48864143D01*
X109529376Y-48948194D01*
X109613625Y-49014170D01*
X109682447Y-49061112D01*
X109734460Y-49088056D01*
X109762449Y-49094571D01*
X109786947Y-49087631D01*
X109829658Y-49068892D01*
X109883892Y-49041474D01*
X109926246Y-49018153D01*
X110002885Y-48974244D01*
X110059034Y-48942797D01*
X110099900Y-48922768D01*
X110130689Y-48913114D01*
X110156605Y-48912791D01*
X110182856Y-48920755D01*
X110214647Y-48935962D01*
X110249132Y-48953418D01*
X110330778Y-48996945D01*
X110402302Y-49041075D01*
X110459303Y-49082663D01*
X110497379Y-49118565D01*
X110511089Y-49140537D01*
X110515570Y-49180606D01*
X110512170Y-49236179D01*
X110502624Y-49295371D01*
X110488667Y-49346298D01*
X110477591Y-49370065D01*
X110453169Y-49401562D01*
X110419672Y-49431731D01*
X110373213Y-49462984D01*
X110309910Y-49497736D01*
X110225878Y-49538402D01*
X110154720Y-49570751D01*
X110100526Y-49594025D01*
X110032677Y-49621757D01*
X109956580Y-49651895D01*
X109877640Y-49682387D01*
X109801266Y-49711183D01*
X109732862Y-49736231D01*
X109677836Y-49755481D01*
X109641593Y-49766879D01*
X109632205Y-49768994D01*
X109614928Y-49776608D01*
X109607151Y-49781236D01*
X109583061Y-49789447D01*
X109541721Y-49797659D01*
X109516496Y-49801172D01*
X109467615Y-49804253D01*
X109431821Y-49796828D01*
X109394023Y-49775369D01*
X109387789Y-49771097D01*
X109365544Y-49755475D01*
X109346798Y-49740990D01*
X109327996Y-49723865D01*
X109305581Y-49700322D01*
X109275999Y-49666584D01*
X109235693Y-49618876D01*
X109181109Y-49553418D01*
X109167660Y-49537257D01*
X109051026Y-49400834D01*
X108947794Y-49288207D01*
X108856666Y-49198141D01*
X108777909Y-49130742D01*
X109905672Y-49130742D01*
X109989119Y-49151109D01*
X110036245Y-49161847D01*
X110064097Y-49164337D01*
X110081478Y-49157703D01*
X110097190Y-49141066D01*
X110097827Y-49140280D01*
X110121802Y-49114323D01*
X110131336Y-49113546D01*
X110126464Y-49137969D01*
X110120802Y-49153971D01*
X110111826Y-49185118D01*
X110117957Y-49206402D01*
X110143371Y-49230328D01*
X110147366Y-49233533D01*
X110176318Y-49254518D01*
X110191276Y-49257301D01*
X110198988Y-49244902D01*
X110207699Y-49234543D01*
X110223520Y-49243550D01*
X110248012Y-49270569D01*
X110298870Y-49313873D01*
X110356047Y-49335399D01*
X110396463Y-49343875D01*
X110423245Y-49347498D01*
X110428599Y-49346967D01*
X110423604Y-49334068D01*
X110405221Y-49304825D01*
X110381923Y-49271783D01*
X110347228Y-49219903D01*
X110315479Y-49164846D01*
X110301758Y-49136844D01*
X110268833Y-49075706D01*
X110230736Y-49026525D01*
X110192138Y-48994021D01*
X110157707Y-48982913D01*
X110150503Y-48983977D01*
X110109854Y-48991260D01*
X110087998Y-48992773D01*
X110061785Y-48998587D01*
X110029409Y-49017858D01*
X109986228Y-49053812D01*
X109946739Y-49090971D01*
X109905672Y-49130742D01*
X108777909Y-49130742D01*
X108776342Y-49129401D01*
X108705525Y-49080752D01*
X108666551Y-49060464D01*
X108621314Y-49039765D01*
X108581333Y-49020914D01*
X108574094Y-49017389D01*
X108542727Y-49009637D01*
X108489207Y-49004111D01*
X108420322Y-49000776D01*
X108342858Y-48999598D01*
X108263604Y-49000544D01*
X108189347Y-49003581D01*
X108126875Y-49008672D01*
X108082974Y-49015786D01*
X108070488Y-49019910D01*
X107992433Y-49057947D01*
X107931840Y-49092170D01*
X107878994Y-49128971D01*
X107824183Y-49174741D01*
X107794868Y-49201273D01*
X107717084Y-49276751D01*
X107634234Y-49363801D01*
X107554623Y-49453305D01*
X107486556Y-49536147D01*
X107469577Y-49558405D01*
X107425916Y-49613026D01*
X107376316Y-49668970D01*
X107326611Y-49720235D01*
X107282637Y-49760817D01*
X107250228Y-49784714D01*
X107248955Y-49785395D01*
X107186733Y-49802611D01*
X107112555Y-49798189D01*
X107099463Y-49795281D01*
X107042213Y-49778675D01*
X106964301Y-49752448D01*
X106871545Y-49718871D01*
X106769764Y-49680214D01*
X106664775Y-49638749D01*
X106562396Y-49596748D01*
X106468447Y-49556481D01*
X106388744Y-49520220D01*
X106363122Y-49507825D01*
X106306544Y-49477522D01*
X106256221Y-49446488D01*
X106221072Y-49420334D01*
X106215448Y-49414951D01*
X106181609Y-49379295D01*
X106280492Y-49379295D01*
X106284411Y-49394848D01*
X106302144Y-49393751D01*
X106330033Y-49395746D01*
X106346835Y-49406670D01*
X106378017Y-49424661D01*
X106412085Y-49427001D01*
X106437697Y-49414121D01*
X106443572Y-49403000D01*
X106448801Y-49391188D01*
X106451645Y-49407426D01*
X106451893Y-49411905D01*
X106454969Y-49432209D01*
X106466655Y-49440641D01*
X106494625Y-49439815D01*
X106522520Y-49435947D01*
X106563982Y-49428879D01*
X106591559Y-49422495D01*
X106597159Y-49420136D01*
X106594147Y-49406135D01*
X106585668Y-49393876D01*
X106575890Y-49375362D01*
X106586153Y-49367274D01*
X106589206Y-49353022D01*
X106572089Y-49320302D01*
X106554102Y-49294715D01*
X106507909Y-49243661D01*
X106464141Y-49220677D01*
X106419137Y-49225448D01*
X106369237Y-49257659D01*
X106348242Y-49277017D01*
X106314429Y-49315261D01*
X106291172Y-49351060D01*
X106280492Y-49379295D01*
X106181609Y-49379295D01*
X106180000Y-49377600D01*
X106318970Y-49250756D01*
X106457939Y-49123912D01*
X106557586Y-49177733D01*
X106657233Y-49231555D01*
X106669415Y-49225200D01*
X106868447Y-49225200D01*
X106936062Y-49225200D01*
X106984991Y-49221176D01*
X107012368Y-49207766D01*
X107018471Y-49199800D01*
X107030095Y-49182140D01*
X107033420Y-49189889D01*
X107033707Y-49199800D01*
X107035424Y-49213247D01*
X107042765Y-49220928D01*
X107059853Y-49222343D01*
X107090813Y-49216994D01*
X107139771Y-49204381D01*
X107210850Y-49184004D01*
X107243576Y-49174400D01*
X107309849Y-49155023D01*
X107365278Y-49139052D01*
X107404342Y-49128062D01*
X107421523Y-49123624D01*
X107421782Y-49123600D01*
X107423221Y-49110970D01*
X107419870Y-49079593D01*
X107418227Y-49069171D01*
X107409104Y-49014743D01*
X107457483Y-49069237D01*
X107503824Y-49110284D01*
X107550021Y-49132099D01*
X107553034Y-49132737D01*
X107600205Y-49141743D01*
X107600205Y-49075292D01*
X107596647Y-49028652D01*
X107583429Y-48999995D01*
X107567548Y-48985848D01*
X107511792Y-48945783D01*
X107452430Y-48901858D01*
X107400342Y-48862179D01*
X107379693Y-48845877D01*
X107351516Y-48825698D01*
X107331210Y-48823441D01*
X107304957Y-48837734D01*
X107304004Y-48838357D01*
X107270751Y-48857985D01*
X107258893Y-48858269D01*
X107267574Y-48838269D01*
X107282964Y-48815171D01*
X107301956Y-48786913D01*
X107304088Y-48778877D01*
X107289916Y-48788061D01*
X107287676Y-48789771D01*
X107255902Y-48818597D01*
X107233755Y-48842936D01*
X107209025Y-48866051D01*
X107167855Y-48897495D01*
X107118774Y-48930792D01*
X107114507Y-48933503D01*
X107066595Y-48966596D01*
X107027515Y-48998748D01*
X107005006Y-49023524D01*
X107003896Y-49025480D01*
X106981394Y-49060916D01*
X106956134Y-49092912D01*
X106925291Y-49127539D01*
X106961577Y-49109312D01*
X106976219Y-49104576D01*
X106971638Y-49115506D01*
X106946879Y-49143747D01*
X106933155Y-49158143D01*
X106868447Y-49225200D01*
X106669415Y-49225200D01*
X106711434Y-49203282D01*
X106744704Y-49180830D01*
X106790613Y-49143159D01*
X106842048Y-49096323D01*
X106874491Y-49064429D01*
X106928858Y-49010816D01*
X106984920Y-48958199D01*
X107034160Y-48914465D01*
X107055053Y-48897210D01*
X107100355Y-48860580D01*
X107142112Y-48825415D01*
X107163910Y-48806066D01*
X107200847Y-48775115D01*
X107245271Y-48742157D01*
X107254806Y-48735648D01*
X107308549Y-48699735D01*
X107397179Y-48744023D01*
X107485808Y-48788312D01*
X107561150Y-48740973D01*
X107597181Y-48720275D01*
X107733611Y-48720275D01*
X107743269Y-48730122D01*
X107755684Y-48743075D01*
X107743269Y-48755262D01*
X107745530Y-48763537D01*
X107775928Y-48772642D01*
X107833593Y-48782334D01*
X107846948Y-48784142D01*
X107904187Y-48791724D01*
X107950114Y-48797917D01*
X107977351Y-48801721D01*
X107981205Y-48802322D01*
X107989856Y-48791787D01*
X107992091Y-48773649D01*
X107992091Y-48743012D01*
X108042891Y-48805108D01*
X108074137Y-48794565D01*
X109080511Y-48794565D01*
X109081704Y-48812796D01*
X109081837Y-48812958D01*
X109106072Y-48825147D01*
X109118009Y-48823641D01*
X109135992Y-48824863D01*
X109138720Y-48831761D01*
X109151131Y-48843835D01*
X109175005Y-48847828D01*
X109204560Y-48840019D01*
X109211614Y-48822428D01*
X109214187Y-48807133D01*
X109224923Y-48813634D01*
X109237014Y-48827795D01*
X109270010Y-48859418D01*
X109307213Y-48883079D01*
X109332703Y-48890930D01*
X109334628Y-48880773D01*
X109322725Y-48855356D01*
X109320350Y-48851457D01*
X109275931Y-48795723D01*
X109227502Y-48766596D01*
X109188595Y-48760743D01*
X109140147Y-48765510D01*
X109102055Y-48777793D01*
X109080511Y-48794565D01*
X108074137Y-48794565D01*
X108144491Y-48770827D01*
X108198203Y-48751427D01*
X108230924Y-48734848D01*
X108249641Y-48716171D01*
X108261341Y-48690477D01*
X108262185Y-48687965D01*
X108278279Y-48639384D01*
X108298474Y-48681519D01*
X108309759Y-48701303D01*
X108325004Y-48715602D01*
X108349561Y-48726250D01*
X108388784Y-48735081D01*
X108448025Y-48743929D01*
X108500091Y-48750594D01*
X108565405Y-48758740D01*
X108518005Y-48716198D01*
X108492583Y-48690929D01*
X108482523Y-48675687D01*
X108484491Y-48673657D01*
X108504379Y-48684218D01*
X108507348Y-48688171D01*
X108527358Y-48702157D01*
X108531825Y-48702685D01*
X108531204Y-48693232D01*
X108514119Y-48668610D01*
X108488456Y-48638814D01*
X108449191Y-48591297D01*
X108413518Y-48540025D01*
X108398467Y-48513952D01*
X108380425Y-48480879D01*
X108363575Y-48463840D01*
X108339834Y-48460660D01*
X108301120Y-48469166D01*
X108267863Y-48478821D01*
X108242905Y-48485039D01*
X108242372Y-48478094D01*
X108257103Y-48460567D01*
X108254647Y-48456308D01*
X108231645Y-48463417D01*
X108193087Y-48479460D01*
X108143965Y-48502001D01*
X108089268Y-48528605D01*
X108033986Y-48556835D01*
X107983111Y-48584257D01*
X107941632Y-48608436D01*
X107914541Y-48626935D01*
X107912263Y-48628860D01*
X107869448Y-48661466D01*
X107821359Y-48690595D01*
X107777635Y-48710957D01*
X107750892Y-48717422D01*
X107733611Y-48720275D01*
X107597181Y-48720275D01*
X107618401Y-48708086D01*
X107681091Y-48676572D01*
X107712243Y-48662864D01*
X107757656Y-48643023D01*
X107793324Y-48624951D01*
X107806586Y-48616386D01*
X107860306Y-48576950D01*
X107937047Y-48530264D01*
X108038431Y-48475382D01*
X108119464Y-48434296D01*
X108297638Y-48345791D01*
X108460550Y-48425413D01*
G36*
X108636878Y-47575731D02*
G01*
X109048371Y-47605956D01*
X109451329Y-47660092D01*
X109784605Y-47725032D01*
X109972198Y-47771897D01*
X110133025Y-47822765D01*
X110269220Y-47878920D01*
X110382919Y-47941642D01*
X110476255Y-48012217D01*
X110551365Y-48091924D01*
X110610381Y-48182049D01*
X110637051Y-48237207D01*
X110684491Y-48347085D01*
X110681363Y-48887339D01*
X110680478Y-49027483D01*
X110679498Y-49141651D01*
X110678256Y-49232897D01*
X110676586Y-49304276D01*
X110674323Y-49358839D01*
X110671299Y-49399640D01*
X110667350Y-49429734D01*
X110662308Y-49452172D01*
X110656008Y-49470009D01*
X110648840Y-49485213D01*
X110620258Y-49529887D01*
X110580410Y-49570008D01*
X110524225Y-49609604D01*
X110446637Y-49652704D01*
X110423234Y-49664532D01*
X110328235Y-49709104D01*
X110213396Y-49758637D01*
X110086752Y-49810004D01*
X109956343Y-49860078D01*
X109830205Y-49905731D01*
X109716376Y-49943834D01*
X109665540Y-49959385D01*
X109591850Y-49979159D01*
X109537656Y-49987410D01*
X109495392Y-49983118D01*
X109457494Y-49965264D01*
X109416396Y-49932831D01*
X109407234Y-49924602D01*
X109376488Y-49893994D01*
X109331874Y-49846122D01*
X109277961Y-49786143D01*
X109219317Y-49719212D01*
X109160513Y-49650487D01*
X109106117Y-49585125D01*
X109102434Y-49580615D01*
X109049100Y-49516511D01*
X108988446Y-49445723D01*
X108925287Y-49373664D01*
X108864439Y-49305748D01*
X108810715Y-49247386D01*
X108768932Y-49203993D01*
X108757592Y-49192938D01*
X108711147Y-49155485D01*
X108653694Y-49117834D01*
X108618459Y-49098595D01*
X108584675Y-49082745D01*
X108554650Y-49071702D01*
X108522102Y-49064601D01*
X108480750Y-49060577D01*
X108424314Y-49058763D01*
X108346513Y-49058294D01*
X108325920Y-49058285D01*
X108242433Y-49058589D01*
X108181726Y-49060063D01*
X108137550Y-49063552D01*
X108103659Y-49069901D01*
X108073804Y-49079956D01*
X108041739Y-49094562D01*
X108035634Y-49097551D01*
X107971151Y-49136868D01*
X107897615Y-49196232D01*
X107813846Y-49276814D01*
X107718660Y-49379787D01*
X107610874Y-49506323D01*
X107558570Y-49570488D01*
X107455266Y-49695615D01*
X107363996Y-49799762D01*
X107285627Y-49882015D01*
X107221025Y-49941465D01*
X107173521Y-49975800D01*
X107149348Y-49986904D01*
X107122578Y-49991041D01*
X107087252Y-49987536D01*
X107037410Y-49975712D01*
X106967094Y-49954893D01*
X106954320Y-49950924D01*
X106834877Y-49911812D01*
X106711220Y-49867972D01*
X106587444Y-49821140D01*
X106467643Y-49773048D01*
X106355915Y-49725430D01*
X106256353Y-49680021D01*
X106173054Y-49638554D01*
X106110114Y-49602764D01*
X106077611Y-49579755D01*
X106053164Y-49558733D01*
X106033028Y-49538726D01*
X106016758Y-49516799D01*
X106003910Y-49490013D01*
X105994038Y-49455431D01*
X105986697Y-49410117D01*
X105981442Y-49351132D01*
X105977828Y-49275540D01*
X105975411Y-49180404D01*
X105973744Y-49062785D01*
X105972383Y-48919746D01*
X105972069Y-48883204D01*
X105971837Y-48856038D01*
X106119829Y-48856038D01*
X106120236Y-48987579D01*
X106121680Y-49093658D01*
X106124585Y-49177831D01*
X106129379Y-49243659D01*
X106136485Y-49294699D01*
X106146330Y-49334511D01*
X106159339Y-49366654D01*
X106175936Y-49394685D01*
X106185857Y-49408462D01*
X106218135Y-49438632D01*
X106272581Y-49475641D01*
X106344003Y-49516636D01*
X106427205Y-49558762D01*
X106516996Y-49599165D01*
X106576948Y-49623350D01*
X106639940Y-49647881D01*
X106704051Y-49673418D01*
X106751120Y-49692663D01*
X106844995Y-49729769D01*
X106938047Y-49762732D01*
X107024364Y-49789745D01*
X107098035Y-49809003D01*
X107153149Y-49818702D01*
X107166410Y-49819499D01*
X107221210Y-49814325D01*
X107265891Y-49793445D01*
X107283570Y-49780371D01*
X107311749Y-49757593D01*
X107335306Y-49736920D01*
X107358657Y-49713620D01*
X107386220Y-49682965D01*
X107422412Y-49640223D01*
X107471649Y-49580664D01*
X107483477Y-49566285D01*
X107576168Y-49455899D01*
X107658205Y-49363641D01*
X107735136Y-49283555D01*
X107812510Y-49209684D01*
X107832434Y-49191613D01*
X107909251Y-49127267D01*
X107975470Y-49083046D01*
X108037206Y-49055339D01*
X108083641Y-49043337D01*
X108120732Y-49033610D01*
X108143613Y-49022481D01*
X108145508Y-49020354D01*
X108162862Y-49014678D01*
X108202167Y-49010690D01*
X108256396Y-49008358D01*
X108318523Y-49007650D01*
X108381522Y-49008534D01*
X108438365Y-49010979D01*
X108482025Y-49014952D01*
X108505478Y-49020421D01*
X108507348Y-49022000D01*
X108527593Y-49033823D01*
X108548119Y-49036833D01*
X108593087Y-49046100D01*
X108651105Y-49070390D01*
X108713473Y-49105498D01*
X108763780Y-49141001D01*
X108826493Y-49195097D01*
X108900748Y-49266438D01*
X108980736Y-49348994D01*
X109060646Y-49436739D01*
X109134669Y-49523644D01*
X109145729Y-49537257D01*
X109197801Y-49599563D01*
X109253471Y-49662501D01*
X109304712Y-49717154D01*
X109331917Y-49744085D01*
X109368147Y-49776647D01*
X109401354Y-49800644D01*
X109435287Y-49815811D01*
X109473699Y-49821883D01*
X109520340Y-49818595D01*
X109578961Y-49805682D01*
X109653313Y-49782879D01*
X109747147Y-49749920D01*
X109864213Y-49706542D01*
X109864434Y-49706459D01*
X110018315Y-49647363D01*
X110146471Y-49594788D01*
X110251164Y-49547553D01*
X110334654Y-49504475D01*
X110399205Y-49464371D01*
X110447078Y-49426061D01*
X110480535Y-49388360D01*
X110484722Y-49382276D01*
X110524834Y-49321662D01*
X110524834Y-48870660D01*
X110524426Y-48727174D01*
X110523146Y-48610371D01*
X110520908Y-48517919D01*
X110517626Y-48447481D01*
X110513214Y-48396724D01*
X110507587Y-48363314D01*
X110505957Y-48357321D01*
X110477841Y-48300450D01*
X110428783Y-48237638D01*
X110364457Y-48174530D01*
X110290538Y-48116771D01*
X110221905Y-48074768D01*
X110115632Y-48026807D01*
X109982991Y-47980915D01*
X109826607Y-47937693D01*
X109649103Y-47897741D01*
X109453103Y-47861660D01*
X109241232Y-47830049D01*
X109054063Y-47807515D01*
X108946531Y-47798342D01*
X108816046Y-47791157D01*
X108668236Y-47785961D01*
X108508731Y-47782754D01*
X108343162Y-47781536D01*
X108177156Y-47782307D01*
X108016344Y-47785067D01*
X107866356Y-47789816D01*
X107732820Y-47796554D01*
X107621367Y-47805282D01*
X107600205Y-47807487D01*
X107464648Y-47823896D01*
X107324688Y-47843499D01*
X107185658Y-47865356D01*
X107052890Y-47888523D01*
X106931718Y-47912057D01*
X106827473Y-47935018D01*
X106745488Y-47956461D01*
X106729348Y-47961394D01*
X106691458Y-47973402D01*
X106644286Y-47988317D01*
X106635005Y-47991247D01*
X106558991Y-48018583D01*
X106470579Y-48055688D01*
X106396422Y-48090338D01*
X106362455Y-48112204D01*
X106317074Y-48148231D01*
X106268833Y-48191512D01*
X106257756Y-48202237D01*
X106221164Y-48239596D01*
X106191668Y-48274552D01*
X106168507Y-48310713D01*
X106150920Y-48351684D01*
X106138147Y-48401071D01*
X106129426Y-48462481D01*
X106123997Y-48539520D01*
X106121099Y-48635795D01*
X106119972Y-48754910D01*
X106119829Y-48856038D01*
X105971837Y-48856038D01*
X105967348Y-48332571D01*
X106020176Y-48223714D01*
X106072731Y-48131119D01*
X106136380Y-48049475D01*
X106213499Y-47977487D01*
X106306462Y-47913865D01*
X106417646Y-47857316D01*
X106549428Y-47806547D01*
X106704182Y-47760267D01*
X106884286Y-47717183D01*
X106992527Y-47694869D01*
X107394675Y-47628985D01*
X107805681Y-47587198D01*
X108221198Y-47569463D01*
X108636878Y-47575731D01*
G37*
X108636878Y-47575731D02*
X109048371Y-47605956D01*
X109451329Y-47660092D01*
X109784605Y-47725032D01*
X109972198Y-47771897D01*
X110133025Y-47822765D01*
X110269220Y-47878920D01*
X110382919Y-47941642D01*
X110476255Y-48012217D01*
X110551365Y-48091924D01*
X110610381Y-48182049D01*
X110637051Y-48237207D01*
X110684491Y-48347085D01*
X110681363Y-48887339D01*
X110680478Y-49027483D01*
X110679498Y-49141651D01*
X110678256Y-49232897D01*
X110676586Y-49304276D01*
X110674323Y-49358839D01*
X110671299Y-49399640D01*
X110667350Y-49429734D01*
X110662308Y-49452172D01*
X110656008Y-49470009D01*
X110648840Y-49485213D01*
X110620258Y-49529887D01*
X110580410Y-49570008D01*
X110524225Y-49609604D01*
X110446637Y-49652704D01*
X110423234Y-49664532D01*
X110328235Y-49709104D01*
X110213396Y-49758637D01*
X110086752Y-49810004D01*
X109956343Y-49860078D01*
X109830205Y-49905731D01*
X109716376Y-49943834D01*
X109665540Y-49959385D01*
X109591850Y-49979159D01*
X109537656Y-49987410D01*
X109495392Y-49983118D01*
X109457494Y-49965264D01*
X109416396Y-49932831D01*
X109407234Y-49924602D01*
X109376488Y-49893994D01*
X109331874Y-49846122D01*
X109277961Y-49786143D01*
X109219317Y-49719212D01*
X109160513Y-49650487D01*
X109106117Y-49585125D01*
X109102434Y-49580615D01*
X109049100Y-49516511D01*
X108988446Y-49445723D01*
X108925287Y-49373664D01*
X108864439Y-49305748D01*
X108810715Y-49247386D01*
X108768932Y-49203993D01*
X108757592Y-49192938D01*
X108711147Y-49155485D01*
X108653694Y-49117834D01*
X108618459Y-49098595D01*
X108584675Y-49082745D01*
X108554650Y-49071702D01*
X108522102Y-49064601D01*
X108480750Y-49060577D01*
X108424314Y-49058763D01*
X108346513Y-49058294D01*
X108325920Y-49058285D01*
X108242433Y-49058589D01*
X108181726Y-49060063D01*
X108137550Y-49063552D01*
X108103659Y-49069901D01*
X108073804Y-49079956D01*
X108041739Y-49094562D01*
X108035634Y-49097551D01*
X107971151Y-49136868D01*
X107897615Y-49196232D01*
X107813846Y-49276814D01*
X107718660Y-49379787D01*
X107610874Y-49506323D01*
X107558570Y-49570488D01*
X107455266Y-49695615D01*
X107363996Y-49799762D01*
X107285627Y-49882015D01*
X107221025Y-49941465D01*
X107173521Y-49975800D01*
X107149348Y-49986904D01*
X107122578Y-49991041D01*
X107087252Y-49987536D01*
X107037410Y-49975712D01*
X106967094Y-49954893D01*
X106954320Y-49950924D01*
X106834877Y-49911812D01*
X106711220Y-49867972D01*
X106587444Y-49821140D01*
X106467643Y-49773048D01*
X106355915Y-49725430D01*
X106256353Y-49680021D01*
X106173054Y-49638554D01*
X106110114Y-49602764D01*
X106077611Y-49579755D01*
X106053164Y-49558733D01*
X106033028Y-49538726D01*
X106016758Y-49516799D01*
X106003910Y-49490013D01*
X105994038Y-49455431D01*
X105986697Y-49410117D01*
X105981442Y-49351132D01*
X105977828Y-49275540D01*
X105975411Y-49180404D01*
X105973744Y-49062785D01*
X105972383Y-48919746D01*
X105972069Y-48883204D01*
X105971837Y-48856038D01*
X106119829Y-48856038D01*
X106120236Y-48987579D01*
X106121680Y-49093658D01*
X106124585Y-49177831D01*
X106129379Y-49243659D01*
X106136485Y-49294699D01*
X106146330Y-49334511D01*
X106159339Y-49366654D01*
X106175936Y-49394685D01*
X106185857Y-49408462D01*
X106218135Y-49438632D01*
X106272581Y-49475641D01*
X106344003Y-49516636D01*
X106427205Y-49558762D01*
X106516996Y-49599165D01*
X106576948Y-49623350D01*
X106639940Y-49647881D01*
X106704051Y-49673418D01*
X106751120Y-49692663D01*
X106844995Y-49729769D01*
X106938047Y-49762732D01*
X107024364Y-49789745D01*
X107098035Y-49809003D01*
X107153149Y-49818702D01*
X107166410Y-49819499D01*
X107221210Y-49814325D01*
X107265891Y-49793445D01*
X107283570Y-49780371D01*
X107311749Y-49757593D01*
X107335306Y-49736920D01*
X107358657Y-49713620D01*
X107386220Y-49682965D01*
X107422412Y-49640223D01*
X107471649Y-49580664D01*
X107483477Y-49566285D01*
X107576168Y-49455899D01*
X107658205Y-49363641D01*
X107735136Y-49283555D01*
X107812510Y-49209684D01*
X107832434Y-49191613D01*
X107909251Y-49127267D01*
X107975470Y-49083046D01*
X108037206Y-49055339D01*
X108083641Y-49043337D01*
X108120732Y-49033610D01*
X108143613Y-49022481D01*
X108145508Y-49020354D01*
X108162862Y-49014678D01*
X108202167Y-49010690D01*
X108256396Y-49008358D01*
X108318523Y-49007650D01*
X108381522Y-49008534D01*
X108438365Y-49010979D01*
X108482025Y-49014952D01*
X108505478Y-49020421D01*
X108507348Y-49022000D01*
X108527593Y-49033823D01*
X108548119Y-49036833D01*
X108593087Y-49046100D01*
X108651105Y-49070390D01*
X108713473Y-49105498D01*
X108763780Y-49141001D01*
X108826493Y-49195097D01*
X108900748Y-49266438D01*
X108980736Y-49348994D01*
X109060646Y-49436739D01*
X109134669Y-49523644D01*
X109145729Y-49537257D01*
X109197801Y-49599563D01*
X109253471Y-49662501D01*
X109304712Y-49717154D01*
X109331917Y-49744085D01*
X109368147Y-49776647D01*
X109401354Y-49800644D01*
X109435287Y-49815811D01*
X109473699Y-49821883D01*
X109520340Y-49818595D01*
X109578961Y-49805682D01*
X109653313Y-49782879D01*
X109747147Y-49749920D01*
X109864213Y-49706542D01*
X109864434Y-49706459D01*
X110018315Y-49647363D01*
X110146471Y-49594788D01*
X110251164Y-49547553D01*
X110334654Y-49504475D01*
X110399205Y-49464371D01*
X110447078Y-49426061D01*
X110480535Y-49388360D01*
X110484722Y-49382276D01*
X110524834Y-49321662D01*
X110524834Y-48870660D01*
X110524426Y-48727174D01*
X110523146Y-48610371D01*
X110520908Y-48517919D01*
X110517626Y-48447481D01*
X110513214Y-48396724D01*
X110507587Y-48363314D01*
X110505957Y-48357321D01*
X110477841Y-48300450D01*
X110428783Y-48237638D01*
X110364457Y-48174530D01*
X110290538Y-48116771D01*
X110221905Y-48074768D01*
X110115632Y-48026807D01*
X109982991Y-47980915D01*
X109826607Y-47937693D01*
X109649103Y-47897741D01*
X109453103Y-47861660D01*
X109241232Y-47830049D01*
X109054063Y-47807515D01*
X108946531Y-47798342D01*
X108816046Y-47791157D01*
X108668236Y-47785961D01*
X108508731Y-47782754D01*
X108343162Y-47781536D01*
X108177156Y-47782307D01*
X108016344Y-47785067D01*
X107866356Y-47789816D01*
X107732820Y-47796554D01*
X107621367Y-47805282D01*
X107600205Y-47807487D01*
X107464648Y-47823896D01*
X107324688Y-47843499D01*
X107185658Y-47865356D01*
X107052890Y-47888523D01*
X106931718Y-47912057D01*
X106827473Y-47935018D01*
X106745488Y-47956461D01*
X106729348Y-47961394D01*
X106691458Y-47973402D01*
X106644286Y-47988317D01*
X106635005Y-47991247D01*
X106558991Y-48018583D01*
X106470579Y-48055688D01*
X106396422Y-48090338D01*
X106362455Y-48112204D01*
X106317074Y-48148231D01*
X106268833Y-48191512D01*
X106257756Y-48202237D01*
X106221164Y-48239596D01*
X106191668Y-48274552D01*
X106168507Y-48310713D01*
X106150920Y-48351684D01*
X106138147Y-48401071D01*
X106129426Y-48462481D01*
X106123997Y-48539520D01*
X106121099Y-48635795D01*
X106119972Y-48754910D01*
X106119829Y-48856038D01*
X105971837Y-48856038D01*
X105967348Y-48332571D01*
X106020176Y-48223714D01*
X106072731Y-48131119D01*
X106136380Y-48049475D01*
X106213499Y-47977487D01*
X106306462Y-47913865D01*
X106417646Y-47857316D01*
X106549428Y-47806547D01*
X106704182Y-47760267D01*
X106884286Y-47717183D01*
X106992527Y-47694869D01*
X107394675Y-47628985D01*
X107805681Y-47587198D01*
X108221198Y-47569463D01*
X108636878Y-47575731D01*
G36*
X108272714Y-47238909D02*
G01*
X108451028Y-47240770D01*
X108593263Y-47243034D01*
X108711121Y-47245479D01*
X108809255Y-47248382D01*
X108892318Y-47252020D01*
X108964961Y-47256669D01*
X109031838Y-47262605D01*
X109097599Y-47270105D01*
X109166897Y-47279444D01*
X109211291Y-47285924D01*
X109376228Y-47311639D01*
X109524330Y-47337511D01*
X109667711Y-47365840D01*
X109818487Y-47398924D01*
X109872062Y-47411308D01*
X110091319Y-47474126D01*
X110292523Y-47555463D01*
X110474435Y-47654317D01*
X110635815Y-47769690D01*
X110775423Y-47900581D01*
X110892020Y-48045990D01*
X110984365Y-48204918D01*
X111045349Y-48357539D01*
X111064292Y-48378715D01*
X111093898Y-48391375D01*
X111140003Y-48403810D01*
X111174348Y-48415340D01*
X111214263Y-48430436D01*
X111214263Y-49028198D01*
X111214262Y-49625960D01*
X111178761Y-49674079D01*
X111144831Y-49714608D01*
X111106054Y-49748032D01*
X111057576Y-49776805D01*
X110994544Y-49803379D01*
X110912102Y-49830207D01*
X110817783Y-49856466D01*
X110714824Y-49888654D01*
X110637036Y-49924241D01*
X110606595Y-49943654D01*
X110566618Y-49968505D01*
X110507221Y-50000753D01*
X110435861Y-50036819D01*
X110359992Y-50073126D01*
X110287070Y-50106094D01*
X110224550Y-50132146D01*
X110183748Y-50146601D01*
X110143170Y-50160464D01*
X110103920Y-50175994D01*
X110075223Y-50187026D01*
X110024932Y-50205097D01*
X109959008Y-50228113D01*
X109883413Y-50253980D01*
X109842663Y-50267728D01*
X109624948Y-50340812D01*
X109374671Y-50351070D01*
X109280260Y-50354568D01*
X109209617Y-50356046D01*
X109157534Y-50355263D01*
X109118805Y-50351981D01*
X109088223Y-50345959D01*
X109060583Y-50336958D01*
X109059537Y-50336561D01*
X109006623Y-50307510D01*
X108948231Y-50257972D01*
X108882806Y-50186284D01*
X108808796Y-50090787D01*
X108808766Y-50090744D01*
X109777348Y-50090744D01*
X109783084Y-50095317D01*
X109802699Y-50093960D01*
X109839802Y-50085921D01*
X109898006Y-50070443D01*
X109963704Y-50051758D01*
X110040410Y-50028089D01*
X110119726Y-50001132D01*
X110189591Y-49975084D01*
X110219322Y-49962795D01*
X110275494Y-49937100D01*
X110336413Y-49907341D01*
X110396800Y-49876348D01*
X110451378Y-49846956D01*
X110494868Y-49821995D01*
X110521993Y-49804298D01*
X110528205Y-49797047D01*
X110513552Y-49800191D01*
X110477605Y-49812688D01*
X110425788Y-49832540D01*
X110364205Y-49857465D01*
X110196076Y-49926419D01*
X110053572Y-49983377D01*
X109936945Y-50028240D01*
X109868063Y-50053377D01*
X109822173Y-50070327D01*
X109789549Y-50083780D01*
X109777348Y-50090744D01*
X108808766Y-50090744D01*
X108745985Y-50001462D01*
X108674136Y-49903398D01*
X108600213Y-49816109D01*
X108527793Y-49743109D01*
X108460451Y-49687912D01*
X108401762Y-49654032D01*
X108387147Y-49648779D01*
X108330493Y-49638108D01*
X108277545Y-49643525D01*
X108223458Y-49667135D01*
X108163390Y-49711040D01*
X108093512Y-49776326D01*
X108036446Y-49837968D01*
X107974017Y-49912470D01*
X107915995Y-49987918D01*
X107890865Y-50023485D01*
X107808570Y-50138205D01*
X107735184Y-50226577D01*
X107669806Y-50289575D01*
X107611537Y-50328171D01*
X107607463Y-50330093D01*
X107564653Y-50343485D01*
X107504303Y-50351770D01*
X107423915Y-50355011D01*
X107320992Y-50353269D01*
X107193035Y-50346609D01*
X107128491Y-50342161D01*
X107057931Y-50335406D01*
X106994606Y-50324978D01*
X106929162Y-50308696D01*
X106852249Y-50284378D01*
X106794663Y-50264294D01*
X106723206Y-50238657D01*
X106659685Y-50215564D01*
X106610096Y-50197218D01*
X106580436Y-50185821D01*
X106576948Y-50184363D01*
X106546532Y-50172343D01*
X106501509Y-50155883D01*
X106475348Y-50146722D01*
X106401754Y-50118935D01*
X106364997Y-50103314D01*
X106889005Y-50103314D01*
X106896263Y-50110571D01*
X106903520Y-50103314D01*
X106896263Y-50096057D01*
X106889005Y-50103314D01*
X106364997Y-50103314D01*
X106318741Y-50083657D01*
X106233874Y-50044492D01*
X106154713Y-50005043D01*
X106088823Y-49968915D01*
X106048916Y-49943521D01*
X105995349Y-49911718D01*
X105926652Y-49883825D01*
X105836145Y-49857163D01*
X105828463Y-49855183D01*
X105708940Y-49820486D01*
X105642249Y-49794309D01*
X106122189Y-49794309D01*
X106124024Y-49800948D01*
X106143975Y-49817461D01*
X106186078Y-49842099D01*
X106245389Y-49872579D01*
X106316962Y-49906620D01*
X106395851Y-49941939D01*
X106477110Y-49976254D01*
X106555794Y-50007284D01*
X106624855Y-50032043D01*
X106708883Y-50059068D01*
X106779006Y-50079383D01*
X106832143Y-50092277D01*
X106865214Y-50097037D01*
X106875139Y-50092953D01*
X106872513Y-50089241D01*
X106856791Y-50081713D01*
X106819886Y-50066893D01*
X106767973Y-50047202D01*
X106728580Y-50032750D01*
X106659721Y-50006942D01*
X106569609Y-49971851D01*
X106463663Y-49929649D01*
X106347301Y-49882510D01*
X106225943Y-49832607D01*
X106135510Y-49794927D01*
X106122189Y-49794309D01*
X105642249Y-49794309D01*
X105615176Y-49783683D01*
X105543908Y-49743257D01*
X105493695Y-49699709D01*
X105452091Y-49654159D01*
X105452091Y-49076141D01*
X105656559Y-49076141D01*
X105657164Y-49171429D01*
X105658526Y-49257970D01*
X105660658Y-49330366D01*
X105663573Y-49383224D01*
X105666249Y-49406628D01*
X105671572Y-49422052D01*
X105676694Y-49412078D01*
X105681466Y-49380335D01*
X105685739Y-49330455D01*
X105689366Y-49266067D01*
X105692198Y-49190801D01*
X105694086Y-49108288D01*
X105694883Y-49022157D01*
X105694440Y-48936040D01*
X105692608Y-48853566D01*
X105692155Y-48842118D01*
X105891824Y-48842118D01*
X105892409Y-48955081D01*
X105893859Y-49067935D01*
X105896124Y-49176290D01*
X105899156Y-49275752D01*
X105902905Y-49361928D01*
X105907322Y-49430425D01*
X105912356Y-49476852D01*
X105915555Y-49491983D01*
X105949956Y-49557124D01*
X106010713Y-49622936D01*
X106095305Y-49687179D01*
X106201205Y-49747614D01*
X106206834Y-49750406D01*
X106336935Y-49812236D01*
X106468543Y-49870525D01*
X106598352Y-49924133D01*
X106723060Y-49971918D01*
X106839364Y-50012737D01*
X106943960Y-50045450D01*
X107033544Y-50068915D01*
X107104813Y-50081990D01*
X107154464Y-50083534D01*
X107164916Y-50081503D01*
X107201392Y-50066670D01*
X107246030Y-50042932D01*
X107260336Y-50034180D01*
X107307702Y-49997954D01*
X107367773Y-49942653D01*
X107436153Y-49872662D01*
X107508447Y-49792364D01*
X107540301Y-49754971D01*
X107602856Y-49680316D01*
X107649623Y-49624654D01*
X107683402Y-49584679D01*
X107706992Y-49557088D01*
X107723194Y-49538577D01*
X107730834Y-49530127D01*
X107749562Y-49509220D01*
X107781956Y-49472561D01*
X107822611Y-49426280D01*
X107846948Y-49398469D01*
X107914954Y-49323010D01*
X107971547Y-49267271D01*
X108022491Y-49227569D01*
X108073548Y-49200223D01*
X108130482Y-49181549D01*
X108199056Y-49167867D01*
X108210789Y-49166004D01*
X108338625Y-49156498D01*
X108459139Y-49167585D01*
X108567655Y-49198190D01*
X108659500Y-49247240D01*
X108697118Y-49277791D01*
X108721417Y-49302700D01*
X108760583Y-49345337D01*
X108810735Y-49401272D01*
X108867991Y-49466070D01*
X108928467Y-49535301D01*
X108988283Y-49604532D01*
X109043556Y-49669331D01*
X109090405Y-49725265D01*
X109109691Y-49748814D01*
X109173795Y-49824317D01*
X109240649Y-49896761D01*
X109305302Y-49961225D01*
X109362798Y-50012789D01*
X109408185Y-50046533D01*
X109411387Y-50048458D01*
X109468383Y-50073976D01*
X109523029Y-50085335D01*
X109529068Y-50085501D01*
X109561715Y-50081556D01*
X109613102Y-50071010D01*
X109676128Y-50055798D01*
X109743697Y-50037855D01*
X109808709Y-50019115D01*
X109864065Y-50001514D01*
X109902668Y-49986985D01*
X109915234Y-49980248D01*
X109939587Y-49967574D01*
X109966034Y-49957964D01*
X110002316Y-49945042D01*
X110058837Y-49922667D01*
X110129437Y-49893458D01*
X110207957Y-49860037D01*
X110288238Y-49825027D01*
X110364120Y-49791047D01*
X110379301Y-49784000D01*
X110546605Y-49784000D01*
X110553863Y-49791257D01*
X110561120Y-49784000D01*
X110553863Y-49776743D01*
X110546605Y-49784000D01*
X110379301Y-49784000D01*
X110429026Y-49760919D01*
X110520154Y-49715218D01*
X110588816Y-49674435D01*
X110640110Y-49634385D01*
X110679135Y-49590886D01*
X110710990Y-49539754D01*
X110719926Y-49522271D01*
X110765035Y-49430641D01*
X110761508Y-49054795D01*
X110954888Y-49054795D01*
X110955207Y-49149153D01*
X110956209Y-49235983D01*
X110957910Y-49310063D01*
X110960326Y-49366173D01*
X110963475Y-49399095D01*
X110963891Y-49401185D01*
X110969471Y-49413189D01*
X110974596Y-49399646D01*
X110979132Y-49364036D01*
X110982948Y-49309839D01*
X110985908Y-49240536D01*
X110987882Y-49159606D01*
X110988737Y-49070529D01*
X110988338Y-48976785D01*
X110986554Y-48881855D01*
X110985294Y-48840571D01*
X110981881Y-48758152D01*
X110977989Y-48692015D01*
X110973898Y-48645377D01*
X110969888Y-48621452D01*
X110966369Y-48622857D01*
X110962944Y-48652768D01*
X110960101Y-48706471D01*
X110957857Y-48778745D01*
X110956229Y-48864370D01*
X110955234Y-48958127D01*
X110954888Y-49054795D01*
X110761508Y-49054795D01*
X110760154Y-48910635D01*
X110758215Y-48756179D01*
X110755517Y-48621872D01*
X110752127Y-48509491D01*
X110748110Y-48420811D01*
X110743532Y-48357605D01*
X110738458Y-48321656D01*
X110696265Y-48204859D01*
X110629626Y-48091887D01*
X110543053Y-47988592D01*
X110441057Y-47900823D01*
X110386256Y-47864927D01*
X110274924Y-47809406D01*
X110135596Y-47757606D01*
X109969087Y-47709724D01*
X109776216Y-47665958D01*
X109557800Y-47626506D01*
X109314656Y-47591566D01*
X109199503Y-47577609D01*
X108945172Y-47551738D01*
X108702458Y-47534369D01*
X108465784Y-47525608D01*
X108229575Y-47525558D01*
X107988254Y-47534323D01*
X107736246Y-47552005D01*
X107467976Y-47578710D01*
X107177867Y-47614541D01*
X107172034Y-47615320D01*
X107098926Y-47626873D01*
X107008096Y-47643899D01*
X106906846Y-47664765D01*
X106802479Y-47687839D01*
X106702297Y-47711487D01*
X106613605Y-47734078D01*
X106543704Y-47753977D01*
X106525271Y-47759923D01*
X106365013Y-47822861D01*
X106231082Y-47895369D01*
X106121848Y-47979202D01*
X106035680Y-48076116D01*
X105970947Y-48187868D01*
X105926019Y-48316213D01*
X105903606Y-48429443D01*
X105899124Y-48477051D01*
X105895755Y-48546515D01*
X105893447Y-48633443D01*
X105892154Y-48733442D01*
X105891824Y-48842118D01*
X105692155Y-48842118D01*
X105690758Y-48806851D01*
X105686107Y-48717909D01*
X105681822Y-48656284D01*
X105677692Y-48620270D01*
X105673509Y-48608162D01*
X105669061Y-48618255D01*
X105668108Y-48622857D01*
X105664440Y-48657326D01*
X105661453Y-48715420D01*
X105659158Y-48791745D01*
X105657569Y-48880903D01*
X105656698Y-48977501D01*
X105656559Y-49076141D01*
X105452091Y-49076141D01*
X105452091Y-48414458D01*
X105531920Y-48397885D01*
X105579307Y-48385955D01*
X105603857Y-48373147D01*
X105611649Y-48356054D01*
X105611748Y-48353117D01*
X105618617Y-48315448D01*
X105625052Y-48299717D01*
X105639178Y-48268993D01*
X105655614Y-48228213D01*
X105656914Y-48224754D01*
X105675970Y-48184810D01*
X105707469Y-48130036D01*
X105746227Y-48068662D01*
X105787061Y-48008925D01*
X105822032Y-47962457D01*
X105931232Y-47845118D01*
X106062456Y-47734548D01*
X106208772Y-47635513D01*
X106363243Y-47552782D01*
X106448001Y-47518337D01*
X106911028Y-47518337D01*
X106913642Y-47519767D01*
X106915901Y-47519475D01*
X106948671Y-47515227D01*
X107003011Y-47508562D01*
X107071653Y-47500357D01*
X107147325Y-47491491D01*
X107155386Y-47490556D01*
X107236236Y-47480841D01*
X107315525Y-47470690D01*
X107384170Y-47461303D01*
X107433092Y-47453879D01*
X107433291Y-47453845D01*
X107507475Y-47444258D01*
X107606336Y-47435855D01*
X107725541Y-47428741D01*
X107860758Y-47423022D01*
X108007656Y-47418803D01*
X108161901Y-47416191D01*
X108319164Y-47415290D01*
X108475110Y-47416205D01*
X108625408Y-47419043D01*
X108727729Y-47422337D01*
X108841309Y-47427116D01*
X108949262Y-47432391D01*
X109047103Y-47437885D01*
X109130347Y-47443325D01*
X109194511Y-47448433D01*
X109235108Y-47452936D01*
X109240320Y-47453797D01*
X109285582Y-47461160D01*
X109351192Y-47470563D01*
X109428646Y-47480838D01*
X109509441Y-47490822D01*
X109516091Y-47491608D01*
X109591527Y-47500775D01*
X109659236Y-47509524D01*
X109712605Y-47516967D01*
X109745023Y-47522210D01*
X109748320Y-47522896D01*
X109772117Y-47525955D01*
X109776201Y-47521876D01*
X109756884Y-47513352D01*
X109713849Y-47501235D01*
X109652041Y-47486543D01*
X109576401Y-47470295D01*
X109491874Y-47453509D01*
X109403403Y-47437205D01*
X109315929Y-47422402D01*
X109234397Y-47410118D01*
X109233063Y-47409932D01*
X109156587Y-47400455D01*
X109058891Y-47390035D01*
X108947736Y-47379403D01*
X108830882Y-47369291D01*
X108716090Y-47360429D01*
X108683382Y-47358135D01*
X108569024Y-47350609D01*
X108475004Y-47345377D01*
X108393787Y-47342438D01*
X108317840Y-47341787D01*
X108239630Y-47343422D01*
X108151621Y-47347339D01*
X108046281Y-47353535D01*
X107979439Y-47357834D01*
X107748338Y-47375192D01*
X107543335Y-47395486D01*
X107361614Y-47419089D01*
X107200359Y-47446375D01*
X107056753Y-47477720D01*
X107034148Y-47483413D01*
X106974812Y-47499083D01*
X106932595Y-47511083D01*
X106911028Y-47518337D01*
X106448001Y-47518337D01*
X106497120Y-47498376D01*
X106549682Y-47479923D01*
X106594540Y-47463468D01*
X106620491Y-47453193D01*
X106647262Y-47444308D01*
X106697239Y-47431178D01*
X106771643Y-47413515D01*
X106871692Y-47391035D01*
X106998608Y-47363451D01*
X107048663Y-47352737D01*
X107147203Y-47333673D01*
X107266620Y-47313693D01*
X107398839Y-47293955D01*
X107535781Y-47275619D01*
X107669371Y-47259842D01*
X107761599Y-47250470D01*
X107848854Y-47244645D01*
X107963903Y-47240766D01*
X108105580Y-47238848D01*
X108272714Y-47238909D01*
G37*
X108272714Y-47238909D02*
X108451028Y-47240770D01*
X108593263Y-47243034D01*
X108711121Y-47245479D01*
X108809255Y-47248382D01*
X108892318Y-47252020D01*
X108964961Y-47256669D01*
X109031838Y-47262605D01*
X109097599Y-47270105D01*
X109166897Y-47279444D01*
X109211291Y-47285924D01*
X109376228Y-47311639D01*
X109524330Y-47337511D01*
X109667711Y-47365840D01*
X109818487Y-47398924D01*
X109872062Y-47411308D01*
X110091319Y-47474126D01*
X110292523Y-47555463D01*
X110474435Y-47654317D01*
X110635815Y-47769690D01*
X110775423Y-47900581D01*
X110892020Y-48045990D01*
X110984365Y-48204918D01*
X111045349Y-48357539D01*
X111064292Y-48378715D01*
X111093898Y-48391375D01*
X111140003Y-48403810D01*
X111174348Y-48415340D01*
X111214263Y-48430436D01*
X111214263Y-49028198D01*
X111214262Y-49625960D01*
X111178761Y-49674079D01*
X111144831Y-49714608D01*
X111106054Y-49748032D01*
X111057576Y-49776805D01*
X110994544Y-49803379D01*
X110912102Y-49830207D01*
X110817783Y-49856466D01*
X110714824Y-49888654D01*
X110637036Y-49924241D01*
X110606595Y-49943654D01*
X110566618Y-49968505D01*
X110507221Y-50000753D01*
X110435861Y-50036819D01*
X110359992Y-50073126D01*
X110287070Y-50106094D01*
X110224550Y-50132146D01*
X110183748Y-50146601D01*
X110143170Y-50160464D01*
X110103920Y-50175994D01*
X110075223Y-50187026D01*
X110024932Y-50205097D01*
X109959008Y-50228113D01*
X109883413Y-50253980D01*
X109842663Y-50267728D01*
X109624948Y-50340812D01*
X109374671Y-50351070D01*
X109280260Y-50354568D01*
X109209617Y-50356046D01*
X109157534Y-50355263D01*
X109118805Y-50351981D01*
X109088223Y-50345959D01*
X109060583Y-50336958D01*
X109059537Y-50336561D01*
X109006623Y-50307510D01*
X108948231Y-50257972D01*
X108882806Y-50186284D01*
X108808796Y-50090787D01*
X108808766Y-50090744D01*
X109777348Y-50090744D01*
X109783084Y-50095317D01*
X109802699Y-50093960D01*
X109839802Y-50085921D01*
X109898006Y-50070443D01*
X109963704Y-50051758D01*
X110040410Y-50028089D01*
X110119726Y-50001132D01*
X110189591Y-49975084D01*
X110219322Y-49962795D01*
X110275494Y-49937100D01*
X110336413Y-49907341D01*
X110396800Y-49876348D01*
X110451378Y-49846956D01*
X110494868Y-49821995D01*
X110521993Y-49804298D01*
X110528205Y-49797047D01*
X110513552Y-49800191D01*
X110477605Y-49812688D01*
X110425788Y-49832540D01*
X110364205Y-49857465D01*
X110196076Y-49926419D01*
X110053572Y-49983377D01*
X109936945Y-50028240D01*
X109868063Y-50053377D01*
X109822173Y-50070327D01*
X109789549Y-50083780D01*
X109777348Y-50090744D01*
X108808766Y-50090744D01*
X108745985Y-50001462D01*
X108674136Y-49903398D01*
X108600213Y-49816109D01*
X108527793Y-49743109D01*
X108460451Y-49687912D01*
X108401762Y-49654032D01*
X108387147Y-49648779D01*
X108330493Y-49638108D01*
X108277545Y-49643525D01*
X108223458Y-49667135D01*
X108163390Y-49711040D01*
X108093512Y-49776326D01*
X108036446Y-49837968D01*
X107974017Y-49912470D01*
X107915995Y-49987918D01*
X107890865Y-50023485D01*
X107808570Y-50138205D01*
X107735184Y-50226577D01*
X107669806Y-50289575D01*
X107611537Y-50328171D01*
X107607463Y-50330093D01*
X107564653Y-50343485D01*
X107504303Y-50351770D01*
X107423915Y-50355011D01*
X107320992Y-50353269D01*
X107193035Y-50346609D01*
X107128491Y-50342161D01*
X107057931Y-50335406D01*
X106994606Y-50324978D01*
X106929162Y-50308696D01*
X106852249Y-50284378D01*
X106794663Y-50264294D01*
X106723206Y-50238657D01*
X106659685Y-50215564D01*
X106610096Y-50197218D01*
X106580436Y-50185821D01*
X106576948Y-50184363D01*
X106546532Y-50172343D01*
X106501509Y-50155883D01*
X106475348Y-50146722D01*
X106401754Y-50118935D01*
X106364997Y-50103314D01*
X106889005Y-50103314D01*
X106896263Y-50110571D01*
X106903520Y-50103314D01*
X106896263Y-50096057D01*
X106889005Y-50103314D01*
X106364997Y-50103314D01*
X106318741Y-50083657D01*
X106233874Y-50044492D01*
X106154713Y-50005043D01*
X106088823Y-49968915D01*
X106048916Y-49943521D01*
X105995349Y-49911718D01*
X105926652Y-49883825D01*
X105836145Y-49857163D01*
X105828463Y-49855183D01*
X105708940Y-49820486D01*
X105642249Y-49794309D01*
X106122189Y-49794309D01*
X106124024Y-49800948D01*
X106143975Y-49817461D01*
X106186078Y-49842099D01*
X106245389Y-49872579D01*
X106316962Y-49906620D01*
X106395851Y-49941939D01*
X106477110Y-49976254D01*
X106555794Y-50007284D01*
X106624855Y-50032043D01*
X106708883Y-50059068D01*
X106779006Y-50079383D01*
X106832143Y-50092277D01*
X106865214Y-50097037D01*
X106875139Y-50092953D01*
X106872513Y-50089241D01*
X106856791Y-50081713D01*
X106819886Y-50066893D01*
X106767973Y-50047202D01*
X106728580Y-50032750D01*
X106659721Y-50006942D01*
X106569609Y-49971851D01*
X106463663Y-49929649D01*
X106347301Y-49882510D01*
X106225943Y-49832607D01*
X106135510Y-49794927D01*
X106122189Y-49794309D01*
X105642249Y-49794309D01*
X105615176Y-49783683D01*
X105543908Y-49743257D01*
X105493695Y-49699709D01*
X105452091Y-49654159D01*
X105452091Y-49076141D01*
X105656559Y-49076141D01*
X105657164Y-49171429D01*
X105658526Y-49257970D01*
X105660658Y-49330366D01*
X105663573Y-49383224D01*
X105666249Y-49406628D01*
X105671572Y-49422052D01*
X105676694Y-49412078D01*
X105681466Y-49380335D01*
X105685739Y-49330455D01*
X105689366Y-49266067D01*
X105692198Y-49190801D01*
X105694086Y-49108288D01*
X105694883Y-49022157D01*
X105694440Y-48936040D01*
X105692608Y-48853566D01*
X105692155Y-48842118D01*
X105891824Y-48842118D01*
X105892409Y-48955081D01*
X105893859Y-49067935D01*
X105896124Y-49176290D01*
X105899156Y-49275752D01*
X105902905Y-49361928D01*
X105907322Y-49430425D01*
X105912356Y-49476852D01*
X105915555Y-49491983D01*
X105949956Y-49557124D01*
X106010713Y-49622936D01*
X106095305Y-49687179D01*
X106201205Y-49747614D01*
X106206834Y-49750406D01*
X106336935Y-49812236D01*
X106468543Y-49870525D01*
X106598352Y-49924133D01*
X106723060Y-49971918D01*
X106839364Y-50012737D01*
X106943960Y-50045450D01*
X107033544Y-50068915D01*
X107104813Y-50081990D01*
X107154464Y-50083534D01*
X107164916Y-50081503D01*
X107201392Y-50066670D01*
X107246030Y-50042932D01*
X107260336Y-50034180D01*
X107307702Y-49997954D01*
X107367773Y-49942653D01*
X107436153Y-49872662D01*
X107508447Y-49792364D01*
X107540301Y-49754971D01*
X107602856Y-49680316D01*
X107649623Y-49624654D01*
X107683402Y-49584679D01*
X107706992Y-49557088D01*
X107723194Y-49538577D01*
X107730834Y-49530127D01*
X107749562Y-49509220D01*
X107781956Y-49472561D01*
X107822611Y-49426280D01*
X107846948Y-49398469D01*
X107914954Y-49323010D01*
X107971547Y-49267271D01*
X108022491Y-49227569D01*
X108073548Y-49200223D01*
X108130482Y-49181549D01*
X108199056Y-49167867D01*
X108210789Y-49166004D01*
X108338625Y-49156498D01*
X108459139Y-49167585D01*
X108567655Y-49198190D01*
X108659500Y-49247240D01*
X108697118Y-49277791D01*
X108721417Y-49302700D01*
X108760583Y-49345337D01*
X108810735Y-49401272D01*
X108867991Y-49466070D01*
X108928467Y-49535301D01*
X108988283Y-49604532D01*
X109043556Y-49669331D01*
X109090405Y-49725265D01*
X109109691Y-49748814D01*
X109173795Y-49824317D01*
X109240649Y-49896761D01*
X109305302Y-49961225D01*
X109362798Y-50012789D01*
X109408185Y-50046533D01*
X109411387Y-50048458D01*
X109468383Y-50073976D01*
X109523029Y-50085335D01*
X109529068Y-50085501D01*
X109561715Y-50081556D01*
X109613102Y-50071010D01*
X109676128Y-50055798D01*
X109743697Y-50037855D01*
X109808709Y-50019115D01*
X109864065Y-50001514D01*
X109902668Y-49986985D01*
X109915234Y-49980248D01*
X109939587Y-49967574D01*
X109966034Y-49957964D01*
X110002316Y-49945042D01*
X110058837Y-49922667D01*
X110129437Y-49893458D01*
X110207957Y-49860037D01*
X110288238Y-49825027D01*
X110364120Y-49791047D01*
X110379301Y-49784000D01*
X110546605Y-49784000D01*
X110553863Y-49791257D01*
X110561120Y-49784000D01*
X110553863Y-49776743D01*
X110546605Y-49784000D01*
X110379301Y-49784000D01*
X110429026Y-49760919D01*
X110520154Y-49715218D01*
X110588816Y-49674435D01*
X110640110Y-49634385D01*
X110679135Y-49590886D01*
X110710990Y-49539754D01*
X110719926Y-49522271D01*
X110765035Y-49430641D01*
X110761508Y-49054795D01*
X110954888Y-49054795D01*
X110955207Y-49149153D01*
X110956209Y-49235983D01*
X110957910Y-49310063D01*
X110960326Y-49366173D01*
X110963475Y-49399095D01*
X110963891Y-49401185D01*
X110969471Y-49413189D01*
X110974596Y-49399646D01*
X110979132Y-49364036D01*
X110982948Y-49309839D01*
X110985908Y-49240536D01*
X110987882Y-49159606D01*
X110988737Y-49070529D01*
X110988338Y-48976785D01*
X110986554Y-48881855D01*
X110985294Y-48840571D01*
X110981881Y-48758152D01*
X110977989Y-48692015D01*
X110973898Y-48645377D01*
X110969888Y-48621452D01*
X110966369Y-48622857D01*
X110962944Y-48652768D01*
X110960101Y-48706471D01*
X110957857Y-48778745D01*
X110956229Y-48864370D01*
X110955234Y-48958127D01*
X110954888Y-49054795D01*
X110761508Y-49054795D01*
X110760154Y-48910635D01*
X110758215Y-48756179D01*
X110755517Y-48621872D01*
X110752127Y-48509491D01*
X110748110Y-48420811D01*
X110743532Y-48357605D01*
X110738458Y-48321656D01*
X110696265Y-48204859D01*
X110629626Y-48091887D01*
X110543053Y-47988592D01*
X110441057Y-47900823D01*
X110386256Y-47864927D01*
X110274924Y-47809406D01*
X110135596Y-47757606D01*
X109969087Y-47709724D01*
X109776216Y-47665958D01*
X109557800Y-47626506D01*
X109314656Y-47591566D01*
X109199503Y-47577609D01*
X108945172Y-47551738D01*
X108702458Y-47534369D01*
X108465784Y-47525608D01*
X108229575Y-47525558D01*
X107988254Y-47534323D01*
X107736246Y-47552005D01*
X107467976Y-47578710D01*
X107177867Y-47614541D01*
X107172034Y-47615320D01*
X107098926Y-47626873D01*
X107008096Y-47643899D01*
X106906846Y-47664765D01*
X106802479Y-47687839D01*
X106702297Y-47711487D01*
X106613605Y-47734078D01*
X106543704Y-47753977D01*
X106525271Y-47759923D01*
X106365013Y-47822861D01*
X106231082Y-47895369D01*
X106121848Y-47979202D01*
X106035680Y-48076116D01*
X105970947Y-48187868D01*
X105926019Y-48316213D01*
X105903606Y-48429443D01*
X105899124Y-48477051D01*
X105895755Y-48546515D01*
X105893447Y-48633443D01*
X105892154Y-48733442D01*
X105891824Y-48842118D01*
X105692155Y-48842118D01*
X105690758Y-48806851D01*
X105686107Y-48717909D01*
X105681822Y-48656284D01*
X105677692Y-48620270D01*
X105673509Y-48608162D01*
X105669061Y-48618255D01*
X105668108Y-48622857D01*
X105664440Y-48657326D01*
X105661453Y-48715420D01*
X105659158Y-48791745D01*
X105657569Y-48880903D01*
X105656698Y-48977501D01*
X105656559Y-49076141D01*
X105452091Y-49076141D01*
X105452091Y-48414458D01*
X105531920Y-48397885D01*
X105579307Y-48385955D01*
X105603857Y-48373147D01*
X105611649Y-48356054D01*
X105611748Y-48353117D01*
X105618617Y-48315448D01*
X105625052Y-48299717D01*
X105639178Y-48268993D01*
X105655614Y-48228213D01*
X105656914Y-48224754D01*
X105675970Y-48184810D01*
X105707469Y-48130036D01*
X105746227Y-48068662D01*
X105787061Y-48008925D01*
X105822032Y-47962457D01*
X105931232Y-47845118D01*
X106062456Y-47734548D01*
X106208772Y-47635513D01*
X106363243Y-47552782D01*
X106448001Y-47518337D01*
X106911028Y-47518337D01*
X106913642Y-47519767D01*
X106915901Y-47519475D01*
X106948671Y-47515227D01*
X107003011Y-47508562D01*
X107071653Y-47500357D01*
X107147325Y-47491491D01*
X107155386Y-47490556D01*
X107236236Y-47480841D01*
X107315525Y-47470690D01*
X107384170Y-47461303D01*
X107433092Y-47453879D01*
X107433291Y-47453845D01*
X107507475Y-47444258D01*
X107606336Y-47435855D01*
X107725541Y-47428741D01*
X107860758Y-47423022D01*
X108007656Y-47418803D01*
X108161901Y-47416191D01*
X108319164Y-47415290D01*
X108475110Y-47416205D01*
X108625408Y-47419043D01*
X108727729Y-47422337D01*
X108841309Y-47427116D01*
X108949262Y-47432391D01*
X109047103Y-47437885D01*
X109130347Y-47443325D01*
X109194511Y-47448433D01*
X109235108Y-47452936D01*
X109240320Y-47453797D01*
X109285582Y-47461160D01*
X109351192Y-47470563D01*
X109428646Y-47480838D01*
X109509441Y-47490822D01*
X109516091Y-47491608D01*
X109591527Y-47500775D01*
X109659236Y-47509524D01*
X109712605Y-47516967D01*
X109745023Y-47522210D01*
X109748320Y-47522896D01*
X109772117Y-47525955D01*
X109776201Y-47521876D01*
X109756884Y-47513352D01*
X109713849Y-47501235D01*
X109652041Y-47486543D01*
X109576401Y-47470295D01*
X109491874Y-47453509D01*
X109403403Y-47437205D01*
X109315929Y-47422402D01*
X109234397Y-47410118D01*
X109233063Y-47409932D01*
X109156587Y-47400455D01*
X109058891Y-47390035D01*
X108947736Y-47379403D01*
X108830882Y-47369291D01*
X108716090Y-47360429D01*
X108683382Y-47358135D01*
X108569024Y-47350609D01*
X108475004Y-47345377D01*
X108393787Y-47342438D01*
X108317840Y-47341787D01*
X108239630Y-47343422D01*
X108151621Y-47347339D01*
X108046281Y-47353535D01*
X107979439Y-47357834D01*
X107748338Y-47375192D01*
X107543335Y-47395486D01*
X107361614Y-47419089D01*
X107200359Y-47446375D01*
X107056753Y-47477720D01*
X107034148Y-47483413D01*
X106974812Y-47499083D01*
X106932595Y-47511083D01*
X106911028Y-47518337D01*
X106448001Y-47518337D01*
X106497120Y-47498376D01*
X106549682Y-47479923D01*
X106594540Y-47463468D01*
X106620491Y-47453193D01*
X106647262Y-47444308D01*
X106697239Y-47431178D01*
X106771643Y-47413515D01*
X106871692Y-47391035D01*
X106998608Y-47363451D01*
X107048663Y-47352737D01*
X107147203Y-47333673D01*
X107266620Y-47313693D01*
X107398839Y-47293955D01*
X107535781Y-47275619D01*
X107669371Y-47259842D01*
X107761599Y-47250470D01*
X107848854Y-47244645D01*
X107963903Y-47240766D01*
X108105580Y-47238848D01*
X108272714Y-47238909D01*
D13*
%TO.C,C1*%
X102722000Y-95897752D02*
X102722000Y-94475248D01*
X104542000Y-95897752D02*
X104542000Y-94475248D01*
%TO.C,C12*%
X114986400Y-88683800D02*
X114986400Y-96918800D01*
X119506400Y-88683800D02*
X114986400Y-88683800D01*
X119506400Y-96918800D02*
X119506400Y-88683800D01*
%TO.C,D1*%
X111936200Y-58610400D02*
X111936200Y-56150400D01*
X111936200Y-56150400D02*
X110466200Y-56150400D01*
X110466200Y-56150400D02*
X110466200Y-58610400D01*
%TO.C,D2*%
X142592000Y-73785400D02*
X145052000Y-73785400D01*
X142592000Y-72315400D02*
X142592000Y-73785400D01*
X145052000Y-72315400D02*
X142592000Y-72315400D01*
%TO.C,J8*%
X132724199Y-56196100D02*
X132724199Y-55696100D01*
X134124199Y-56196100D02*
X134124199Y-55696100D01*
X134124199Y-56196100D02*
X134724199Y-56196100D01*
X134724199Y-56196100D02*
X134924199Y-56396100D01*
X131924199Y-56396100D02*
X131924199Y-56196100D01*
X131924199Y-56196100D02*
X132724199Y-56196100D01*
X132724199Y-59196100D02*
X131924199Y-59196100D01*
X131924199Y-59196100D02*
X131924199Y-58996100D01*
X134924199Y-58996100D02*
X134924199Y-59196100D01*
X134924199Y-59196100D02*
X134124199Y-59196100D01*
%TO.C,RADIO_COAX*%
X150591600Y-95988000D02*
X149791600Y-95988000D01*
X150591600Y-95788000D02*
X150591600Y-95988000D01*
X147591600Y-95988000D02*
X147591600Y-95788000D01*
X148391600Y-95988000D02*
X147591600Y-95988000D01*
X147591600Y-92988000D02*
X148391600Y-92988000D01*
X147591600Y-93188000D02*
X147591600Y-92988000D01*
X150391600Y-92988000D02*
X150591600Y-93188000D01*
X149791600Y-92988000D02*
X150391600Y-92988000D01*
X149791600Y-92988000D02*
X149791600Y-92488000D01*
X148391600Y-92988000D02*
X148391600Y-92488000D01*
%TO.C,R1*%
X110990136Y-54456000D02*
X111444264Y-54456000D01*
X110990136Y-52986000D02*
X111444264Y-52986000D01*
%TO.C,R2*%
X139828536Y-73785400D02*
X140282664Y-73785400D01*
X139828536Y-72315400D02*
X140282664Y-72315400D01*
%TO.C,R3*%
X104367000Y-90235036D02*
X104367000Y-90689164D01*
X102897000Y-90235036D02*
X102897000Y-90689164D01*
%TO.C,R4*%
X139482500Y-99356936D02*
X139482500Y-99811064D01*
X138012500Y-99356936D02*
X138012500Y-99811064D01*
%TO.C,R5*%
X132627700Y-96613736D02*
X132627700Y-97067864D01*
X134097700Y-96613736D02*
X134097700Y-97067864D01*
%TO.C,R10*%
X101014200Y-92419436D02*
X101014200Y-92873564D01*
X99544200Y-92419436D02*
X99544200Y-92873564D01*
%TO.C,R11*%
X129884500Y-96575636D02*
X129884500Y-97029764D01*
X131354500Y-96575636D02*
X131354500Y-97029764D01*
%TO.C,S1*%
X119592900Y-104313900D02*
X119592900Y-103523900D01*
X109692900Y-103523900D02*
X109692900Y-104313900D01*
X113792900Y-102523900D02*
X115492900Y-102523900D01*
X110292900Y-105313900D02*
X118992900Y-105313900D01*
X115292900Y-106613900D02*
X115292900Y-105313900D01*
X115092900Y-106813900D02*
X114192900Y-106813900D01*
X113992900Y-105313900D02*
X113992900Y-106613900D01*
X115292900Y-106613900D02*
X115092900Y-106813900D01*
X113992900Y-106613900D02*
X114192900Y-106813900D01*
X116792900Y-102523900D02*
X116992900Y-102523900D01*
X112292900Y-102523900D02*
X112492900Y-102523900D01*
X118292900Y-102523900D02*
X118992900Y-102523900D01*
X110292900Y-102523900D02*
X110992900Y-102523900D01*
%TO.C,SESS*%
X103206600Y-107241500D02*
X103206600Y-107241500D01*
X104006600Y-107241500D02*
X103206600Y-107241500D01*
X104306600Y-107241500D02*
X104306600Y-107241500D01*
X104806600Y-107241500D02*
X104306600Y-107241500D01*
X102906600Y-107241500D02*
X102906600Y-107241500D01*
X102406600Y-107241500D02*
X102906600Y-107241500D01*
X101606600Y-105941500D02*
X101606600Y-105941500D01*
X101606600Y-106441500D02*
X101606600Y-105941500D01*
X105606600Y-105941500D02*
X105606600Y-105941500D01*
X105606600Y-106441500D02*
X105606600Y-105941500D01*
X105606600Y-106741500D02*
X105606600Y-106741500D01*
X105606600Y-107241500D02*
X105606600Y-106741500D01*
X105106600Y-107241500D02*
X105106600Y-107241500D01*
X105606600Y-107241500D02*
X105106600Y-107241500D01*
X102106600Y-107241500D02*
X102106600Y-107241500D01*
X101606600Y-107241500D02*
X102106600Y-107241500D01*
X101606600Y-106741500D02*
X101606600Y-106741500D01*
X101606600Y-107241500D02*
X101606600Y-106741500D01*
X99006600Y-105341500D02*
X99006600Y-105341500D01*
X100706600Y-105341500D02*
X99006600Y-105341500D01*
X100706600Y-105641500D02*
X100706600Y-105341500D01*
X101506600Y-105641500D02*
X100706600Y-105641500D01*
X101506600Y-105341500D02*
X101506600Y-105641500D01*
X103206600Y-105341500D02*
X101506600Y-105341500D01*
X103206600Y-105641500D02*
X103206600Y-105341500D01*
X104006600Y-105641500D02*
X103206600Y-105641500D01*
X104006600Y-105341500D02*
X104006600Y-105641500D01*
X105706600Y-105341500D02*
X104006600Y-105341500D01*
X105706600Y-105641500D02*
X105706600Y-105341500D01*
X106506600Y-105641500D02*
X105706600Y-105641500D01*
X106506600Y-105341500D02*
X106506600Y-105641500D01*
X108206600Y-105341500D02*
X106506600Y-105341500D01*
X101806600Y-101541500D02*
X101806600Y-101541500D01*
X102906600Y-101541500D02*
X101806600Y-101541500D01*
X104306600Y-101541500D02*
X104306600Y-101541500D01*
X105406600Y-101541500D02*
X104306600Y-101541500D01*
X99006600Y-101541500D02*
X100406600Y-101541500D01*
X99006600Y-105341500D02*
X99006600Y-101541500D01*
X108206600Y-101541500D02*
X108206600Y-105341500D01*
X106806600Y-101541500D02*
X108206600Y-101541500D01*
%TO.C,RADIO PUSH*%
X143311600Y-105388800D02*
X149771600Y-105388800D01*
X143311600Y-100858800D02*
X143311600Y-103458800D01*
X143311600Y-98928800D02*
X149771600Y-98928800D01*
X149771600Y-100858800D02*
X149771600Y-103458800D01*
X143311600Y-98958800D02*
X143311600Y-98928800D01*
X143311600Y-105388800D02*
X143311600Y-105358800D01*
X149771600Y-105388800D02*
X149771600Y-105358800D01*
X149771600Y-98928800D02*
X149771600Y-98958800D01*
D15*
%TO.C,SW3*%
X125755000Y-100058800D02*
G75*
G03*
X125755000Y-100058800I-100000J0D01*
G01*
D16*
X131855000Y-102308800D02*
G75*
G03*
X131855000Y-102308800I-1755000J0D01*
G01*
X127105000Y-101158800D02*
X127105000Y-103458800D01*
X132400000Y-105303800D02*
X127800000Y-105303800D01*
X133100000Y-101158800D02*
X133100000Y-103458800D01*
X127900000Y-99313800D02*
X132400000Y-99313800D01*
D13*
%TO.C,MICRO*%
X114849600Y-83564000D02*
X114849600Y-84929000D01*
X114149600Y-83564000D02*
X114849600Y-83564000D01*
X114149600Y-82864000D02*
X114149600Y-83564000D01*
X114149600Y-69344000D02*
X114849600Y-69344000D01*
X114149600Y-70044000D02*
X114149600Y-69344000D01*
X128369600Y-83564000D02*
X127669600Y-83564000D01*
X128369600Y-82864000D02*
X128369600Y-83564000D01*
X128369600Y-69344000D02*
X127669600Y-69344000D01*
X128369600Y-70044000D02*
X128369600Y-69344000D01*
D17*
%TO.C,GPS*%
X113175800Y-64472000D02*
G75*
G03*
X113175800Y-64472000I-316200J0D01*
G01*
X113259600Y-47372000D02*
X113759600Y-47372000D01*
X128759600Y-47372000D02*
X129259600Y-47372000D01*
X129259600Y-47372000D02*
X129259600Y-63372000D01*
X113259600Y-63372000D02*
X113259600Y-47372000D01*
D13*
%TO.C,RADIO*%
X134241600Y-75308000D02*
X133341600Y-75308000D01*
X134241600Y-74958000D02*
X134241600Y-75308000D01*
X150441600Y-91158000D02*
X150441600Y-90758000D01*
X134241600Y-91158000D02*
X150441600Y-91158000D01*
X134241600Y-90758000D02*
X134241600Y-91158000D01*
X150441600Y-74958000D02*
X150441600Y-75358000D01*
X134241600Y-74958000D02*
X150441600Y-74958000D01*
%TO.C,V_REG*%
X113253200Y-94132400D02*
X113253200Y-90682400D01*
X113253200Y-94132400D02*
X113253200Y-96082400D01*
X108133200Y-94132400D02*
X108133200Y-92182400D01*
X108133200Y-94132400D02*
X108133200Y-96082400D01*
%TO.C,PROG*%
D10*
X99344385Y-56205380D02*
X99344385Y-55205380D01*
X99725338Y-55205380D01*
X99820576Y-55253000D01*
X99868195Y-55300619D01*
X99915814Y-55395857D01*
X99915814Y-55538714D01*
X99868195Y-55633952D01*
X99820576Y-55681571D01*
X99725338Y-55729190D01*
X99344385Y-55729190D01*
X100915814Y-56205380D02*
X100582480Y-55729190D01*
X100344385Y-56205380D02*
X100344385Y-55205380D01*
X100725338Y-55205380D01*
X100820576Y-55253000D01*
X100868195Y-55300619D01*
X100915814Y-55395857D01*
X100915814Y-55538714D01*
X100868195Y-55633952D01*
X100820576Y-55681571D01*
X100725338Y-55729190D01*
X100344385Y-55729190D01*
X101534861Y-55205380D02*
X101725338Y-55205380D01*
X101820576Y-55253000D01*
X101915814Y-55348238D01*
X101963433Y-55538714D01*
X101963433Y-55872047D01*
X101915814Y-56062523D01*
X101820576Y-56157761D01*
X101725338Y-56205380D01*
X101534861Y-56205380D01*
X101439623Y-56157761D01*
X101344385Y-56062523D01*
X101296766Y-55872047D01*
X101296766Y-55538714D01*
X101344385Y-55348238D01*
X101439623Y-55253000D01*
X101534861Y-55205380D01*
X102915814Y-55253000D02*
X102820576Y-55205380D01*
X102677719Y-55205380D01*
X102534861Y-55253000D01*
X102439623Y-55348238D01*
X102392004Y-55443476D01*
X102344385Y-55633952D01*
X102344385Y-55776809D01*
X102392004Y-55967285D01*
X102439623Y-56062523D01*
X102534861Y-56157761D01*
X102677719Y-56205380D01*
X102772957Y-56205380D01*
X102915814Y-56157761D01*
X102963433Y-56110142D01*
X102963433Y-55776809D01*
X102772957Y-55776809D01*
%TO.C,2.5mm*%
X146675766Y-52074819D02*
X146723385Y-52027200D01*
X146818623Y-51979580D01*
X147056719Y-51979580D01*
X147151957Y-52027200D01*
X147199576Y-52074819D01*
X147247195Y-52170057D01*
X147247195Y-52265295D01*
X147199576Y-52408152D01*
X146628147Y-52979580D01*
X147247195Y-52979580D01*
X147675766Y-52884342D02*
X147723385Y-52931961D01*
X147675766Y-52979580D01*
X147628147Y-52931961D01*
X147675766Y-52884342D01*
X147675766Y-52979580D01*
X148628147Y-51979580D02*
X148151957Y-51979580D01*
X148104338Y-52455771D01*
X148151957Y-52408152D01*
X148247195Y-52360533D01*
X148485290Y-52360533D01*
X148580528Y-52408152D01*
X148628147Y-52455771D01*
X148675766Y-52551009D01*
X148675766Y-52789104D01*
X148628147Y-52884342D01*
X148580528Y-52931961D01*
X148485290Y-52979580D01*
X148247195Y-52979580D01*
X148151957Y-52931961D01*
X148104338Y-52884342D01*
X149104338Y-52979580D02*
X149104338Y-52312914D01*
X149104338Y-52408152D02*
X149151957Y-52360533D01*
X149247195Y-52312914D01*
X149390052Y-52312914D01*
X149485290Y-52360533D01*
X149532909Y-52455771D01*
X149532909Y-52979580D01*
X149532909Y-52455771D02*
X149580528Y-52360533D01*
X149675766Y-52312914D01*
X149818623Y-52312914D01*
X149913861Y-52360533D01*
X149961480Y-52455771D01*
X149961480Y-52979580D01*
X150437671Y-52979580D02*
X150437671Y-52312914D01*
X150437671Y-52408152D02*
X150485290Y-52360533D01*
X150580528Y-52312914D01*
X150723385Y-52312914D01*
X150818623Y-52360533D01*
X150866242Y-52455771D01*
X150866242Y-52979580D01*
X150866242Y-52455771D02*
X150913861Y-52360533D01*
X151009100Y-52312914D01*
X151151957Y-52312914D01*
X151247195Y-52360533D01*
X151294814Y-52455771D01*
X151294814Y-52979580D01*
%TO.C,OLED Qwiic*%
X99020785Y-70915280D02*
X99211261Y-70915280D01*
X99306500Y-70962900D01*
X99401738Y-71058138D01*
X99449357Y-71248614D01*
X99449357Y-71581947D01*
X99401738Y-71772423D01*
X99306500Y-71867661D01*
X99211261Y-71915280D01*
X99020785Y-71915280D01*
X98925547Y-71867661D01*
X98830309Y-71772423D01*
X98782690Y-71581947D01*
X98782690Y-71248614D01*
X98830309Y-71058138D01*
X98925547Y-70962900D01*
X99020785Y-70915280D01*
X100354119Y-71915280D02*
X99877928Y-71915280D01*
X99877928Y-70915280D01*
X100687452Y-71391471D02*
X101020785Y-71391471D01*
X101163642Y-71915280D02*
X100687452Y-71915280D01*
X100687452Y-70915280D01*
X101163642Y-70915280D01*
X101592214Y-71915280D02*
X101592214Y-70915280D01*
X101830309Y-70915280D01*
X101973166Y-70962900D01*
X102068404Y-71058138D01*
X102116023Y-71153376D01*
X102163642Y-71343852D01*
X102163642Y-71486709D01*
X102116023Y-71677185D01*
X102068404Y-71772423D01*
X101973166Y-71867661D01*
X101830309Y-71915280D01*
X101592214Y-71915280D01*
X104020785Y-72010519D02*
X103925547Y-71962900D01*
X103830309Y-71867661D01*
X103687452Y-71724804D01*
X103592214Y-71677185D01*
X103496976Y-71677185D01*
X103544595Y-71915280D02*
X103449357Y-71867661D01*
X103354119Y-71772423D01*
X103306500Y-71581947D01*
X103306500Y-71248614D01*
X103354119Y-71058138D01*
X103449357Y-70962900D01*
X103544595Y-70915280D01*
X103735071Y-70915280D01*
X103830309Y-70962900D01*
X103925547Y-71058138D01*
X103973166Y-71248614D01*
X103973166Y-71581947D01*
X103925547Y-71772423D01*
X103830309Y-71867661D01*
X103735071Y-71915280D01*
X103544595Y-71915280D01*
X104306500Y-71248614D02*
X104496976Y-71915280D01*
X104687452Y-71439090D01*
X104877928Y-71915280D01*
X105068404Y-71248614D01*
X105449357Y-71915280D02*
X105449357Y-71248614D01*
X105449357Y-70915280D02*
X105401738Y-70962900D01*
X105449357Y-71010519D01*
X105496976Y-70962900D01*
X105449357Y-70915280D01*
X105449357Y-71010519D01*
X105925547Y-71915280D02*
X105925547Y-71248614D01*
X105925547Y-70915280D02*
X105877928Y-70962900D01*
X105925547Y-71010519D01*
X105973166Y-70962900D01*
X105925547Y-70915280D01*
X105925547Y-71010519D01*
X106830309Y-71867661D02*
X106735071Y-71915280D01*
X106544595Y-71915280D01*
X106449357Y-71867661D01*
X106401738Y-71820042D01*
X106354119Y-71724804D01*
X106354119Y-71439090D01*
X106401738Y-71343852D01*
X106449357Y-71296233D01*
X106544595Y-71248614D01*
X106735071Y-71248614D01*
X106830309Y-71296233D01*
%TO.C,IMU*%
X147901161Y-55075080D02*
X147901161Y-54075080D01*
X148377352Y-55075080D02*
X148377352Y-54075080D01*
X148710685Y-54789366D01*
X149044019Y-54075080D01*
X149044019Y-55075080D01*
X149520209Y-54075080D02*
X149520209Y-54884604D01*
X149567828Y-54979842D01*
X149615447Y-55027461D01*
X149710685Y-55075080D01*
X149901161Y-55075080D01*
X149996400Y-55027461D01*
X150044019Y-54979842D01*
X150091638Y-54884604D01*
X150091638Y-54075080D01*
%TO.C,R9*%
X135824933Y-102712780D02*
X135491600Y-102236590D01*
X135253504Y-102712780D02*
X135253504Y-101712780D01*
X135634457Y-101712780D01*
X135729695Y-101760400D01*
X135777314Y-101808019D01*
X135824933Y-101903257D01*
X135824933Y-102046114D01*
X135777314Y-102141352D01*
X135729695Y-102188971D01*
X135634457Y-102236590D01*
X135253504Y-102236590D01*
X136301123Y-102712780D02*
X136491600Y-102712780D01*
X136586838Y-102665161D01*
X136634457Y-102617542D01*
X136729695Y-102474685D01*
X136777314Y-102284209D01*
X136777314Y-101903257D01*
X136729695Y-101808019D01*
X136682076Y-101760400D01*
X136586838Y-101712780D01*
X136396361Y-101712780D01*
X136301123Y-101760400D01*
X136253504Y-101808019D01*
X136205885Y-101903257D01*
X136205885Y-102141352D01*
X136253504Y-102236590D01*
X136301123Y-102284209D01*
X136396361Y-102331828D01*
X136586838Y-102331828D01*
X136682076Y-102284209D01*
X136729695Y-102236590D01*
X136777314Y-102141352D01*
%TO.C,R14*%
D11*
X126259471Y-97558990D02*
X126092804Y-97320895D01*
X125973757Y-97558990D02*
X125973757Y-97058990D01*
X126164233Y-97058990D01*
X126211852Y-97082800D01*
X126235661Y-97106609D01*
X126259471Y-97154228D01*
X126259471Y-97225657D01*
X126235661Y-97273276D01*
X126211852Y-97297085D01*
X126164233Y-97320895D01*
X125973757Y-97320895D01*
X126735661Y-97558990D02*
X126449947Y-97558990D01*
X126592804Y-97558990D02*
X126592804Y-97058990D01*
X126545185Y-97130419D01*
X126497566Y-97178038D01*
X126449947Y-97201847D01*
X127164233Y-97225657D02*
X127164233Y-97558990D01*
X127045185Y-97035180D02*
X126926138Y-97392323D01*
X127235661Y-97392323D01*
%TO.C,R8*%
X126446766Y-92174190D02*
X126280100Y-91936095D01*
X126161052Y-92174190D02*
X126161052Y-91674190D01*
X126351528Y-91674190D01*
X126399147Y-91698000D01*
X126422957Y-91721809D01*
X126446766Y-91769428D01*
X126446766Y-91840857D01*
X126422957Y-91888476D01*
X126399147Y-91912285D01*
X126351528Y-91936095D01*
X126161052Y-91936095D01*
X126732480Y-91888476D02*
X126684861Y-91864666D01*
X126661052Y-91840857D01*
X126637242Y-91793238D01*
X126637242Y-91769428D01*
X126661052Y-91721809D01*
X126684861Y-91698000D01*
X126732480Y-91674190D01*
X126827719Y-91674190D01*
X126875338Y-91698000D01*
X126899147Y-91721809D01*
X126922957Y-91769428D01*
X126922957Y-91793238D01*
X126899147Y-91840857D01*
X126875338Y-91864666D01*
X126827719Y-91888476D01*
X126732480Y-91888476D01*
X126684861Y-91912285D01*
X126661052Y-91936095D01*
X126637242Y-91983714D01*
X126637242Y-92078952D01*
X126661052Y-92126571D01*
X126684861Y-92150380D01*
X126732480Y-92174190D01*
X126827719Y-92174190D01*
X126875338Y-92150380D01*
X126899147Y-92126571D01*
X126922957Y-92078952D01*
X126922957Y-91983714D01*
X126899147Y-91936095D01*
X126875338Y-91912285D01*
X126827719Y-91888476D01*
%TO.C,R7*%
X141991566Y-57744490D02*
X141824900Y-57506395D01*
X141705852Y-57744490D02*
X141705852Y-57244490D01*
X141896328Y-57244490D01*
X141943947Y-57268300D01*
X141967757Y-57292109D01*
X141991566Y-57339728D01*
X141991566Y-57411157D01*
X141967757Y-57458776D01*
X141943947Y-57482585D01*
X141896328Y-57506395D01*
X141705852Y-57506395D01*
X142158233Y-57244490D02*
X142491566Y-57244490D01*
X142277280Y-57744490D01*
%TO.C,R6*%
X106799866Y-81874490D02*
X106633200Y-81636395D01*
X106514152Y-81874490D02*
X106514152Y-81374490D01*
X106704628Y-81374490D01*
X106752247Y-81398300D01*
X106776057Y-81422109D01*
X106799866Y-81469728D01*
X106799866Y-81541157D01*
X106776057Y-81588776D01*
X106752247Y-81612585D01*
X106704628Y-81636395D01*
X106514152Y-81636395D01*
X107228438Y-81374490D02*
X107133200Y-81374490D01*
X107085580Y-81398300D01*
X107061771Y-81422109D01*
X107014152Y-81493538D01*
X106990342Y-81588776D01*
X106990342Y-81779252D01*
X107014152Y-81826871D01*
X107037961Y-81850680D01*
X107085580Y-81874490D01*
X107180819Y-81874490D01*
X107228438Y-81850680D01*
X107252247Y-81826871D01*
X107276057Y-81779252D01*
X107276057Y-81660204D01*
X107252247Y-81612585D01*
X107228438Y-81588776D01*
X107180819Y-81564966D01*
X107085580Y-81564966D01*
X107037961Y-81588776D01*
X107014152Y-81612585D01*
X106990342Y-81660204D01*
%TO.C,SYSOFF*%
X102153245Y-84863120D02*
X102224674Y-84886930D01*
X102343721Y-84886930D01*
X102391340Y-84863120D01*
X102415150Y-84839311D01*
X102438960Y-84791692D01*
X102438960Y-84744073D01*
X102415150Y-84696454D01*
X102391340Y-84672644D01*
X102343721Y-84648835D01*
X102248483Y-84625025D01*
X102200864Y-84601216D01*
X102177055Y-84577406D01*
X102153245Y-84529787D01*
X102153245Y-84482168D01*
X102177055Y-84434549D01*
X102200864Y-84410740D01*
X102248483Y-84386930D01*
X102367531Y-84386930D01*
X102438960Y-84410740D01*
X102748483Y-84648835D02*
X102748483Y-84886930D01*
X102581817Y-84386930D02*
X102748483Y-84648835D01*
X102915150Y-84386930D01*
X103058007Y-84863120D02*
X103129436Y-84886930D01*
X103248483Y-84886930D01*
X103296102Y-84863120D01*
X103319912Y-84839311D01*
X103343721Y-84791692D01*
X103343721Y-84744073D01*
X103319912Y-84696454D01*
X103296102Y-84672644D01*
X103248483Y-84648835D01*
X103153245Y-84625025D01*
X103105626Y-84601216D01*
X103081817Y-84577406D01*
X103058007Y-84529787D01*
X103058007Y-84482168D01*
X103081817Y-84434549D01*
X103105626Y-84410740D01*
X103153245Y-84386930D01*
X103272293Y-84386930D01*
X103343721Y-84410740D01*
X103653245Y-84386930D02*
X103748483Y-84386930D01*
X103796102Y-84410740D01*
X103843721Y-84458359D01*
X103867531Y-84553597D01*
X103867531Y-84720263D01*
X103843721Y-84815501D01*
X103796102Y-84863120D01*
X103748483Y-84886930D01*
X103653245Y-84886930D01*
X103605626Y-84863120D01*
X103558007Y-84815501D01*
X103534198Y-84720263D01*
X103534198Y-84553597D01*
X103558007Y-84458359D01*
X103605626Y-84410740D01*
X103653245Y-84386930D01*
X104248483Y-84625025D02*
X104081817Y-84625025D01*
X104081817Y-84886930D02*
X104081817Y-84386930D01*
X104319912Y-84386930D01*
X104677055Y-84625025D02*
X104510388Y-84625025D01*
X104510388Y-84886930D02*
X104510388Y-84386930D01*
X104748483Y-84386930D01*
%TO.C,BB*%
D10*
X122098951Y-88955648D02*
X122206094Y-88991362D01*
X122241808Y-89027077D01*
X122277522Y-89098505D01*
X122277522Y-89205648D01*
X122241808Y-89277077D01*
X122206094Y-89312791D01*
X122134665Y-89348505D01*
X121848951Y-89348505D01*
X121848951Y-88598505D01*
X122098951Y-88598505D01*
X122170380Y-88634220D01*
X122206094Y-88669934D01*
X122241808Y-88741362D01*
X122241808Y-88812791D01*
X122206094Y-88884220D01*
X122170380Y-88919934D01*
X122098951Y-88955648D01*
X121848951Y-88955648D01*
X122848951Y-88955648D02*
X122956094Y-88991362D01*
X122991808Y-89027077D01*
X123027522Y-89098505D01*
X123027522Y-89205648D01*
X122991808Y-89277077D01*
X122956094Y-89312791D01*
X122884665Y-89348505D01*
X122598951Y-89348505D01*
X122598951Y-88598505D01*
X122848951Y-88598505D01*
X122920380Y-88634220D01*
X122956094Y-88669934D01*
X122991808Y-88741362D01*
X122991808Y-88812791D01*
X122956094Y-88884220D01*
X122920380Y-88919934D01*
X122848951Y-88955648D01*
X122598951Y-88955648D01*
%TO.C,C1*%
D11*
X105644166Y-93180671D02*
X105620357Y-93204480D01*
X105548928Y-93228290D01*
X105501309Y-93228290D01*
X105429880Y-93204480D01*
X105382261Y-93156861D01*
X105358452Y-93109242D01*
X105334642Y-93014004D01*
X105334642Y-92942576D01*
X105358452Y-92847338D01*
X105382261Y-92799719D01*
X105429880Y-92752100D01*
X105501309Y-92728290D01*
X105548928Y-92728290D01*
X105620357Y-92752100D01*
X105644166Y-92775909D01*
X106120357Y-93228290D02*
X105834642Y-93228290D01*
X105977500Y-93228290D02*
X105977500Y-92728290D01*
X105929880Y-92799719D01*
X105882261Y-92847338D01*
X105834642Y-92871147D01*
%TO.C,C12*%
X116899571Y-88354671D02*
X116875761Y-88378480D01*
X116804333Y-88402290D01*
X116756714Y-88402290D01*
X116685285Y-88378480D01*
X116637666Y-88330861D01*
X116613857Y-88283242D01*
X116590047Y-88188004D01*
X116590047Y-88116576D01*
X116613857Y-88021338D01*
X116637666Y-87973719D01*
X116685285Y-87926100D01*
X116756714Y-87902290D01*
X116804333Y-87902290D01*
X116875761Y-87926100D01*
X116899571Y-87949909D01*
X117375761Y-88402290D02*
X117090047Y-88402290D01*
X117232904Y-88402290D02*
X117232904Y-87902290D01*
X117185285Y-87973719D01*
X117137666Y-88021338D01*
X117090047Y-88045147D01*
X117566238Y-87949909D02*
X117590047Y-87926100D01*
X117637666Y-87902290D01*
X117756714Y-87902290D01*
X117804333Y-87926100D01*
X117828142Y-87949909D01*
X117851952Y-87997528D01*
X117851952Y-88045147D01*
X117828142Y-88116576D01*
X117542428Y-88402290D01*
X117851952Y-88402290D01*
%TO.C,D1*%
D16*
X110826247Y-55766909D02*
X110826247Y-55258909D01*
X110947200Y-55258909D01*
X111019771Y-55283100D01*
X111068152Y-55331480D01*
X111092342Y-55379861D01*
X111116533Y-55476623D01*
X111116533Y-55549195D01*
X111092342Y-55645957D01*
X111068152Y-55694338D01*
X111019771Y-55742719D01*
X110947200Y-55766909D01*
X110826247Y-55766909D01*
X111600342Y-55766909D02*
X111310057Y-55766909D01*
X111455200Y-55766909D02*
X111455200Y-55258909D01*
X111406819Y-55331480D01*
X111358438Y-55379861D01*
X111310057Y-55404052D01*
%TO.C,D2*%
X143897047Y-71959409D02*
X143897047Y-71451409D01*
X144018000Y-71451409D01*
X144090571Y-71475600D01*
X144138952Y-71523980D01*
X144163142Y-71572361D01*
X144187333Y-71669123D01*
X144187333Y-71741695D01*
X144163142Y-71838457D01*
X144138952Y-71886838D01*
X144090571Y-71935219D01*
X144018000Y-71959409D01*
X143897047Y-71959409D01*
X144380857Y-71499790D02*
X144405047Y-71475600D01*
X144453428Y-71451409D01*
X144574380Y-71451409D01*
X144622761Y-71475600D01*
X144646952Y-71499790D01*
X144671142Y-71548171D01*
X144671142Y-71596552D01*
X144646952Y-71669123D01*
X144356666Y-71959409D01*
X144671142Y-71959409D01*
%TO.C,RADIO_COAX*%
X146292509Y-96324661D02*
X146050604Y-96493995D01*
X146292509Y-96614947D02*
X145784509Y-96614947D01*
X145784509Y-96421423D01*
X145808700Y-96373042D01*
X145832890Y-96348852D01*
X145881271Y-96324661D01*
X145953842Y-96324661D01*
X146002223Y-96348852D01*
X146026414Y-96373042D01*
X146050604Y-96421423D01*
X146050604Y-96614947D01*
X146147366Y-96131138D02*
X146147366Y-95889233D01*
X146292509Y-96179519D02*
X145784509Y-96010185D01*
X146292509Y-95840852D01*
X146292509Y-95671519D02*
X145784509Y-95671519D01*
X145784509Y-95550566D01*
X145808700Y-95477995D01*
X145857080Y-95429614D01*
X145905461Y-95405423D01*
X146002223Y-95381233D01*
X146074795Y-95381233D01*
X146171557Y-95405423D01*
X146219938Y-95429614D01*
X146268319Y-95477995D01*
X146292509Y-95550566D01*
X146292509Y-95671519D01*
X146292509Y-95163519D02*
X145784509Y-95163519D01*
X145784509Y-94824852D02*
X145784509Y-94728090D01*
X145808700Y-94679709D01*
X145857080Y-94631328D01*
X145953842Y-94607138D01*
X146123176Y-94607138D01*
X146219938Y-94631328D01*
X146268319Y-94679709D01*
X146292509Y-94728090D01*
X146292509Y-94824852D01*
X146268319Y-94873233D01*
X146219938Y-94921614D01*
X146123176Y-94945804D01*
X145953842Y-94945804D01*
X145857080Y-94921614D01*
X145808700Y-94873233D01*
X145784509Y-94824852D01*
X146340890Y-94510376D02*
X146340890Y-94123328D01*
X146244128Y-93712090D02*
X146268319Y-93736280D01*
X146292509Y-93808852D01*
X146292509Y-93857233D01*
X146268319Y-93929804D01*
X146219938Y-93978185D01*
X146171557Y-94002376D01*
X146074795Y-94026566D01*
X146002223Y-94026566D01*
X145905461Y-94002376D01*
X145857080Y-93978185D01*
X145808700Y-93929804D01*
X145784509Y-93857233D01*
X145784509Y-93808852D01*
X145808700Y-93736280D01*
X145832890Y-93712090D01*
X145784509Y-93397614D02*
X145784509Y-93300852D01*
X145808700Y-93252471D01*
X145857080Y-93204090D01*
X145953842Y-93179900D01*
X146123176Y-93179900D01*
X146219938Y-93204090D01*
X146268319Y-93252471D01*
X146292509Y-93300852D01*
X146292509Y-93397614D01*
X146268319Y-93445995D01*
X146219938Y-93494376D01*
X146123176Y-93518566D01*
X145953842Y-93518566D01*
X145857080Y-93494376D01*
X145808700Y-93445995D01*
X145784509Y-93397614D01*
X146147366Y-92986376D02*
X146147366Y-92744471D01*
X146292509Y-93034757D02*
X145784509Y-92865423D01*
X146292509Y-92696090D01*
X145784509Y-92575138D02*
X146292509Y-92236471D01*
X145784509Y-92236471D02*
X146292509Y-92575138D01*
%TO.C,R1*%
X111132533Y-52553809D02*
X110963200Y-52311904D01*
X110842247Y-52553809D02*
X110842247Y-52045809D01*
X111035771Y-52045809D01*
X111084152Y-52070000D01*
X111108342Y-52094190D01*
X111132533Y-52142571D01*
X111132533Y-52215142D01*
X111108342Y-52263523D01*
X111084152Y-52287714D01*
X111035771Y-52311904D01*
X110842247Y-52311904D01*
X111616342Y-52553809D02*
X111326057Y-52553809D01*
X111471200Y-52553809D02*
X111471200Y-52045809D01*
X111422819Y-52118380D01*
X111374438Y-52166761D01*
X111326057Y-52190952D01*
%TO.C,R2*%
D11*
X139972266Y-71904990D02*
X139805600Y-71666895D01*
X139686552Y-71904990D02*
X139686552Y-71404990D01*
X139877028Y-71404990D01*
X139924647Y-71428800D01*
X139948457Y-71452609D01*
X139972266Y-71500228D01*
X139972266Y-71571657D01*
X139948457Y-71619276D01*
X139924647Y-71643085D01*
X139877028Y-71666895D01*
X139686552Y-71666895D01*
X140162742Y-71452609D02*
X140186552Y-71428800D01*
X140234171Y-71404990D01*
X140353219Y-71404990D01*
X140400838Y-71428800D01*
X140424647Y-71452609D01*
X140448457Y-71500228D01*
X140448457Y-71547847D01*
X140424647Y-71619276D01*
X140138933Y-71904990D01*
X140448457Y-71904990D01*
%TO.C,R3*%
X105618766Y-89202390D02*
X105452100Y-88964295D01*
X105333052Y-89202390D02*
X105333052Y-88702390D01*
X105523528Y-88702390D01*
X105571147Y-88726200D01*
X105594957Y-88750009D01*
X105618766Y-88797628D01*
X105618766Y-88869057D01*
X105594957Y-88916676D01*
X105571147Y-88940485D01*
X105523528Y-88964295D01*
X105333052Y-88964295D01*
X105785433Y-88702390D02*
X106094957Y-88702390D01*
X105928290Y-88892866D01*
X105999719Y-88892866D01*
X106047338Y-88916676D01*
X106071147Y-88940485D01*
X106094957Y-88988104D01*
X106094957Y-89107152D01*
X106071147Y-89154771D01*
X106047338Y-89178580D01*
X105999719Y-89202390D01*
X105856861Y-89202390D01*
X105809242Y-89178580D01*
X105785433Y-89154771D01*
%TO.C,R4*%
D10*
X138580833Y-102712780D02*
X138247500Y-102236590D01*
X138009404Y-102712780D02*
X138009404Y-101712780D01*
X138390357Y-101712780D01*
X138485595Y-101760400D01*
X138533214Y-101808019D01*
X138580833Y-101903257D01*
X138580833Y-102046114D01*
X138533214Y-102141352D01*
X138485595Y-102188971D01*
X138390357Y-102236590D01*
X138009404Y-102236590D01*
X139437976Y-102046114D02*
X139437976Y-102712780D01*
X139199880Y-101665161D02*
X138961785Y-102379447D01*
X139580833Y-102379447D01*
%TO.C,R5*%
D11*
X133241266Y-94002990D02*
X133074600Y-93764895D01*
X132955552Y-94002990D02*
X132955552Y-93502990D01*
X133146028Y-93502990D01*
X133193647Y-93526800D01*
X133217457Y-93550609D01*
X133241266Y-93598228D01*
X133241266Y-93669657D01*
X133217457Y-93717276D01*
X133193647Y-93741085D01*
X133146028Y-93764895D01*
X132955552Y-93764895D01*
X133693647Y-93502990D02*
X133455552Y-93502990D01*
X133431742Y-93741085D01*
X133455552Y-93717276D01*
X133503171Y-93693466D01*
X133622219Y-93693466D01*
X133669838Y-93717276D01*
X133693647Y-93741085D01*
X133717457Y-93788704D01*
X133717457Y-93907752D01*
X133693647Y-93955371D01*
X133669838Y-93979180D01*
X133622219Y-94002990D01*
X133503171Y-94002990D01*
X133455552Y-93979180D01*
X133431742Y-93955371D01*
%TO.C,R10*%
X101634171Y-91348690D02*
X101467504Y-91110595D01*
X101348457Y-91348690D02*
X101348457Y-90848690D01*
X101538933Y-90848690D01*
X101586552Y-90872500D01*
X101610361Y-90896309D01*
X101634171Y-90943928D01*
X101634171Y-91015357D01*
X101610361Y-91062976D01*
X101586552Y-91086785D01*
X101538933Y-91110595D01*
X101348457Y-91110595D01*
X102110361Y-91348690D02*
X101824647Y-91348690D01*
X101967504Y-91348690D02*
X101967504Y-90848690D01*
X101919885Y-90920119D01*
X101872266Y-90967738D01*
X101824647Y-90991547D01*
X102419885Y-90848690D02*
X102467504Y-90848690D01*
X102515123Y-90872500D01*
X102538933Y-90896309D01*
X102562742Y-90943928D01*
X102586552Y-91039166D01*
X102586552Y-91158214D01*
X102562742Y-91253452D01*
X102538933Y-91301071D01*
X102515123Y-91324880D01*
X102467504Y-91348690D01*
X102419885Y-91348690D01*
X102372266Y-91324880D01*
X102348457Y-91301071D01*
X102324647Y-91253452D01*
X102300838Y-91158214D01*
X102300838Y-91039166D01*
X102324647Y-90943928D01*
X102348457Y-90896309D01*
X102372266Y-90872500D01*
X102419885Y-90848690D01*
%TO.C,R11*%
D18*
X130349657Y-93868852D02*
X130216323Y-93678376D01*
X130121085Y-93868852D02*
X130121085Y-93468852D01*
X130273466Y-93468852D01*
X130311561Y-93487900D01*
X130330609Y-93506947D01*
X130349657Y-93545042D01*
X130349657Y-93602185D01*
X130330609Y-93640280D01*
X130311561Y-93659328D01*
X130273466Y-93678376D01*
X130121085Y-93678376D01*
X130730609Y-93868852D02*
X130502038Y-93868852D01*
X130616323Y-93868852D02*
X130616323Y-93468852D01*
X130578228Y-93525995D01*
X130540133Y-93564090D01*
X130502038Y-93583138D01*
X131111561Y-93868852D02*
X130882990Y-93868852D01*
X130997276Y-93868852D02*
X130997276Y-93468852D01*
X130959180Y-93525995D01*
X130921085Y-93564090D01*
X130882990Y-93583138D01*
%TO.C,S1*%
D10*
X113880995Y-104709861D02*
X114023852Y-104757480D01*
X114261947Y-104757480D01*
X114357185Y-104709861D01*
X114404804Y-104662242D01*
X114452423Y-104567004D01*
X114452423Y-104471766D01*
X114404804Y-104376528D01*
X114357185Y-104328909D01*
X114261947Y-104281290D01*
X114071471Y-104233671D01*
X113976233Y-104186052D01*
X113928614Y-104138433D01*
X113880995Y-104043195D01*
X113880995Y-103947957D01*
X113928614Y-103852719D01*
X113976233Y-103805100D01*
X114071471Y-103757480D01*
X114309566Y-103757480D01*
X114452423Y-103805100D01*
X115404804Y-104757480D02*
X114833376Y-104757480D01*
X115119090Y-104757480D02*
X115119090Y-103757480D01*
X115023852Y-103900338D01*
X114928614Y-103995576D01*
X114833376Y-104043195D01*
%TO.C,SESS*%
X102068523Y-98740861D02*
X102211380Y-98788480D01*
X102449476Y-98788480D01*
X102544714Y-98740861D01*
X102592333Y-98693242D01*
X102639952Y-98598004D01*
X102639952Y-98502766D01*
X102592333Y-98407528D01*
X102544714Y-98359909D01*
X102449476Y-98312290D01*
X102259000Y-98264671D01*
X102163761Y-98217052D01*
X102116142Y-98169433D01*
X102068523Y-98074195D01*
X102068523Y-97978957D01*
X102116142Y-97883719D01*
X102163761Y-97836100D01*
X102259000Y-97788480D01*
X102497095Y-97788480D01*
X102639952Y-97836100D01*
X103068523Y-98264671D02*
X103401857Y-98264671D01*
X103544714Y-98788480D02*
X103068523Y-98788480D01*
X103068523Y-97788480D01*
X103544714Y-97788480D01*
X103925666Y-98740861D02*
X104068523Y-98788480D01*
X104306619Y-98788480D01*
X104401857Y-98740861D01*
X104449476Y-98693242D01*
X104497095Y-98598004D01*
X104497095Y-98502766D01*
X104449476Y-98407528D01*
X104401857Y-98359909D01*
X104306619Y-98312290D01*
X104116142Y-98264671D01*
X104020904Y-98217052D01*
X103973285Y-98169433D01*
X103925666Y-98074195D01*
X103925666Y-97978957D01*
X103973285Y-97883719D01*
X104020904Y-97836100D01*
X104116142Y-97788480D01*
X104354238Y-97788480D01*
X104497095Y-97836100D01*
X104878047Y-98740861D02*
X105020904Y-98788480D01*
X105259000Y-98788480D01*
X105354238Y-98740861D01*
X105401857Y-98693242D01*
X105449476Y-98598004D01*
X105449476Y-98502766D01*
X105401857Y-98407528D01*
X105354238Y-98359909D01*
X105259000Y-98312290D01*
X105068523Y-98264671D01*
X104973285Y-98217052D01*
X104925666Y-98169433D01*
X104878047Y-98074195D01*
X104878047Y-97978957D01*
X104925666Y-97883719D01*
X104973285Y-97836100D01*
X105068523Y-97788480D01*
X105306619Y-97788480D01*
X105449476Y-97836100D01*
%TO.C,RADIO PUSH*%
X142886585Y-98623380D02*
X142553252Y-98147190D01*
X142315157Y-98623380D02*
X142315157Y-97623380D01*
X142696109Y-97623380D01*
X142791347Y-97671000D01*
X142838966Y-97718619D01*
X142886585Y-97813857D01*
X142886585Y-97956714D01*
X142838966Y-98051952D01*
X142791347Y-98099571D01*
X142696109Y-98147190D01*
X142315157Y-98147190D01*
X143267538Y-98337666D02*
X143743728Y-98337666D01*
X143172300Y-98623380D02*
X143505633Y-97623380D01*
X143838966Y-98623380D01*
X144172300Y-98623380D02*
X144172300Y-97623380D01*
X144410395Y-97623380D01*
X144553252Y-97671000D01*
X144648490Y-97766238D01*
X144696109Y-97861476D01*
X144743728Y-98051952D01*
X144743728Y-98194809D01*
X144696109Y-98385285D01*
X144648490Y-98480523D01*
X144553252Y-98575761D01*
X144410395Y-98623380D01*
X144172300Y-98623380D01*
X145172300Y-98623380D02*
X145172300Y-97623380D01*
X145838966Y-97623380D02*
X146029442Y-97623380D01*
X146124680Y-97671000D01*
X146219919Y-97766238D01*
X146267538Y-97956714D01*
X146267538Y-98290047D01*
X146219919Y-98480523D01*
X146124680Y-98575761D01*
X146029442Y-98623380D01*
X145838966Y-98623380D01*
X145743728Y-98575761D01*
X145648490Y-98480523D01*
X145600871Y-98290047D01*
X145600871Y-97956714D01*
X145648490Y-97766238D01*
X145743728Y-97671000D01*
X145838966Y-97623380D01*
X147458014Y-98623380D02*
X147458014Y-97623380D01*
X147838966Y-97623380D01*
X147934204Y-97671000D01*
X147981823Y-97718619D01*
X148029442Y-97813857D01*
X148029442Y-97956714D01*
X147981823Y-98051952D01*
X147934204Y-98099571D01*
X147838966Y-98147190D01*
X147458014Y-98147190D01*
X148458014Y-97623380D02*
X148458014Y-98432904D01*
X148505633Y-98528142D01*
X148553252Y-98575761D01*
X148648490Y-98623380D01*
X148838966Y-98623380D01*
X148934204Y-98575761D01*
X148981823Y-98528142D01*
X149029442Y-98432904D01*
X149029442Y-97623380D01*
X149458014Y-98575761D02*
X149600871Y-98623380D01*
X149838966Y-98623380D01*
X149934204Y-98575761D01*
X149981823Y-98528142D01*
X150029442Y-98432904D01*
X150029442Y-98337666D01*
X149981823Y-98242428D01*
X149934204Y-98194809D01*
X149838966Y-98147190D01*
X149648490Y-98099571D01*
X149553252Y-98051952D01*
X149505633Y-98004333D01*
X149458014Y-97909095D01*
X149458014Y-97813857D01*
X149505633Y-97718619D01*
X149553252Y-97671000D01*
X149648490Y-97623380D01*
X149886585Y-97623380D01*
X150029442Y-97671000D01*
X150458014Y-98623380D02*
X150458014Y-97623380D01*
X150458014Y-98099571D02*
X151029442Y-98099571D01*
X151029442Y-98623380D02*
X151029442Y-97623380D01*
%TO.C,SW3*%
D19*
X126896442Y-98719662D02*
X126986534Y-98749692D01*
X127136687Y-98749692D01*
X127196748Y-98719662D01*
X127226779Y-98689631D01*
X127256810Y-98629570D01*
X127256810Y-98569509D01*
X127226779Y-98509447D01*
X127196748Y-98479417D01*
X127136687Y-98449386D01*
X127016565Y-98419356D01*
X126956503Y-98389325D01*
X126926473Y-98359294D01*
X126896442Y-98299233D01*
X126896442Y-98239172D01*
X126926473Y-98179111D01*
X126956503Y-98149080D01*
X127016565Y-98119049D01*
X127166718Y-98119049D01*
X127256810Y-98149080D01*
X127467024Y-98119049D02*
X127617177Y-98749692D01*
X127737300Y-98299233D01*
X127857422Y-98749692D01*
X128007575Y-98119049D01*
X128187759Y-98119049D02*
X128578157Y-98119049D01*
X128367943Y-98359294D01*
X128458034Y-98359294D01*
X128518096Y-98389325D01*
X128548126Y-98419356D01*
X128578157Y-98479417D01*
X128578157Y-98629570D01*
X128548126Y-98689631D01*
X128518096Y-98719662D01*
X128458034Y-98749692D01*
X128277851Y-98749692D01*
X128217789Y-98719662D01*
X128187759Y-98689631D01*
%TO.C,MICRO*%
D10*
X110172761Y-85105500D02*
X110172761Y-84105500D01*
X110506095Y-84819786D01*
X110839428Y-84105500D01*
X110839428Y-85105500D01*
X111315619Y-85105500D02*
X111315619Y-84105500D01*
X112363238Y-85010262D02*
X112315619Y-85057881D01*
X112172761Y-85105500D01*
X112077523Y-85105500D01*
X111934666Y-85057881D01*
X111839428Y-84962643D01*
X111791809Y-84867405D01*
X111744190Y-84676929D01*
X111744190Y-84534072D01*
X111791809Y-84343596D01*
X111839428Y-84248358D01*
X111934666Y-84153120D01*
X112077523Y-84105500D01*
X112172761Y-84105500D01*
X112315619Y-84153120D01*
X112363238Y-84200739D01*
X113363238Y-85105500D02*
X113029904Y-84629310D01*
X112791809Y-85105500D02*
X112791809Y-84105500D01*
X113172761Y-84105500D01*
X113268000Y-84153120D01*
X113315619Y-84200739D01*
X113363238Y-84295977D01*
X113363238Y-84438834D01*
X113315619Y-84534072D01*
X113268000Y-84581691D01*
X113172761Y-84629310D01*
X112791809Y-84629310D01*
X113982285Y-84105500D02*
X114172761Y-84105500D01*
X114268000Y-84153120D01*
X114363238Y-84248358D01*
X114410857Y-84438834D01*
X114410857Y-84772167D01*
X114363238Y-84962643D01*
X114268000Y-85057881D01*
X114172761Y-85105500D01*
X113982285Y-85105500D01*
X113887047Y-85057881D01*
X113791809Y-84962643D01*
X113744190Y-84772167D01*
X113744190Y-84438834D01*
X113791809Y-84248358D01*
X113887047Y-84153120D01*
X113982285Y-84105500D01*
%TO.C,GPS*%
D20*
X120524445Y-64808100D02*
X120432521Y-64762138D01*
X120294635Y-64762138D01*
X120156750Y-64808100D01*
X120064826Y-64900023D01*
X120018864Y-64991947D01*
X119972902Y-65175795D01*
X119972902Y-65313680D01*
X120018864Y-65497528D01*
X120064826Y-65589452D01*
X120156750Y-65681376D01*
X120294635Y-65727338D01*
X120386559Y-65727338D01*
X120524445Y-65681376D01*
X120570407Y-65635414D01*
X120570407Y-65313680D01*
X120386559Y-65313680D01*
X120984064Y-65727338D02*
X120984064Y-64762138D01*
X121351759Y-64762138D01*
X121443683Y-64808100D01*
X121489645Y-64854061D01*
X121535607Y-64945985D01*
X121535607Y-65083871D01*
X121489645Y-65175795D01*
X121443683Y-65221757D01*
X121351759Y-65267719D01*
X120984064Y-65267719D01*
X121903302Y-65681376D02*
X122041188Y-65727338D01*
X122270997Y-65727338D01*
X122362921Y-65681376D01*
X122408883Y-65635414D01*
X122454845Y-65543490D01*
X122454845Y-65451566D01*
X122408883Y-65359642D01*
X122362921Y-65313680D01*
X122270997Y-65267719D01*
X122087150Y-65221757D01*
X121995226Y-65175795D01*
X121949264Y-65129833D01*
X121903302Y-65037909D01*
X121903302Y-64945985D01*
X121949264Y-64854061D01*
X121995226Y-64808100D01*
X122087150Y-64762138D01*
X122316959Y-64762138D01*
X122454845Y-64808100D01*
D21*
X118260590Y-51744638D02*
X118260590Y-50779438D01*
X118582323Y-51468866D01*
X118904057Y-50779438D01*
X118904057Y-51744638D01*
X119225790Y-50779438D02*
X119777333Y-50779438D01*
X119501561Y-51744638D02*
X119501561Y-50779438D01*
X120099066Y-51744638D02*
X120099066Y-50779438D01*
X120650609Y-51744638D02*
X120236952Y-51193095D01*
X120650609Y-50779438D02*
X120099066Y-51330980D01*
X120972342Y-50779438D02*
X121569847Y-50779438D01*
X121248114Y-51147133D01*
X121386000Y-51147133D01*
X121477923Y-51193095D01*
X121523885Y-51239057D01*
X121569847Y-51330980D01*
X121569847Y-51560790D01*
X121523885Y-51652714D01*
X121477923Y-51698676D01*
X121386000Y-51744638D01*
X121110228Y-51744638D01*
X121018304Y-51698676D01*
X120972342Y-51652714D01*
X121891581Y-50779438D02*
X122489085Y-50779438D01*
X122167352Y-51147133D01*
X122305238Y-51147133D01*
X122397161Y-51193095D01*
X122443123Y-51239057D01*
X122489085Y-51330980D01*
X122489085Y-51560790D01*
X122443123Y-51652714D01*
X122397161Y-51698676D01*
X122305238Y-51744638D01*
X122029466Y-51744638D01*
X121937542Y-51698676D01*
X121891581Y-51652714D01*
X122810819Y-50779438D02*
X123408323Y-50779438D01*
X123086590Y-51147133D01*
X123224476Y-51147133D01*
X123316400Y-51193095D01*
X123362361Y-51239057D01*
X123408323Y-51330980D01*
X123408323Y-51560790D01*
X123362361Y-51652714D01*
X123316400Y-51698676D01*
X123224476Y-51744638D01*
X122948704Y-51744638D01*
X122856781Y-51698676D01*
X122810819Y-51652714D01*
X123867942Y-51744638D02*
X124051790Y-51744638D01*
X124143714Y-51698676D01*
X124189676Y-51652714D01*
X124281600Y-51514828D01*
X124327561Y-51330980D01*
X124327561Y-50963285D01*
X124281600Y-50871361D01*
X124235638Y-50825400D01*
X124143714Y-50779438D01*
X123959866Y-50779438D01*
X123867942Y-50825400D01*
X123821981Y-50871361D01*
X123776019Y-50963285D01*
X123776019Y-51193095D01*
X123821981Y-51285019D01*
X123867942Y-51330980D01*
X123959866Y-51376942D01*
X124143714Y-51376942D01*
X124235638Y-51330980D01*
X124281600Y-51285019D01*
X124327561Y-51193095D01*
%TO.C,RADIO*%
D10*
X133874047Y-74455280D02*
X133540714Y-73979090D01*
X133302619Y-74455280D02*
X133302619Y-73455280D01*
X133683571Y-73455280D01*
X133778809Y-73502900D01*
X133826428Y-73550519D01*
X133874047Y-73645757D01*
X133874047Y-73788614D01*
X133826428Y-73883852D01*
X133778809Y-73931471D01*
X133683571Y-73979090D01*
X133302619Y-73979090D01*
X134255000Y-74169566D02*
X134731190Y-74169566D01*
X134159761Y-74455280D02*
X134493095Y-73455280D01*
X134826428Y-74455280D01*
X135159761Y-74455280D02*
X135159761Y-73455280D01*
X135397857Y-73455280D01*
X135540714Y-73502900D01*
X135635952Y-73598138D01*
X135683571Y-73693376D01*
X135731190Y-73883852D01*
X135731190Y-74026709D01*
X135683571Y-74217185D01*
X135635952Y-74312423D01*
X135540714Y-74407661D01*
X135397857Y-74455280D01*
X135159761Y-74455280D01*
X136159761Y-74455280D02*
X136159761Y-73455280D01*
X136826428Y-73455280D02*
X137016904Y-73455280D01*
X137112142Y-73502900D01*
X137207380Y-73598138D01*
X137255000Y-73788614D01*
X137255000Y-74121947D01*
X137207380Y-74312423D01*
X137112142Y-74407661D01*
X137016904Y-74455280D01*
X136826428Y-74455280D01*
X136731190Y-74407661D01*
X136635952Y-74312423D01*
X136588333Y-74121947D01*
X136588333Y-73788614D01*
X136635952Y-73598138D01*
X136731190Y-73502900D01*
X136826428Y-73455280D01*
%TO.C,V_REG*%
X108488433Y-97991680D02*
X108821766Y-98991680D01*
X109155100Y-97991680D01*
X109250338Y-99086919D02*
X110012242Y-99086919D01*
X110821766Y-98991680D02*
X110488433Y-98515490D01*
X110250338Y-98991680D02*
X110250338Y-97991680D01*
X110631290Y-97991680D01*
X110726528Y-98039300D01*
X110774147Y-98086919D01*
X110821766Y-98182157D01*
X110821766Y-98325014D01*
X110774147Y-98420252D01*
X110726528Y-98467871D01*
X110631290Y-98515490D01*
X110250338Y-98515490D01*
X111250338Y-98467871D02*
X111583671Y-98467871D01*
X111726528Y-98991680D02*
X111250338Y-98991680D01*
X111250338Y-97991680D01*
X111726528Y-97991680D01*
X112678909Y-98039300D02*
X112583671Y-97991680D01*
X112440814Y-97991680D01*
X112297957Y-98039300D01*
X112202719Y-98134538D01*
X112155100Y-98229776D01*
X112107480Y-98420252D01*
X112107480Y-98563109D01*
X112155100Y-98753585D01*
X112202719Y-98848823D01*
X112297957Y-98944061D01*
X112440814Y-98991680D01*
X112536052Y-98991680D01*
X112678909Y-98944061D01*
X112726528Y-98896442D01*
X112726528Y-98563109D01*
X112536052Y-98563109D01*
%TD*%
M02*
